<svg width="390" height="178" viewBox="0 0 390 178" fill="none" xmlns="http://www.w3.org/2000/svg">
<g clip-path="url(#clip0_5847_25500)">
<g filter="url(#filter0_d_5847_25500)">
<g clip-path="url(#clip1_5847_25500)">
<rect width="390" height="182" fill="#0073F0"/>
<g opacity="0.1" clip-path="url(#clip2_5847_25500)">
<path d="M149.945 83.3804C149.945 83.3804 167.338 5.31307 226.604 -28.4873L240.405 -4.09726C240.405 -4.09726 206.471 -3.71317 150.04 83.4764L149.945 83.3804Z" fill="#FEFEFE"/>
<path d="M164.316 151.365C164.316 151.365 241.92 165.097 278.123 223.575L254.87 238.747C254.87 238.747 252.791 204.274 164.316 151.365Z" fill="#FEFEFE"/>
<path d="M99.2836 90.1015C99.2836 90.1015 49.1859 28.3582 -18.7767 25.1895L-20.2891 53.2284C-20.2891 53.2284 10.2421 38.0566 99.189 90.1015H99.2836Z" fill="#FEFEFE"/>
<path d="M121.021 68.4003C121.021 68.4003 127.543 -11.3954 81.0375 -61.7119L60.7148 -42.6992C60.7148 -42.6992 92.9475 -31.9445 121.021 68.4003Z" fill="#FEFEFE"/>
<path d="M4.19143 103.737C4.19143 103.737 -32.4838 85.7809 -65 99.2242L-59.7067 112.764C-59.7067 112.764 -48.6474 98.9361 4.28595 103.737H4.19143Z" fill="#FEFEFE"/>
<path d="M76.5962 166.249C76.5962 166.249 39.2593 182.765 28.1055 216.662L41.6224 221.367C41.6224 221.367 38.5031 203.794 76.5962 166.249Z" fill="#FEFEFE"/>
<path d="M151.553 5.21667C151.553 5.21667 148.339 -36.0736 172.442 -62L182.934 -52.1095C182.934 -52.1095 166.204 -46.5402 151.647 5.21667H151.553Z" fill="#FEFEFE"/>
<path d="M51.7378 21.0604C51.7378 21.0604 33.8728 -16.1008 0.033277 -25.9912L-4.03125 -12.0678C-4.03125 -12.0678 13.0776 -15.9087 51.7378 21.0604Z" fill="#FEFEFE"/>
<path d="M202 74.2531C202 74.2531 235.84 51.3034 269.963 59.9455L266.56 74.061C266.56 74.061 253.705 61.962 202 74.2531Z" fill="#FEFEFE"/>
<path d="M266.211 155.974C266.211 155.974 306.856 153.477 331.999 178.443L322.075 188.91C322.075 188.91 316.97 171.818 266.211 155.974Z" fill="#FEFEFE"/>
<path d="M158.645 175.659C158.645 175.659 188.798 203.506 188.703 239.131H174.43C174.43 239.131 182.843 223.575 158.645 175.659Z" fill="#FEFEFE"/>
<path d="M92.7607 134.657C92.7607 134.657 16.0073 116.508 -39.7617 155.974L-24.1653 179.212C-24.1653 179.212 -8.94695 148.388 92.7607 134.657Z" fill="#FEFEFE"/>
<path d="M127.545 166.057C127.545 166.057 73.3833 224.151 78.5821 293L106.183 291.08C106.183 291.08 87.6564 262.176 127.545 166.057Z" fill="#FEFEFE"/>
<path d="M173.957 111.995C173.957 111.995 244.283 75.8897 307.708 100.664L297.972 126.974C297.972 126.974 276.043 100.664 173.957 111.995Z" fill="#FEFEFE"/>
</g>
<path d="M-17.5262 205.556C-17.9751 205.041 -18.4085 204.51 -18.7955 203.927C-21.164 200.378 -21.9844 195.818 -21.9998 191.413C-22.0308 180.252 -16.9998 169.229 -8.91925 162.595C-8.59418 162.321 -8.2536 162.064 -7.91306 161.806C0.755768 155.275 12.3813 153.869 22.1183 158.172C21.4526 157.881 28.3257 146.481 29.1461 145.435C32.5363 141.08 36.7778 137.326 41.6695 135.252C50.4312 131.532 61.7162 133.315 67.7844 141.766C83.7752 117.44 113.791 105.629 140.061 113.343C166.315 121.057 187.105 147.801 190.108 177.698C203.266 170.052 221.223 174.852 229.783 188.292C235.294 181.195 240.162 178.32 247.5 183C257 177 253.5 179 257.5 176C269.373 169.297 283 168.405 299 167C322.5 164.936 346 170 364.041 184.521C364.041 184.521 380.543 180.03 397.184 197.07C398.392 198.304 401.286 201.87 403.5 205.538H-17.5262V205.556Z" fill="#F8F8F8"/>
<path opacity="0.18" d="M-18.903 202.933C-20.8386 199.522 -21.7368 195.328 -22 191.074C-5.16769 201.97 18.091 194.666 28.2647 173.758C41.6129 183.851 59.7614 181.864 71.623 169.022C101.416 203.775 147.423 213.006 183.921 191.516C194.017 202.451 201.853 202.812 214.984 201.889C223.95 201.247 229.803 192.399 229.803 192.399C229.803 192.399 248.54 204.859 258.435 189.188C289.406 206.063 324.836 208.792 357.122 196.793C363.456 201.087 371.121 204.538 377.562 200.545C382.27 197.636 384.329 189.228 382.642 182.948C387.179 185.215 392.165 188.927 397.182 194.927C398.39 196.371 401.286 200.545 403.5 204.839H-17.6332C-18.0822 204.237 -18.5158 203.615 -18.903 202.933Z" fill="#99CCFF"/>
<path d="M-33.9767 18.0113C-28.2985 22.0091 -20.0723 21.9103 -14.4929 17.7807C-16.3051 37.7917 -2.44456 58.1211 16.8416 63.7335C21.4434 65.0734 26.3199 65.6445 31.0645 64.9196C39.4226 63.6346 46.7592 58.3957 52.2287 51.9487C57.6983 45.5017 61.5313 37.8575 65.3205 30.3013C73.338 41.438 89.0437 46.3144 101.949 41.6796C114.865 37.0448 123.882 23.2941 122.992 9.60931C127.363 9.89487 131.811 8.17054 134.843 5.00744C137.16 16.6933 147.045 26.0838 158.467 29.4665C169.889 32.8493 182.487 30.7296 193.129 25.3919C198.237 22.8328 203.256 19.2194 205.244 13.8707C210.57 16.5396 217.215 16.3748 222.41 13.4534C227.605 10.5319 231.185 4.94154 231.68 -1.00025L-40.3358 -0.418152C-42.3457 6.22655 -39.6549 14.0135 -33.9877 18.0113H-33.9767Z" fill="#F8F8F8"/>
<path opacity="0.18" d="M204.221 6.80807C210.119 3.40335 217.269 2.33799 223.936 3.61202C226.726 4.1392 228.549 4.76525 229.757 5.68782C230.811 3.61203 231.481 1.33854 231.668 -0.989854L-40.3476 -0.407723C-40.8748 1.34955 -41.0724 3.1837 -40.9736 5.00688C-30.0236 0.459925 -16.6792 1.89869 -7.11307 8.98271C10.3828 4.27101 28.988 3.68891 46.7475 7.29133C52.4257 8.44454 58.2357 10.1249 62.6289 13.9141C79.6635 3.41433 100.773 -0.275931 120.355 3.80974C131.964 -2.99971 135.106 2.48077 135.106 2.48077C160.696 -2.99973 184.782 0.558764 204.221 6.81906V6.80807Z" fill="#99CCFF"/>
</g>
<rect x="0.25" y="0.25" width="389.5" height="181.5" stroke="#0073F0" stroke-opacity="0.16" stroke-width="0.5"/>
</g>
<path d="M144.453 189.706V171.737L150.099 164.012C159.889 162.055 169.028 157.497 173.92 154.24C178.812 150.983 183.385 150.007 185.671 157.497C187.958 164.987 178.525 187.577 151.925 197.177" fill="white"/>
<path d="M144.453 189.706V171.737L150.099 164.012C159.889 162.055 169.028 157.497 173.92 154.24C178.812 150.983 183.385 150.007 185.671 157.497C187.958 164.987 178.525 187.577 151.925 197.177" stroke="black" stroke-width="2.5" stroke-linecap="round" stroke-linejoin="round"/>
<path d="M125.737 72.1151C128.515 65.5114 132.57 59.9658 135.77 58.4742C138.97 56.9827 143.453 56.5556 146.87 58.4742C150.286 60.3929 167.153 70.1073 168.43 96.8918C169.714 123.676 157.331 136.68 147.08 143.711L129.575 116.646L125.73 72.1088L125.737 72.1151Z" fill="#FFFFFD" stroke="black" stroke-width="2.5" stroke-linecap="round" stroke-linejoin="round"/>
<path d="M83.773 72.7519C80.9949 66.1481 76.9394 60.6025 73.7398 59.111C70.5402 57.6194 66.0569 57.1923 62.6401 59.111C59.2233 61.0296 42.3566 70.744 41.0793 97.5286C39.802 124.313 54.2227 139.019 64.473 146.049L79.9347 117.282L83.7794 72.7455L83.773 72.7519Z" fill="#FFFFFD" stroke="black" stroke-width="2.5" stroke-linecap="round" stroke-linejoin="round"/>
<path d="M72.5809 120.572C71.7762 121.337 71.4313 123.134 70.6649 124.129C69.988 124.715 68.9917 125.467 68.9917 125.467C68.9917 125.467 44.2441 159.321 61.5514 216.122C62.0623 217.805 89.6328 238.961 101.805 239.235C115.849 239.547 141.632 228.615 148.676 212.074C157.732 190.803 154.373 148.414 142.219 126.105C141.638 125.588 140.124 124.415 140.124 124.415C140.124 124.415 140.731 123.019 140.488 122.637L113.608 113.783L72.5873 120.578L72.5809 120.572Z" fill="white"/>
<path d="M104.235 147.802C138.103 148.357 140.702 185.48 138.856 203.086C136.723 223.407 126.645 239.611 104.267 239.241C81.8823 238.871 72.903 221.438 70.5783 200.893C68.2536 180.349 74.4868 147.311 104.235 147.802Z" fill="#0D529D"/>
<path d="M61.8577 140.874C56.9657 163.49 48.8867 192.142 61.5639 215.261C61.9663 215.994 62.1196 217.99 62.1515 218.786" stroke="black" stroke-width="2.5" stroke-linecap="round" stroke-linejoin="round"/>
<path d="M147.653 140.874C152.545 163.49 160.624 192.142 147.947 215.261C147.545 215.994 147.391 217.99 147.359 218.786" stroke="black" stroke-width="2.5" stroke-linecap="round" stroke-linejoin="round"/>
<path d="M94.2695 70.9167C94.2695 65.2628 98.3377 59.5068 106.04 59.4112C113.736 59.3156 117.81 65.862 117.81 71.1653L104.954 73.084L94.2695 70.9167Z" fill="#0D529D" stroke="black" stroke-width="2.5" stroke-linecap="round" stroke-linejoin="round"/>
<path d="M69.5615 123.877C65.5188 113.334 62.7918 91.4128 78.8027 75.6174C92.4123 62.1932 121.005 61.7343 134.761 79.2698C150.797 99.712 139.647 124.457 139.647 124.457L106.36 128.696L69.5615 123.877Z" fill="white"/>
<path d="M80.8832 82.9262C83.1696 83.0027 85.1047 83.876 86.6885 85.527C88.2341 87.197 88.9685 89.1858 88.8855 91.4869C88.8025 93.788 87.9339 95.7066 86.2798 97.2555C84.5874 98.8172 82.5948 99.5567 80.3084 99.4802C78.0221 99.4037 76.0806 98.5241 74.535 96.8476C72.9704 95.1903 72.2295 93.2143 72.3062 90.9132C72.3892 88.6121 73.2641 86.6807 74.9438 85.119C76.6043 83.5764 78.5841 82.8434 80.8896 82.9262H80.8832Z" fill="#385DA4"/>
<path d="M130.688 82.9262C132.974 83.0027 134.909 83.876 136.493 85.527C138.039 87.197 138.773 89.1858 138.69 91.4869C138.607 93.788 137.739 95.7066 136.084 97.2555C134.392 98.8172 132.399 99.5567 130.113 99.4802C127.827 99.4037 125.885 98.5241 124.34 96.8476C122.775 95.1903 122.034 93.2143 122.111 90.9132C122.194 88.6121 123.069 86.6807 124.748 85.119C126.409 83.5764 128.389 82.8434 130.694 82.9262H130.688Z" fill="#385DA4"/>
<path d="M70.9137 123.619C65.747 113.777 61.2509 91.2059 79.1139 75.3595C93.4196 62.6747 121.348 61.4509 135.072 79.0119C152.68 101.545 140.079 123.938 140.079 123.938" stroke="black" stroke-width="2.5" stroke-linecap="round" stroke-linejoin="round"/>
<path d="M87.2695 92.7236C97.9158 95.1395 109.903 95.267 123.232 93.1061" stroke="black" stroke-width="2.5" stroke-linecap="round" stroke-linejoin="round"/>
<path d="M97.1271 86.4568C96.9802 84.6721 95.7029 83.1996 93.2569 83.4546C91.1238 83.6777 89.8656 84.8696 90.0253 86.9986" stroke="black" stroke-width="2.5" stroke-linecap="round" stroke-linejoin="round"/>
<path d="M115.051 86.4568C115.198 84.6721 116.475 83.1996 118.921 83.4546C121.054 83.6777 122.312 84.8696 122.153 86.9986" stroke="black" stroke-width="2.5" stroke-linecap="round" stroke-linejoin="round"/>
<path d="M120.23 93.565C120.479 96.6055 119.042 98.2564 116.935 98.301C113.601 98.3775 113.441 94.4764 113.441 94.4764C112.835 97.2492 111.411 98.8364 109.15 98.9384C106.889 99.0404 105.254 97.4851 104.922 94.6294C110.363 94.7888 115.523 94.5211 120.23 93.5586V93.565Z" stroke="black" stroke-width="2.5" stroke-linecap="round" stroke-linejoin="round"/>
<path d="M105.696 50.2895C98.0321 50.2895 86.9005 37.9426 87.6924 29.178C88.2799 22.6507 95.8479 19.9098 100.427 22.5168C104.744 24.9773 105.664 28.7445 105.664 28.7445C105.664 28.7445 106.188 23.0268 112.287 21.3122C117.358 19.8907 121.937 23.5304 122.703 28.0433C124.229 37.0246 114.209 50.2831 105.696 50.2831V50.2895Z" fill="#F5B0C7" stroke="#EA6792" stroke-width="2.5" stroke-linecap="round" stroke-linejoin="round"/>
</g>
<defs>
<filter id="filter0_d_5847_25500" x="-12" y="-12" width="414" height="206" filterUnits="userSpaceOnUse" color-interpolation-filters="sRGB">
<feFlood flood-opacity="0" result="BackgroundImageFix"/>
<feColorMatrix in="SourceAlpha" type="matrix" values="0 0 0 0 0 0 0 0 0 0 0 0 0 0 0 0 0 0 127 0" result="hardAlpha"/>
<feOffset/>
<feGaussianBlur stdDeviation="6"/>
<feComposite in2="hardAlpha" operator="out"/>
<feColorMatrix type="matrix" values="0 0 0 0 0 0 0 0 0 0 0 0 0 0 0 0 0 0 0.04 0"/>
<feBlend mode="normal" in2="BackgroundImageFix" result="effect1_dropShadow_5847_25500"/>
<feBlend mode="normal" in="SourceGraphic" in2="effect1_dropShadow_5847_25500" result="shape"/>
</filter>
<clipPath id="clip0_5847_25500">
<rect width="390" height="178" fill="white"/>
</clipPath>
<clipPath id="clip1_5847_25500">
<rect width="390" height="182" fill="white"/>
</clipPath>
<clipPath id="clip2_5847_25500">
<rect width="397" height="355" fill="white" transform="translate(-65 -62)"/>
</clipPath>
</defs>
</svg>
