<svg width="390" height="182" viewBox="0 0 390 182" fill="none" xmlns="http://www.w3.org/2000/svg">
<g clip-path="url(#clip0_5872_16282)">
<rect width="390" height="182" fill="white"/>
<g filter="url(#filter0_d_5872_16282)">
<g clip-path="url(#clip1_5872_16282)">
<rect width="390" height="182" fill="#0073F0"/>
<g filter="url(#filter1_df_5872_16282)">
<path d="M216.22 31.6406L217.839 32.3506L216.22 33.0605L215.446 35.0537L214.672 33.0605L213.055 32.3506L214.673 31.6406L215.446 29.6484L216.22 31.6406Z" fill="white" fill-opacity="0.52" shape-rendering="crispEdges"/>
</g>
<g filter="url(#filter2_df_5872_16282)">
<path d="M206.759 4.61426L208.378 5.32422L206.759 6.03418L205.985 8.02734L205.211 6.03418L203.594 5.32422L205.212 4.61426L205.985 2.62207L206.759 4.61426Z" fill="white" fill-opacity="0.52" shape-rendering="crispEdges"/>
</g>
<g filter="url(#filter3_df_5872_16282)">
<path d="M184.165 15.9922L185.784 16.7021L184.165 17.4121L183.392 19.4053L182.617 17.4111L181 16.7021L182.618 15.9922L183.392 14L184.165 15.9922Z" fill="white" fill-opacity="0.52" shape-rendering="crispEdges"/>
</g>
<g filter="url(#filter4_df_5872_16282)">
<path d="M209.165 70.9922L210.784 71.7021L209.165 72.4121L208.392 74.4053L207.617 72.4111L206 71.7021L207.618 70.9922L208.392 69L209.165 70.9922Z" fill="white" fill-opacity="0.52" shape-rendering="crispEdges"/>
</g>
<g filter="url(#filter5_df_5872_16282)">
<path d="M200.165 43.9922L201.784 44.7021L200.165 45.4121L199.392 47.4053L198.617 45.4121L197 44.7021L198.618 43.9922L199.392 42L200.165 43.9922Z" fill="white" fill-opacity="0.52" shape-rendering="crispEdges"/>
</g>
<g filter="url(#filter6_df_5872_16282)">
<path d="M218.923 12.7217L220.542 13.4316L218.923 14.1416L218.149 16.1348L217.375 14.1416L215.758 13.4316L217.376 12.7217L218.149 10.7295L218.923 12.7217Z" fill="white" fill-opacity="0.52" shape-rendering="crispEdges"/>
</g>
<path d="M245.95 -7.54785L247.569 -6.83789L245.95 -6.12793L245.177 -4.13477L244.402 -6.12793L242.785 -6.83789L244.403 -7.54785L245.177 -9.54004L245.95 -7.54785Z" fill="white" fill-opacity="0.52"/>
<g filter="url(#filter8_df_5872_16282)">
<path d="M255.411 22.1816L257.03 22.8916L255.411 23.6016L254.638 25.5947L253.863 23.6016L252.246 22.8916L253.864 22.1816L254.638 20.1895L255.411 22.1816Z" fill="white" fill-opacity="0.52" shape-rendering="crispEdges"/>
</g>
<g filter="url(#filter9_df_5872_16282)">
<path d="M225.681 53.2627L227.3 53.9727L225.681 54.6826L224.907 56.6758L224.133 54.6826L222.516 53.9727L224.134 53.2627L224.907 51.2705L225.681 53.2627Z" fill="white" fill-opacity="0.52" shape-rendering="crispEdges"/>
</g>
<g filter="url(#filter10_df_5872_16282)">
<path d="M306.759 5.96582L308.378 6.67578L306.759 7.38574L305.985 9.37891L305.211 7.38574L303.594 6.67578L305.212 5.96582L305.985 3.97363L306.759 5.96582Z" fill="white" fill-opacity="0.52" shape-rendering="crispEdges"/>
</g>
<g filter="url(#filter11_df_5872_16282)">
<path d="M333.786 55.9658L335.405 56.6758L333.786 57.3857L333.013 59.3789L332.238 57.3857L330.621 56.6758L332.239 55.9658L333.013 53.9736L333.786 55.9658Z" fill="white" fill-opacity="0.52" shape-rendering="crispEdges"/>
</g>
<g filter="url(#filter12_df_5872_16282)">
<path d="M356.759 18.1279L358.378 18.8379L356.759 19.5479L355.985 21.541L355.211 19.5479L353.594 18.8379L355.212 18.1279L355.985 16.1357L356.759 18.1279Z" fill="white" fill-opacity="0.52" shape-rendering="crispEdges"/>
</g>
<g filter="url(#filter13_df_5872_16282)">
<path d="M324.329 30.29L325.948 31L324.329 31.71L323.556 33.7031L322.781 31.71L321.164 31L322.782 30.29L323.556 28.2979L324.329 30.29Z" fill="white" fill-opacity="0.52" shape-rendering="crispEdges"/>
</g>
<g filter="url(#filter14_df_5872_16282)">
<path d="M382.435 65.4248L384.054 66.1348L382.435 66.8447L381.661 68.8379L380.887 66.8447L379.27 66.1348L380.888 65.4248L381.661 63.4326L382.435 65.4248Z" fill="white" fill-opacity="0.52" shape-rendering="crispEdges"/>
</g>
<g filter="url(#filter15_df_5872_16282)">
<path d="M291.896 27.5869L293.515 28.2969L291.896 29.0068L291.122 31L290.348 29.0068L288.73 28.2969L290.349 27.5869L291.122 25.5947L291.896 27.5869Z" fill="white" fill-opacity="0.52" shape-rendering="crispEdges"/>
</g>
<g filter="url(#filter16_df_5872_16282)">
<path d="M382.435 35.6953L384.054 36.4053L382.435 37.1152L381.661 39.1084L380.887 37.1152L379.27 36.4053L380.888 35.6953L381.661 33.7031L382.435 35.6953Z" fill="white" fill-opacity="0.52" shape-rendering="crispEdges"/>
</g>
<g filter="url(#filter17_d_5872_16282)">
<path d="M367.592 0.354259C367.592 0.354259 368.484 -2.72363 367.592 -2.72363C366.7 -2.72363 367.592 0.354259 367.592 0.354259Z" fill="white" fill-opacity="0.6"/>
<path d="M366.465 0.588098C366.465 0.588098 366.16 -2.61188 365.336 -2.2555C364.511 -1.89913 366.465 0.588098 366.465 0.588098Z" fill="white" fill-opacity="0.6"/>
<path d="M365.506 1.25616C365.506 1.25616 364.05 -1.57881 363.419 -0.920319C362.788 -0.261827 365.506 1.25616 365.506 1.25616Z" fill="white" fill-opacity="0.6"/>
<path d="M364.865 2.25487C364.865 2.25487 362.481 0.216501 362.14 1.07723C361.798 1.93672 364.865 2.25487 364.865 2.25487Z" fill="white" fill-opacity="0.6"/>
<path d="M364.642 3.43234C364.642 3.43234 361.691 2.50132 361.691 3.43234C361.691 4.36335 364.642 3.43234 364.642 3.43234Z" fill="white" fill-opacity="0.6"/>
<path d="M364.865 4.60938C364.865 4.60938 361.798 4.92752 362.14 5.78701C362.481 6.64774 364.865 4.60938 364.865 4.60938Z" fill="white" fill-opacity="0.6"/>
<path d="M365.506 5.6084C365.506 5.6084 362.788 7.12638 363.419 7.78487C364.05 8.44337 365.506 5.6084 365.506 5.6084Z" fill="white" fill-opacity="0.6"/>
<path d="M366.465 6.27539C366.465 6.27539 364.511 8.76261 365.336 9.11899C366.16 9.47536 366.465 6.27539 366.465 6.27539Z" fill="white" fill-opacity="0.6"/>
<path d="M367.592 6.50977C367.592 6.50977 366.7 9.58766 367.592 9.58766C368.484 9.58766 367.592 6.50977 367.592 6.50977Z" fill="white" fill-opacity="0.6"/>
<path d="M368.719 6.27539C368.719 6.27539 369.024 9.47536 369.848 9.11899C370.673 8.76261 368.719 6.27539 368.719 6.27539Z" fill="white" fill-opacity="0.6"/>
<path d="M369.676 5.6084C369.676 5.6084 371.131 8.44337 371.762 7.78487C372.393 7.12638 369.676 5.6084 369.676 5.6084Z" fill="white" fill-opacity="0.6"/>
<path d="M370.316 4.60938C370.316 4.60938 372.7 6.64774 373.042 5.78701C373.384 4.92752 370.316 4.60938 370.316 4.60938Z" fill="white" fill-opacity="0.6"/>
<path d="M370.543 3.43234C370.543 3.43234 373.493 4.36335 373.493 3.43234C373.493 2.50132 370.543 3.43234 370.543 3.43234Z" fill="white" fill-opacity="0.6"/>
<path d="M370.316 2.25487C370.316 2.25487 373.384 1.93672 373.042 1.07723C372.7 0.216501 370.316 2.25487 370.316 2.25487Z" fill="white" fill-opacity="0.6"/>
<path d="M369.676 1.25616C369.676 1.25616 372.393 -0.261827 371.762 -0.920319C371.131 -1.57881 369.676 1.25616 369.676 1.25616Z" fill="white" fill-opacity="0.6"/>
<path d="M368.719 0.588098C368.719 0.588098 370.673 -1.89913 369.848 -2.2555C369.024 -2.61188 368.719 0.588098 368.719 0.588098Z" fill="white" fill-opacity="0.6"/>
<path d="M360.942 0.559204C360.942 0.559204 358.461 -1.72209 358.051 -0.689956C357.641 0.342175 360.942 0.559204 360.942 0.559204Z" fill="white" fill-opacity="0.6"/>
<path d="M360.394 3.43306C360.394 3.43306 357.266 2.31585 357.266 3.43306C357.266 4.55028 360.394 3.43306 360.394 3.43306Z" fill="white" fill-opacity="0.6"/>
<path d="M360.942 6.30566C360.942 6.30566 357.642 6.52269 358.051 7.55482C358.461 8.58695 360.942 6.30566 360.942 6.30566Z" fill="white" fill-opacity="0.6"/>
<path d="M362.504 8.74121C362.504 8.74121 359.535 10.2592 360.291 11.0496C361.048 11.8401 362.504 8.74121 362.504 8.74121Z" fill="white" fill-opacity="0.6"/>
<path d="M364.837 10.3691C364.837 10.3691 362.65 12.9575 363.64 13.3854C364.629 13.8133 364.837 10.3691 364.837 10.3691Z" fill="white" fill-opacity="0.6"/>
<path d="M367.593 10.9414C367.593 10.9414 366.522 14.2055 367.593 14.2055C368.664 14.2055 367.593 10.9414 367.593 10.9414Z" fill="white" fill-opacity="0.6"/>
<path d="M370.348 10.3691C370.348 10.3691 370.556 13.812 371.545 13.3854C372.534 12.9587 370.348 10.3691 370.348 10.3691Z" fill="white" fill-opacity="0.6"/>
<path d="M372.68 8.74121C372.68 8.74121 374.135 11.8388 374.892 11.0496C375.65 10.2604 372.68 8.74121 372.68 8.74121Z" fill="white" fill-opacity="0.6"/>
<path d="M374.238 6.30566C374.238 6.30566 376.719 8.58695 377.129 7.55482C377.54 6.52269 374.238 6.30566 374.238 6.30566Z" fill="white" fill-opacity="0.6"/>
<path d="M374.789 3.43306C374.789 3.43306 377.918 4.55028 377.918 3.43306C377.918 2.31585 374.789 3.43306 374.789 3.43306Z" fill="white" fill-opacity="0.6"/>
<path d="M374.238 0.559204C374.238 0.559204 377.538 0.342175 377.129 -0.689956C376.719 -1.72209 374.238 0.559204 374.238 0.559204Z" fill="white" fill-opacity="0.6"/>
<path d="M356.047 3.43209C356.047 3.43209 352.84 2.31487 352.84 3.43209C352.84 4.5493 356.047 3.43209 356.047 3.43209Z" fill="white" fill-opacity="0.6"/>
<path d="M356.927 8.04199C356.927 8.04199 353.555 8.28985 353.964 9.32198C354.374 10.3541 356.927 8.04199 356.927 8.04199Z" fill="white" fill-opacity="0.6"/>
<path d="M359.428 11.9482C359.428 11.9482 356.403 13.5242 357.161 14.3134C357.917 15.1038 359.428 11.9482 359.428 11.9482Z" fill="white" fill-opacity="0.6"/>
<path d="M363.173 14.5586C363.173 14.5586 360.956 17.2222 361.946 17.65C362.935 18.0779 363.173 14.5586 363.173 14.5586Z" fill="white" fill-opacity="0.6"/>
<path d="M367.593 15.4766C367.593 15.4766 366.522 18.822 367.593 18.822C368.664 18.822 367.593 15.4766 367.593 15.4766Z" fill="white" fill-opacity="0.6"/>
<path d="M372.008 14.5586C372.008 14.5586 372.245 18.0767 373.235 17.65C374.224 17.2222 372.008 14.5586 372.008 14.5586Z" fill="white" fill-opacity="0.6"/>
<path d="M375.754 11.9482C375.754 11.9482 377.264 15.1038 378.021 14.3134C378.779 13.5242 375.754 11.9482 375.754 11.9482Z" fill="white" fill-opacity="0.6"/>
<path d="M378.254 8.04199C378.254 8.04199 380.807 10.3541 381.217 9.32198C381.627 8.28985 378.254 8.04199 378.254 8.04199Z" fill="white" fill-opacity="0.6"/>
<path d="M379.137 3.43209C379.137 3.43209 382.343 4.5493 382.343 3.43209C382.343 2.31487 379.137 3.43209 379.137 3.43209Z" fill="white" fill-opacity="0.6"/>
</g>
<g filter="url(#filter18_d_5872_16282)">
<path d="M206.963 0.218289C206.963 0.218289 202.606 -3.50686 201.982 -1.93387C201.358 -0.363133 206.963 0.218289 206.963 0.218289Z" fill="white" fill-opacity="0.6"/>
<path d="M206.552 2.37143C206.552 2.37143 201.16 0.669987 201.16 2.37143C201.16 4.07288 206.552 2.37143 206.552 2.37143Z" fill="white" fill-opacity="0.6"/>
<path d="M206.963 4.52344C206.963 4.52344 201.358 5.10486 201.982 6.6756C202.606 8.24859 206.963 4.52344 206.963 4.52344Z" fill="white" fill-opacity="0.6"/>
<path d="M208.131 6.34863C208.131 6.34863 203.165 9.12278 204.318 10.3262C205.472 11.5296 208.131 6.34863 208.131 6.34863Z" fill="white" fill-opacity="0.6"/>
<path d="M209.88 7.56738C209.88 7.56738 206.309 12.1128 207.817 12.7641C209.322 13.4154 209.88 7.56738 209.88 7.56738Z" fill="white" fill-opacity="0.6"/>
<path d="M211.944 7.99609C211.944 7.99609 210.313 13.621 211.944 13.621C213.574 13.621 211.944 7.99609 211.944 7.99609Z" fill="white" fill-opacity="0.6"/>
<path d="M214.008 7.56738C214.008 7.56738 214.565 13.4154 216.071 12.7641C217.578 12.1128 214.008 7.56738 214.008 7.56738Z" fill="white" fill-opacity="0.6"/>
<path d="M215.754 6.34863C215.754 6.34863 218.413 11.5296 219.566 10.3262C220.72 9.12278 215.754 6.34863 215.754 6.34863Z" fill="white" fill-opacity="0.6"/>
<path d="M216.926 4.52344C216.926 4.52344 221.283 8.24859 221.907 6.6756C222.531 5.10486 216.926 4.52344 216.926 4.52344Z" fill="white" fill-opacity="0.6"/>
<path d="M217.336 2.37143C217.336 2.37143 222.728 4.07288 222.728 2.37143C222.728 0.669987 217.336 2.37143 217.336 2.37143Z" fill="white" fill-opacity="0.6"/>
<path d="M216.926 0.218289C216.926 0.218289 222.531 -0.363133 221.907 -1.93387C221.283 -3.50686 216.926 0.218289 216.926 0.218289Z" fill="white" fill-opacity="0.6"/>
<path d="M198.788 2.3713C198.788 2.3713 193.07 0.32957 193.07 2.3713C193.07 4.41304 198.788 2.3713 198.788 2.3713Z" fill="white" fill-opacity="0.6"/>
<path d="M199.789 7.62109C199.789 7.62109 193.758 8.01772 194.506 9.90396C195.255 11.7902 199.789 7.62109 199.789 7.62109Z" fill="white" fill-opacity="0.6"/>
<path d="M202.644 12.0723C202.644 12.0723 197.218 14.8464 198.6 16.2909C199.983 17.7355 202.644 12.0723 202.644 12.0723Z" fill="white" fill-opacity="0.6"/>
<path d="M206.908 15.0469C206.908 15.0469 202.912 19.7771 204.72 20.5591C206.528 21.3411 206.908 15.0469 206.908 15.0469Z" fill="white" fill-opacity="0.6"/>
<path d="M211.94 16.0928C211.94 16.0928 209.983 22.058 211.94 22.058C213.897 22.058 211.94 16.0928 211.94 16.0928Z" fill="white" fill-opacity="0.6"/>
<path d="M216.977 15.0469C216.977 15.0469 217.357 21.3388 219.165 20.5591C220.973 19.7794 216.977 15.0469 216.977 15.0469Z" fill="white" fill-opacity="0.6"/>
<path d="M221.242 12.0723C221.242 12.0723 223.901 17.7332 225.286 16.2909C226.671 14.8487 221.242 12.0723 221.242 12.0723Z" fill="white" fill-opacity="0.6"/>
<path d="M224.094 7.62109C224.094 7.62109 228.628 11.7902 229.377 9.90396C230.127 8.01772 224.094 7.62109 224.094 7.62109Z" fill="white" fill-opacity="0.6"/>
<path d="M225.094 2.3713C225.094 2.3713 230.812 4.41304 230.812 2.3713C230.812 0.32957 225.094 2.3713 225.094 2.3713Z" fill="white" fill-opacity="0.6"/>
<path d="M190.845 2.37033C190.845 2.37033 184.984 0.328594 184.984 2.37033C184.984 4.41206 190.845 2.37033 190.845 2.37033Z" fill="white" fill-opacity="0.6"/>
<path d="M192.451 10.7949C192.451 10.7949 186.288 11.2479 187.036 13.1341C187.785 15.0204 192.451 10.7949 192.451 10.7949Z" fill="white" fill-opacity="0.6"/>
<path d="M197.026 17.9336C197.026 17.9336 191.498 20.8137 192.883 22.2559C194.265 23.7005 197.026 17.9336 197.026 17.9336Z" fill="white" fill-opacity="0.6"/>
<path d="M203.867 22.7041C203.867 22.7041 199.817 27.5718 201.625 28.3538C203.433 29.1358 203.867 22.7041 203.867 22.7041Z" fill="white" fill-opacity="0.6"/>
<path d="M211.944 24.3809C211.944 24.3809 209.987 30.4948 211.944 30.4948C213.901 30.4948 211.944 24.3809 211.944 24.3809Z" fill="white" fill-opacity="0.6"/>
<path d="M220.016 22.7041C220.016 22.7041 220.45 29.1335 222.258 28.3538C224.066 27.5718 220.016 22.7041 220.016 22.7041Z" fill="white" fill-opacity="0.6"/>
<path d="M226.859 17.9336C226.859 17.9336 229.62 23.7005 231.002 22.2559C232.387 20.8137 226.859 17.9336 226.859 17.9336Z" fill="white" fill-opacity="0.6"/>
<path d="M231.434 10.7949C231.434 10.7949 236.099 15.0204 236.849 13.1341C237.599 11.2479 231.434 10.7949 231.434 10.7949Z" fill="white" fill-opacity="0.6"/>
<path d="M233.039 2.37033C233.039 2.37033 238.899 4.41206 238.899 2.37033C238.899 0.328594 233.039 2.37033 233.039 2.37033Z" fill="white" fill-opacity="0.6"/>
</g>
<g clip-path="url(#clip2_5872_16282)">
<g filter="url(#filter19_d_5872_16282)">
<path d="M204.599 98.0171C204.599 98.0171 205.543 94.7627 204.599 94.7627C203.655 94.7627 204.599 98.0171 204.599 98.0171Z" fill="white" fill-opacity="0.6"/>
<path d="M203.404 98.2645C203.404 98.2645 203.082 94.881 202.211 95.2578C201.339 95.6346 203.404 98.2645 203.404 98.2645Z" fill="white" fill-opacity="0.6"/>
<path d="M202.392 98.9706C202.392 98.9706 200.854 95.9731 200.186 96.6694C199.519 97.3656 202.392 98.9706 202.392 98.9706Z" fill="white" fill-opacity="0.6"/>
<path d="M201.715 100.026C201.715 100.026 199.194 97.8707 198.833 98.7808C198.472 99.6896 201.715 100.026 201.715 100.026Z" fill="white" fill-opacity="0.6"/>
<path d="M201.479 101.271C201.479 101.271 198.359 100.287 198.359 101.271C198.359 102.256 201.479 101.271 201.479 101.271Z" fill="white" fill-opacity="0.6"/>
<path d="M201.715 102.517C201.715 102.517 198.472 102.853 198.833 103.762C199.194 104.672 201.715 102.517 201.715 102.517Z" fill="white" fill-opacity="0.6"/>
<path d="M202.392 103.572C202.392 103.572 199.519 105.177 200.186 105.874C200.854 106.57 202.392 103.572 202.392 103.572Z" fill="white" fill-opacity="0.6"/>
<path d="M203.404 104.278C203.404 104.278 201.339 106.908 202.211 107.285C203.082 107.662 203.404 104.278 203.404 104.278Z" fill="white" fill-opacity="0.6"/>
<path d="M204.599 104.525C204.599 104.525 203.655 107.78 204.599 107.78C205.543 107.78 204.599 104.525 204.599 104.525Z" fill="white" fill-opacity="0.6"/>
<path d="M205.793 104.278C205.793 104.278 206.115 107.662 206.986 107.285C207.859 106.908 205.793 104.278 205.793 104.278Z" fill="white" fill-opacity="0.6"/>
<path d="M206.805 103.572C206.805 103.572 208.343 106.57 209.011 105.874C209.678 105.177 206.805 103.572 206.805 103.572Z" fill="white" fill-opacity="0.6"/>
<path d="M207.48 102.517C207.48 102.517 210.001 104.672 210.362 103.762C210.724 102.853 207.48 102.517 207.48 102.517Z" fill="white" fill-opacity="0.6"/>
<path d="M207.719 101.271C207.719 101.271 210.838 102.256 210.838 101.271C210.838 100.287 207.719 101.271 207.719 101.271Z" fill="white" fill-opacity="0.6"/>
<path d="M207.48 100.026C207.48 100.026 210.724 99.6896 210.362 98.7808C210.001 97.8707 207.48 100.026 207.48 100.026Z" fill="white" fill-opacity="0.6"/>
<path d="M206.805 98.9706C206.805 98.9706 209.678 97.3656 209.011 96.6694C208.343 95.9731 206.805 98.9706 206.805 98.9706Z" fill="white" fill-opacity="0.6"/>
<path d="M205.793 98.2645C205.793 98.2645 207.859 95.6346 206.986 95.2578C206.115 94.881 205.793 98.2645 205.793 98.2645Z" fill="white" fill-opacity="0.6"/>
<path d="M204.597 93.3331C204.597 93.3331 205.729 89.8818 204.597 89.8818C203.465 89.8818 204.597 93.3331 204.597 93.3331Z" fill="white" fill-opacity="0.6"/>
<path d="M201.686 93.9379C201.686 93.9379 201.466 90.2975 200.42 90.7487C199.374 91.2011 201.686 93.9379 201.686 93.9379Z" fill="white" fill-opacity="0.6"/>
<path d="M199.216 95.6589C199.216 95.6589 197.678 92.3837 196.877 93.2181C196.076 94.0526 199.216 95.6589 199.216 95.6589Z" fill="white" fill-opacity="0.6"/>
<path d="M197.567 98.2341C197.567 98.2341 194.944 95.822 194.51 96.9133C194.076 98.0046 197.567 98.2341 197.567 98.2341Z" fill="white" fill-opacity="0.6"/>
<path d="M196.988 101.272C196.988 101.272 193.68 100.091 193.68 101.272C193.68 102.453 196.988 101.272 196.988 101.272Z" fill="white" fill-opacity="0.6"/>
<path d="M197.567 104.311C197.567 104.311 194.077 104.54 194.51 105.631C194.943 106.723 197.567 104.311 197.567 104.311Z" fill="white" fill-opacity="0.6"/>
<path d="M199.216 106.885C199.216 106.885 196.077 108.49 196.877 109.326C197.676 110.161 199.216 106.885 199.216 106.885Z" fill="white" fill-opacity="0.6"/>
<path d="M201.686 108.606C201.686 108.606 199.374 111.343 200.42 111.796C201.466 112.248 201.686 108.606 201.686 108.606Z" fill="white" fill-opacity="0.6"/>
<path d="M204.597 109.211C204.597 109.211 203.465 112.662 204.597 112.662C205.729 112.662 204.597 109.211 204.597 109.211Z" fill="white" fill-opacity="0.6"/>
<path d="M207.512 108.606C207.512 108.606 207.732 112.247 208.778 111.796C209.824 111.345 207.512 108.606 207.512 108.606Z" fill="white" fill-opacity="0.6"/>
<path d="M209.977 106.885C209.977 106.885 211.515 110.16 212.316 109.326C213.117 108.491 209.977 106.885 209.977 106.885Z" fill="white" fill-opacity="0.6"/>
<path d="M211.629 104.311C211.629 104.311 214.252 106.723 214.686 105.631C215.119 104.54 211.629 104.311 211.629 104.311Z" fill="white" fill-opacity="0.6"/>
<path d="M212.207 101.272C212.207 101.272 215.515 102.453 215.515 101.272C215.515 100.091 212.207 101.272 212.207 101.272Z" fill="white" fill-opacity="0.6"/>
<path d="M211.629 98.2341C211.629 98.2341 215.118 98.0046 214.686 96.9133C214.252 95.822 211.629 98.2341 211.629 98.2341Z" fill="white" fill-opacity="0.6"/>
<path d="M209.977 95.6593C209.977 95.6593 213.116 94.0542 212.316 93.2185C211.516 92.3827 209.977 95.6593 209.977 95.6593Z" fill="white" fill-opacity="0.6"/>
<path d="M207.512 93.9381C207.512 93.9381 209.824 91.2013 208.778 90.7489C207.732 90.2964 207.512 93.9381 207.512 93.9381Z" fill="white" fill-opacity="0.6"/>
<path d="M204.597 88.5373C204.597 88.5373 205.729 85 204.597 85C203.465 85 204.597 88.5373 204.597 88.5373Z" fill="white" fill-opacity="0.6"/>
<path d="M199.926 89.5059C199.926 89.5059 199.674 85.786 198.628 86.2372C197.582 86.6909 199.926 89.5059 199.926 89.5059Z" fill="white" fill-opacity="0.6"/>
<path d="M195.967 92.2679C195.967 92.2679 194.37 88.9314 193.57 89.7672C192.769 90.6016 195.967 92.2679 195.967 92.2679Z" fill="white" fill-opacity="0.6"/>
<path d="M193.322 96.3986C193.322 96.3986 190.623 93.9539 190.189 95.0452C189.755 96.1365 193.322 96.3986 193.322 96.3986Z" fill="white" fill-opacity="0.6"/>
<path d="M192.391 101.272C192.391 101.272 189 100.091 189 101.272C189 102.453 192.391 101.272 192.391 101.272Z" fill="white" fill-opacity="0.6"/>
<path d="M193.322 106.146C193.322 106.146 189.756 106.408 190.189 107.499C190.622 108.59 193.322 106.146 193.322 106.146Z" fill="white" fill-opacity="0.6"/>
<path d="M195.967 110.276C195.967 110.276 192.769 111.943 193.57 112.777C194.37 113.613 195.967 110.276 195.967 110.276Z" fill="white" fill-opacity="0.6"/>
<path d="M199.926 113.036C199.926 113.036 197.582 115.852 198.628 116.305C199.674 116.757 199.926 113.036 199.926 113.036Z" fill="white" fill-opacity="0.6"/>
<path d="M204.597 114.007C204.597 114.007 203.465 117.544 204.597 117.544C205.729 117.544 204.597 114.007 204.597 114.007Z" fill="white" fill-opacity="0.6"/>
<path d="M209.27 113.036C209.27 113.036 209.521 116.756 210.567 116.305C211.613 115.852 209.27 113.036 209.27 113.036Z" fill="white" fill-opacity="0.6"/>
<path d="M213.227 110.276C213.227 110.276 214.824 113.613 215.624 112.777C216.425 111.943 213.227 110.276 213.227 110.276Z" fill="white" fill-opacity="0.6"/>
<path d="M215.875 106.146C215.875 106.146 218.574 108.59 219.008 107.499C219.442 106.408 215.875 106.146 215.875 106.146Z" fill="white" fill-opacity="0.6"/>
<path d="M216.805 101.272C216.805 101.272 220.195 102.453 220.195 101.272C220.195 100.091 216.805 101.272 216.805 101.272Z" fill="white" fill-opacity="0.6"/>
<path d="M215.875 96.3986C215.875 96.3986 219.441 96.1365 219.008 95.0452C218.574 93.9539 215.875 96.3986 215.875 96.3986Z" fill="white" fill-opacity="0.6"/>
<path d="M213.227 92.2679C213.227 92.2679 216.425 90.6016 215.624 89.7672C214.824 88.9314 213.227 92.2679 213.227 92.2679Z" fill="white" fill-opacity="0.6"/>
<path d="M209.27 89.5059C209.27 89.5059 211.613 86.6896 210.567 86.2372C209.521 85.786 209.27 89.5059 209.27 89.5059Z" fill="white" fill-opacity="0.6"/>
</g>
<path d="M431.093 33.4241C431.093 33.3573 431.061 33.2953 431.014 33.2475V33.1426H214.158V51.1737H214.152V194.587H214.331C214.383 194.63 214.452 194.659 214.525 194.659H234.097C234.171 194.659 234.239 194.63 234.292 194.587H234.412V51.5411H410.749V194.583H410.927C410.98 194.626 411.048 194.654 411.122 194.654H430.693C430.767 194.654 430.835 194.626 430.888 194.583H431.009V51.5411V51.3788C431.056 51.3311 431.087 51.2691 431.087 51.2023V33.4241H431.093ZM411.431 34.0539L420.566 42.3132L411.431 50.5725V34.0539ZM420.976 42.6806L430.194 51.0162H411.757L420.976 42.6806ZM421.38 42.3132L430.431 34.1255V50.5009L421.38 42.3132ZM420.976 41.9458L411.82 33.6627H430.131L420.976 41.9458ZM401.315 41.9458L392.159 33.6627H410.47L401.315 41.9458ZM410.859 34.0539V50.5772L401.724 42.318L410.859 34.0539ZM391.198 50.5772L382.063 42.318L391.198 34.0587V50.5772ZM391.776 34.0539L400.91 42.3132L391.776 50.5725V34.0539ZM381.659 41.9458L372.503 33.6627H390.814L381.659 41.9458ZM371.542 50.5772L362.407 42.318L371.542 34.0587V50.5772ZM372.12 34.0539L381.254 42.3132L372.12 50.5725V34.0539ZM362.003 41.9458L352.847 33.6627H371.158L362.003 41.9458ZM351.886 50.5772L342.751 42.318L351.886 34.0587V50.5772ZM352.464 34.0539L361.598 42.3132L352.464 50.5725V34.0539ZM342.347 41.9458L333.191 33.6627H351.502L342.347 41.9458ZM332.23 50.5772L323.095 42.318L332.23 34.0587V50.5772ZM332.802 34.0539L341.937 42.3132L332.802 50.5725V34.0539ZM322.686 41.9458L313.53 33.6627H331.841L322.686 41.9458ZM312.569 50.5772L303.434 42.318L312.569 34.0539V50.5772ZM313.146 34.0539L322.281 42.3132L313.146 50.5725V34.0539ZM303.03 41.9458L293.874 33.6627H312.185L303.03 41.9458ZM292.913 50.5772L283.778 42.318L292.913 34.0587V50.5772ZM293.491 34.0539L302.625 42.3132L293.491 50.5725V34.0539ZM283.374 41.9458L274.218 33.6627H292.535L283.374 41.9458ZM273.257 50.5772L264.122 42.318L273.257 34.0587V50.5772ZM273.829 34.0539L282.964 42.3132L273.829 50.5725V34.0539ZM263.718 41.9458L254.562 33.6627H272.873L263.718 41.9458ZM253.601 50.5772L244.466 42.318L253.601 34.0587V50.5772ZM254.173 34.0539L263.308 42.3132L254.173 50.5725V34.0539ZM244.056 41.9458L234.901 33.6627H253.212L244.056 41.9458ZM233.94 50.5772L224.805 42.318L233.94 34.0587V50.5772ZM233.619 51.021H215.182L224.401 42.6854L233.619 51.021ZM234.517 34.0539L243.652 42.3132L234.517 50.5725V34.0539ZM224.401 41.9458L215.245 33.6627H233.556L224.401 41.9458ZM223.991 42.3132L214.73 50.687V33.9394L223.991 42.3132ZM214.725 141.382L223.902 149.755L214.725 158.129V141.382ZM214.725 123.527L223.902 131.901L214.725 140.275V123.527ZM214.725 105.673L223.902 114.046L214.725 122.42V105.673ZM214.725 87.8132L223.902 96.187L214.725 104.561V87.8132ZM215.219 158.42L224.311 150.123L233.404 158.42H215.219ZM233.404 158.945L224.311 167.243L215.219 158.945H233.404ZM215.219 141.091H233.409L224.317 149.388L215.219 141.091ZM215.219 140.566L224.311 132.268L233.404 140.566H215.219ZM215.219 123.231H233.409L224.317 131.529L215.219 123.231ZM215.219 122.711L224.311 114.414L233.404 122.711H215.219ZM215.219 105.377H233.409L224.317 113.674L215.219 105.377ZM215.219 104.857L224.311 96.5592L233.404 104.857H215.219ZM215.219 87.5221H233.409L224.317 95.8196L215.219 87.5221ZM215.219 86.9973L224.311 78.6998L233.404 86.9973H215.219ZM214.725 86.7062V69.9586L223.902 78.3324L214.725 86.7062ZM214.725 159.236L223.902 167.61L214.725 175.984V159.236ZM224.311 167.982L233.404 176.28H215.213L224.311 167.982ZM233.835 175.926L224.716 167.61L233.835 159.293V175.926ZM233.835 158.072L224.716 149.755L233.835 141.439V158.072ZM233.835 140.217L224.716 131.901L233.835 123.584V140.217ZM233.835 122.363L224.716 114.046L233.835 105.73V122.363ZM233.835 104.504L224.716 96.187L233.835 87.8704V104.504ZM233.835 86.649L224.716 78.3324L233.835 70.0159V86.649ZM224.311 77.9603L215.219 69.6628H233.409L224.311 77.9603ZM215.219 69.1427L224.311 60.8453L233.404 69.1427H215.219ZM214.725 68.8517V52.1041L223.902 60.4779L214.725 68.8517ZM233.404 176.8L224.311 185.097L215.219 176.8H233.404ZM224.716 60.4779L233.835 52.1613V68.7944L224.716 60.4779ZM224.311 60.1057L215.093 51.6938H233.535L224.311 60.1057ZM214.725 177.095L223.902 185.469L214.725 193.843V177.095ZM215.292 194.063L224.311 185.837L233.33 194.063H215.292ZM224.716 185.465L233.835 177.148V193.781L224.716 185.465ZM244.056 42.6806L253.275 51.0162H234.838L244.056 42.6806ZM263.718 42.6806L272.936 51.0162H254.499L263.718 42.6806ZM283.374 42.6806L292.592 51.0162H274.155L283.374 42.6806ZM303.03 42.6806L312.248 51.0162H293.811L303.03 42.6806ZM322.686 42.6806L331.904 51.0162H313.467L322.686 42.6806ZM342.347 42.6806L351.565 51.0162H333.128L342.347 42.6806ZM362.003 42.6806L371.221 51.0162H352.784L362.003 42.6806ZM381.659 42.6806L390.877 51.0162H372.44L381.659 42.6806ZM401.315 42.6806L410.533 51.0162H392.096L401.315 42.6806ZM420.503 60.4779L411.326 68.8517V52.1041L420.503 60.4779ZM411.326 159.236L420.503 167.61L411.326 175.984V159.236ZM411.326 141.382L420.503 149.755L411.326 158.129V141.382ZM411.326 123.527L420.503 131.901L411.326 140.275V123.527ZM411.326 105.673L420.503 114.046L411.326 122.42V105.673ZM411.326 87.8132L420.503 96.187L411.326 104.561V87.8132ZM411.326 69.9586L420.503 78.3324L411.326 86.7062V69.9586ZM411.815 158.42L420.908 150.123L430 158.42H411.815ZM430.005 158.945L420.913 167.243L411.82 158.945H430.005ZM411.815 141.091H430.005L420.913 149.388L411.815 141.091ZM411.815 140.566L420.908 132.268L430 140.566H411.815ZM411.815 123.231H430.005L420.913 131.529L411.815 123.231ZM411.815 122.711L420.908 114.414L430 122.711H411.815ZM411.815 105.377H430.005L420.913 113.674L411.815 105.377ZM411.815 104.857L420.908 96.5592L430 104.857H411.815ZM411.815 87.5221H430.005L420.913 95.8196L411.815 87.5221ZM411.815 86.9973L420.908 78.6998L430 86.9973H411.815ZM420.913 167.982L430.005 176.28H411.815L420.913 167.982ZM430.436 175.926L421.317 167.61L430.436 159.293V175.926ZM430.436 158.072L421.317 149.755L430.436 141.439V158.072ZM430.436 140.217L421.317 131.901L430.436 123.584V140.217ZM430.436 122.363L421.317 114.046L430.436 105.73V122.363ZM430.436 104.504L421.317 96.187L430.436 87.8704V104.504ZM430.436 86.649L421.317 78.3324L430.436 70.0159V86.649ZM420.913 77.9603L411.82 69.6628H430.011L420.913 77.9603ZM411.815 69.1427L420.908 60.8453L430 69.1427H411.815ZM430.005 176.8L420.913 185.097L411.82 176.8H430.005ZM421.317 60.4779L430.436 52.1613V68.7992L421.317 60.4779ZM420.913 60.1057L411.689 51.6938H430.131L420.913 60.1057ZM411.326 177.095L420.503 185.469L411.326 193.843V177.095ZM411.894 194.063L420.913 185.837L429.932 194.063H411.894ZM421.317 185.465L430.436 177.148V193.786L421.317 185.465Z" fill="#765056"/>
<path d="M445.696 173.461L199.684 173.483L211.317 166.638H434.961L445.696 173.461Z" fill="#EEEEEE"/>
<path d="M233.09 131.671H211.719V167.591H233.09V131.671Z" fill="#0F4573"/>
<path d="M222.074 151.421C218.209 151.421 215.062 148.151 215.062 144.133C215.062 140.116 218.209 136.846 222.074 136.846C225.94 136.846 229.086 140.116 229.086 144.133C229.086 148.151 225.945 151.421 222.074 151.421Z" fill="#0D3B5E"/>
<path d="M222.075 137.588C225.547 137.588 228.373 140.525 228.373 144.133C228.373 147.742 225.547 150.678 222.075 150.678C218.603 150.678 215.778 147.742 215.778 144.133C215.778 140.525 218.603 137.588 222.075 137.588ZM222.075 136.098C217.805 136.098 214.344 139.695 214.344 144.133C214.344 148.571 217.805 152.169 222.075 152.169C226.345 152.169 229.807 148.571 229.807 144.133C229.807 139.695 226.345 136.098 222.075 136.098Z" fill="#9CDDCF"/>
<path d="M224.517 160.619C224.517 162.022 223.425 163.158 222.075 163.158C220.725 163.158 219.633 162.022 219.633 160.619C219.633 159.217 220.725 158.081 222.075 158.081C223.425 158.087 224.517 159.222 224.517 160.619Z" fill="#9CDDCF"/>
<path d="M233.09 95.877H211.719V131.797H233.09V95.877Z" fill="#0F4573"/>
<path d="M222.074 112.045C218.209 112.045 215.062 115.315 215.062 119.333C215.062 123.35 218.209 126.62 222.074 126.62C225.94 126.62 229.086 123.35 229.086 119.333C229.086 115.315 225.945 112.045 222.074 112.045Z" fill="#0D3B5E"/>
<path d="M222.075 125.873C218.603 125.873 215.778 122.936 215.778 119.328C215.778 115.719 218.603 112.782 222.075 112.782C225.547 112.782 228.373 115.719 228.373 119.328C228.373 122.941 225.547 125.873 222.075 125.873ZM222.075 127.363C226.345 127.363 229.807 123.766 229.807 119.328C229.807 114.889 226.345 111.292 222.075 111.292C217.805 111.292 214.344 114.889 214.344 119.328C214.349 123.766 217.81 127.363 222.075 127.363Z" fill="#9CDDCF"/>
<path d="M224.517 102.842C224.517 101.439 223.425 100.304 222.075 100.304C220.725 100.304 219.633 101.439 219.633 102.842C219.633 104.245 220.725 105.381 222.075 105.381C223.425 105.381 224.517 104.245 224.517 102.842Z" fill="#9CDDCF"/>
<path d="M407.611 56.1788V162.147H237.951V56.1788H407.611ZM412.952 51.2949H232.609V167.031H412.952V51.2949Z" fill="#0F4573"/>
<path d="M410.176 54.1875H235.383V165.101H410.176V54.1875Z" fill="#EEEEEE"/>
<path d="M227.713 33.2637H225.77V41.8833H227.713V33.2637Z" fill="#0D3B5E"/>
<path d="M234.475 33.2637H232.531V45.3115H234.475V33.2637Z" fill="#0D3B5E"/>
<path d="M244.041 55.0233C243.195 57.0212 242.218 58.9755 240.989 60.7442C240.989 61.3119 239.849 62.2836 239.508 62.6931C238.883 61.7159 238.258 60.7333 237.638 59.7562C237.234 59.1175 236.246 58.0912 236.262 57.2833C236.267 57.0649 236.356 56.8575 236.44 56.6555C236.903 55.6128 237.423 54.5975 238 53.6149C238.578 52.6377 239.277 51.808 239.597 50.7053C241.299 50.6998 243.006 50.8144 244.692 51.0437C244.781 51.0546 244.881 51.071 244.944 51.1474C245.002 51.2184 245.007 51.3167 245.002 51.4095C244.981 52.665 244.529 53.8714 244.041 55.0233Z" fill="#0F4573"/>
<path d="M234.362 59.2598C233.285 59.3253 232.235 59.2707 231.174 59.1233C230.428 59.0196 228.752 58.9814 228.29 58.3154C228.222 59.4891 228.568 60.8374 228.705 62.0166C228.878 63.4577 229.046 64.8989 229.22 66.3455C229.22 66.4001 232.166 65.9306 232.371 65.8924C233.842 65.6195 235.155 65.2701 236.536 64.6805C236.573 64.6642 236.61 64.6478 236.625 64.615C236.646 64.5714 236.631 64.5168 236.615 64.4731C236.247 63.4086 235.88 62.3441 235.512 61.2851C235.323 60.7174 235.134 59.2107 234.362 59.2598Z" fill="#0F4573"/>
<path d="M239.357 48.5111C238.68 47.6377 237.944 46.8571 237.13 46.1419C236.558 45.6343 235.413 44.3623 234.625 44.4497C235.423 43.6145 236.616 42.9758 237.556 42.2989C238.701 41.4691 239.851 40.6339 240.996 39.8041C241.033 39.7659 242.672 42.3589 242.777 42.539C243.564 43.8601 244.189 45.1047 244.688 46.5677C244.699 46.6059 244.715 46.6442 244.699 46.6824C244.683 46.7315 244.636 46.7533 244.589 46.7697C243.58 47.1955 242.577 47.6213 241.569 48.0471C241.043 48.2764 239.841 49.1334 239.357 48.5111Z" fill="#0F4573"/>
<path d="M235.206 47.2171C234.76 48.8493 233.788 50.4815 233.153 52.0264C232.459 53.7077 231.451 55.7603 230.08 56.9448C230.007 57.0049 229.928 57.0704 229.838 57.0813C229.739 57.0922 229.639 57.0431 229.55 56.994C227.69 55.9568 225.82 54.936 223.956 53.9042C222.984 53.3638 222.007 52.8234 221.041 52.272C220.405 51.9117 218.966 51.4313 218.62 50.7435C218.325 50.1594 218.651 49.0076 218.777 48.4071C218.966 47.4682 219.276 46.562 219.659 45.694C220.447 43.9308 221.571 42.3422 222.853 40.9338C223.326 40.4098 224.04 39.6619 224.802 39.6892C225.595 39.7165 226.645 40.5408 227.349 40.912C229.187 41.8837 231.01 42.899 232.775 44.0072C233.83 44.6677 235.648 45.3501 235.29 46.9059C235.259 47.0096 235.233 47.1133 235.206 47.2171Z" fill="#0D3B5E"/>
<path d="M238.747 54.6121C240.763 50.127 240.261 45.4534 237.625 44.1734C234.989 42.8934 231.218 45.4916 229.201 49.9767C227.185 54.4618 227.688 59.1353 230.324 60.4153C232.96 61.6954 236.731 59.0972 238.747 54.6121Z" fill="#0D3B5E"/>
<path d="M237.087 53.8223C235.958 56.3389 233.841 57.7964 232.365 57.0758C230.889 56.3607 230.605 53.7404 231.735 51.2239C232.864 48.7073 234.981 47.2498 236.456 47.9703C237.932 48.6909 238.216 51.3112 237.087 53.8223Z" fill="#F5E663"/>
<path d="M236.88 51.3387C235.42 53.6642 233.965 55.9897 232.505 58.3152C231.623 57.2671 230.672 56.3172 229.779 55.2691C229.301 54.7069 228.755 54.15 228.335 53.5386C227.957 52.9873 228.062 52.7089 228.235 52.0374C228.54 50.8747 229.039 49.7829 229.664 48.773C230.079 48.107 231.15 46.1418 231.927 45.9344C232.374 45.8143 233.346 46.3875 233.781 46.5512C234.417 46.786 235.047 47.0316 235.672 47.2827C236.098 47.4574 238.761 48.3254 238.467 48.8003C237.941 49.6464 237.411 50.4926 236.88 51.3387Z" fill="#0F4573"/>
<path d="M324.818 44.5732H326.762V33.2624H324.818V44.5732Z" fill="#0D3B5E"/>
<path d="M318.053 45.3066H319.996V33.2588H318.053V45.3066Z" fill="#0D3B5E"/>
<path d="M311.906 65.7449C313.781 66.7276 315.73 67.5901 317.762 68.1414C318.109 68.5781 319.585 68.5781 320.099 68.6655C319.984 67.4973 319.863 66.3291 319.748 65.1608C319.669 64.4021 319.805 62.9554 319.296 62.344C319.159 62.1803 318.965 62.0766 318.771 61.9783C317.778 61.4761 316.754 61.0394 315.709 60.6627C314.663 60.2915 313.618 60.1113 312.699 59.4727C311.381 60.5917 310.136 61.8091 308.975 63.1028C308.912 63.1738 308.844 63.2502 308.844 63.3485C308.844 63.4413 308.902 63.5177 308.959 63.5887C309.737 64.5494 310.824 65.1772 311.906 65.7449Z" fill="#0F4573"/>
<path d="M321.967 62.6168C322.839 61.9509 323.616 61.2194 324.341 60.406C324.85 59.8328 326.127 58.6973 326.074 57.873C326.846 58.7356 327.403 60.002 328.018 61.0065C328.769 62.2347 329.52 63.4575 330.271 64.6858C330.302 64.7295 327.739 66.3125 327.566 66.4217C326.263 67.186 325.039 67.781 323.611 68.2341C323.574 68.245 323.537 68.2559 323.501 68.245C323.459 68.2286 323.438 68.174 323.422 68.1304C323.054 67.0659 322.686 66.0068 322.319 64.9423C322.119 64.3746 321.347 63.0918 321.967 62.6168Z" fill="#0F4573"/>
<path d="M311.539 57.6223C311.523 56.4978 311.618 55.4169 311.807 54.3197C311.938 53.55 312.048 51.8086 312.705 51.3609C311.581 51.2409 310.268 51.5411 309.128 51.6339C307.736 51.7485 306.339 51.8632 304.947 51.9833C304.895 51.9833 305.22 55.0621 305.246 55.275C305.446 56.8144 305.724 58.1901 306.234 59.6476C306.244 59.6858 306.26 59.724 306.292 59.7459C306.334 59.7731 306.386 59.7568 306.428 59.7404C307.468 59.4074 308.503 59.0689 309.543 58.7305C310.094 58.5558 311.549 58.4248 311.539 57.6223Z" fill="#0F4573"/>
<path d="M313.951 53.8829C315.296 54.8492 317.045 55.466 318.478 56.2357C320.044 57.0764 322.076 57.9935 323.862 57.999C323.957 57.999 324.051 57.9935 324.13 57.9444C324.214 57.8843 324.261 57.7806 324.298 57.6823C325.102 55.6516 325.921 53.6318 326.725 51.6011C327.145 50.5421 327.565 49.483 327.975 48.4186C328.243 47.7198 329.067 46.3988 328.91 45.64C328.778 44.9958 327.822 44.3244 327.36 43.9368C326.641 43.3418 325.847 42.8395 325.018 42.4301C323.332 41.5894 321.493 41.1091 319.639 40.8634C318.951 40.7761 317.948 40.6669 317.376 41.1909C316.782 41.7314 316.477 43.0634 316.157 43.8221C315.332 45.7874 314.55 47.7744 313.862 49.7997C313.452 51.0061 312.465 52.7366 313.694 53.6973C313.783 53.7574 313.867 53.8229 313.951 53.8829Z" fill="#0D3B5E"/>
<path d="M315.741 61.9237C320.043 64.0527 324.544 63.5668 325.794 60.8374C327.044 58.1079 324.57 54.172 320.274 52.043C315.972 49.9141 311.471 50.3999 310.221 53.1294C308.966 55.8588 311.44 59.7947 315.741 61.9237Z" fill="#0D3B5E"/>
<path d="M316.546 60.2257C318.957 61.4212 321.478 61.1482 322.182 59.6197C322.881 58.0912 321.499 55.8804 319.088 54.6903C316.678 53.4948 314.157 53.7678 313.453 55.2963C312.749 56.8248 314.135 59.0302 316.546 60.2257Z" fill="#F5E663"/>
<path d="M315.172 58.1738C317.719 59.0035 320.267 59.8387 322.819 60.6685C322.856 59.2765 323.014 57.9172 323.061 56.5143C323.087 55.7609 323.166 54.9748 323.119 54.227C323.077 53.5501 322.819 53.4027 322.278 53.0042C321.333 52.3109 320.277 51.7923 319.18 51.4265C318.455 51.1864 316.422 50.3839 315.697 50.7333C315.282 50.9352 314.878 52.0216 314.642 52.431C314.295 53.0315 313.959 53.6374 313.628 54.2488C313.402 54.6637 311.884 57.0929 312.399 57.2676C313.323 57.5678 314.248 57.8681 315.172 58.1738Z" fill="#0F4573"/>
<path d="M325.346 5.48365V5.40723C325.325 5.41814 325.304 5.43452 325.283 5.44544C325.262 5.43452 325.241 5.41814 325.22 5.40723V5.48365C287.356 27.2975 180.125 33.1986 180.125 33.1986H324.7H325.882H470.457C470.441 33.1986 363.215 27.303 325.346 5.48365Z" fill="#82BEFF"/>
<path d="M407.161 172.206H199.48V202.598H407.161V172.206Z" fill="#929292"/>
<path d="M323.474 117.331C323.474 117.331 316.96 125.858 315.207 134.623L323.474 137.468L326.865 122.789L323.474 117.331Z" fill="white"/>
<path d="M323.474 117.331C323.474 117.331 316.96 125.858 315.207 134.623L323.474 137.468L326.865 122.789L323.474 117.331Z" stroke="black" stroke-linecap="round" stroke-linejoin="round"/>
<path d="M360.716 133.862C361.442 136.91 366.179 146.414 373.769 155.787C375.298 157.675 375.684 159.395 373.304 160.828C370.924 162.262 360.817 162.921 355.266 158.217L360.716 133.862Z" fill="white"/>
<path d="M360.716 133.862C361.442 136.91 366.179 146.414 373.769 155.787C375.298 157.675 375.685 159.395 373.304 160.828C370.924 162.262 360.817 162.921 355.266 158.217L360.716 133.862Z" stroke="black" stroke-linecap="round" stroke-linejoin="round"/>
<path d="M339.549 160.39C339.549 160.39 339.86 164.985 338.965 167.241C338.071 169.497 336.259 169.52 332.059 169.572C327.859 169.623 326.043 168.932 325.375 167.217C324.708 165.502 325.608 152.116 325.608 152.116L339.549 160.39Z" fill="white"/>
<path d="M339.549 160.39C339.549 160.39 339.86 164.985 338.965 167.241C338.071 169.497 336.259 169.52 332.059 169.572C327.859 169.623 326.043 168.932 325.375 167.217C324.708 165.502 325.608 152.116 325.608 152.116L339.549 160.39Z" stroke="black" stroke-linecap="round" stroke-linejoin="round"/>
<path d="M332.043 166.7C330.977 166.617 330.419 167.251 330.102 168.791C330.187 167.772 329.717 166.666 328.658 166.661C327.76 166.656 327.019 167.315 326.727 168.757C327.396 169.131 328.307 169.369 329.531 169.486C329.675 169.486 329.824 169.485 329.985 169.483C331.757 169.461 332.892 169.504 333.984 169.377C333.961 167.894 333.04 166.778 332.043 166.7Z" fill="white"/>
<path d="M332.043 166.7C330.977 166.617 330.419 167.251 330.102 168.791C330.187 167.772 329.717 166.666 328.658 166.661C327.76 166.656 327.019 167.315 326.727 168.757C327.396 169.131 328.307 169.369 329.531 169.486C329.675 169.486 329.824 169.485 329.985 169.483C331.757 169.461 332.892 169.504 333.984 169.377C333.961 167.894 333.04 166.778 332.043 166.7Z" stroke="black" stroke-linecap="round" stroke-linejoin="round"/>
<path d="M345.629 100.965C345.629 100.965 347.565 98.701 350.565 99.609C353.597 100.527 354.295 103.382 353.817 105.222C353.022 108.283 349.532 108.66 349.532 108.66L345.629 100.965Z" fill="#0D57A7"/>
<path d="M345.629 100.965C345.629 100.965 347.565 98.701 350.565 99.609C353.597 100.527 354.295 103.382 353.817 105.222C353.022 108.283 349.532 108.66 349.532 108.66L345.629 100.965Z" stroke="black" stroke-linecap="round" stroke-linejoin="round"/>
<path d="M350.059 108.571C350.059 108.571 351.914 106.239 354.88 107.119C357.878 108.009 358.624 110.904 358.193 112.784C357.476 115.91 354.055 116.344 354.055 116.344L350.059 108.571Z" fill="#0D57A7"/>
<path d="M350.059 108.571C350.059 108.571 351.914 106.239 354.88 107.119C357.878 108.009 358.624 110.904 358.193 112.784C357.476 115.91 354.055 116.344 354.055 116.344L350.059 108.571Z" stroke="black" stroke-linecap="round" stroke-linejoin="round"/>
<path d="M354.066 117.009C354.066 117.009 355.921 114.677 358.888 115.558C361.886 116.447 362.632 119.343 362.201 121.222C361.484 124.348 358.063 124.782 358.063 124.782L354.066 117.009Z" fill="#0D57A7"/>
<path d="M354.066 117.009C354.066 117.009 355.921 114.677 358.888 115.558C361.886 116.447 362.632 119.343 362.201 121.222C361.484 124.348 358.063 124.782 358.063 124.782L354.066 117.009Z" stroke="black" stroke-linecap="round" stroke-linejoin="round"/>
<path d="M328.223 94.4033C328.673 92.2964 329.123 90.0405 330.577 89.4832C332.031 88.926 341.069 88.8651 344.967 92.1031C346.07 93.0196 344.969 97.3662 344.969 97.3662L328.223 94.4033Z" fill="#FFF1BD"/>
<path d="M337.245 91.8534C333.464 91.2407 330.45 91.3833 328.924 91.6347C328.629 92.4757 328.426 93.454 328.223 94.4033L344.969 97.3662C344.969 97.3662 345.314 96.0032 345.425 94.6429C343.963 93.9138 341.461 92.5365 337.245 91.8534Z" fill="#F99158"/>
<path d="M328.223 94.4033C328.673 92.2964 329.123 90.0405 330.577 89.4832C332.031 88.926 341.069 88.8651 344.967 92.1031C346.07 93.0196 344.969 97.3662 344.969 97.3662L328.223 94.4033Z" stroke="black" stroke-linecap="round" stroke-linejoin="round"/>
<path d="M324.984 98.5583C323.955 97.8991 324.014 95.8303 324.984 94.865C325.955 93.8997 329.609 93.1661 335.126 93.6017C340.642 94.0376 346.515 96.934 347.135 98.383C347.756 99.8321 347.091 102.204 345.625 101.948C344.159 101.692 324.984 98.5583 324.984 98.5583Z" fill="#FFF1BD"/>
<path d="M324.984 98.5583C323.955 97.8991 324.014 95.8303 324.984 94.865C325.955 93.8997 329.609 93.1661 335.126 93.6017C340.642 94.0376 346.515 96.934 347.135 98.383C347.756 99.8321 347.091 102.204 345.625 101.948C344.159 101.692 324.984 98.5583 324.984 98.5583Z" stroke="black" stroke-linecap="round" stroke-linejoin="round"/>
<path d="M323.39 118.798C323.39 118.798 319.986 128.448 320.994 140.907C321.929 152.473 328.153 162.456 340.289 162.493C357.581 162.546 364.358 153.42 360.963 134.651C357.828 117.316 351.389 105.653 344.526 100.397C337.753 95.2101 329.798 95.6346 324.989 98.5571C316.73 103.576 318.488 113.726 323.39 118.798Z" fill="white"/>
<path d="M311.303 99.7529L310.82 93.6277C310.82 93.6277 312.479 93.3647 313.465 94.5659C314.452 95.7674 314.066 97.1402 314.066 97.1402" stroke="black" stroke-linecap="round" stroke-linejoin="round"/>
<path d="M311.629 99.7645C312.416 100.521 310.975 102.984 309.929 102.187C308.884 101.391 310.689 98.861 311.629 99.7645Z" fill="black"/>
<path d="M311.629 99.7645C312.416 100.521 310.975 102.984 309.929 102.187C308.884 101.391 310.689 98.861 311.629 99.7645Z" stroke="black" stroke-miterlimit="10"/>
<path d="M360.605 98.1045L362.478 92.2526" stroke="black" stroke-linecap="round" stroke-linejoin="round"/>
<path d="M360.903 98.2406C361.344 99.2384 359.078 100.973 358.412 99.8387C357.747 98.7065 360.375 97.0487 360.903 98.2406Z" fill="black"/>
<path d="M360.903 98.2406C361.344 99.2384 359.078 100.973 358.412 99.8387C357.747 98.7065 360.375 97.0487 360.903 98.2406Z" stroke="black" stroke-miterlimit="10"/>
<path d="M318.371 90.7743C319.316 91.319 318.511 94.0566 317.304 93.5348C316.098 93.0135 317.241 90.1237 318.371 90.7743Z" fill="black"/>
<path d="M318.371 90.7743C319.316 91.319 318.511 94.0566 317.304 93.5348C316.098 93.0135 317.241 90.1237 318.371 90.7743Z" stroke="black" stroke-miterlimit="10"/>
<path d="M322.355 89.6093C323.301 90.154 322.496 92.8916 321.288 92.3698C320.083 91.8485 321.226 88.9587 322.355 89.6093Z" fill="black"/>
<path d="M322.355 89.6093C323.301 90.154 322.496 92.8916 321.288 92.3698C320.083 91.8485 321.226 88.9587 322.355 89.6093Z" stroke="black" stroke-miterlimit="10"/>
<path d="M318.041 90.291C318.041 90.291 316.861 86.9873 317.018 86.5547C317.176 86.122 319.89 84.824 320.243 85.0208C320.598 85.2175 321.502 88.2851 321.777 89.701" stroke="black" stroke-linecap="round" stroke-linejoin="round"/>
<path d="M334.48 126.917C347.099 125.78 349.98 142.662 350.413 146.539C351.173 158.45 344.354 158.687 343.834 161.595C343.19 161.785 342.496 161.925 341.75 162.011C334.039 162.902 329.573 156.624 327.144 148.846C324.716 141.068 324.205 127.842 334.48 126.917Z" fill="#0D57A7"/>
<path d="M321.812 125.182C321.086 129.152 320.487 134.679 320.991 140.909C321.421 146.215 322.977 151.315 325.693 155.147" stroke="black" stroke-linecap="round" stroke-linejoin="round"/>
<path d="M362.461 138.245C361.811 137.188 361.159 135.732 360.963 134.651C357.828 117.317 351.389 105.654 344.526 100.398C337.753 95.2103 329.798 95.6348 324.989 98.5574C316.73 103.576 318.488 113.727 323.39 118.798" stroke="black" stroke-linecap="round" stroke-linejoin="round"/>
<path d="M335.211 161.831C336.77 162.257 338.46 162.487 340.283 162.493C347.4 162.515 352.736 160.982 356.314 157.862" stroke="black" stroke-linecap="round" stroke-linejoin="round"/>
<path d="M360.408 155.668C360.113 160.1 359.629 165.891 359.047 167.241C358.074 169.497 356.102 169.52 351.532 169.572C346.962 169.623 344.987 168.932 344.26 167.217C343.534 165.502 343.96 160.671 343.96 160.671" fill="white"/>
<path d="M360.408 155.668C360.113 160.1 359.629 165.891 359.047 167.241C358.074 169.497 356.102 169.52 351.532 169.572C346.962 169.623 344.987 168.932 344.26 167.217C343.534 165.502 343.96 160.671 343.96 160.671" stroke="black" stroke-linecap="round" stroke-linejoin="round"/>
<path d="M351.514 166.7C350.355 166.617 349.748 167.251 349.404 168.791C349.495 167.772 348.984 166.666 347.832 166.661C346.855 166.656 346.049 167.315 345.73 168.757C346.459 169.131 347.45 169.369 348.782 169.486C348.938 169.486 349.1 169.485 349.276 169.483C351.204 169.461 352.439 169.504 353.627 169.377C353.602 167.894 352.599 166.778 351.514 166.7Z" fill="white"/>
<path d="M351.514 166.7C350.355 166.617 349.748 167.251 349.404 168.791C349.495 167.772 348.984 166.666 347.832 166.661C346.855 166.656 346.049 167.315 345.73 168.757C346.459 169.131 347.45 169.369 348.782 169.486C348.938 169.486 349.1 169.485 349.276 169.483C351.204 169.461 352.439 169.504 353.627 169.377C353.602 167.894 352.599 166.778 351.514 166.7Z" stroke="black" stroke-linecap="round" stroke-linejoin="round"/>
<path d="M341.801 103.102C342.662 103.196 343.369 103.579 343.92 104.251C344.457 104.927 344.677 105.7 344.582 106.568C344.487 107.437 344.104 108.14 343.434 108.677C342.75 109.22 341.977 109.444 341.115 109.35C340.247 109.255 339.544 108.869 339.008 108.192C338.463 107.521 338.238 106.752 338.334 105.883C338.429 105.015 338.815 104.309 339.493 103.765C340.163 103.228 340.932 103.006 341.801 103.102Z" fill="#3C63AE"/>
<path d="M323.803 102.09C324.54 102.176 325.141 102.551 325.606 103.216C326.058 103.886 326.239 104.656 326.148 105.525C326.058 106.393 325.722 107.1 325.143 107.644C324.551 108.194 323.886 108.426 323.149 108.341C322.406 108.256 321.809 107.877 321.356 107.207C320.897 106.542 320.713 105.776 320.804 104.907C320.895 104.038 321.233 103.329 321.819 102.778C322.399 102.234 323.06 102.004 323.803 102.09Z" fill="#3C63AE"/>
<path d="M340.082 106.961C334.461 107.431 329.476 107.067 325.125 105.867C325.125 105.867 324.731 111.225 332.385 111.938C340.04 112.651 340.082 106.961 340.082 106.961Z" fill="white"/>
<path d="M340.082 106.961C334.461 107.431 329.476 107.067 325.125 105.867C325.125 105.867 324.731 111.225 332.385 111.938C340.04 112.651 340.082 106.961 340.082 106.961Z" stroke="black" stroke-linecap="round" stroke-linejoin="round"/>
<path d="M336.318 103.199C336.242 103.85 336.612 104.487 337.543 104.601C338.356 104.702 338.913 104.38 339.01 103.605" stroke="black" stroke-linecap="round" stroke-linejoin="round"/>
<path d="M327.3 101.947C327.223 102.598 327.564 103.232 328.436 103.339C329.196 103.432 329.721 103.107 329.817 102.332" stroke="black" stroke-linecap="round" stroke-linejoin="round"/>
<path d="M338.819 107.133C338.836 108.562 338.19 109.279 337.309 109.222C335.918 109.133 335.961 107.305 335.961 107.305C335.63 108.577 334.99 109.265 334.045 109.229C333.1 109.193 332.461 108.405 332.406 107.059C334.67 107.338 336.828 107.404 338.819 107.133Z" stroke="black" stroke-linecap="round" stroke-linejoin="round"/>
<path d="M319.428 141.715C322.317 146.604 327.287 146.312 327.287 146.312C327.287 146.312 328.278 153.948 337.071 155.145C345.487 156.292 351.452 150.341 351.395 142.534C351.341 135.201 344.604 129.452 335.801 132.058C335.801 132.058 331.903 128.12 326.868 128.388C320.541 128.726 315.724 135.444 319.428 141.715Z" fill="#D8A373"/>
<path d="M319.428 141.715C322.317 146.604 327.287 146.312 327.287 146.312C327.287 146.312 328.278 153.948 337.071 155.145C345.487 156.292 351.452 150.341 351.395 142.534C351.341 135.201 344.604 129.452 335.801 132.058C335.801 132.058 331.903 128.12 326.868 128.388C320.541 128.726 315.724 135.444 319.428 141.715Z" stroke="black" stroke-linecap="round" stroke-linejoin="round"/>
<path d="M305.422 127.542C305.422 127.542 300.83 127.542 299.818 125.614C299.114 124.273 299.298 122.144 300.859 120.756C302.421 119.369 304.173 119.21 305.422 120.07C306.671 120.93 308.477 124.4 308.477 124.4C308.477 124.4 328.522 134.156 328.649 134.899C328.776 135.643 326.873 139.737 326.114 139.854C325.355 139.97 305.422 127.542 305.422 127.542Z" fill="#BF7A5C"/>
<path d="M305.422 127.542C305.422 127.542 300.83 127.542 299.818 125.614C299.114 124.273 299.298 122.144 300.859 120.756C302.421 119.369 304.173 119.21 305.422 120.07C306.671 120.93 308.477 124.4 308.477 124.4C308.477 124.4 328.522 134.156 328.649 134.899C328.776 135.643 326.873 139.737 326.114 139.854C325.355 139.97 305.422 127.542 305.422 127.542Z" stroke="black" stroke-linecap="round" stroke-linejoin="round"/>
<path d="M306.094 128.202L305.062 129.807" stroke="black" stroke-linecap="round" stroke-linejoin="round"/>
<path d="M307.782 129.352L306.75 130.957" stroke="black" stroke-linecap="round" stroke-linejoin="round"/>
<path d="M310.133 122.982L309.102 124.587" stroke="black" stroke-linecap="round" stroke-linejoin="round"/>
<path d="M311.707 123.784L310.676 125.389" stroke="black" stroke-linecap="round" stroke-linejoin="round"/>
<path d="M313.426 124.588L312.395 126.192" stroke="black" stroke-linecap="round" stroke-linejoin="round"/>
<path d="M303.003 122.905C303.066 122.831 303.171 122.76 303.32 122.691C303.331 122.686 303.343 122.682 303.355 122.68C303.681 122.627 303.938 122.706 304.127 122.919C304.266 123.076 304.329 123.26 304.317 123.473C304.304 123.682 304.22 123.853 304.064 123.988C303.954 124.086 303.832 124.148 303.7 124.176C303.638 124.185 303.575 124.188 303.51 124.184C303.445 124.18 303.384 124.17 303.328 124.153C303.196 124.111 303.083 124.034 302.989 123.924C302.85 123.772 302.786 123.592 302.798 123.383C302.801 123.335 302.804 123.294 302.806 123.26C302.84 123.126 302.905 123.008 303.003 122.905Z" fill="black"/>
<path d="M340.059 144.456C340.059 144.456 338.274 147.255 338.329 147.478C338.385 147.701 339.027 148.294 339.327 148.149C339.627 148.005 341.144 145.213 341.144 145.213L340.059 144.456Z" fill="black"/>
<path d="M340.059 144.456C340.059 144.456 338.274 147.255 338.329 147.478C338.385 147.701 339.027 148.294 339.327 148.149C339.627 148.005 341.144 145.213 341.144 145.213L340.059 144.456Z" stroke="black" stroke-linecap="round" stroke-linejoin="round"/>
<path d="M332.589 136.587C330.245 136.515 328.975 138.637 329.013 140.365C329.052 142.181 330.523 143.631 332.481 143.737C334.361 143.839 335.991 142.732 336.176 140.275C336.362 137.818 334.526 136.645 332.589 136.587Z" fill="#28292B"/>
<path d="M332.589 136.587C330.245 136.515 328.975 138.637 329.013 140.365C329.052 142.181 330.523 143.631 332.481 143.737C334.361 143.839 335.991 142.732 336.176 140.275C336.362 137.818 334.526 136.645 332.589 136.587Z" stroke="black" stroke-linecap="round" stroke-linejoin="round"/>
<path d="M311.918 127.831L337.435 141.716" stroke="black" stroke-linecap="round" stroke-linejoin="round"/>
<path d="M311.262 129.494L339.186 144.918" stroke="black" stroke-linecap="round" stroke-linejoin="round"/>
<path d="M310.133 130.155L312.395 126.625" stroke="black" stroke-linecap="round" stroke-linejoin="round"/>
<path d="M318.491 139.512C316.545 140.277 313.527 139.592 312.455 139.09C310.452 138.154 307.921 135.988 308.584 132.673C308.89 131.145 310.01 129.159 311.538 128.955C313.066 128.751 316.757 131.284 317.57 132.967C318.208 134.289 317.978 135.085 317.978 135.085C317.978 135.085 317.794 137.714 318.491 139.512Z" fill="white"/>
<path d="M318.491 139.512C316.545 140.277 313.527 139.592 312.455 139.09C310.452 138.154 307.921 135.988 308.584 132.673C308.89 131.145 310.01 129.159 311.538 128.955C313.066 128.751 316.757 131.284 317.57 132.967C318.208 134.289 317.978 135.085 317.978 135.085C317.978 135.085 317.794 137.714 318.491 139.512Z" stroke="black" stroke-linecap="round" stroke-linejoin="round"/>
<path d="M317.978 135.086C317.978 135.086 317.808 136.221 317.609 136.505L317.978 135.086Z" fill="white"/>
<path d="M317.978 135.086C317.978 135.086 317.808 136.221 317.609 136.505" stroke="black" stroke-linecap="round" stroke-linejoin="round"/>
<path d="M315.196 133.101C314.456 132.737 314.111 132.132 314.337 131.109C313.646 131.955 312.975 131.85 312.461 131.554C311.946 131.257 311.518 130.474 311.793 129.446L311.844 129.304C312.008 129.323 312.182 129.337 312.36 129.38C315.076 130.023 317.188 132.35 317.196 132.399C316.737 133.169 315.855 133.425 315.196 133.101Z" fill="white"/>
<path d="M315.196 133.101C314.456 132.737 314.111 132.132 314.337 131.109C313.646 131.955 312.975 131.85 312.461 131.554C311.946 131.257 311.518 130.474 311.793 129.446L311.844 129.304C312.008 129.323 312.182 129.337 312.36 129.38C315.076 130.023 317.188 132.35 317.196 132.399C316.737 133.169 315.855 133.425 315.196 133.101Z" stroke="black" stroke-linecap="round" stroke-linejoin="round"/>
<path d="M344.607 127.544C344.607 127.544 343.258 133.735 338.823 136.642C337.498 137.51 336.641 138.267 336.994 140.434C337.347 142.602 341.57 148.53 343.839 148.53C346.107 148.53 352.328 145.32 354.97 141.305" fill="#FFFFFE"/>
<path d="M344.607 127.544C344.607 127.544 343.258 133.735 338.823 136.642C337.498 137.51 336.641 138.267 336.994 140.434C337.347 142.602 341.57 148.53 343.839 148.53C346.107 148.53 352.328 145.32 354.97 141.305" stroke="black" stroke-linecap="round" stroke-linejoin="round"/>
<path d="M339.585 141.06C340.221 141.807 340.313 142.631 339.581 143.643C340.738 143.044 341.421 143.476 341.843 144.044C342.265 144.611 342.364 145.67 341.576 146.663L341.453 146.794C341.283 146.696 341.1 146.598 340.925 146.467C338.261 144.48 337.053 140.938 337.067 140.88C337.933 140.256 339.018 140.392 339.585 141.06Z" fill="white"/>
<path d="M339.585 141.06C340.221 141.807 340.313 142.631 339.581 143.643C340.738 143.044 341.421 143.476 341.843 144.044C342.265 144.611 342.364 145.67 341.576 146.663L341.453 146.794C341.283 146.696 341.1 146.598 340.925 146.467C338.261 144.48 337.053 140.938 337.067 140.88C337.933 140.256 339.018 140.392 339.585 141.06Z" stroke="black" stroke-linecap="round" stroke-linejoin="round"/>
<path d="M304.824 134.9C304.824 134.9 304.691 137.29 306.019 138.95" stroke="black" stroke-linecap="round" stroke-linejoin="round"/>
<path d="M302.305 137.709C302.305 137.709 302.696 140.207 304.824 141.999" stroke="black" stroke-linecap="round" stroke-linejoin="round"/>
</g>
<path d="M283.43 149.865C283.43 149.865 293.886 153.665 295.056 164.203C296.171 174.247 286.45 172.999 284.16 170.506C281.87 168.014 280.061 154.507 280.061 154.507L283.43 149.865Z" fill="white" stroke="#000001" stroke-linecap="round" stroke-linejoin="round"/>
<path d="M249.452 164.668C248.78 167.487 244.393 176.272 237.362 184.936C235.945 186.682 235.587 188.271 237.793 189.596C239.998 190.921 249.359 191.531 254.5 187.181L249.452 164.666V164.668Z" fill="white" stroke="#000001" stroke-linecap="round" stroke-linejoin="round"/>
<path d="M269.061 189.193C269.061 189.193 268.774 193.441 269.602 195.526C270.43 197.612 272.109 197.632 276 197.68C279.891 197.728 281.572 197.088 282.19 195.503C282.808 193.919 281.973 181.544 281.973 181.544L269.061 189.193Z" fill="white" stroke="#000001" stroke-linecap="round" stroke-linejoin="round"/>
<path d="M263.43 134.257C263.43 134.257 261.637 132.165 258.857 133.003C256.049 133.852 255.403 136.49 255.846 138.193C256.583 141.023 259.814 141.371 259.814 141.371L263.43 134.257Z" fill="#0D529D" stroke="#000001" stroke-linecap="round" stroke-linejoin="round"/>
<path d="M259.324 141.287C259.324 141.287 257.607 139.131 254.858 139.946C252.082 140.768 251.391 143.445 251.79 145.182C252.454 148.071 255.622 148.474 255.622 148.474L259.324 141.287Z" fill="#0D529D" stroke="#000001" stroke-linecap="round" stroke-linejoin="round"/>
<path d="M255.617 149.088C255.617 149.088 253.9 146.933 251.151 147.748C248.375 148.569 247.684 151.247 248.083 152.983C248.747 155.872 251.915 156.275 251.915 156.275L255.617 149.088Z" fill="#0D529D" stroke="#000001" stroke-linecap="round" stroke-linejoin="round"/>
<path d="M270.203 130.74C270.203 130.74 269.466 128.343 266.748 128.033C263.999 127.721 262.423 129.686 262.147 131.266C261.686 133.893 263.349 134.717 263.349 134.717L270.201 130.737L270.203 130.74Z" fill="#0D529D" stroke="#000001" stroke-linecap="round" stroke-linejoin="round"/>
<path d="M284.018 150.598C284.018 150.598 283.61 151.053 283.614 151.085C283.63 151.222 283.797 151.265 284.073 151.456C284.137 151.499 284.178 151.52 284.296 151.588C284.331 151.609 284.347 151.652 284.358 151.686C285.147 154.397 286.979 161.901 286.237 171.039C285.371 181.731 279.607 190.96 268.365 190.995C252.348 191.045 246.071 182.606 249.214 165.256C252.118 149.232 258.082 138.448 264.439 133.59C270.714 128.794 278.081 129.187 282.536 131.89C290.186 136.529 288.557 145.913 284.016 150.603L284.018 150.598Z" fill="white"/>
<path d="M273.755 158.247C262.065 157.195 259.399 172.803 258.997 176.386C258.293 187.398 264.611 187.616 265.092 190.305C265.689 190.48 266.33 190.61 267.021 190.69C274.163 191.514 278.3 185.709 280.549 178.519C282.798 171.328 283.273 159.103 273.755 158.247Z" fill="#0D529D"/>
<path d="M285.489 156.642C286.16 160.311 286.716 165.422 286.249 171.182C285.852 176.088 284.41 180.802 281.895 184.344" stroke="#000001" stroke-linecap="round" stroke-linejoin="round"/>
<path d="M247.839 168.72C248.441 167.744 249.046 166.398 249.226 165.399C252.13 149.375 258.094 138.591 264.451 133.733C270.726 128.936 278.093 129.33 282.547 132.032C290.197 136.672 288.569 146.055 284.028 150.745" stroke="#000001" stroke-linecap="round" stroke-linejoin="round"/>
<path d="M266.976 136.231C266.178 136.318 265.523 136.673 265.013 137.294C264.515 137.92 264.31 138.635 264.399 139.436C264.488 140.24 264.842 140.889 265.462 141.385C266.096 141.886 266.812 142.095 267.61 142.007C268.409 141.918 269.066 141.563 269.563 140.937C270.067 140.317 270.275 139.605 270.188 138.801C270.099 137.998 269.741 137.347 269.114 136.843C268.493 136.347 267.782 136.142 266.976 136.231Z" fill="#385DA4"/>
<path d="M283.646 135.295C282.964 135.375 282.408 135.721 281.977 136.336C281.557 136.955 281.391 137.667 281.475 138.471C281.559 139.275 281.869 139.928 282.405 140.431C282.953 140.939 283.569 141.155 284.253 141.075C284.942 140.996 285.494 140.647 285.913 140.026C286.338 139.411 286.509 138.703 286.424 137.9C286.34 137.096 286.028 136.44 285.485 135.933C284.949 135.43 284.335 135.218 283.646 135.298V135.295Z" fill="#385DA4"/>
<path d="M268.031 166.415C268.031 166.415 267.199 171.269 261.786 171.476C256.374 171.683 254.43 169.463 254.152 168.947" fill="white"/>
<path d="M268.031 166.415C268.031 166.415 267.199 171.269 261.786 171.476C256.374 171.683 254.43 169.463 254.152 168.947" stroke="#000001" stroke-linecap="round" stroke-linejoin="round"/>
<path d="M269.74 140.05C274.514 140.537 278.764 140.241 282.488 139.162C282.488 139.162 282.126 145.008 275.509 144.906C269.291 144.81 269.74 140.05 269.74 140.05Z" fill="#FEFEFF" stroke="#000001" stroke-linecap="round" stroke-linejoin="round"/>
<path d="M270.719 138.227C270.719 138.227 272.933 137.728 272.828 137.084C272.723 136.44 270.871 135.923 270.871 135.923" stroke="#000001" stroke-linecap="round" stroke-linejoin="round"/>
<path d="M281.43 137.485C281.43 137.485 279.657 137.02 279.751 136.376C279.844 135.732 281.341 135.186 281.341 135.186" stroke="#000001" stroke-linecap="round" stroke-linejoin="round"/>
<path d="M270.81 140.18C270.778 141.37 271.318 141.976 272.069 141.942C273.253 141.887 273.239 140.364 273.239 140.364C273.506 141.427 274.042 142.01 274.845 141.994C275.648 141.976 276.202 141.329 276.266 140.209C274.336 140.41 272.5 140.435 270.812 140.182L270.81 140.18Z" fill="white" stroke="#000001" stroke-linecap="round" stroke-linejoin="round"/>
<path d="M296.133 155.694C296.133 155.694 296.81 153.648 294.931 152.746C293.051 151.845 292.1 153.259 292.1 153.259C292.1 153.259 290.716 151.408 288.971 151.972C287.226 152.537 287.251 153.623 287.251 153.623C287.251 153.623 285.709 153.183 284.528 154.267C283.321 155.373 283.805 156.997 283.805 156.997C283.805 156.997 282.363 157.422 282.153 159.337C281.93 161.374 283.419 162.474 283.419 162.474C283.419 162.474 282.527 164.061 283.631 165.65C284.525 166.934 285.67 166.683 285.67 166.683C285.67 166.683 285.917 167.887 287.475 168.229C289.032 168.57 289.735 167.646 289.735 167.646C289.735 167.646 290.634 168.513 292.023 168.284C293.56 168.029 293.699 166.977 293.699 166.977C293.699 166.977 295.487 167.553 296.509 166.296C297.531 165.04 296.947 164.391 296.947 164.391C296.947 164.391 299.07 164.577 299.23 162.513C299.39 160.45 298.297 160.068 298.297 160.068C298.297 160.068 299.652 158.246 298.742 156.84C297.832 155.43 296.133 155.694 296.133 155.694Z" fill="#F5E663" stroke="#E5B428" stroke-linecap="round" stroke-linejoin="round"/>
<path d="M293.46 158.276C293.46 158.276 294.601 158.165 294.767 159.66C294.934 161.156 293.887 161.304 293.887 161.304" stroke="#E5B428" stroke-linecap="round" stroke-linejoin="round"/>
<path d="M289.32 163.534C289.32 163.534 288.415 164.135 287.598 163.534C286.779 162.933 287.08 161.986 287.08 161.986C287.08 161.986 286.015 161.704 285.858 160.529C285.705 159.371 286.608 158.804 286.608 158.804" stroke="#E5B428" stroke-linecap="round" stroke-linejoin="round"/>
<path d="M271.238 155.694C271.238 155.694 271.916 153.648 270.036 152.746C268.157 151.845 267.206 153.259 267.206 153.259C267.206 153.259 265.821 151.408 264.076 151.972C262.331 152.537 262.356 153.623 262.356 153.623C262.356 153.623 260.815 153.183 259.633 154.267C258.427 155.373 258.91 156.997 258.91 156.997C258.91 156.997 257.469 157.422 257.259 159.337C257.035 161.374 258.525 162.474 258.525 162.474C258.525 162.474 257.633 164.061 258.737 165.65C259.631 166.934 260.776 166.683 260.776 166.683C260.776 166.683 261.022 167.887 262.58 168.229C264.138 168.57 264.84 167.646 264.84 167.646C264.84 167.646 265.739 168.513 267.128 168.284C268.665 168.029 268.805 166.977 268.805 166.977C268.805 166.977 270.593 167.553 271.615 166.296C272.636 165.04 272.052 164.391 272.052 164.391C272.052 164.391 274.176 164.577 274.336 162.513C274.495 160.45 273.403 160.068 273.403 160.068C273.403 160.068 274.758 158.246 273.848 156.84C272.937 155.43 271.238 155.694 271.238 155.694Z" fill="#F5E663" stroke="#E5B428" stroke-linecap="round" stroke-linejoin="round"/>
<path d="M268.562 158.276C268.562 158.276 269.702 158.165 269.869 159.66C270.035 161.156 268.988 161.304 268.988 161.304" stroke="#E5B428" stroke-linecap="round" stroke-linejoin="round"/>
<path d="M264.422 163.534C264.422 163.534 263.516 164.135 262.7 163.534C261.881 162.933 262.182 161.986 262.182 161.986C262.182 161.986 261.117 161.704 260.959 160.529C260.807 159.371 261.71 158.804 261.71 158.804" stroke="#E5B428" stroke-linecap="round" stroke-linejoin="round"/>
<path d="M290.621 130.71C290.621 130.71 294.393 134.641 294.512 140.972" stroke="#000001" stroke-linecap="round" stroke-linejoin="round"/>
<path d="M294.805 131.814C294.805 131.814 292.713 132.891 290.624 133.968" stroke="#000001" stroke-linecap="round" stroke-linejoin="round"/>
<path d="M296.699 136.561C296.699 136.561 292.79 137.453 292.08 137.587" stroke="#000001" stroke-linecap="round" stroke-linejoin="round"/>
<path d="M301.329 154.836C301.329 154.836 302.366 156.908 302.453 160.101" stroke="#000001" stroke-linecap="round" stroke-linejoin="round"/>
<path d="M304.616 156.305C304.616 156.305 305.36 158.852 305.013 161.397" stroke="#000001" stroke-linecap="round" stroke-linejoin="round"/>
<path d="M249.575 149.865C249.575 149.865 260.03 153.665 261.2 164.203C262.316 174.247 252.595 172.999 250.305 170.506C248.015 168.014 246.206 154.507 246.206 154.507L249.575 149.865Z" fill="white" stroke="#000001" stroke-linecap="round" stroke-linejoin="round"/>
<path d="M215.597 164.668C214.924 167.487 210.538 176.272 203.506 184.936C202.09 186.682 201.732 188.271 203.937 189.596C206.143 190.921 215.503 191.531 220.645 187.181L215.597 164.666V164.668Z" fill="white" stroke="#000001" stroke-linecap="round" stroke-linejoin="round"/>
<path d="M235.206 189.193C235.206 189.193 234.918 193.441 235.746 195.526C236.574 197.612 238.253 197.632 242.144 197.68C246.035 197.728 247.716 197.088 248.335 195.503C248.953 193.919 248.118 181.544 248.118 181.544L235.206 189.193Z" fill="white" stroke="#000001" stroke-linecap="round" stroke-linejoin="round"/>
<path d="M229.574 134.257C229.574 134.257 227.781 132.165 225.001 133.003C222.193 133.852 221.548 136.49 221.99 138.193C222.727 141.023 225.959 141.371 225.959 141.371L229.574 134.257Z" fill="#0D529D" stroke="#000001" stroke-linecap="round" stroke-linejoin="round"/>
<path d="M225.469 141.287C225.469 141.287 223.751 139.131 221.003 139.946C218.227 140.768 217.536 143.445 217.935 145.182C218.599 148.071 221.767 148.474 221.767 148.474L225.469 141.287Z" fill="#0D529D" stroke="#000001" stroke-linecap="round" stroke-linejoin="round"/>
<path d="M221.762 149.088C221.762 149.088 220.044 146.933 217.296 147.748C214.52 148.569 213.829 151.247 214.228 152.983C214.892 155.872 218.06 156.275 218.06 156.275L221.762 149.088Z" fill="#0D529D" stroke="#000001" stroke-linecap="round" stroke-linejoin="round"/>
<path d="M236.348 130.74C236.348 130.74 235.611 128.343 232.892 128.033C230.144 127.721 228.568 129.686 228.292 131.266C227.831 133.893 229.494 134.717 229.494 134.717L236.345 130.737L236.348 130.74Z" fill="#0D529D" stroke="#000001" stroke-linecap="round" stroke-linejoin="round"/>
<path d="M250.163 150.598C250.163 150.598 249.754 151.053 249.759 151.085C249.775 151.222 249.941 151.265 250.217 151.456C250.281 151.499 250.322 151.52 250.441 151.588C250.475 151.609 250.491 151.652 250.503 151.686C251.292 154.397 253.123 161.901 252.382 171.039C251.515 181.731 245.752 190.96 234.509 190.995C218.493 191.045 212.216 182.606 215.359 165.256C218.262 149.232 224.227 138.448 230.584 133.59C236.858 128.794 244.226 129.187 248.68 131.89C256.33 136.529 254.702 145.913 250.16 150.603L250.163 150.598Z" fill="white"/>
<path d="M239.899 158.247C228.21 157.195 225.543 172.803 225.142 176.386C224.437 187.398 230.755 187.616 231.236 190.305C231.834 190.48 232.475 190.61 233.166 190.69C240.307 191.514 244.445 185.709 246.694 178.519C248.943 171.328 249.417 159.103 239.899 158.247Z" fill="#0D529D"/>
<path d="M251.634 156.642C252.304 160.311 252.861 165.422 252.393 171.182C251.997 176.088 250.555 180.802 248.039 184.344" stroke="#000001" stroke-linecap="round" stroke-linejoin="round"/>
<path d="M213.984 168.72C214.586 167.744 215.19 166.398 215.371 165.399C218.274 149.375 224.239 138.591 230.595 133.733C236.87 128.936 244.237 129.33 248.692 132.032C256.342 136.672 254.713 146.055 250.172 150.745" stroke="#000001" stroke-linecap="round" stroke-linejoin="round"/>
<path d="M233.121 136.231C232.323 136.318 231.668 136.673 231.157 137.294C230.66 137.92 230.455 138.635 230.544 139.436C230.633 140.24 230.986 140.889 231.606 141.385C232.241 141.886 232.957 142.095 233.755 142.007C234.553 141.918 235.21 141.563 235.707 140.937C236.212 140.317 236.419 139.605 236.332 138.801C236.243 137.998 235.885 137.347 235.258 136.843C234.638 136.347 233.926 136.142 233.121 136.231Z" fill="#385DA4"/>
<path d="M249.791 135.295C249.109 135.375 248.552 135.721 248.121 136.336C247.702 136.955 247.535 137.667 247.619 138.471C247.704 139.275 248.014 139.928 248.55 140.431C249.097 140.939 249.713 141.155 250.398 141.075C251.086 140.996 251.638 140.647 252.058 140.026C252.482 139.411 252.653 138.703 252.569 137.9C252.485 137.096 252.172 136.44 251.629 135.933C251.093 135.43 250.48 135.218 249.791 135.298V135.295Z" fill="#385DA4"/>
<path d="M234.176 166.415C234.176 166.415 233.343 171.269 227.931 171.476C222.518 171.683 220.575 169.463 220.297 168.947" fill="white"/>
<path d="M234.176 166.415C234.176 166.415 233.343 171.269 227.931 171.476C222.518 171.683 220.575 169.463 220.297 168.947" stroke="#000001" stroke-linecap="round" stroke-linejoin="round"/>
<path d="M235.885 140.05C240.659 140.537 244.908 140.241 248.633 139.162C248.633 139.162 248.27 145.008 241.653 144.906C235.436 144.81 235.885 140.05 235.885 140.05Z" fill="#FEFEFF" stroke="#000001" stroke-linecap="round" stroke-linejoin="round"/>
<path d="M236.863 138.227C236.863 138.227 239.078 137.728 238.973 137.084C238.868 136.44 237.016 135.923 237.016 135.923" stroke="#000001" stroke-linecap="round" stroke-linejoin="round"/>
<path d="M247.574 137.485C247.574 137.485 245.802 137.02 245.895 136.376C245.989 135.732 247.485 135.186 247.485 135.186" stroke="#000001" stroke-linecap="round" stroke-linejoin="round"/>
<path d="M236.954 140.18C236.922 141.37 237.463 141.976 238.213 141.942C239.397 141.887 239.383 140.364 239.383 140.364C239.65 141.427 240.186 142.01 240.989 141.994C241.792 141.976 242.346 141.329 242.41 140.209C240.481 140.41 238.644 140.435 236.957 140.182L236.954 140.18Z" fill="white" stroke="#000001" stroke-linecap="round" stroke-linejoin="round"/>
<path d="M262.277 155.694C262.277 155.694 262.955 153.648 261.075 152.746C259.196 151.845 258.245 153.259 258.245 153.259C258.245 153.259 256.86 151.408 255.115 151.972C253.37 152.537 253.396 153.623 253.396 153.623C253.396 153.623 251.854 153.183 250.672 154.267C249.466 155.373 249.949 156.997 249.949 156.997C249.949 156.997 248.508 157.422 248.298 159.337C248.074 161.374 249.564 162.474 249.564 162.474C249.564 162.474 248.672 164.061 249.776 165.65C250.67 166.934 251.815 166.683 251.815 166.683C251.815 166.683 252.061 167.887 253.619 168.229C255.177 168.57 255.879 167.646 255.879 167.646C255.879 167.646 256.778 168.513 258.167 168.284C259.704 168.029 259.844 166.977 259.844 166.977C259.844 166.977 261.632 167.553 262.654 166.296C263.675 165.04 263.092 164.391 263.092 164.391C263.092 164.391 265.215 164.577 265.375 162.513C265.534 160.45 264.442 160.068 264.442 160.068C264.442 160.068 265.797 158.246 264.887 156.84C263.977 155.43 262.277 155.694 262.277 155.694Z" fill="#F5E663" stroke="#E5B428" stroke-linecap="round" stroke-linejoin="round"/>
<path d="M259.605 158.276C259.605 158.276 260.745 158.165 260.912 159.66C261.078 161.156 260.031 161.304 260.031 161.304" stroke="#E5B428" stroke-linecap="round" stroke-linejoin="round"/>
<path d="M255.465 163.534C255.465 163.534 254.559 164.135 253.743 163.534C252.924 162.933 253.225 161.986 253.225 161.986C253.225 161.986 252.16 161.704 252.002 160.529C251.85 159.371 252.753 158.804 252.753 158.804" stroke="#E5B428" stroke-linecap="round" stroke-linejoin="round"/>
<path d="M237.383 155.694C237.383 155.694 238.06 153.648 236.181 152.746C234.301 151.845 233.35 153.259 233.35 153.259C233.35 153.259 231.966 151.408 230.221 151.972C228.476 152.537 228.501 153.623 228.501 153.623C228.501 153.623 226.959 153.183 225.778 154.267C224.571 155.373 225.055 156.997 225.055 156.997C225.055 156.997 223.613 157.422 223.403 159.337C223.18 161.374 224.669 162.474 224.669 162.474C224.669 162.474 223.777 164.061 224.881 165.65C225.775 166.934 226.92 166.683 226.92 166.683C226.92 166.683 227.167 167.887 228.725 168.229C230.282 168.57 230.985 167.646 230.985 167.646C230.985 167.646 231.884 168.513 233.273 168.284C234.81 168.029 234.949 166.977 234.949 166.977C234.949 166.977 236.737 167.553 237.759 166.296C238.781 165.04 238.197 164.391 238.197 164.391C238.197 164.391 240.32 164.577 240.48 162.513C240.64 160.45 239.547 160.068 239.547 160.068C239.547 160.068 240.902 158.246 239.992 156.84C239.082 155.43 237.383 155.694 237.383 155.694Z" fill="#F5E663" stroke="#E5B428" stroke-linecap="round" stroke-linejoin="round"/>
<path d="M234.706 158.276C234.706 158.276 235.847 158.165 236.013 159.66C236.18 161.156 235.133 161.304 235.133 161.304" stroke="#E5B428" stroke-linecap="round" stroke-linejoin="round"/>
<path d="M230.566 163.534C230.566 163.534 229.661 164.135 228.844 163.534C228.026 162.933 228.327 161.986 228.327 161.986C228.327 161.986 227.261 161.704 227.104 160.529C226.951 159.371 227.854 158.804 227.854 158.804" stroke="#E5B428" stroke-linecap="round" stroke-linejoin="round"/>
<path d="M256.765 130.71C256.765 130.71 260.538 134.641 260.656 140.972" stroke="#000001" stroke-linecap="round" stroke-linejoin="round"/>
<path d="M260.949 131.813C260.949 131.813 258.858 132.89 256.768 133.967" stroke="#000001" stroke-linecap="round" stroke-linejoin="round"/>
<path d="M262.844 136.561C262.844 136.561 258.934 137.453 258.225 137.587" stroke="#000001" stroke-linecap="round" stroke-linejoin="round"/>
<path d="M267.473 154.836C267.473 154.836 268.511 156.908 268.598 160.101" stroke="#000001" stroke-linecap="round" stroke-linejoin="round"/>
<path d="M270.761 156.305C270.761 156.305 271.505 158.852 271.158 161.397" stroke="#000001" stroke-linecap="round" stroke-linejoin="round"/>
<path d="M212.211 149.865C212.211 149.865 222.667 153.665 223.837 164.203C224.952 174.247 215.231 172.999 212.941 170.506C210.651 168.014 208.843 154.507 208.843 154.507L212.211 149.865Z" fill="white" stroke="#000001" stroke-linecap="round" stroke-linejoin="round"/>
<path d="M178.234 164.668C177.561 167.487 173.175 176.272 166.143 184.936C164.726 186.682 164.368 188.271 166.574 189.596C168.779 190.921 178.14 191.531 183.281 187.181L178.234 164.666V164.668Z" fill="white" stroke="#000001" stroke-linecap="round" stroke-linejoin="round"/>
<path d="M197.843 189.193C197.843 189.193 197.555 193.441 198.383 195.526C199.211 197.612 200.89 197.632 204.781 197.68C208.672 197.728 210.353 197.088 210.971 195.503C211.589 193.919 210.755 181.544 210.755 181.544L197.843 189.193Z" fill="white" stroke="#000001" stroke-linecap="round" stroke-linejoin="round"/>
<path d="M192.211 134.257C192.211 134.257 190.418 132.165 187.638 133.003C184.83 133.852 184.185 136.49 184.627 138.193C185.364 141.023 188.596 141.371 188.596 141.371L192.211 134.257Z" fill="#0D529D" stroke="#000001" stroke-linecap="round" stroke-linejoin="round"/>
<path d="M188.105 141.287C188.105 141.287 186.388 139.131 183.64 139.946C180.864 140.768 180.173 143.445 180.572 145.182C181.235 148.071 184.404 148.474 184.404 148.474L188.105 141.287Z" fill="#0D529D" stroke="#000001" stroke-linecap="round" stroke-linejoin="round"/>
<path d="M184.398 149.088C184.398 149.088 182.681 146.933 179.932 147.748C177.157 148.569 176.466 151.247 176.865 152.983C177.528 155.872 180.697 156.275 180.697 156.275L184.398 149.088Z" fill="#0D529D" stroke="#000001" stroke-linecap="round" stroke-linejoin="round"/>
<path d="M198.984 130.74C198.984 130.74 198.248 128.343 195.529 128.033C192.78 127.721 191.204 129.686 190.928 131.266C190.468 133.893 192.13 134.717 192.13 134.717L198.982 130.737L198.984 130.74Z" fill="#0D529D" stroke="#000001" stroke-linecap="round" stroke-linejoin="round"/>
<path d="M212.799 150.598C212.799 150.598 212.391 151.053 212.396 151.085C212.412 151.222 212.578 151.265 212.854 151.456C212.918 151.499 212.959 151.52 213.078 151.588C213.112 151.609 213.128 151.652 213.139 151.686C213.928 154.397 215.76 161.901 215.019 171.039C214.152 181.731 208.388 190.96 197.146 190.995C181.13 191.045 174.853 182.606 177.996 165.256C180.899 149.232 186.864 138.448 193.22 133.59C199.495 128.794 206.862 129.187 211.317 131.89C218.967 136.529 217.338 145.913 212.797 150.603L212.799 150.598Z" fill="white"/>
<path d="M202.536 158.247C190.846 157.195 188.18 172.803 187.779 176.386C187.074 187.398 193.392 187.616 193.873 190.305C194.471 190.48 195.112 190.61 195.803 190.69C202.944 191.514 207.082 185.709 209.331 178.519C211.58 171.328 212.054 159.103 202.536 158.247Z" fill="#0D529D"/>
<path d="M214.271 156.642C214.941 160.311 215.498 165.422 215.03 171.182C214.633 176.088 213.192 180.802 210.676 184.344" stroke="#000001" stroke-linecap="round" stroke-linejoin="round"/>
<path d="M176.621 168.72C177.223 167.744 177.827 166.398 178.007 165.399C180.911 149.375 186.875 138.591 193.232 133.733C199.507 128.936 206.874 129.33 211.329 132.032C218.979 136.672 217.35 146.055 212.809 150.745" stroke="#000001" stroke-linecap="round" stroke-linejoin="round"/>
<path d="M195.758 136.231C194.959 136.318 194.305 136.673 193.794 137.294C193.297 137.92 193.091 138.635 193.18 139.436C193.269 140.24 193.623 140.889 194.243 141.385C194.877 141.886 195.593 142.095 196.392 142.007C197.19 141.918 197.847 141.563 198.344 140.937C198.848 140.317 199.056 139.605 198.969 138.801C198.88 137.998 198.522 137.347 197.895 136.843C197.274 136.347 196.563 136.142 195.758 136.231Z" fill="#385DA4"/>
<path d="M212.428 135.295C211.746 135.375 211.189 135.721 210.758 136.336C210.338 136.955 210.172 137.667 210.256 138.471C210.341 139.275 210.651 139.928 211.187 140.431C211.734 140.939 212.35 141.155 213.034 141.075C213.723 140.996 214.275 140.647 214.695 140.026C215.119 139.411 215.29 138.703 215.206 137.9C215.121 137.096 214.809 136.44 214.266 135.933C213.73 135.43 213.116 135.218 212.428 135.298V135.295Z" fill="#385DA4"/>
<path d="M196.812 166.415C196.812 166.415 195.98 171.269 190.567 171.476C185.155 171.683 183.212 169.463 182.933 168.947" fill="white"/>
<path d="M196.812 166.415C196.812 166.415 195.98 171.269 190.567 171.476C185.155 171.683 183.212 169.463 182.933 168.947" stroke="#000001" stroke-linecap="round" stroke-linejoin="round"/>
<path d="M198.522 140.05C203.296 140.537 207.545 140.241 211.27 139.162C211.27 139.162 210.907 145.008 204.29 144.906C198.072 144.81 198.522 140.05 198.522 140.05Z" fill="#FEFEFF" stroke="#000001" stroke-linecap="round" stroke-linejoin="round"/>
<path d="M199.5 138.227C199.5 138.227 201.715 137.728 201.61 137.084C201.505 136.44 199.653 135.923 199.653 135.923" stroke="#000001" stroke-linecap="round" stroke-linejoin="round"/>
<path d="M210.211 137.485C210.211 137.485 208.439 137.02 208.532 136.376C208.626 135.732 210.122 135.186 210.122 135.186" stroke="#000001" stroke-linecap="round" stroke-linejoin="round"/>
<path d="M199.591 140.18C199.559 141.37 200.1 141.976 200.85 141.942C202.034 141.887 202.02 140.364 202.02 140.364C202.287 141.427 202.823 142.01 203.626 141.994C204.429 141.976 204.983 141.329 205.047 140.209C203.117 140.41 201.281 140.435 199.593 140.182L199.591 140.18Z" fill="white" stroke="#000001" stroke-linecap="round" stroke-linejoin="round"/>
<path d="M224.914 155.694C224.914 155.694 225.591 153.648 223.712 152.746C221.833 151.845 220.881 153.259 220.881 153.259C220.881 153.259 219.497 151.408 217.752 151.972C216.007 152.537 216.032 153.623 216.032 153.623C216.032 153.623 214.49 153.183 213.309 154.267C212.102 155.373 212.586 156.997 212.586 156.997C212.586 156.997 211.144 157.422 210.935 159.337C210.711 161.374 212.2 162.474 212.2 162.474C212.2 162.474 211.309 164.061 212.413 165.65C213.307 166.934 214.452 166.683 214.452 166.683C214.452 166.683 214.698 167.887 216.256 168.229C217.814 168.57 218.516 167.646 218.516 167.646C218.516 167.646 219.415 168.513 220.804 168.284C222.341 168.029 222.48 166.977 222.48 166.977C222.48 166.977 224.268 167.553 225.29 166.296C226.312 165.04 225.728 164.391 225.728 164.391C225.728 164.391 227.852 164.577 228.011 162.513C228.171 160.45 227.079 160.068 227.079 160.068C227.079 160.068 228.433 158.246 227.523 156.84C226.613 155.43 224.914 155.694 224.914 155.694Z" fill="#F5E663" stroke="#E5B428" stroke-linecap="round" stroke-linejoin="round"/>
<path d="M222.241 158.276C222.241 158.276 223.382 158.165 223.548 159.66C223.715 161.156 222.668 161.304 222.668 161.304" stroke="#E5B428" stroke-linecap="round" stroke-linejoin="round"/>
<path d="M218.102 163.534C218.102 163.534 217.196 164.135 216.379 163.534C215.561 162.933 215.862 161.986 215.862 161.986C215.862 161.986 214.797 161.704 214.639 160.529C214.486 159.371 215.39 158.804 215.39 158.804" stroke="#E5B428" stroke-linecap="round" stroke-linejoin="round"/>
<path d="M200.019 155.694C200.019 155.694 200.697 153.648 198.817 152.746C196.938 151.845 195.987 153.259 195.987 153.259C195.987 153.259 194.602 151.408 192.858 151.972C191.113 152.537 191.138 153.623 191.138 153.623C191.138 153.623 189.596 153.183 188.414 154.267C187.208 155.373 187.691 156.997 187.691 156.997C187.691 156.997 186.25 157.422 186.04 159.337C185.816 161.374 187.306 162.474 187.306 162.474C187.306 162.474 186.414 164.061 187.518 165.65C188.412 166.934 189.557 166.683 189.557 166.683C189.557 166.683 189.803 167.887 191.361 168.229C192.919 168.57 193.622 167.646 193.622 167.646C193.622 167.646 194.52 168.513 195.909 168.284C197.447 168.029 197.586 166.977 197.586 166.977C197.586 166.977 199.374 167.553 200.396 166.296C201.418 165.04 200.834 164.391 200.834 164.391C200.834 164.391 202.957 164.577 203.117 162.513C203.277 160.45 202.184 160.068 202.184 160.068C202.184 160.068 203.539 158.246 202.629 156.84C201.719 155.43 200.019 155.694 200.019 155.694Z" fill="#F5E663" stroke="#E5B428" stroke-linecap="round" stroke-linejoin="round"/>
<path d="M197.343 158.276C197.343 158.276 198.484 158.165 198.65 159.66C198.817 161.156 197.77 161.304 197.77 161.304" stroke="#E5B428" stroke-linecap="round" stroke-linejoin="round"/>
<path d="M193.203 163.534C193.203 163.534 192.298 164.135 191.481 163.534C190.662 162.933 190.963 161.986 190.963 161.986C190.963 161.986 189.898 161.704 189.741 160.529C189.588 159.371 190.491 158.804 190.491 158.804" stroke="#E5B428" stroke-linecap="round" stroke-linejoin="round"/>
<path d="M219.402 130.71C219.402 130.71 223.174 134.641 223.293 140.972" stroke="#000001" stroke-linecap="round" stroke-linejoin="round"/>
<path d="M223.586 131.814C223.586 131.814 221.494 132.891 219.405 133.968" stroke="#000001" stroke-linecap="round" stroke-linejoin="round"/>
<path d="M225.48 136.561C225.48 136.561 221.571 137.453 220.862 137.587" stroke="#000001" stroke-linecap="round" stroke-linejoin="round"/>
<path d="M230.11 154.836C230.11 154.836 231.148 156.908 231.234 160.101" stroke="#000001" stroke-linecap="round" stroke-linejoin="round"/>
<path d="M233.398 156.305C233.398 156.305 234.141 158.852 233.795 161.397" stroke="#000001" stroke-linecap="round" stroke-linejoin="round"/>
</g>
<rect x="0.25" y="0.25" width="389.5" height="181.5" stroke="#0073F0" stroke-opacity="0.16" stroke-width="0.5"/>
</g>
</g>
<defs>
<filter id="filter0_d_5872_16282" x="-12" y="-12" width="414" height="206" filterUnits="userSpaceOnUse" color-interpolation-filters="sRGB">
<feFlood flood-opacity="0" result="BackgroundImageFix"/>
<feColorMatrix in="SourceAlpha" type="matrix" values="0 0 0 0 0 0 0 0 0 0 0 0 0 0 0 0 0 0 127 0" result="hardAlpha"/>
<feOffset/>
<feGaussianBlur stdDeviation="6"/>
<feComposite in2="hardAlpha" operator="out"/>
<feColorMatrix type="matrix" values="0 0 0 0 0 0 0 0 0 0 0 0 0 0 0 0 0 0 0.04 0"/>
<feBlend mode="normal" in2="BackgroundImageFix" result="effect1_dropShadow_5872_16282"/>
<feBlend mode="normal" in="SourceGraphic" in2="effect1_dropShadow_5872_16282" result="shape"/>
</filter>
<filter id="filter1_df_5872_16282" x="209.055" y="25.6484" width="12.7852" height="13.4053" filterUnits="userSpaceOnUse" color-interpolation-filters="sRGB">
<feFlood flood-opacity="0" result="BackgroundImageFix"/>
<feColorMatrix in="SourceAlpha" type="matrix" values="0 0 0 0 0 0 0 0 0 0 0 0 0 0 0 0 0 0 127 0" result="hardAlpha"/>
<feOffset/>
<feGaussianBlur stdDeviation="2"/>
<feComposite in2="hardAlpha" operator="out"/>
<feColorMatrix type="matrix" values="0 0 0 0 1 0 0 0 0 1 0 0 0 0 1 0 0 0 0.25 0"/>
<feBlend mode="normal" in2="BackgroundImageFix" result="effect1_dropShadow_5872_16282"/>
<feBlend mode="normal" in="SourceGraphic" in2="effect1_dropShadow_5872_16282" result="shape"/>
<feGaussianBlur stdDeviation="0.3" result="effect2_foregroundBlur_5872_16282"/>
</filter>
<filter id="filter2_df_5872_16282" x="199.594" y="-1.37793" width="12.7852" height="13.4053" filterUnits="userSpaceOnUse" color-interpolation-filters="sRGB">
<feFlood flood-opacity="0" result="BackgroundImageFix"/>
<feColorMatrix in="SourceAlpha" type="matrix" values="0 0 0 0 0 0 0 0 0 0 0 0 0 0 0 0 0 0 127 0" result="hardAlpha"/>
<feOffset/>
<feGaussianBlur stdDeviation="2"/>
<feComposite in2="hardAlpha" operator="out"/>
<feColorMatrix type="matrix" values="0 0 0 0 1 0 0 0 0 1 0 0 0 0 1 0 0 0 0.25 0"/>
<feBlend mode="normal" in2="BackgroundImageFix" result="effect1_dropShadow_5872_16282"/>
<feBlend mode="normal" in="SourceGraphic" in2="effect1_dropShadow_5872_16282" result="shape"/>
<feGaussianBlur stdDeviation="0.3" result="effect2_foregroundBlur_5872_16282"/>
</filter>
<filter id="filter3_df_5872_16282" x="177" y="10" width="12.7852" height="13.4053" filterUnits="userSpaceOnUse" color-interpolation-filters="sRGB">
<feFlood flood-opacity="0" result="BackgroundImageFix"/>
<feColorMatrix in="SourceAlpha" type="matrix" values="0 0 0 0 0 0 0 0 0 0 0 0 0 0 0 0 0 0 127 0" result="hardAlpha"/>
<feOffset/>
<feGaussianBlur stdDeviation="2"/>
<feComposite in2="hardAlpha" operator="out"/>
<feColorMatrix type="matrix" values="0 0 0 0 1 0 0 0 0 1 0 0 0 0 1 0 0 0 0.25 0"/>
<feBlend mode="normal" in2="BackgroundImageFix" result="effect1_dropShadow_5872_16282"/>
<feBlend mode="normal" in="SourceGraphic" in2="effect1_dropShadow_5872_16282" result="shape"/>
<feGaussianBlur stdDeviation="0.3" result="effect2_foregroundBlur_5872_16282"/>
</filter>
<filter id="filter4_df_5872_16282" x="202" y="65" width="12.7852" height="13.4053" filterUnits="userSpaceOnUse" color-interpolation-filters="sRGB">
<feFlood flood-opacity="0" result="BackgroundImageFix"/>
<feColorMatrix in="SourceAlpha" type="matrix" values="0 0 0 0 0 0 0 0 0 0 0 0 0 0 0 0 0 0 127 0" result="hardAlpha"/>
<feOffset/>
<feGaussianBlur stdDeviation="2"/>
<feComposite in2="hardAlpha" operator="out"/>
<feColorMatrix type="matrix" values="0 0 0 0 1 0 0 0 0 1 0 0 0 0 1 0 0 0 0.25 0"/>
<feBlend mode="normal" in2="BackgroundImageFix" result="effect1_dropShadow_5872_16282"/>
<feBlend mode="normal" in="SourceGraphic" in2="effect1_dropShadow_5872_16282" result="shape"/>
<feGaussianBlur stdDeviation="0.3" result="effect2_foregroundBlur_5872_16282"/>
</filter>
<filter id="filter5_df_5872_16282" x="193" y="38" width="12.7852" height="13.4053" filterUnits="userSpaceOnUse" color-interpolation-filters="sRGB">
<feFlood flood-opacity="0" result="BackgroundImageFix"/>
<feColorMatrix in="SourceAlpha" type="matrix" values="0 0 0 0 0 0 0 0 0 0 0 0 0 0 0 0 0 0 127 0" result="hardAlpha"/>
<feOffset/>
<feGaussianBlur stdDeviation="2"/>
<feComposite in2="hardAlpha" operator="out"/>
<feColorMatrix type="matrix" values="0 0 0 0 1 0 0 0 0 1 0 0 0 0 1 0 0 0 0.25 0"/>
<feBlend mode="normal" in2="BackgroundImageFix" result="effect1_dropShadow_5872_16282"/>
<feBlend mode="normal" in="SourceGraphic" in2="effect1_dropShadow_5872_16282" result="shape"/>
<feGaussianBlur stdDeviation="0.3" result="effect2_foregroundBlur_5872_16282"/>
</filter>
<filter id="filter6_df_5872_16282" x="211.758" y="6.72949" width="12.7852" height="13.4053" filterUnits="userSpaceOnUse" color-interpolation-filters="sRGB">
<feFlood flood-opacity="0" result="BackgroundImageFix"/>
<feColorMatrix in="SourceAlpha" type="matrix" values="0 0 0 0 0 0 0 0 0 0 0 0 0 0 0 0 0 0 127 0" result="hardAlpha"/>
<feOffset/>
<feGaussianBlur stdDeviation="2"/>
<feComposite in2="hardAlpha" operator="out"/>
<feColorMatrix type="matrix" values="0 0 0 0 1 0 0 0 0 1 0 0 0 0 1 0 0 0 0.25 0"/>
<feBlend mode="normal" in2="BackgroundImageFix" result="effect1_dropShadow_5872_16282"/>
<feBlend mode="normal" in="SourceGraphic" in2="effect1_dropShadow_5872_16282" result="shape"/>
<feGaussianBlur stdDeviation="0.3" result="effect2_foregroundBlur_5872_16282"/>
</filter>
<filter id="filter8_df_5872_16282" x="248.246" y="16.1895" width="12.7852" height="13.4053" filterUnits="userSpaceOnUse" color-interpolation-filters="sRGB">
<feFlood flood-opacity="0" result="BackgroundImageFix"/>
<feColorMatrix in="SourceAlpha" type="matrix" values="0 0 0 0 0 0 0 0 0 0 0 0 0 0 0 0 0 0 127 0" result="hardAlpha"/>
<feOffset/>
<feGaussianBlur stdDeviation="2"/>
<feComposite in2="hardAlpha" operator="out"/>
<feColorMatrix type="matrix" values="0 0 0 0 1 0 0 0 0 1 0 0 0 0 1 0 0 0 0.25 0"/>
<feBlend mode="normal" in2="BackgroundImageFix" result="effect1_dropShadow_5872_16282"/>
<feBlend mode="normal" in="SourceGraphic" in2="effect1_dropShadow_5872_16282" result="shape"/>
<feGaussianBlur stdDeviation="0.3" result="effect2_foregroundBlur_5872_16282"/>
</filter>
<filter id="filter9_df_5872_16282" x="218.516" y="47.2705" width="12.7852" height="13.4053" filterUnits="userSpaceOnUse" color-interpolation-filters="sRGB">
<feFlood flood-opacity="0" result="BackgroundImageFix"/>
<feColorMatrix in="SourceAlpha" type="matrix" values="0 0 0 0 0 0 0 0 0 0 0 0 0 0 0 0 0 0 127 0" result="hardAlpha"/>
<feOffset/>
<feGaussianBlur stdDeviation="2"/>
<feComposite in2="hardAlpha" operator="out"/>
<feColorMatrix type="matrix" values="0 0 0 0 1 0 0 0 0 1 0 0 0 0 1 0 0 0 0.25 0"/>
<feBlend mode="normal" in2="BackgroundImageFix" result="effect1_dropShadow_5872_16282"/>
<feBlend mode="normal" in="SourceGraphic" in2="effect1_dropShadow_5872_16282" result="shape"/>
<feGaussianBlur stdDeviation="0.3" result="effect2_foregroundBlur_5872_16282"/>
</filter>
<filter id="filter10_df_5872_16282" x="299.594" y="-0.0263672" width="12.7852" height="13.4053" filterUnits="userSpaceOnUse" color-interpolation-filters="sRGB">
<feFlood flood-opacity="0" result="BackgroundImageFix"/>
<feColorMatrix in="SourceAlpha" type="matrix" values="0 0 0 0 0 0 0 0 0 0 0 0 0 0 0 0 0 0 127 0" result="hardAlpha"/>
<feOffset/>
<feGaussianBlur stdDeviation="2"/>
<feComposite in2="hardAlpha" operator="out"/>
<feColorMatrix type="matrix" values="0 0 0 0 1 0 0 0 0 1 0 0 0 0 1 0 0 0 0.25 0"/>
<feBlend mode="normal" in2="BackgroundImageFix" result="effect1_dropShadow_5872_16282"/>
<feBlend mode="normal" in="SourceGraphic" in2="effect1_dropShadow_5872_16282" result="shape"/>
<feGaussianBlur stdDeviation="0.3" result="effect2_foregroundBlur_5872_16282"/>
</filter>
<filter id="filter11_df_5872_16282" x="326.621" y="49.9736" width="12.7852" height="13.4053" filterUnits="userSpaceOnUse" color-interpolation-filters="sRGB">
<feFlood flood-opacity="0" result="BackgroundImageFix"/>
<feColorMatrix in="SourceAlpha" type="matrix" values="0 0 0 0 0 0 0 0 0 0 0 0 0 0 0 0 0 0 127 0" result="hardAlpha"/>
<feOffset/>
<feGaussianBlur stdDeviation="2"/>
<feComposite in2="hardAlpha" operator="out"/>
<feColorMatrix type="matrix" values="0 0 0 0 1 0 0 0 0 1 0 0 0 0 1 0 0 0 0.25 0"/>
<feBlend mode="normal" in2="BackgroundImageFix" result="effect1_dropShadow_5872_16282"/>
<feBlend mode="normal" in="SourceGraphic" in2="effect1_dropShadow_5872_16282" result="shape"/>
<feGaussianBlur stdDeviation="0.3" result="effect2_foregroundBlur_5872_16282"/>
</filter>
<filter id="filter12_df_5872_16282" x="349.594" y="12.1357" width="12.7852" height="13.4053" filterUnits="userSpaceOnUse" color-interpolation-filters="sRGB">
<feFlood flood-opacity="0" result="BackgroundImageFix"/>
<feColorMatrix in="SourceAlpha" type="matrix" values="0 0 0 0 0 0 0 0 0 0 0 0 0 0 0 0 0 0 127 0" result="hardAlpha"/>
<feOffset/>
<feGaussianBlur stdDeviation="2"/>
<feComposite in2="hardAlpha" operator="out"/>
<feColorMatrix type="matrix" values="0 0 0 0 1 0 0 0 0 1 0 0 0 0 1 0 0 0 0.25 0"/>
<feBlend mode="normal" in2="BackgroundImageFix" result="effect1_dropShadow_5872_16282"/>
<feBlend mode="normal" in="SourceGraphic" in2="effect1_dropShadow_5872_16282" result="shape"/>
<feGaussianBlur stdDeviation="0.3" result="effect2_foregroundBlur_5872_16282"/>
</filter>
<filter id="filter13_df_5872_16282" x="317.164" y="24.2979" width="12.7852" height="13.4053" filterUnits="userSpaceOnUse" color-interpolation-filters="sRGB">
<feFlood flood-opacity="0" result="BackgroundImageFix"/>
<feColorMatrix in="SourceAlpha" type="matrix" values="0 0 0 0 0 0 0 0 0 0 0 0 0 0 0 0 0 0 127 0" result="hardAlpha"/>
<feOffset/>
<feGaussianBlur stdDeviation="2"/>
<feComposite in2="hardAlpha" operator="out"/>
<feColorMatrix type="matrix" values="0 0 0 0 1 0 0 0 0 1 0 0 0 0 1 0 0 0 0.25 0"/>
<feBlend mode="normal" in2="BackgroundImageFix" result="effect1_dropShadow_5872_16282"/>
<feBlend mode="normal" in="SourceGraphic" in2="effect1_dropShadow_5872_16282" result="shape"/>
<feGaussianBlur stdDeviation="0.3" result="effect2_foregroundBlur_5872_16282"/>
</filter>
<filter id="filter14_df_5872_16282" x="375.27" y="59.4326" width="12.7852" height="13.4053" filterUnits="userSpaceOnUse" color-interpolation-filters="sRGB">
<feFlood flood-opacity="0" result="BackgroundImageFix"/>
<feColorMatrix in="SourceAlpha" type="matrix" values="0 0 0 0 0 0 0 0 0 0 0 0 0 0 0 0 0 0 127 0" result="hardAlpha"/>
<feOffset/>
<feGaussianBlur stdDeviation="2"/>
<feComposite in2="hardAlpha" operator="out"/>
<feColorMatrix type="matrix" values="0 0 0 0 1 0 0 0 0 1 0 0 0 0 1 0 0 0 0.25 0"/>
<feBlend mode="normal" in2="BackgroundImageFix" result="effect1_dropShadow_5872_16282"/>
<feBlend mode="normal" in="SourceGraphic" in2="effect1_dropShadow_5872_16282" result="shape"/>
<feGaussianBlur stdDeviation="0.3" result="effect2_foregroundBlur_5872_16282"/>
</filter>
<filter id="filter15_df_5872_16282" x="284.73" y="21.5947" width="12.7852" height="13.4053" filterUnits="userSpaceOnUse" color-interpolation-filters="sRGB">
<feFlood flood-opacity="0" result="BackgroundImageFix"/>
<feColorMatrix in="SourceAlpha" type="matrix" values="0 0 0 0 0 0 0 0 0 0 0 0 0 0 0 0 0 0 127 0" result="hardAlpha"/>
<feOffset/>
<feGaussianBlur stdDeviation="2"/>
<feComposite in2="hardAlpha" operator="out"/>
<feColorMatrix type="matrix" values="0 0 0 0 1 0 0 0 0 1 0 0 0 0 1 0 0 0 0.25 0"/>
<feBlend mode="normal" in2="BackgroundImageFix" result="effect1_dropShadow_5872_16282"/>
<feBlend mode="normal" in="SourceGraphic" in2="effect1_dropShadow_5872_16282" result="shape"/>
<feGaussianBlur stdDeviation="0.3" result="effect2_foregroundBlur_5872_16282"/>
</filter>
<filter id="filter16_df_5872_16282" x="375.27" y="29.7031" width="12.7852" height="13.4053" filterUnits="userSpaceOnUse" color-interpolation-filters="sRGB">
<feFlood flood-opacity="0" result="BackgroundImageFix"/>
<feColorMatrix in="SourceAlpha" type="matrix" values="0 0 0 0 0 0 0 0 0 0 0 0 0 0 0 0 0 0 127 0" result="hardAlpha"/>
<feOffset/>
<feGaussianBlur stdDeviation="2"/>
<feComposite in2="hardAlpha" operator="out"/>
<feColorMatrix type="matrix" values="0 0 0 0 1 0 0 0 0 1 0 0 0 0 1 0 0 0 0.25 0"/>
<feBlend mode="normal" in2="BackgroundImageFix" result="effect1_dropShadow_5872_16282"/>
<feBlend mode="normal" in="SourceGraphic" in2="effect1_dropShadow_5872_16282" result="shape"/>
<feGaussianBlur stdDeviation="0.3" result="effect2_foregroundBlur_5872_16282"/>
</filter>
<filter id="filter17_d_5872_16282" x="348.217" y="-16.5801" width="38.7501" height="40.0255" filterUnits="userSpaceOnUse" color-interpolation-filters="sRGB">
<feFlood flood-opacity="0" result="BackgroundImageFix"/>
<feColorMatrix in="SourceAlpha" type="matrix" values="0 0 0 0 0 0 0 0 0 0 0 0 0 0 0 0 0 0 127 0" result="hardAlpha"/>
<feOffset/>
<feGaussianBlur stdDeviation="2.31156"/>
<feComposite in2="hardAlpha" operator="out"/>
<feColorMatrix type="matrix" values="0 0 0 0 0 0 0 0 0 1 0 0 0 0 0.28 0 0 0 0.71 0"/>
<feBlend mode="normal" in2="BackgroundImageFix" result="effect1_dropShadow_5872_16282"/>
<feBlend mode="normal" in="SourceGraphic" in2="effect1_dropShadow_5872_16282" result="shape"/>
</filter>
<filter id="filter18_d_5872_16282" x="180.361" y="-30.377" width="63.1603" height="65.4952" filterUnits="userSpaceOnUse" color-interpolation-filters="sRGB">
<feFlood flood-opacity="0" result="BackgroundImageFix"/>
<feColorMatrix in="SourceAlpha" type="matrix" values="0 0 0 0 0 0 0 0 0 0 0 0 0 0 0 0 0 0 127 0" result="hardAlpha"/>
<feOffset/>
<feGaussianBlur stdDeviation="2.31156"/>
<feComposite in2="hardAlpha" operator="out"/>
<feColorMatrix type="matrix" values="0 0 0 0 0.926667 0 0 0 0 1 0 0 0 0 0.0833333 0 0 0 0.5 0"/>
<feBlend mode="normal" in2="BackgroundImageFix" result="effect1_dropShadow_5872_16282"/>
<feBlend mode="normal" in="SourceGraphic" in2="effect1_dropShadow_5872_16282" result="shape"/>
</filter>
<filter id="filter19_d_5872_16282" x="184.377" y="80.3769" width="40.4415" height="41.7902" filterUnits="userSpaceOnUse" color-interpolation-filters="sRGB">
<feFlood flood-opacity="0" result="BackgroundImageFix"/>
<feColorMatrix in="SourceAlpha" type="matrix" values="0 0 0 0 0 0 0 0 0 0 0 0 0 0 0 0 0 0 127 0" result="hardAlpha"/>
<feOffset/>
<feGaussianBlur stdDeviation="2.31156"/>
<feComposite in2="hardAlpha" operator="out"/>
<feColorMatrix type="matrix" values="0 0 0 0 0.926667 0 0 0 0 1 0 0 0 0 0.0833333 0 0 0 0.5 0"/>
<feBlend mode="normal" in2="BackgroundImageFix" result="effect1_dropShadow_5872_16282"/>
<feBlend mode="normal" in="SourceGraphic" in2="effect1_dropShadow_5872_16282" result="shape"/>
</filter>
<clipPath id="clip0_5872_16282">
<rect width="390" height="182" fill="white"/>
</clipPath>
<clipPath id="clip1_5872_16282">
<rect width="390" height="182" fill="white"/>
</clipPath>
<clipPath id="clip2_5872_16282">
<rect width="285.773" height="190" fill="white" transform="translate(179.895 5)"/>
</clipPath>
</defs>
</svg>
