<svg width="414" height="206" viewBox="0 0 414 206" fill="none" xmlns="http://www.w3.org/2000/svg">
<g filter="url(#filter0_d_5847_22276)">
<g clip-path="url(#clip0_5847_22276)">
<rect x="12" y="12" width="390" height="182" fill="#0073F0"/>
<g filter="url(#filter1_df_5847_22276)">
<path d="M228.22 43.6406L229.839 44.3506L228.22 45.0605L227.446 47.0537L226.672 45.0605L225.055 44.3506L226.673 43.6406L227.446 41.6484L228.22 43.6406Z" fill="white" fill-opacity="0.52" shape-rendering="crispEdges"/>
</g>
<g filter="url(#filter2_df_5847_22276)">
<path d="M218.759 16.6143L220.378 17.3242L218.759 18.0342L217.985 20.0273L217.211 18.0342L215.594 17.3242L217.212 16.6143L217.985 14.6221L218.759 16.6143Z" fill="white" fill-opacity="0.52" shape-rendering="crispEdges"/>
</g>
<g filter="url(#filter3_df_5847_22276)">
<path d="M196.165 27.9922L197.784 28.7021L196.165 29.4121L195.392 31.4053L194.617 29.4111L193 28.7021L194.618 27.9922L195.392 26L196.165 27.9922Z" fill="white" fill-opacity="0.52" shape-rendering="crispEdges"/>
</g>
<g filter="url(#filter4_df_5847_22276)">
<path d="M221.165 82.9922L222.784 83.7021L221.165 84.4121L220.392 86.4053L219.617 84.4111L218 83.7021L219.618 82.9922L220.392 81L221.165 82.9922Z" fill="white" fill-opacity="0.52" shape-rendering="crispEdges"/>
</g>
<g filter="url(#filter5_df_5847_22276)">
<path d="M212.165 55.9922L213.784 56.7021L212.165 57.4121L211.392 59.4053L210.617 57.4121L209 56.7021L210.618 55.9922L211.392 54L212.165 55.9922Z" fill="white" fill-opacity="0.52" shape-rendering="crispEdges"/>
</g>
<g filter="url(#filter6_df_5847_22276)">
<path d="M230.923 24.7217L232.542 25.4316L230.923 26.1416L230.149 28.1348L229.375 26.1416L227.758 25.4316L229.376 24.7217L230.149 22.7295L230.923 24.7217Z" fill="white" fill-opacity="0.52" shape-rendering="crispEdges"/>
</g>
<path d="M257.95 4.45215L259.569 5.16211L257.95 5.87207L257.177 7.86523L256.402 5.87207L254.785 5.16211L256.403 4.45215L257.177 2.45996L257.95 4.45215Z" fill="white" fill-opacity="0.52"/>
<g filter="url(#filter8_df_5847_22276)">
<path d="M267.411 34.1816L269.03 34.8916L267.411 35.6016L266.638 37.5947L265.863 35.6016L264.246 34.8916L265.864 34.1816L266.638 32.1895L267.411 34.1816Z" fill="white" fill-opacity="0.52" shape-rendering="crispEdges"/>
</g>
<g filter="url(#filter9_df_5847_22276)">
<path d="M237.681 65.2627L239.3 65.9727L237.681 66.6826L236.907 68.6758L236.133 66.6826L234.516 65.9727L236.134 65.2627L236.907 63.2705L237.681 65.2627Z" fill="white" fill-opacity="0.52" shape-rendering="crispEdges"/>
</g>
<g filter="url(#filter10_df_5847_22276)">
<path d="M318.759 17.9658L320.378 18.6758L318.759 19.3857L317.985 21.3789L317.211 19.3857L315.594 18.6758L317.212 17.9658L317.985 15.9736L318.759 17.9658Z" fill="white" fill-opacity="0.52" shape-rendering="crispEdges"/>
</g>
<g filter="url(#filter11_df_5847_22276)">
<path d="M345.786 67.9658L347.405 68.6758L345.786 69.3857L345.013 71.3789L344.238 69.3857L342.621 68.6758L344.239 67.9658L345.013 65.9736L345.786 67.9658Z" fill="white" fill-opacity="0.52" shape-rendering="crispEdges"/>
</g>
<g filter="url(#filter12_df_5847_22276)">
<path d="M368.759 30.1279L370.378 30.8379L368.759 31.5479L367.985 33.541L367.211 31.5479L365.594 30.8379L367.212 30.1279L367.985 28.1357L368.759 30.1279Z" fill="white" fill-opacity="0.52" shape-rendering="crispEdges"/>
</g>
<g filter="url(#filter13_df_5847_22276)">
<path d="M336.329 42.29L337.948 43L336.329 43.71L335.556 45.7031L334.781 43.71L333.164 43L334.782 42.29L335.556 40.2979L336.329 42.29Z" fill="white" fill-opacity="0.52" shape-rendering="crispEdges"/>
</g>
<g filter="url(#filter14_df_5847_22276)">
<path d="M394.435 77.4248L396.054 78.1348L394.435 78.8447L393.661 80.8379L392.887 78.8447L391.27 78.1348L392.888 77.4248L393.661 75.4326L394.435 77.4248Z" fill="white" fill-opacity="0.52" shape-rendering="crispEdges"/>
</g>
<g filter="url(#filter15_df_5847_22276)">
<path d="M303.896 39.5869L305.515 40.2969L303.896 41.0068L303.122 43L302.348 41.0068L300.73 40.2969L302.349 39.5869L303.122 37.5947L303.896 39.5869Z" fill="white" fill-opacity="0.52" shape-rendering="crispEdges"/>
</g>
<g filter="url(#filter16_df_5847_22276)">
<path d="M394.435 47.6953L396.054 48.4053L394.435 49.1152L393.661 51.1084L392.887 49.1152L391.27 48.4053L392.888 47.6953L393.661 45.7031L394.435 47.6953Z" fill="white" fill-opacity="0.52" shape-rendering="crispEdges"/>
</g>
<g filter="url(#filter17_d_5847_22276)">
<path d="M379.592 12.3543C379.592 12.3543 380.484 9.27637 379.592 9.27637C378.7 9.27637 379.592 12.3543 379.592 12.3543Z" fill="white" fill-opacity="0.6"/>
<path d="M378.465 12.5881C378.465 12.5881 378.16 9.38812 377.336 9.7445C376.511 10.1009 378.465 12.5881 378.465 12.5881Z" fill="white" fill-opacity="0.6"/>
<path d="M377.506 13.2562C377.506 13.2562 376.05 10.4212 375.419 11.0797C374.788 11.7382 377.506 13.2562 377.506 13.2562Z" fill="white" fill-opacity="0.6"/>
<path d="M376.865 14.2549C376.865 14.2549 374.481 12.2165 374.14 13.0772C373.798 13.9367 376.865 14.2549 376.865 14.2549Z" fill="white" fill-opacity="0.6"/>
<path d="M376.642 15.4323C376.642 15.4323 373.691 14.5013 373.691 15.4323C373.691 16.3634 376.642 15.4323 376.642 15.4323Z" fill="white" fill-opacity="0.6"/>
<path d="M376.865 16.6094C376.865 16.6094 373.798 16.9275 374.14 17.787C374.481 18.6477 376.865 16.6094 376.865 16.6094Z" fill="white" fill-opacity="0.6"/>
<path d="M377.506 17.6084C377.506 17.6084 374.788 19.1264 375.419 19.7849C376.05 20.4434 377.506 17.6084 377.506 17.6084Z" fill="white" fill-opacity="0.6"/>
<path d="M378.465 18.2754C378.465 18.2754 376.511 20.7626 377.336 21.119C378.16 21.4754 378.465 18.2754 378.465 18.2754Z" fill="white" fill-opacity="0.6"/>
<path d="M379.592 18.5098C379.592 18.5098 378.7 21.5877 379.592 21.5877C380.484 21.5877 379.592 18.5098 379.592 18.5098Z" fill="white" fill-opacity="0.6"/>
<path d="M380.719 18.2754C380.719 18.2754 381.024 21.4754 381.848 21.119C382.673 20.7626 380.719 18.2754 380.719 18.2754Z" fill="white" fill-opacity="0.6"/>
<path d="M381.676 17.6084C381.676 17.6084 383.131 20.4434 383.762 19.7849C384.393 19.1264 381.676 17.6084 381.676 17.6084Z" fill="white" fill-opacity="0.6"/>
<path d="M382.316 16.6094C382.316 16.6094 384.7 18.6477 385.042 17.787C385.384 16.9275 382.316 16.6094 382.316 16.6094Z" fill="white" fill-opacity="0.6"/>
<path d="M382.543 15.4323C382.543 15.4323 385.493 16.3634 385.493 15.4323C385.493 14.5013 382.543 15.4323 382.543 15.4323Z" fill="white" fill-opacity="0.6"/>
<path d="M382.316 14.2549C382.316 14.2549 385.384 13.9367 385.042 13.0772C384.7 12.2165 382.316 14.2549 382.316 14.2549Z" fill="white" fill-opacity="0.6"/>
<path d="M381.676 13.2562C381.676 13.2562 384.393 11.7382 383.762 11.0797C383.131 10.4212 381.676 13.2562 381.676 13.2562Z" fill="white" fill-opacity="0.6"/>
<path d="M380.719 12.5881C380.719 12.5881 382.673 10.1009 381.848 9.7445C381.024 9.38812 380.719 12.5881 380.719 12.5881Z" fill="white" fill-opacity="0.6"/>
<path d="M372.942 12.5592C372.942 12.5592 370.461 10.2779 370.051 11.31C369.641 12.3422 372.942 12.5592 372.942 12.5592Z" fill="white" fill-opacity="0.6"/>
<path d="M372.394 15.4331C372.394 15.4331 369.266 14.3158 369.266 15.4331C369.266 16.5503 372.394 15.4331 372.394 15.4331Z" fill="white" fill-opacity="0.6"/>
<path d="M372.942 18.3057C372.942 18.3057 369.642 18.5227 370.051 19.5548C370.461 20.587 372.942 18.3057 372.942 18.3057Z" fill="white" fill-opacity="0.6"/>
<path d="M374.504 20.7412C374.504 20.7412 371.535 22.2592 372.291 23.0496C373.048 23.8401 374.504 20.7412 374.504 20.7412Z" fill="white" fill-opacity="0.6"/>
<path d="M376.837 22.3691C376.837 22.3691 374.65 24.9575 375.64 25.3854C376.629 25.8133 376.837 22.3691 376.837 22.3691Z" fill="white" fill-opacity="0.6"/>
<path d="M379.593 22.9414C379.593 22.9414 378.522 26.2055 379.593 26.2055C380.664 26.2055 379.593 22.9414 379.593 22.9414Z" fill="white" fill-opacity="0.6"/>
<path d="M382.348 22.3691C382.348 22.3691 382.556 25.812 383.545 25.3854C384.534 24.9587 382.348 22.3691 382.348 22.3691Z" fill="white" fill-opacity="0.6"/>
<path d="M384.68 20.7412C384.68 20.7412 386.135 23.8388 386.892 23.0496C387.65 22.2604 384.68 20.7412 384.68 20.7412Z" fill="white" fill-opacity="0.6"/>
<path d="M386.238 18.3057C386.238 18.3057 388.719 20.587 389.129 19.5548C389.54 18.5227 386.238 18.3057 386.238 18.3057Z" fill="white" fill-opacity="0.6"/>
<path d="M386.789 15.4331C386.789 15.4331 389.918 16.5503 389.918 15.4331C389.918 14.3158 386.789 15.4331 386.789 15.4331Z" fill="white" fill-opacity="0.6"/>
<path d="M386.238 12.5592C386.238 12.5592 389.538 12.3422 389.129 11.31C388.719 10.2779 386.238 12.5592 386.238 12.5592Z" fill="white" fill-opacity="0.6"/>
<path d="M368.047 15.4321C368.047 15.4321 364.84 14.3149 364.84 15.4321C364.84 16.5493 368.047 15.4321 368.047 15.4321Z" fill="white" fill-opacity="0.6"/>
<path d="M368.927 20.042C368.927 20.042 365.555 20.2899 365.964 21.322C366.374 22.3541 368.927 20.042 368.927 20.042Z" fill="white" fill-opacity="0.6"/>
<path d="M371.428 23.9482C371.428 23.9482 368.403 25.5242 369.161 26.3134C369.917 27.1038 371.428 23.9482 371.428 23.9482Z" fill="white" fill-opacity="0.6"/>
<path d="M375.173 26.5586C375.173 26.5586 372.956 29.2222 373.946 29.65C374.935 30.0779 375.173 26.5586 375.173 26.5586Z" fill="white" fill-opacity="0.6"/>
<path d="M379.593 27.4766C379.593 27.4766 378.522 30.822 379.593 30.822C380.664 30.822 379.593 27.4766 379.593 27.4766Z" fill="white" fill-opacity="0.6"/>
<path d="M384.008 26.5586C384.008 26.5586 384.245 30.0767 385.235 29.65C386.224 29.2222 384.008 26.5586 384.008 26.5586Z" fill="white" fill-opacity="0.6"/>
<path d="M387.754 23.9482C387.754 23.9482 389.264 27.1038 390.021 26.3134C390.779 25.5242 387.754 23.9482 387.754 23.9482Z" fill="white" fill-opacity="0.6"/>
<path d="M390.254 20.042C390.254 20.042 392.807 22.3541 393.217 21.322C393.627 20.2899 390.254 20.042 390.254 20.042Z" fill="white" fill-opacity="0.6"/>
<path d="M391.137 15.4321C391.137 15.4321 394.343 16.5493 394.343 15.4321C394.343 14.3149 391.137 15.4321 391.137 15.4321Z" fill="white" fill-opacity="0.6"/>
</g>
<g filter="url(#filter18_d_5847_22276)">
<path d="M218.963 12.2183C218.963 12.2183 214.606 8.49314 213.982 10.0661C213.358 11.6369 218.963 12.2183 218.963 12.2183Z" fill="white" fill-opacity="0.6"/>
<path d="M218.552 14.3714C218.552 14.3714 213.16 12.67 213.16 14.3714C213.16 16.0729 218.552 14.3714 218.552 14.3714Z" fill="white" fill-opacity="0.6"/>
<path d="M218.963 16.5234C218.963 16.5234 213.358 17.1049 213.982 18.6756C214.606 20.2486 218.963 16.5234 218.963 16.5234Z" fill="white" fill-opacity="0.6"/>
<path d="M220.131 18.3486C220.131 18.3486 215.165 21.1228 216.318 22.3262C217.472 23.5296 220.131 18.3486 220.131 18.3486Z" fill="white" fill-opacity="0.6"/>
<path d="M221.88 19.5674C221.88 19.5674 218.309 24.1128 219.817 24.7641C221.322 25.4154 221.88 19.5674 221.88 19.5674Z" fill="white" fill-opacity="0.6"/>
<path d="M223.944 19.9961C223.944 19.9961 222.313 25.621 223.944 25.621C225.574 25.621 223.944 19.9961 223.944 19.9961Z" fill="white" fill-opacity="0.6"/>
<path d="M226.008 19.5674C226.008 19.5674 226.565 25.4154 228.071 24.7641C229.578 24.1128 226.008 19.5674 226.008 19.5674Z" fill="white" fill-opacity="0.6"/>
<path d="M227.754 18.3486C227.754 18.3486 230.413 23.5296 231.566 22.3262C232.72 21.1228 227.754 18.3486 227.754 18.3486Z" fill="white" fill-opacity="0.6"/>
<path d="M228.926 16.5234C228.926 16.5234 233.283 20.2486 233.907 18.6756C234.531 17.1049 228.926 16.5234 228.926 16.5234Z" fill="white" fill-opacity="0.6"/>
<path d="M229.336 14.3714C229.336 14.3714 234.728 16.0729 234.728 14.3714C234.728 12.67 229.336 14.3714 229.336 14.3714Z" fill="white" fill-opacity="0.6"/>
<path d="M228.926 12.2183C228.926 12.2183 234.531 11.6369 233.907 10.0661C233.283 8.49314 228.926 12.2183 228.926 12.2183Z" fill="white" fill-opacity="0.6"/>
<path d="M210.788 14.3713C210.788 14.3713 205.07 12.3296 205.07 14.3713C205.07 16.413 210.788 14.3713 210.788 14.3713Z" fill="white" fill-opacity="0.6"/>
<path d="M211.789 19.6211C211.789 19.6211 205.758 20.0177 206.506 21.904C207.255 23.7902 211.789 19.6211 211.789 19.6211Z" fill="white" fill-opacity="0.6"/>
<path d="M214.644 24.0723C214.644 24.0723 209.218 26.8464 210.6 28.2909C211.983 29.7355 214.644 24.0723 214.644 24.0723Z" fill="white" fill-opacity="0.6"/>
<path d="M218.908 27.0469C218.908 27.0469 214.912 31.7771 216.72 32.5591C218.528 33.3411 218.908 27.0469 218.908 27.0469Z" fill="white" fill-opacity="0.6"/>
<path d="M223.94 28.0928C223.94 28.0928 221.983 34.058 223.94 34.058C225.897 34.058 223.94 28.0928 223.94 28.0928Z" fill="white" fill-opacity="0.6"/>
<path d="M228.977 27.0469C228.977 27.0469 229.357 33.3388 231.165 32.5591C232.973 31.7794 228.977 27.0469 228.977 27.0469Z" fill="white" fill-opacity="0.6"/>
<path d="M233.242 24.0723C233.242 24.0723 235.901 29.7332 237.286 28.2909C238.671 26.8487 233.242 24.0723 233.242 24.0723Z" fill="white" fill-opacity="0.6"/>
<path d="M236.094 19.6211C236.094 19.6211 240.628 23.7902 241.377 21.904C242.127 20.0177 236.094 19.6211 236.094 19.6211Z" fill="white" fill-opacity="0.6"/>
<path d="M237.094 14.3713C237.094 14.3713 242.812 16.413 242.812 14.3713C242.812 12.3296 237.094 14.3713 237.094 14.3713Z" fill="white" fill-opacity="0.6"/>
<path d="M202.845 14.3703C202.845 14.3703 196.984 12.3286 196.984 14.3703C196.984 16.4121 202.845 14.3703 202.845 14.3703Z" fill="white" fill-opacity="0.6"/>
<path d="M204.451 22.7949C204.451 22.7949 198.288 23.2479 199.036 25.1341C199.785 27.0204 204.451 22.7949 204.451 22.7949Z" fill="white" fill-opacity="0.6"/>
<path d="M209.026 29.9336C209.026 29.9336 203.498 32.8137 204.883 34.2559C206.265 35.7005 209.026 29.9336 209.026 29.9336Z" fill="white" fill-opacity="0.6"/>
<path d="M215.867 34.7041C215.867 34.7041 211.817 39.5718 213.625 40.3538C215.433 41.1358 215.867 34.7041 215.867 34.7041Z" fill="white" fill-opacity="0.6"/>
<path d="M223.944 36.3809C223.944 36.3809 221.987 42.4948 223.944 42.4948C225.901 42.4948 223.944 36.3809 223.944 36.3809Z" fill="white" fill-opacity="0.6"/>
<path d="M232.016 34.7041C232.016 34.7041 232.45 41.1335 234.258 40.3538C236.066 39.5718 232.016 34.7041 232.016 34.7041Z" fill="white" fill-opacity="0.6"/>
<path d="M238.859 29.9336C238.859 29.9336 241.62 35.7005 243.002 34.2559C244.387 32.8137 238.859 29.9336 238.859 29.9336Z" fill="white" fill-opacity="0.6"/>
<path d="M243.434 22.7949C243.434 22.7949 248.099 27.0204 248.849 25.1341C249.599 23.2479 243.434 22.7949 243.434 22.7949Z" fill="white" fill-opacity="0.6"/>
<path d="M245.039 14.3703C245.039 14.3703 250.899 16.4121 250.899 14.3703C250.899 12.3286 245.039 14.3703 245.039 14.3703Z" fill="white" fill-opacity="0.6"/>
</g>
<g clip-path="url(#clip1_5847_22276)">
<g filter="url(#filter19_d_5847_22276)">
<path d="M216.599 110.017C216.599 110.017 217.543 106.763 216.599 106.763C215.655 106.763 216.599 110.017 216.599 110.017Z" fill="white" fill-opacity="0.6"/>
<path d="M215.404 110.264C215.404 110.264 215.082 106.881 214.211 107.258C213.339 107.635 215.404 110.264 215.404 110.264Z" fill="white" fill-opacity="0.6"/>
<path d="M214.392 110.971C214.392 110.971 212.854 107.973 212.186 108.669C211.519 109.366 214.392 110.971 214.392 110.971Z" fill="white" fill-opacity="0.6"/>
<path d="M213.715 112.026C213.715 112.026 211.194 109.871 210.833 110.781C210.472 111.69 213.715 112.026 213.715 112.026Z" fill="white" fill-opacity="0.6"/>
<path d="M213.479 113.271C213.479 113.271 210.359 112.287 210.359 113.271C210.359 114.256 213.479 113.271 213.479 113.271Z" fill="white" fill-opacity="0.6"/>
<path d="M213.715 114.517C213.715 114.517 210.472 114.853 210.833 115.762C211.194 116.672 213.715 114.517 213.715 114.517Z" fill="white" fill-opacity="0.6"/>
<path d="M214.392 115.572C214.392 115.572 211.519 117.177 212.186 117.874C212.854 118.57 214.392 115.572 214.392 115.572Z" fill="white" fill-opacity="0.6"/>
<path d="M215.404 116.278C215.404 116.278 213.339 118.908 214.211 119.285C215.082 119.662 215.404 116.278 215.404 116.278Z" fill="white" fill-opacity="0.6"/>
<path d="M216.599 116.525C216.599 116.525 215.655 119.78 216.599 119.78C217.543 119.78 216.599 116.525 216.599 116.525Z" fill="white" fill-opacity="0.6"/>
<path d="M217.793 116.278C217.793 116.278 218.115 119.662 218.986 119.285C219.859 118.908 217.793 116.278 217.793 116.278Z" fill="white" fill-opacity="0.6"/>
<path d="M218.805 115.572C218.805 115.572 220.343 118.57 221.011 117.874C221.678 117.177 218.805 115.572 218.805 115.572Z" fill="white" fill-opacity="0.6"/>
<path d="M219.48 114.517C219.48 114.517 222.001 116.672 222.362 115.762C222.724 114.853 219.48 114.517 219.48 114.517Z" fill="white" fill-opacity="0.6"/>
<path d="M219.719 113.271C219.719 113.271 222.838 114.256 222.838 113.271C222.838 112.287 219.719 113.271 219.719 113.271Z" fill="white" fill-opacity="0.6"/>
<path d="M219.48 112.026C219.48 112.026 222.724 111.69 222.362 110.781C222.001 109.871 219.48 112.026 219.48 112.026Z" fill="white" fill-opacity="0.6"/>
<path d="M218.805 110.971C218.805 110.971 221.678 109.366 221.011 108.669C220.343 107.973 218.805 110.971 218.805 110.971Z" fill="white" fill-opacity="0.6"/>
<path d="M217.793 110.264C217.793 110.264 219.859 107.635 218.986 107.258C218.115 106.881 217.793 110.264 217.793 110.264Z" fill="white" fill-opacity="0.6"/>
<path d="M216.597 105.333C216.597 105.333 217.729 101.882 216.597 101.882C215.465 101.882 216.597 105.333 216.597 105.333Z" fill="white" fill-opacity="0.6"/>
<path d="M213.686 105.938C213.686 105.938 213.466 102.298 212.42 102.749C211.374 103.201 213.686 105.938 213.686 105.938Z" fill="white" fill-opacity="0.6"/>
<path d="M211.216 107.659C211.216 107.659 209.678 104.384 208.877 105.218C208.076 106.053 211.216 107.659 211.216 107.659Z" fill="white" fill-opacity="0.6"/>
<path d="M209.567 110.234C209.567 110.234 206.944 107.822 206.51 108.913C206.076 110.005 209.567 110.234 209.567 110.234Z" fill="white" fill-opacity="0.6"/>
<path d="M208.988 113.272C208.988 113.272 205.68 112.091 205.68 113.272C205.68 114.453 208.988 113.272 208.988 113.272Z" fill="white" fill-opacity="0.6"/>
<path d="M209.567 116.311C209.567 116.311 206.077 116.54 206.51 117.631C206.943 118.723 209.567 116.311 209.567 116.311Z" fill="white" fill-opacity="0.6"/>
<path d="M211.216 118.885C211.216 118.885 208.077 120.49 208.877 121.326C209.676 122.161 211.216 118.885 211.216 118.885Z" fill="white" fill-opacity="0.6"/>
<path d="M213.686 120.606C213.686 120.606 211.374 123.343 212.42 123.796C213.466 124.248 213.686 120.606 213.686 120.606Z" fill="white" fill-opacity="0.6"/>
<path d="M216.597 121.211C216.597 121.211 215.465 124.662 216.597 124.662C217.729 124.662 216.597 121.211 216.597 121.211Z" fill="white" fill-opacity="0.6"/>
<path d="M219.512 120.606C219.512 120.606 219.732 124.247 220.778 123.796C221.824 123.345 219.512 120.606 219.512 120.606Z" fill="white" fill-opacity="0.6"/>
<path d="M221.977 118.885C221.977 118.885 223.515 122.16 224.316 121.326C225.117 120.491 221.977 118.885 221.977 118.885Z" fill="white" fill-opacity="0.6"/>
<path d="M223.629 116.311C223.629 116.311 226.252 118.723 226.686 117.631C227.119 116.54 223.629 116.311 223.629 116.311Z" fill="white" fill-opacity="0.6"/>
<path d="M224.207 113.272C224.207 113.272 227.515 114.453 227.515 113.272C227.515 112.091 224.207 113.272 224.207 113.272Z" fill="white" fill-opacity="0.6"/>
<path d="M223.629 110.234C223.629 110.234 227.118 110.005 226.686 108.913C226.252 107.822 223.629 110.234 223.629 110.234Z" fill="white" fill-opacity="0.6"/>
<path d="M221.977 107.659C221.977 107.659 225.116 106.054 224.316 105.218C223.516 104.383 221.977 107.659 221.977 107.659Z" fill="white" fill-opacity="0.6"/>
<path d="M219.512 105.938C219.512 105.938 221.824 103.201 220.778 102.749C219.732 102.296 219.512 105.938 219.512 105.938Z" fill="white" fill-opacity="0.6"/>
<path d="M216.597 100.537C216.597 100.537 217.729 97 216.597 97C215.465 97 216.597 100.537 216.597 100.537Z" fill="white" fill-opacity="0.6"/>
<path d="M211.926 101.506C211.926 101.506 211.674 97.786 210.628 98.2372C209.582 98.6909 211.926 101.506 211.926 101.506Z" fill="white" fill-opacity="0.6"/>
<path d="M207.967 104.268C207.967 104.268 206.37 100.931 205.57 101.767C204.769 102.602 207.967 104.268 207.967 104.268Z" fill="white" fill-opacity="0.6"/>
<path d="M205.322 108.399C205.322 108.399 202.623 105.954 202.189 107.045C201.755 108.136 205.322 108.399 205.322 108.399Z" fill="white" fill-opacity="0.6"/>
<path d="M204.391 113.272C204.391 113.272 201 112.091 201 113.272C201 114.453 204.391 113.272 204.391 113.272Z" fill="white" fill-opacity="0.6"/>
<path d="M205.322 118.146C205.322 118.146 201.756 118.408 202.189 119.499C202.622 120.59 205.322 118.146 205.322 118.146Z" fill="white" fill-opacity="0.6"/>
<path d="M207.967 122.276C207.967 122.276 204.769 123.943 205.57 124.777C206.37 125.613 207.967 122.276 207.967 122.276Z" fill="white" fill-opacity="0.6"/>
<path d="M211.926 125.036C211.926 125.036 209.582 127.852 210.628 128.305C211.674 128.757 211.926 125.036 211.926 125.036Z" fill="white" fill-opacity="0.6"/>
<path d="M216.597 126.007C216.597 126.007 215.465 129.544 216.597 129.544C217.729 129.544 216.597 126.007 216.597 126.007Z" fill="white" fill-opacity="0.6"/>
<path d="M221.27 125.036C221.27 125.036 221.521 128.756 222.567 128.305C223.613 127.852 221.27 125.036 221.27 125.036Z" fill="white" fill-opacity="0.6"/>
<path d="M225.227 122.276C225.227 122.276 226.824 125.613 227.624 124.777C228.425 123.943 225.227 122.276 225.227 122.276Z" fill="white" fill-opacity="0.6"/>
<path d="M227.875 118.146C227.875 118.146 230.574 120.59 231.008 119.499C231.442 118.408 227.875 118.146 227.875 118.146Z" fill="white" fill-opacity="0.6"/>
<path d="M228.805 113.272C228.805 113.272 232.195 114.453 232.195 113.272C232.195 112.091 228.805 113.272 228.805 113.272Z" fill="white" fill-opacity="0.6"/>
<path d="M227.875 108.399C227.875 108.399 231.441 108.136 231.008 107.045C230.574 105.954 227.875 108.399 227.875 108.399Z" fill="white" fill-opacity="0.6"/>
<path d="M225.227 104.268C225.227 104.268 228.425 102.602 227.624 101.767C226.824 100.931 225.227 104.268 225.227 104.268Z" fill="white" fill-opacity="0.6"/>
<path d="M221.27 101.506C221.27 101.506 223.613 98.6896 222.567 98.2372C221.521 97.786 221.27 101.506 221.27 101.506Z" fill="white" fill-opacity="0.6"/>
</g>
<path d="M443.093 45.4241C443.093 45.3573 443.061 45.2953 443.014 45.2475V45.1426H226.158V63.1737H226.152V206.587H226.331C226.383 206.63 226.452 206.659 226.525 206.659H246.097C246.171 206.659 246.239 206.63 246.292 206.587H246.412V63.5411H422.749V206.583H422.927C422.98 206.626 423.048 206.654 423.122 206.654H442.693C442.767 206.654 442.835 206.626 442.888 206.583H443.009V63.5411V63.3788C443.056 63.3311 443.087 63.2691 443.087 63.2023V45.4241H443.093ZM423.431 46.0539L432.566 54.3132L423.431 62.5725V46.0539ZM432.976 54.6806L442.194 63.0162H423.757L432.976 54.6806ZM433.38 54.3132L442.431 46.1255V62.5009L433.38 54.3132ZM432.976 53.9458L423.82 45.6627H442.131L432.976 53.9458ZM413.315 53.9458L404.159 45.6627H422.47L413.315 53.9458ZM422.859 46.0539V62.5772L413.724 54.318L422.859 46.0539ZM403.198 62.5772L394.063 54.318L403.198 46.0587V62.5772ZM403.776 46.0539L412.91 54.3132L403.776 62.5725V46.0539ZM393.659 53.9458L384.503 45.6627H402.814L393.659 53.9458ZM383.542 62.5772L374.407 54.318L383.542 46.0587V62.5772ZM384.12 46.0539L393.254 54.3132L384.12 62.5725V46.0539ZM374.003 53.9458L364.847 45.6627H383.158L374.003 53.9458ZM363.886 62.5772L354.751 54.318L363.886 46.0587V62.5772ZM364.464 46.0539L373.598 54.3132L364.464 62.5725V46.0539ZM354.347 53.9458L345.191 45.6627H363.502L354.347 53.9458ZM344.23 62.5772L335.095 54.318L344.23 46.0587V62.5772ZM344.802 46.0539L353.937 54.3132L344.802 62.5725V46.0539ZM334.686 53.9458L325.53 45.6627H343.841L334.686 53.9458ZM324.569 62.5772L315.434 54.318L324.569 46.0539V62.5772ZM325.146 46.0539L334.281 54.3132L325.146 62.5725V46.0539ZM315.03 53.9458L305.874 45.6627H324.185L315.03 53.9458ZM304.913 62.5772L295.778 54.318L304.913 46.0587V62.5772ZM305.491 46.0539L314.625 54.3132L305.491 62.5725V46.0539ZM295.374 53.9458L286.218 45.6627H304.535L295.374 53.9458ZM285.257 62.5772L276.122 54.318L285.257 46.0587V62.5772ZM285.829 46.0539L294.964 54.3132L285.829 62.5725V46.0539ZM275.718 53.9458L266.562 45.6627H284.873L275.718 53.9458ZM265.601 62.5772L256.466 54.318L265.601 46.0587V62.5772ZM266.173 46.0539L275.308 54.3132L266.173 62.5725V46.0539ZM256.056 53.9458L246.901 45.6627H265.212L256.056 53.9458ZM245.94 62.5772L236.805 54.318L245.94 46.0587V62.5772ZM245.619 63.021H227.182L236.401 54.6854L245.619 63.021ZM246.517 46.0539L255.652 54.3132L246.517 62.5725V46.0539ZM236.401 53.9458L227.245 45.6627H245.556L236.401 53.9458ZM235.991 54.3132L226.73 62.687V45.9394L235.991 54.3132ZM226.725 153.382L235.902 161.755L226.725 170.129V153.382ZM226.725 135.527L235.902 143.901L226.725 152.275V135.527ZM226.725 117.673L235.902 126.046L226.725 134.42V117.673ZM226.725 99.8132L235.902 108.187L226.725 116.561V99.8132ZM227.219 170.42L236.311 162.123L245.404 170.42H227.219ZM245.404 170.945L236.311 179.243L227.219 170.945H245.404ZM227.219 153.091H245.409L236.317 161.388L227.219 153.091ZM227.219 152.566L236.311 144.268L245.404 152.566H227.219ZM227.219 135.231H245.409L236.317 143.529L227.219 135.231ZM227.219 134.711L236.311 126.414L245.404 134.711H227.219ZM227.219 117.377H245.409L236.317 125.674L227.219 117.377ZM227.219 116.857L236.311 108.559L245.404 116.857H227.219ZM227.219 99.5221H245.409L236.317 107.82L227.219 99.5221ZM227.219 98.9973L236.311 90.6998L245.404 98.9973H227.219ZM226.725 98.7062V81.9586L235.902 90.3324L226.725 98.7062ZM226.725 171.236L235.902 179.61L226.725 187.984V171.236ZM236.311 179.982L245.404 188.28H227.213L236.311 179.982ZM245.835 187.926L236.716 179.61L245.835 171.293V187.926ZM245.835 170.072L236.716 161.755L245.835 153.439V170.072ZM245.835 152.217L236.716 143.901L245.835 135.584V152.217ZM245.835 134.363L236.716 126.046L245.835 117.73V134.363ZM245.835 116.504L236.716 108.187L245.835 99.8704V116.504ZM245.835 98.649L236.716 90.3324L245.835 82.0159V98.649ZM236.311 89.9603L227.219 81.6628H245.409L236.311 89.9603ZM227.219 81.1427L236.311 72.8453L245.404 81.1427H227.219ZM226.725 80.8517V64.1041L235.902 72.4779L226.725 80.8517ZM245.404 188.8L236.311 197.097L227.219 188.8H245.404ZM236.716 72.4779L245.835 64.1613V80.7944L236.716 72.4779ZM236.311 72.1057L227.093 63.6938H245.535L236.311 72.1057ZM226.725 189.095L235.902 197.469L226.725 205.843V189.095ZM227.292 206.063L236.311 197.837L245.33 206.063H227.292ZM236.716 197.465L245.835 189.148V205.781L236.716 197.465ZM256.056 54.6806L265.275 63.0162H246.838L256.056 54.6806ZM275.718 54.6806L284.936 63.0162H266.499L275.718 54.6806ZM295.374 54.6806L304.592 63.0162H286.155L295.374 54.6806ZM315.03 54.6806L324.248 63.0162H305.811L315.03 54.6806ZM334.686 54.6806L343.904 63.0162H325.467L334.686 54.6806ZM354.347 54.6806L363.565 63.0162H345.128L354.347 54.6806ZM374.003 54.6806L383.221 63.0162H364.784L374.003 54.6806ZM393.659 54.6806L402.877 63.0162H384.44L393.659 54.6806ZM413.315 54.6806L422.533 63.0162H404.096L413.315 54.6806ZM432.503 72.4779L423.326 80.8517V64.1041L432.503 72.4779ZM423.326 171.236L432.503 179.61L423.326 187.984V171.236ZM423.326 153.382L432.503 161.755L423.326 170.129V153.382ZM423.326 135.527L432.503 143.901L423.326 152.275V135.527ZM423.326 117.673L432.503 126.046L423.326 134.42V117.673ZM423.326 99.8132L432.503 108.187L423.326 116.561V99.8132ZM423.326 81.9586L432.503 90.3324L423.326 98.7062V81.9586ZM423.815 170.42L432.908 162.123L442 170.42H423.815ZM442.005 170.945L432.913 179.243L423.82 170.945H442.005ZM423.815 153.091H442.005L432.913 161.388L423.815 153.091ZM423.815 152.566L432.908 144.268L442 152.566H423.815ZM423.815 135.231H442.005L432.913 143.529L423.815 135.231ZM423.815 134.711L432.908 126.414L442 134.711H423.815ZM423.815 117.377H442.005L432.913 125.674L423.815 117.377ZM423.815 116.857L432.908 108.559L442 116.857H423.815ZM423.815 99.5221H442.005L432.913 107.82L423.815 99.5221ZM423.815 98.9973L432.908 90.6998L442 98.9973H423.815ZM432.913 179.982L442.005 188.28H423.815L432.913 179.982ZM442.436 187.926L433.317 179.61L442.436 171.293V187.926ZM442.436 170.072L433.317 161.755L442.436 153.439V170.072ZM442.436 152.217L433.317 143.901L442.436 135.584V152.217ZM442.436 134.363L433.317 126.046L442.436 117.73V134.363ZM442.436 116.504L433.317 108.187L442.436 99.8704V116.504ZM442.436 98.649L433.317 90.3324L442.436 82.0159V98.649ZM432.913 89.9603L423.82 81.6628H442.011L432.913 89.9603ZM423.815 81.1427L432.908 72.8453L442 81.1427H423.815ZM442.005 188.8L432.913 197.097L423.82 188.8H442.005ZM433.317 72.4779L442.436 64.1613V80.7992L433.317 72.4779ZM432.913 72.1057L423.689 63.6938H442.131L432.913 72.1057ZM423.326 189.095L432.503 197.469L423.326 205.843V189.095ZM423.894 206.063L432.913 197.837L441.932 206.063H423.894ZM433.317 197.465L442.436 189.148V205.786L433.317 197.465Z" fill="#765056"/>
<path d="M457.696 185.461L211.684 185.483L223.317 178.638H446.961L457.696 185.461Z" fill="#EEEEEE"/>
<path d="M245.09 143.671H223.719V179.591H245.09V143.671Z" fill="#0F4573"/>
<path d="M234.074 163.421C230.209 163.421 227.062 160.151 227.062 156.133C227.062 152.116 230.209 148.846 234.074 148.846C237.94 148.846 241.086 152.116 241.086 156.133C241.086 160.151 237.945 163.421 234.074 163.421Z" fill="#0D3B5E"/>
<path d="M234.075 149.588C237.547 149.588 240.373 152.525 240.373 156.133C240.373 159.742 237.547 162.678 234.075 162.678C230.603 162.678 227.778 159.742 227.778 156.133C227.778 152.525 230.603 149.588 234.075 149.588ZM234.075 148.098C229.805 148.098 226.344 151.695 226.344 156.133C226.344 160.571 229.805 164.169 234.075 164.169C238.345 164.169 241.807 160.571 241.807 156.133C241.807 151.695 238.345 148.098 234.075 148.098Z" fill="#9CDDCF"/>
<path d="M236.517 172.619C236.517 174.022 235.425 175.158 234.075 175.158C232.725 175.158 231.633 174.022 231.633 172.619C231.633 171.217 232.725 170.081 234.075 170.081C235.425 170.087 236.517 171.222 236.517 172.619Z" fill="#9CDDCF"/>
<path d="M245.09 107.877H223.719V143.797H245.09V107.877Z" fill="#0F4573"/>
<path d="M234.074 124.045C230.209 124.045 227.062 127.315 227.062 131.333C227.062 135.35 230.209 138.62 234.074 138.62C237.94 138.62 241.086 135.35 241.086 131.333C241.086 127.315 237.945 124.045 234.074 124.045Z" fill="#0D3B5E"/>
<path d="M234.075 137.873C230.603 137.873 227.778 134.936 227.778 131.328C227.778 127.719 230.603 124.782 234.075 124.782C237.547 124.782 240.373 127.719 240.373 131.328C240.373 134.941 237.547 137.873 234.075 137.873ZM234.075 139.363C238.345 139.363 241.807 135.766 241.807 131.328C241.807 126.889 238.345 123.292 234.075 123.292C229.805 123.292 226.344 126.889 226.344 131.328C226.349 135.766 229.81 139.363 234.075 139.363Z" fill="#9CDDCF"/>
<path d="M236.517 114.842C236.517 113.439 235.425 112.304 234.075 112.304C232.725 112.304 231.633 113.439 231.633 114.842C231.633 116.245 232.725 117.381 234.075 117.381C235.425 117.381 236.517 116.245 236.517 114.842Z" fill="#9CDDCF"/>
<path d="M419.611 68.1788V174.147H249.951V68.1788H419.611ZM424.952 63.2949H244.609V179.031H424.952V63.2949Z" fill="#0F4573"/>
<path d="M422.176 66.1875H247.383V177.101H422.176V66.1875Z" fill="#EEEEEE"/>
<path d="M239.713 45.2637H237.77V53.8833H239.713V45.2637Z" fill="#0D3B5E"/>
<path d="M246.475 45.2637H244.531V57.3115H246.475V45.2637Z" fill="#0D3B5E"/>
<path d="M256.041 67.0233C255.195 69.0212 254.218 70.9755 252.989 72.7442C252.989 73.3119 251.849 74.2836 251.508 74.6931C250.883 73.7159 250.258 72.7333 249.638 71.7562C249.234 71.1175 248.246 70.0912 248.262 69.2833C248.267 69.0649 248.356 68.8575 248.44 68.6555C248.903 67.6128 249.423 66.5975 250 65.6149C250.578 64.6377 251.277 63.808 251.597 62.7053C253.299 62.6998 255.006 62.8144 256.692 63.0437C256.781 63.0546 256.881 63.071 256.944 63.1474C257.002 63.2184 257.007 63.3167 257.002 63.4095C256.981 64.665 256.529 65.8714 256.041 67.0233Z" fill="#0F4573"/>
<path d="M246.362 71.2598C245.285 71.3253 244.235 71.2707 243.174 71.1233C242.428 71.0196 240.752 70.9814 240.29 70.3154C240.222 71.4891 240.568 72.8374 240.705 74.0166C240.878 75.4577 241.046 76.8989 241.22 78.3455C241.22 78.4001 244.166 77.9306 244.371 77.8924C245.842 77.6195 247.155 77.2701 248.536 76.6805C248.573 76.6642 248.61 76.6478 248.625 76.615C248.646 76.5714 248.631 76.5168 248.615 76.4731C248.247 75.4086 247.88 74.3441 247.512 73.2851C247.323 72.7174 247.134 71.2107 246.362 71.2598Z" fill="#0F4573"/>
<path d="M251.357 60.5111C250.68 59.6377 249.944 58.8571 249.13 58.1419C248.558 57.6343 247.413 56.3623 246.625 56.4497C247.423 55.6145 248.616 54.9758 249.556 54.2989C250.701 53.4691 251.851 52.6339 252.996 51.8041C253.033 51.7659 254.672 54.3589 254.777 54.539C255.564 55.8601 256.189 57.1047 256.688 58.5677C256.699 58.6059 256.715 58.6442 256.699 58.6824C256.683 58.7315 256.636 58.7533 256.589 58.7697C255.58 59.1955 254.577 59.6213 253.569 60.0471C253.043 60.2764 251.841 61.1334 251.357 60.5111Z" fill="#0F4573"/>
<path d="M247.206 59.2171C246.76 60.8493 245.788 62.4815 245.153 64.0264C244.459 65.7077 243.451 67.7603 242.08 68.9448C242.007 69.0049 241.928 69.0704 241.838 69.0813C241.739 69.0922 241.639 69.0431 241.55 68.994C239.69 67.9568 237.82 66.936 235.956 65.9042C234.984 65.3638 234.007 64.8234 233.041 64.272C232.405 63.9117 230.966 63.4313 230.62 62.7435C230.325 62.1594 230.651 61.0076 230.777 60.4071C230.966 59.4682 231.276 58.562 231.659 57.694C232.447 55.9308 233.571 54.3422 234.853 52.9338C235.326 52.4098 236.04 51.6619 236.802 51.6892C237.595 51.7165 238.645 52.5408 239.349 52.912C241.187 53.8837 243.01 54.899 244.775 56.0072C245.83 56.6677 247.648 57.3501 247.29 58.9059C247.259 59.0096 247.233 59.1133 247.206 59.2171Z" fill="#0D3B5E"/>
<path d="M250.747 66.6121C252.763 62.127 252.261 57.4534 249.625 56.1734C246.989 54.8934 243.218 57.4916 241.201 61.9767C239.185 66.4618 239.688 71.1353 242.324 72.4153C244.96 73.6954 248.731 71.0972 250.747 66.6121Z" fill="#0D3B5E"/>
<path d="M249.087 65.8223C247.958 68.3389 245.841 69.7964 244.365 69.0758C242.889 68.3607 242.605 65.7404 243.735 63.2239C244.864 60.7073 246.981 59.2498 248.456 59.9703C249.932 60.6909 250.216 63.3112 249.087 65.8223Z" fill="#F5E663"/>
<path d="M248.88 63.3387C247.42 65.6642 245.965 67.9897 244.505 70.3152C243.623 69.2671 242.672 68.3172 241.779 67.2691C241.301 66.7069 240.755 66.15 240.335 65.5386C239.957 64.9873 240.062 64.7089 240.235 64.0374C240.54 62.8747 241.039 61.7829 241.664 60.773C242.079 60.107 243.15 58.1418 243.927 57.9344C244.374 57.8143 245.346 58.3875 245.781 58.5512C246.417 58.786 247.047 59.0316 247.672 59.2827C248.098 59.4574 250.761 60.3254 250.467 60.8003C249.941 61.6464 249.411 62.4926 248.88 63.3387Z" fill="#0F4573"/>
<path d="M336.818 56.5732H338.762V45.2624H336.818V56.5732Z" fill="#0D3B5E"/>
<path d="M330.053 57.3066H331.996V45.2588H330.053V57.3066Z" fill="#0D3B5E"/>
<path d="M323.906 77.7449C325.781 78.7276 327.73 79.5901 329.762 80.1414C330.109 80.5781 331.585 80.5781 332.099 80.6655C331.984 79.4973 331.863 78.3291 331.748 77.1608C331.669 76.4021 331.805 74.9554 331.296 74.344C331.159 74.1803 330.965 74.0766 330.771 73.9783C329.778 73.4761 328.754 73.0394 327.709 72.6627C326.663 72.2915 325.618 72.1113 324.699 71.4727C323.381 72.5917 322.136 73.8091 320.975 75.1028C320.912 75.1738 320.844 75.2502 320.844 75.3485C320.844 75.4413 320.902 75.5177 320.959 75.5887C321.737 76.5494 322.824 77.1772 323.906 77.7449Z" fill="#0F4573"/>
<path d="M333.967 74.6168C334.839 73.9509 335.616 73.2194 336.341 72.406C336.85 71.8328 338.127 70.6973 338.074 69.873C338.846 70.7356 339.403 72.002 340.018 73.0065C340.769 74.2347 341.52 75.4575 342.271 76.6858C342.302 76.7295 339.739 78.3125 339.566 78.4217C338.263 79.186 337.039 79.781 335.611 80.2341C335.574 80.245 335.537 80.2559 335.501 80.245C335.459 80.2286 335.438 80.174 335.422 80.1304C335.054 79.0659 334.686 78.0068 334.319 76.9423C334.119 76.3746 333.347 75.0918 333.967 74.6168Z" fill="#0F4573"/>
<path d="M323.539 69.6223C323.523 68.4978 323.618 67.4169 323.807 66.3197C323.938 65.55 324.048 63.8086 324.705 63.3609C323.581 63.2409 322.268 63.5411 321.128 63.6339C319.736 63.7485 318.339 63.8632 316.947 63.9833C316.895 63.9833 317.22 67.0621 317.246 67.275C317.446 68.8144 317.724 70.1901 318.234 71.6476C318.244 71.6858 318.26 71.724 318.292 71.7459C318.334 71.7731 318.386 71.7568 318.428 71.7404C319.468 71.4074 320.503 71.0689 321.543 70.7305C322.094 70.5558 323.549 70.4248 323.539 69.6223Z" fill="#0F4573"/>
<path d="M325.951 65.8829C327.296 66.8492 329.045 67.466 330.478 68.2357C332.044 69.0764 334.076 69.9935 335.862 69.999C335.957 69.999 336.051 69.9935 336.13 69.9444C336.214 69.8843 336.261 69.7806 336.298 69.6823C337.102 67.6516 337.921 65.6318 338.725 63.6011C339.145 62.5421 339.565 61.483 339.975 60.4186C340.243 59.7198 341.067 58.3988 340.91 57.64C340.778 56.9958 339.822 56.3244 339.36 55.9368C338.641 55.3418 337.847 54.8395 337.018 54.4301C335.332 53.5894 333.493 53.1091 331.639 52.8634C330.951 52.7761 329.948 52.6669 329.376 53.1909C328.782 53.7314 328.477 55.0634 328.157 55.8221C327.332 57.7874 326.55 59.7744 325.862 61.7997C325.452 63.0061 324.465 64.7366 325.694 65.6973C325.783 65.7574 325.867 65.8229 325.951 65.8829Z" fill="#0D3B5E"/>
<path d="M327.741 73.9237C332.043 76.0527 336.544 75.5668 337.794 72.8374C339.044 70.1079 336.57 66.172 332.274 64.043C327.972 61.9141 323.471 62.3999 322.221 65.1294C320.966 67.8588 323.44 71.7947 327.741 73.9237Z" fill="#0D3B5E"/>
<path d="M328.546 72.2257C330.957 73.4212 333.478 73.1482 334.182 71.6197C334.881 70.0912 333.499 67.8804 331.088 66.6903C328.678 65.4948 326.157 65.7678 325.453 67.2963C324.749 68.8248 326.135 71.0302 328.546 72.2257Z" fill="#F5E663"/>
<path d="M327.172 70.1738C329.719 71.0035 332.267 71.8387 334.819 72.6685C334.856 71.2765 335.014 69.9172 335.061 68.5143C335.087 67.7609 335.166 66.9748 335.119 66.227C335.077 65.5501 334.819 65.4027 334.278 65.0042C333.333 64.3109 332.277 63.7923 331.18 63.4265C330.455 63.1864 328.422 62.3839 327.697 62.7333C327.282 62.9352 326.878 64.0216 326.642 64.431C326.295 65.0315 325.959 65.6374 325.628 66.2488C325.402 66.6637 323.884 69.0929 324.399 69.2676C325.323 69.5678 326.248 69.8681 327.172 70.1738Z" fill="#0F4573"/>
<path d="M337.346 17.4837V17.4072C337.325 17.4181 337.304 17.4345 337.283 17.4454C337.262 17.4345 337.241 17.4181 337.22 17.4072V17.4837C299.356 39.2975 192.125 45.1986 192.125 45.1986H336.7H337.882H482.457C482.441 45.1986 375.215 39.303 337.346 17.4837Z" fill="#82BEFF"/>
<path d="M419.161 184.206H211.48V214.598H419.161V184.206Z" fill="#929292"/>
<path d="M335.474 129.331C335.474 129.331 328.96 137.858 327.207 146.623L335.474 149.468L338.865 134.789L335.474 129.331Z" fill="white"/>
<path d="M335.474 129.331C335.474 129.331 328.96 137.858 327.207 146.623L335.474 149.468L338.865 134.789L335.474 129.331Z" stroke="black" stroke-linecap="round" stroke-linejoin="round"/>
<path d="M372.716 145.862C373.442 148.91 378.179 158.414 385.769 167.787C387.298 169.675 387.684 171.395 385.304 172.828C382.924 174.262 372.817 174.921 367.266 170.217L372.716 145.862Z" fill="white"/>
<path d="M372.716 145.862C373.442 148.91 378.179 158.414 385.769 167.787C387.298 169.675 387.685 171.395 385.304 172.828C382.924 174.262 372.817 174.921 367.266 170.217L372.716 145.862Z" stroke="black" stroke-linecap="round" stroke-linejoin="round"/>
<path d="M351.549 172.39C351.549 172.39 351.86 176.985 350.965 179.241C350.071 181.497 348.259 181.52 344.059 181.572C339.859 181.623 338.043 180.932 337.375 179.217C336.708 177.502 337.608 164.116 337.608 164.116L351.549 172.39Z" fill="white"/>
<path d="M351.549 172.39C351.549 172.39 351.86 176.985 350.965 179.241C350.071 181.497 348.259 181.52 344.059 181.572C339.859 181.623 338.043 180.932 337.375 179.217C336.708 177.502 337.608 164.116 337.608 164.116L351.549 172.39Z" stroke="black" stroke-linecap="round" stroke-linejoin="round"/>
<path d="M344.043 178.7C342.977 178.617 342.419 179.251 342.102 180.791C342.187 179.772 341.717 178.666 340.658 178.661C339.76 178.656 339.019 179.315 338.727 180.757C339.396 181.131 340.307 181.369 341.531 181.486C341.675 181.486 341.824 181.485 341.985 181.483C343.757 181.461 344.892 181.504 345.984 181.377C345.961 179.894 345.04 178.778 344.043 178.7Z" fill="white"/>
<path d="M344.043 178.7C342.977 178.617 342.419 179.251 342.102 180.791C342.187 179.772 341.717 178.666 340.658 178.661C339.76 178.656 339.019 179.315 338.727 180.757C339.396 181.131 340.307 181.369 341.531 181.486C341.675 181.486 341.824 181.485 341.985 181.483C343.757 181.461 344.892 181.504 345.984 181.377C345.961 179.894 345.04 178.778 344.043 178.7Z" stroke="black" stroke-linecap="round" stroke-linejoin="round"/>
<path d="M357.629 112.965C357.629 112.965 359.565 110.701 362.565 111.609C365.597 112.527 366.295 115.382 365.817 117.222C365.022 120.283 361.532 120.66 361.532 120.66L357.629 112.965Z" fill="#0D57A7"/>
<path d="M357.629 112.965C357.629 112.965 359.565 110.701 362.565 111.609C365.597 112.527 366.295 115.382 365.817 117.222C365.022 120.283 361.532 120.66 361.532 120.66L357.629 112.965Z" stroke="black" stroke-linecap="round" stroke-linejoin="round"/>
<path d="M362.059 120.571C362.059 120.571 363.914 118.239 366.88 119.119C369.878 120.009 370.624 122.904 370.193 124.784C369.476 127.91 366.055 128.344 366.055 128.344L362.059 120.571Z" fill="#0D57A7"/>
<path d="M362.059 120.571C362.059 120.571 363.914 118.239 366.88 119.119C369.878 120.009 370.624 122.904 370.193 124.784C369.476 127.91 366.055 128.344 366.055 128.344L362.059 120.571Z" stroke="black" stroke-linecap="round" stroke-linejoin="round"/>
<path d="M366.066 129.009C366.066 129.009 367.921 126.677 370.888 127.558C373.886 128.447 374.632 131.343 374.201 133.222C373.484 136.348 370.063 136.782 370.063 136.782L366.066 129.009Z" fill="#0D57A7"/>
<path d="M366.066 129.009C366.066 129.009 367.921 126.677 370.888 127.558C373.886 128.447 374.632 131.343 374.201 133.222C373.484 136.348 370.063 136.782 370.063 136.782L366.066 129.009Z" stroke="black" stroke-linecap="round" stroke-linejoin="round"/>
<path d="M340.223 106.403C340.673 104.296 341.123 102.04 342.577 101.483C344.031 100.926 353.069 100.865 356.967 104.103C358.07 105.02 356.969 109.366 356.969 109.366L340.223 106.403Z" fill="#FFF1BD"/>
<path d="M349.245 103.853C345.464 103.241 342.45 103.383 340.924 103.635C340.629 104.476 340.426 105.454 340.223 106.403L356.969 109.366C356.969 109.366 357.314 108.003 357.425 106.643C355.963 105.914 353.461 104.536 349.245 103.853Z" fill="#F99158"/>
<path d="M340.223 106.403C340.673 104.296 341.123 102.04 342.577 101.483C344.031 100.926 353.069 100.865 356.967 104.103C358.07 105.02 356.969 109.366 356.969 109.366L340.223 106.403Z" stroke="black" stroke-linecap="round" stroke-linejoin="round"/>
<path d="M336.984 110.558C335.955 109.899 336.014 107.83 336.984 106.865C337.955 105.9 341.609 105.166 347.126 105.602C352.642 106.038 358.515 108.934 359.135 110.383C359.756 111.832 359.091 114.204 357.625 113.948C356.159 113.692 336.984 110.558 336.984 110.558Z" fill="#FFF1BD"/>
<path d="M336.984 110.558C335.955 109.899 336.014 107.83 336.984 106.865C337.955 105.9 341.609 105.166 347.126 105.602C352.642 106.038 358.515 108.934 359.135 110.383C359.756 111.832 359.091 114.204 357.625 113.948C356.159 113.692 336.984 110.558 336.984 110.558Z" stroke="black" stroke-linecap="round" stroke-linejoin="round"/>
<path d="M335.39 130.798C335.39 130.798 331.986 140.448 332.994 152.907C333.929 164.473 340.153 174.456 352.289 174.493C369.581 174.546 376.358 165.42 372.963 146.651C369.828 129.316 363.389 117.653 356.526 112.397C349.753 107.21 341.798 107.635 336.989 110.557C328.73 115.576 330.488 125.726 335.39 130.798Z" fill="white"/>
<path d="M323.303 111.753L322.82 105.628C322.82 105.628 324.479 105.365 325.465 106.566C326.452 107.767 326.066 109.14 326.066 109.14" stroke="black" stroke-linecap="round" stroke-linejoin="round"/>
<path d="M323.629 111.764C324.416 112.521 322.975 114.984 321.929 114.187C320.884 113.391 322.689 110.861 323.629 111.764Z" fill="black"/>
<path d="M323.629 111.764C324.416 112.521 322.975 114.984 321.929 114.187C320.884 113.391 322.689 110.861 323.629 111.764Z" stroke="black" stroke-miterlimit="10"/>
<path d="M372.605 110.104L374.478 104.253" stroke="black" stroke-linecap="round" stroke-linejoin="round"/>
<path d="M372.903 110.241C373.344 111.238 371.078 112.973 370.412 111.839C369.747 110.706 372.375 109.049 372.903 110.241Z" fill="black"/>
<path d="M372.903 110.241C373.344 111.238 371.078 112.973 370.412 111.839C369.747 110.706 372.375 109.049 372.903 110.241Z" stroke="black" stroke-miterlimit="10"/>
<path d="M330.371 102.774C331.316 103.319 330.511 106.057 329.304 105.535C328.098 105.013 329.241 102.124 330.371 102.774Z" fill="black"/>
<path d="M330.371 102.774C331.316 103.319 330.511 106.057 329.304 105.535C328.098 105.013 329.241 102.124 330.371 102.774Z" stroke="black" stroke-miterlimit="10"/>
<path d="M334.355 101.609C335.301 102.154 334.496 104.892 333.288 104.37C332.083 103.848 333.226 100.959 334.355 101.609Z" fill="black"/>
<path d="M334.355 101.609C335.301 102.154 334.496 104.892 333.288 104.37C332.083 103.848 333.226 100.959 334.355 101.609Z" stroke="black" stroke-miterlimit="10"/>
<path d="M330.041 102.291C330.041 102.291 328.861 98.9873 329.018 98.5547C329.176 98.122 331.89 96.824 332.243 97.0208C332.598 97.2175 333.502 100.285 333.777 101.701" stroke="black" stroke-linecap="round" stroke-linejoin="round"/>
<path d="M346.48 138.917C359.099 137.78 361.98 154.662 362.413 158.539C363.173 170.45 356.354 170.687 355.834 173.595C355.19 173.785 354.496 173.925 353.75 174.011C346.039 174.902 341.573 168.624 339.144 160.846C336.716 153.068 336.205 139.842 346.48 138.917Z" fill="#0D57A7"/>
<path d="M333.812 137.182C333.086 141.152 332.487 146.679 332.991 152.909C333.421 158.215 334.977 163.315 337.693 167.147" stroke="black" stroke-linecap="round" stroke-linejoin="round"/>
<path d="M374.461 150.245C373.811 149.188 373.159 147.732 372.963 146.651C369.828 129.317 363.389 117.654 356.526 112.398C349.753 107.21 341.798 107.635 336.989 110.557C328.73 115.576 330.488 125.727 335.39 130.798" stroke="black" stroke-linecap="round" stroke-linejoin="round"/>
<path d="M347.211 173.831C348.77 174.257 350.46 174.487 352.283 174.493C359.4 174.515 364.736 172.982 368.314 169.862" stroke="black" stroke-linecap="round" stroke-linejoin="round"/>
<path d="M372.408 167.668C372.113 172.1 371.629 177.891 371.047 179.241C370.074 181.497 368.102 181.52 363.532 181.572C358.962 181.623 356.987 180.932 356.26 179.217C355.534 177.502 355.96 172.671 355.96 172.671" fill="white"/>
<path d="M372.408 167.668C372.113 172.1 371.629 177.891 371.047 179.241C370.074 181.497 368.102 181.52 363.532 181.572C358.962 181.623 356.987 180.932 356.26 179.217C355.534 177.502 355.96 172.671 355.96 172.671" stroke="black" stroke-linecap="round" stroke-linejoin="round"/>
<path d="M363.514 178.7C362.355 178.617 361.748 179.251 361.404 180.791C361.495 179.772 360.984 178.666 359.832 178.661C358.855 178.656 358.049 179.315 357.73 180.757C358.459 181.131 359.45 181.369 360.782 181.486C360.938 181.486 361.1 181.485 361.276 181.483C363.204 181.461 364.439 181.504 365.627 181.377C365.602 179.894 364.599 178.778 363.514 178.7Z" fill="white"/>
<path d="M363.514 178.7C362.355 178.617 361.748 179.251 361.404 180.791C361.495 179.772 360.984 178.666 359.832 178.661C358.855 178.656 358.049 179.315 357.73 180.757C358.459 181.131 359.45 181.369 360.782 181.486C360.938 181.486 361.1 181.485 361.276 181.483C363.204 181.461 364.439 181.504 365.627 181.377C365.602 179.894 364.599 178.778 363.514 178.7Z" stroke="black" stroke-linecap="round" stroke-linejoin="round"/>
<path d="M353.801 115.102C354.662 115.196 355.369 115.579 355.92 116.251C356.457 116.927 356.677 117.7 356.582 118.568C356.487 119.437 356.104 120.14 355.434 120.677C354.75 121.22 353.977 121.444 353.115 121.35C352.247 121.255 351.544 120.869 351.008 120.192C350.463 119.521 350.238 118.752 350.334 117.883C350.429 117.015 350.815 116.309 351.493 115.765C352.163 115.228 352.932 115.006 353.801 115.102Z" fill="#3C63AE"/>
<path d="M335.803 114.09C336.54 114.176 337.141 114.551 337.606 115.216C338.058 115.886 338.239 116.656 338.148 117.525C338.058 118.393 337.722 119.1 337.143 119.644C336.551 120.194 335.886 120.426 335.149 120.341C334.406 120.256 333.809 119.877 333.356 119.207C332.897 118.542 332.713 117.776 332.804 116.907C332.895 116.038 333.233 115.329 333.819 114.778C334.399 114.234 335.06 114.004 335.803 114.09Z" fill="#3C63AE"/>
<path d="M352.082 118.961C346.461 119.431 341.476 119.067 337.125 117.867C337.125 117.867 336.731 123.225 344.385 123.938C352.04 124.651 352.082 118.961 352.082 118.961Z" fill="white"/>
<path d="M352.082 118.961C346.461 119.431 341.476 119.067 337.125 117.867C337.125 117.867 336.731 123.225 344.385 123.938C352.04 124.651 352.082 118.961 352.082 118.961Z" stroke="black" stroke-linecap="round" stroke-linejoin="round"/>
<path d="M348.318 115.199C348.242 115.85 348.612 116.487 349.543 116.601C350.356 116.702 350.913 116.38 351.01 115.605" stroke="black" stroke-linecap="round" stroke-linejoin="round"/>
<path d="M339.3 113.947C339.223 114.598 339.564 115.232 340.436 115.339C341.196 115.432 341.721 115.107 341.817 114.332" stroke="black" stroke-linecap="round" stroke-linejoin="round"/>
<path d="M350.819 119.133C350.836 120.562 350.19 121.279 349.309 121.222C347.918 121.133 347.961 119.305 347.961 119.305C347.63 120.577 346.99 121.265 346.045 121.229C345.1 121.193 344.461 120.405 344.406 119.059C346.67 119.338 348.828 119.404 350.819 119.133Z" stroke="black" stroke-linecap="round" stroke-linejoin="round"/>
<path d="M331.428 153.715C334.317 158.604 339.287 158.312 339.287 158.312C339.287 158.312 340.278 165.948 349.071 167.145C357.487 168.292 363.452 162.341 363.395 154.534C363.341 147.201 356.604 141.452 347.801 144.058C347.801 144.058 343.903 140.12 338.868 140.388C332.541 140.726 327.724 147.444 331.428 153.715Z" fill="#D8A373"/>
<path d="M331.428 153.715C334.317 158.604 339.287 158.312 339.287 158.312C339.287 158.312 340.278 165.948 349.071 167.145C357.487 168.292 363.452 162.341 363.395 154.534C363.341 147.201 356.604 141.452 347.801 144.058C347.801 144.058 343.903 140.12 338.868 140.388C332.541 140.726 327.724 147.444 331.428 153.715Z" stroke="black" stroke-linecap="round" stroke-linejoin="round"/>
<path d="M317.422 139.542C317.422 139.542 312.83 139.542 311.818 137.614C311.114 136.273 311.298 134.144 312.859 132.756C314.421 131.369 316.173 131.21 317.422 132.07C318.671 132.93 320.477 136.4 320.477 136.4C320.477 136.4 340.522 146.156 340.649 146.899C340.776 147.643 338.873 151.737 338.114 151.854C337.355 151.97 317.422 139.542 317.422 139.542Z" fill="#BF7A5C"/>
<path d="M317.422 139.542C317.422 139.542 312.83 139.542 311.818 137.614C311.114 136.273 311.298 134.144 312.859 132.756C314.421 131.369 316.173 131.21 317.422 132.07C318.671 132.93 320.477 136.4 320.477 136.4C320.477 136.4 340.522 146.156 340.649 146.899C340.776 147.643 338.873 151.737 338.114 151.854C337.355 151.97 317.422 139.542 317.422 139.542Z" stroke="black" stroke-linecap="round" stroke-linejoin="round"/>
<path d="M318.094 140.202L317.062 141.807" stroke="black" stroke-linecap="round" stroke-linejoin="round"/>
<path d="M319.782 141.352L318.75 142.957" stroke="black" stroke-linecap="round" stroke-linejoin="round"/>
<path d="M322.133 134.982L321.102 136.587" stroke="black" stroke-linecap="round" stroke-linejoin="round"/>
<path d="M323.707 135.784L322.676 137.389" stroke="black" stroke-linecap="round" stroke-linejoin="round"/>
<path d="M325.426 136.588L324.395 138.192" stroke="black" stroke-linecap="round" stroke-linejoin="round"/>
<path d="M315.003 134.905C315.066 134.831 315.171 134.76 315.32 134.691C315.331 134.686 315.343 134.682 315.355 134.68C315.681 134.627 315.938 134.706 316.127 134.919C316.266 135.076 316.329 135.26 316.317 135.473C316.304 135.682 316.22 135.853 316.064 135.988C315.954 136.086 315.832 136.148 315.7 136.176C315.638 136.185 315.575 136.188 315.51 136.184C315.445 136.18 315.384 136.17 315.328 136.153C315.196 136.111 315.083 136.034 314.989 135.924C314.85 135.772 314.786 135.592 314.798 135.383C314.801 135.335 314.804 135.294 314.806 135.26C314.84 135.126 314.905 135.008 315.003 134.905Z" fill="black"/>
<path d="M352.059 156.456C352.059 156.456 350.274 159.255 350.329 159.478C350.385 159.701 351.027 160.294 351.327 160.149C351.627 160.005 353.144 157.213 353.144 157.213L352.059 156.456Z" fill="black"/>
<path d="M352.059 156.456C352.059 156.456 350.274 159.255 350.329 159.478C350.385 159.701 351.027 160.294 351.327 160.149C351.627 160.005 353.144 157.213 353.144 157.213L352.059 156.456Z" stroke="black" stroke-linecap="round" stroke-linejoin="round"/>
<path d="M344.589 148.587C342.245 148.515 340.975 150.637 341.013 152.365C341.052 154.181 342.523 155.631 344.481 155.737C346.361 155.839 347.991 154.732 348.176 152.275C348.362 149.818 346.526 148.645 344.589 148.587Z" fill="#28292B"/>
<path d="M344.589 148.587C342.245 148.515 340.975 150.637 341.013 152.365C341.052 154.181 342.523 155.631 344.481 155.737C346.361 155.839 347.991 154.732 348.176 152.275C348.362 149.818 346.526 148.645 344.589 148.587Z" stroke="black" stroke-linecap="round" stroke-linejoin="round"/>
<path d="M323.918 139.831L349.435 153.716" stroke="black" stroke-linecap="round" stroke-linejoin="round"/>
<path d="M323.262 141.494L351.186 156.918" stroke="black" stroke-linecap="round" stroke-linejoin="round"/>
<path d="M322.133 142.155L324.395 138.625" stroke="black" stroke-linecap="round" stroke-linejoin="round"/>
<path d="M330.491 151.512C328.545 152.277 325.527 151.592 324.455 151.09C322.452 150.154 319.921 147.988 320.584 144.673C320.89 143.145 322.01 141.159 323.538 140.955C325.066 140.751 328.757 143.284 329.57 144.967C330.208 146.289 329.978 147.085 329.978 147.085C329.978 147.085 329.794 149.714 330.491 151.512Z" fill="white"/>
<path d="M330.491 151.512C328.545 152.277 325.527 151.592 324.455 151.09C322.452 150.154 319.921 147.988 320.584 144.673C320.89 143.145 322.01 141.159 323.538 140.955C325.066 140.751 328.757 143.284 329.57 144.967C330.208 146.289 329.978 147.085 329.978 147.085C329.978 147.085 329.794 149.714 330.491 151.512Z" stroke="black" stroke-linecap="round" stroke-linejoin="round"/>
<path d="M329.978 147.086C329.978 147.086 329.808 148.221 329.609 148.505L329.978 147.086Z" fill="white"/>
<path d="M329.978 147.086C329.978 147.086 329.808 148.221 329.609 148.505" stroke="black" stroke-linecap="round" stroke-linejoin="round"/>
<path d="M327.196 145.101C326.456 144.737 326.111 144.132 326.337 143.109C325.646 143.955 324.975 143.85 324.461 143.554C323.946 143.257 323.518 142.474 323.793 141.446L323.844 141.304C324.008 141.323 324.182 141.337 324.36 141.38C327.076 142.023 329.188 144.35 329.196 144.399C328.737 145.169 327.855 145.425 327.196 145.101Z" fill="white"/>
<path d="M327.196 145.101C326.456 144.737 326.111 144.132 326.337 143.109C325.646 143.955 324.975 143.85 324.461 143.554C323.946 143.257 323.518 142.474 323.793 141.446L323.844 141.304C324.008 141.323 324.182 141.337 324.36 141.38C327.076 142.023 329.188 144.35 329.196 144.399C328.737 145.169 327.855 145.425 327.196 145.101Z" stroke="black" stroke-linecap="round" stroke-linejoin="round"/>
<path d="M356.607 139.544C356.607 139.544 355.258 145.735 350.823 148.642C349.498 149.51 348.641 150.267 348.994 152.434C349.347 154.602 353.57 160.53 355.839 160.53C358.107 160.53 364.328 157.32 366.97 153.305" fill="#FFFFFE"/>
<path d="M356.607 139.544C356.607 139.544 355.258 145.735 350.823 148.642C349.498 149.51 348.641 150.267 348.994 152.434C349.347 154.602 353.57 160.53 355.839 160.53C358.107 160.53 364.328 157.32 366.97 153.305" stroke="black" stroke-linecap="round" stroke-linejoin="round"/>
<path d="M351.585 153.06C352.221 153.807 352.313 154.631 351.581 155.643C352.738 155.044 353.421 155.476 353.843 156.044C354.265 156.611 354.364 157.67 353.576 158.663L353.453 158.794C353.283 158.696 353.1 158.598 352.925 158.467C350.261 156.48 349.053 152.938 349.067 152.88C349.933 152.256 351.018 152.392 351.585 153.06Z" fill="white"/>
<path d="M351.585 153.06C352.221 153.807 352.313 154.631 351.581 155.643C352.738 155.044 353.421 155.476 353.843 156.044C354.265 156.611 354.364 157.67 353.576 158.663L353.453 158.794C353.283 158.696 353.1 158.598 352.925 158.467C350.261 156.48 349.053 152.938 349.067 152.88C349.933 152.256 351.018 152.392 351.585 153.06Z" stroke="black" stroke-linecap="round" stroke-linejoin="round"/>
<path d="M316.824 146.9C316.824 146.9 316.691 149.29 318.019 150.95" stroke="black" stroke-linecap="round" stroke-linejoin="round"/>
<path d="M314.305 149.709C314.305 149.709 314.696 152.207 316.824 153.999" stroke="black" stroke-linecap="round" stroke-linejoin="round"/>
</g>
<path d="M295.43 161.865C295.43 161.865 305.886 165.665 307.056 176.203C308.171 186.247 298.45 184.999 296.16 182.506C293.87 180.014 292.061 166.507 292.061 166.507L295.43 161.865Z" fill="white" stroke="#000001" stroke-linecap="round" stroke-linejoin="round"/>
<path d="M261.452 176.668C260.78 179.487 256.393 188.272 249.362 196.936C247.945 198.682 247.587 200.271 249.793 201.596C251.998 202.921 261.359 203.531 266.5 199.181L261.452 176.666V176.668Z" fill="white" stroke="#000001" stroke-linecap="round" stroke-linejoin="round"/>
<path d="M281.061 201.193C281.061 201.193 280.774 205.441 281.602 207.526C282.43 209.612 284.109 209.632 288 209.68C291.891 209.728 293.572 209.088 294.19 207.503C294.808 205.919 293.973 193.544 293.973 193.544L281.061 201.193Z" fill="white" stroke="#000001" stroke-linecap="round" stroke-linejoin="round"/>
<path d="M275.43 146.257C275.43 146.257 273.637 144.165 270.857 145.003C268.049 145.852 267.403 148.49 267.846 150.193C268.583 153.023 271.814 153.371 271.814 153.371L275.43 146.257Z" fill="#0D529D" stroke="#000001" stroke-linecap="round" stroke-linejoin="round"/>
<path d="M271.324 153.287C271.324 153.287 269.607 151.131 266.858 151.946C264.082 152.768 263.391 155.445 263.79 157.182C264.454 160.071 267.622 160.474 267.622 160.474L271.324 153.287Z" fill="#0D529D" stroke="#000001" stroke-linecap="round" stroke-linejoin="round"/>
<path d="M267.617 161.088C267.617 161.088 265.9 158.933 263.151 159.748C260.375 160.569 259.684 163.247 260.083 164.983C260.747 167.872 263.915 168.275 263.915 168.275L267.617 161.088Z" fill="#0D529D" stroke="#000001" stroke-linecap="round" stroke-linejoin="round"/>
<path d="M282.203 142.74C282.203 142.74 281.466 140.343 278.748 140.033C275.999 139.721 274.423 141.686 274.147 143.266C273.686 145.893 275.349 146.717 275.349 146.717L282.201 142.737L282.203 142.74Z" fill="#0D529D" stroke="#000001" stroke-linecap="round" stroke-linejoin="round"/>
<path d="M296.018 162.598C296.018 162.598 295.61 163.053 295.614 163.085C295.63 163.222 295.797 163.265 296.073 163.456C296.137 163.499 296.178 163.52 296.296 163.588C296.331 163.609 296.347 163.652 296.358 163.686C297.147 166.397 298.979 173.901 298.237 183.039C297.371 193.731 291.607 202.96 280.365 202.995C264.348 203.045 258.071 194.606 261.214 177.256C264.118 161.232 270.082 150.448 276.439 145.59C282.714 140.794 290.081 141.187 294.536 143.89C302.186 148.529 300.557 157.913 296.016 162.603L296.018 162.598Z" fill="white"/>
<path d="M285.755 170.247C274.065 169.195 271.399 184.803 270.997 188.386C270.293 199.398 276.611 199.616 277.092 202.305C277.689 202.48 278.33 202.61 279.021 202.69C286.163 203.514 290.3 197.709 292.549 190.519C294.798 183.328 295.273 171.103 285.755 170.247Z" fill="#0D529D"/>
<path d="M297.489 168.642C298.16 172.311 298.716 177.422 298.249 183.182C297.852 188.088 296.41 192.802 293.895 196.344" stroke="#000001" stroke-linecap="round" stroke-linejoin="round"/>
<path d="M259.839 180.72C260.441 179.744 261.046 178.398 261.226 177.399C264.13 161.375 270.094 150.591 276.451 145.733C282.726 140.936 290.093 141.33 294.547 144.032C302.197 148.672 300.569 158.055 296.028 162.745" stroke="#000001" stroke-linecap="round" stroke-linejoin="round"/>
<path d="M278.976 148.231C278.178 148.318 277.523 148.673 277.013 149.294C276.515 149.92 276.31 150.635 276.399 151.436C276.488 152.24 276.842 152.889 277.462 153.385C278.096 153.886 278.812 154.095 279.61 154.007C280.409 153.918 281.066 153.563 281.563 152.937C282.067 152.317 282.275 151.605 282.188 150.801C282.099 149.998 281.741 149.347 281.114 148.843C280.493 148.347 279.782 148.142 278.976 148.231Z" fill="#385DA4"/>
<path d="M295.646 147.295C294.964 147.375 294.408 147.721 293.977 148.336C293.557 148.955 293.391 149.667 293.475 150.471C293.559 151.275 293.869 151.928 294.405 152.431C294.953 152.939 295.569 153.155 296.253 153.075C296.942 152.996 297.494 152.647 297.913 152.026C298.338 151.411 298.509 150.703 298.424 149.9C298.34 149.096 298.028 148.44 297.485 147.933C296.949 147.43 296.335 147.218 295.646 147.298V147.295Z" fill="#385DA4"/>
<path d="M280.031 178.415C280.031 178.415 279.199 183.269 273.786 183.476C268.374 183.683 266.43 181.463 266.152 180.947" fill="white"/>
<path d="M280.031 178.415C280.031 178.415 279.199 183.269 273.786 183.476C268.374 183.683 266.43 181.463 266.152 180.947" stroke="#000001" stroke-linecap="round" stroke-linejoin="round"/>
<path d="M281.74 152.05C286.514 152.537 290.764 152.241 294.488 151.162C294.488 151.162 294.126 157.008 287.509 156.906C281.291 156.81 281.74 152.05 281.74 152.05Z" fill="#FEFEFF" stroke="#000001" stroke-linecap="round" stroke-linejoin="round"/>
<path d="M282.719 150.227C282.719 150.227 284.933 149.728 284.828 149.084C284.723 148.44 282.871 147.923 282.871 147.923" stroke="#000001" stroke-linecap="round" stroke-linejoin="round"/>
<path d="M293.43 149.485C293.43 149.485 291.657 149.02 291.751 148.376C291.844 147.732 293.341 147.186 293.341 147.186" stroke="#000001" stroke-linecap="round" stroke-linejoin="round"/>
<path d="M282.81 152.18C282.778 153.37 283.318 153.976 284.069 153.942C285.253 153.887 285.239 152.364 285.239 152.364C285.506 153.427 286.042 154.01 286.845 153.994C287.648 153.976 288.202 153.329 288.266 152.209C286.336 152.41 284.5 152.435 282.812 152.182L282.81 152.18Z" fill="white" stroke="#000001" stroke-linecap="round" stroke-linejoin="round"/>
<path d="M308.133 167.694C308.133 167.694 308.81 165.648 306.931 164.746C305.051 163.845 304.1 165.259 304.1 165.259C304.1 165.259 302.716 163.408 300.971 163.972C299.226 164.537 299.251 165.623 299.251 165.623C299.251 165.623 297.709 165.183 296.528 166.267C295.321 167.373 295.805 168.997 295.805 168.997C295.805 168.997 294.363 169.422 294.153 171.337C293.93 173.374 295.419 174.474 295.419 174.474C295.419 174.474 294.527 176.061 295.631 177.65C296.525 178.934 297.67 178.683 297.67 178.683C297.67 178.683 297.917 179.887 299.475 180.229C301.032 180.57 301.735 179.646 301.735 179.646C301.735 179.646 302.634 180.513 304.023 180.284C305.56 180.029 305.699 178.977 305.699 178.977C305.699 178.977 307.487 179.553 308.509 178.296C309.531 177.04 308.947 176.391 308.947 176.391C308.947 176.391 311.07 176.577 311.23 174.513C311.39 172.45 310.297 172.068 310.297 172.068C310.297 172.068 311.652 170.246 310.742 168.84C309.832 167.43 308.133 167.694 308.133 167.694Z" fill="#F5E663" stroke="#E5B428" stroke-linecap="round" stroke-linejoin="round"/>
<path d="M305.46 170.276C305.46 170.276 306.601 170.165 306.767 171.66C306.934 173.156 305.887 173.304 305.887 173.304" stroke="#E5B428" stroke-linecap="round" stroke-linejoin="round"/>
<path d="M301.32 175.534C301.32 175.534 300.415 176.135 299.598 175.534C298.779 174.933 299.08 173.986 299.08 173.986C299.08 173.986 298.015 173.704 297.858 172.529C297.705 171.371 298.608 170.804 298.608 170.804" stroke="#E5B428" stroke-linecap="round" stroke-linejoin="round"/>
<path d="M283.238 167.694C283.238 167.694 283.916 165.648 282.036 164.746C280.157 163.845 279.206 165.259 279.206 165.259C279.206 165.259 277.821 163.408 276.076 163.972C274.331 164.537 274.356 165.623 274.356 165.623C274.356 165.623 272.815 165.183 271.633 166.267C270.427 167.373 270.91 168.997 270.91 168.997C270.91 168.997 269.469 169.422 269.259 171.337C269.035 173.374 270.525 174.474 270.525 174.474C270.525 174.474 269.633 176.061 270.737 177.65C271.631 178.934 272.776 178.683 272.776 178.683C272.776 178.683 273.022 179.887 274.58 180.229C276.138 180.57 276.84 179.646 276.84 179.646C276.84 179.646 277.739 180.513 279.128 180.284C280.665 180.029 280.805 178.977 280.805 178.977C280.805 178.977 282.593 179.553 283.615 178.296C284.636 177.04 284.052 176.391 284.052 176.391C284.052 176.391 286.176 176.577 286.336 174.513C286.495 172.45 285.403 172.068 285.403 172.068C285.403 172.068 286.758 170.246 285.848 168.84C284.937 167.43 283.238 167.694 283.238 167.694Z" fill="#F5E663" stroke="#E5B428" stroke-linecap="round" stroke-linejoin="round"/>
<path d="M280.562 170.276C280.562 170.276 281.702 170.165 281.869 171.66C282.035 173.156 280.988 173.304 280.988 173.304" stroke="#E5B428" stroke-linecap="round" stroke-linejoin="round"/>
<path d="M276.422 175.534C276.422 175.534 275.516 176.135 274.7 175.534C273.881 174.933 274.182 173.986 274.182 173.986C274.182 173.986 273.117 173.704 272.959 172.529C272.807 171.371 273.71 170.804 273.71 170.804" stroke="#E5B428" stroke-linecap="round" stroke-linejoin="round"/>
<path d="M302.621 142.71C302.621 142.71 306.393 146.641 306.512 152.972" stroke="#000001" stroke-linecap="round" stroke-linejoin="round"/>
<path d="M306.805 143.814C306.805 143.814 304.713 144.891 302.624 145.968" stroke="#000001" stroke-linecap="round" stroke-linejoin="round"/>
<path d="M308.699 148.561C308.699 148.561 304.79 149.453 304.08 149.587" stroke="#000001" stroke-linecap="round" stroke-linejoin="round"/>
<path d="M313.329 166.836C313.329 166.836 314.366 168.908 314.453 172.101" stroke="#000001" stroke-linecap="round" stroke-linejoin="round"/>
<path d="M316.616 168.305C316.616 168.305 317.36 170.852 317.013 173.397" stroke="#000001" stroke-linecap="round" stroke-linejoin="round"/>
<path d="M261.575 161.865C261.575 161.865 272.03 165.665 273.2 176.203C274.316 186.247 264.595 184.999 262.305 182.506C260.015 180.014 258.206 166.507 258.206 166.507L261.575 161.865Z" fill="white" stroke="#000001" stroke-linecap="round" stroke-linejoin="round"/>
<path d="M227.597 176.668C226.924 179.487 222.538 188.272 215.506 196.936C214.09 198.682 213.732 200.271 215.937 201.596C218.143 202.921 227.503 203.531 232.645 199.181L227.597 176.666V176.668Z" fill="white" stroke="#000001" stroke-linecap="round" stroke-linejoin="round"/>
<path d="M247.206 201.193C247.206 201.193 246.918 205.441 247.746 207.526C248.574 209.612 250.253 209.632 254.144 209.68C258.035 209.728 259.716 209.088 260.335 207.503C260.953 205.919 260.118 193.544 260.118 193.544L247.206 201.193Z" fill="white" stroke="#000001" stroke-linecap="round" stroke-linejoin="round"/>
<path d="M241.574 146.257C241.574 146.257 239.781 144.165 237.001 145.003C234.193 145.852 233.548 148.49 233.99 150.193C234.727 153.023 237.959 153.371 237.959 153.371L241.574 146.257Z" fill="#0D529D" stroke="#000001" stroke-linecap="round" stroke-linejoin="round"/>
<path d="M237.469 153.287C237.469 153.287 235.751 151.131 233.003 151.946C230.227 152.768 229.536 155.445 229.935 157.182C230.599 160.071 233.767 160.474 233.767 160.474L237.469 153.287Z" fill="#0D529D" stroke="#000001" stroke-linecap="round" stroke-linejoin="round"/>
<path d="M233.762 161.088C233.762 161.088 232.044 158.933 229.296 159.748C226.52 160.569 225.829 163.247 226.228 164.983C226.892 167.872 230.06 168.275 230.06 168.275L233.762 161.088Z" fill="#0D529D" stroke="#000001" stroke-linecap="round" stroke-linejoin="round"/>
<path d="M248.348 142.74C248.348 142.74 247.611 140.343 244.892 140.033C242.144 139.721 240.568 141.686 240.292 143.266C239.831 145.893 241.494 146.717 241.494 146.717L248.345 142.737L248.348 142.74Z" fill="#0D529D" stroke="#000001" stroke-linecap="round" stroke-linejoin="round"/>
<path d="M262.163 162.598C262.163 162.598 261.754 163.053 261.759 163.085C261.775 163.222 261.941 163.265 262.217 163.456C262.281 163.499 262.322 163.52 262.441 163.588C262.475 163.609 262.491 163.652 262.503 163.686C263.292 166.397 265.123 173.901 264.382 183.039C263.515 193.731 257.752 202.96 246.509 202.995C230.493 203.045 224.216 194.606 227.359 177.256C230.262 161.232 236.227 150.448 242.584 145.59C248.858 140.794 256.226 141.187 260.68 143.89C268.33 148.529 266.702 157.913 262.16 162.603L262.163 162.598Z" fill="white"/>
<path d="M251.899 170.247C240.21 169.195 237.543 184.803 237.142 188.386C236.437 199.398 242.755 199.616 243.236 202.305C243.834 202.48 244.475 202.61 245.166 202.69C252.307 203.514 256.445 197.709 258.694 190.519C260.943 183.328 261.417 171.103 251.899 170.247Z" fill="#0D529D"/>
<path d="M263.634 168.642C264.304 172.311 264.861 177.422 264.393 183.182C263.997 188.088 262.555 192.802 260.039 196.344" stroke="#000001" stroke-linecap="round" stroke-linejoin="round"/>
<path d="M225.984 180.72C226.586 179.744 227.19 178.398 227.371 177.399C230.274 161.375 236.239 150.591 242.595 145.733C248.87 140.936 256.237 141.33 260.692 144.032C268.342 148.672 266.713 158.055 262.172 162.745" stroke="#000001" stroke-linecap="round" stroke-linejoin="round"/>
<path d="M245.121 148.231C244.323 148.318 243.668 148.673 243.157 149.294C242.66 149.92 242.455 150.635 242.544 151.436C242.633 152.24 242.986 152.889 243.606 153.385C244.241 153.886 244.957 154.095 245.755 154.007C246.553 153.918 247.21 153.563 247.707 152.937C248.212 152.317 248.419 151.605 248.332 150.801C248.243 149.998 247.885 149.347 247.258 148.843C246.638 148.347 245.926 148.142 245.121 148.231Z" fill="#385DA4"/>
<path d="M261.791 147.295C261.109 147.375 260.552 147.721 260.121 148.336C259.702 148.955 259.535 149.667 259.619 150.471C259.704 151.275 260.014 151.928 260.55 152.431C261.097 152.939 261.713 153.155 262.398 153.075C263.086 152.996 263.638 152.647 264.058 152.026C264.482 151.411 264.653 150.703 264.569 149.9C264.485 149.096 264.172 148.44 263.629 147.933C263.093 147.43 262.48 147.218 261.791 147.298V147.295Z" fill="#385DA4"/>
<path d="M246.176 178.415C246.176 178.415 245.343 183.269 239.931 183.476C234.518 183.683 232.575 181.463 232.297 180.947" fill="white"/>
<path d="M246.176 178.415C246.176 178.415 245.343 183.269 239.931 183.476C234.518 183.683 232.575 181.463 232.297 180.947" stroke="#000001" stroke-linecap="round" stroke-linejoin="round"/>
<path d="M247.885 152.05C252.659 152.537 256.908 152.241 260.633 151.162C260.633 151.162 260.27 157.008 253.653 156.906C247.436 156.81 247.885 152.05 247.885 152.05Z" fill="#FEFEFF" stroke="#000001" stroke-linecap="round" stroke-linejoin="round"/>
<path d="M248.863 150.227C248.863 150.227 251.078 149.728 250.973 149.084C250.868 148.44 249.016 147.923 249.016 147.923" stroke="#000001" stroke-linecap="round" stroke-linejoin="round"/>
<path d="M259.574 149.485C259.574 149.485 257.802 149.02 257.895 148.376C257.989 147.732 259.485 147.186 259.485 147.186" stroke="#000001" stroke-linecap="round" stroke-linejoin="round"/>
<path d="M248.954 152.18C248.922 153.37 249.463 153.976 250.213 153.942C251.397 153.887 251.383 152.364 251.383 152.364C251.65 153.427 252.186 154.01 252.989 153.994C253.792 153.976 254.346 153.329 254.41 152.209C252.481 152.41 250.644 152.435 248.957 152.182L248.954 152.18Z" fill="white" stroke="#000001" stroke-linecap="round" stroke-linejoin="round"/>
<path d="M274.277 167.694C274.277 167.694 274.955 165.648 273.075 164.746C271.196 163.845 270.245 165.259 270.245 165.259C270.245 165.259 268.86 163.408 267.115 163.972C265.37 164.537 265.396 165.623 265.396 165.623C265.396 165.623 263.854 165.183 262.672 166.267C261.466 167.373 261.949 168.997 261.949 168.997C261.949 168.997 260.508 169.422 260.298 171.337C260.074 173.374 261.564 174.474 261.564 174.474C261.564 174.474 260.672 176.061 261.776 177.65C262.67 178.934 263.815 178.683 263.815 178.683C263.815 178.683 264.061 179.887 265.619 180.229C267.177 180.57 267.879 179.646 267.879 179.646C267.879 179.646 268.778 180.513 270.167 180.284C271.704 180.029 271.844 178.977 271.844 178.977C271.844 178.977 273.632 179.553 274.654 178.296C275.675 177.04 275.092 176.391 275.092 176.391C275.092 176.391 277.215 176.577 277.375 174.513C277.534 172.45 276.442 172.068 276.442 172.068C276.442 172.068 277.797 170.246 276.887 168.84C275.977 167.43 274.277 167.694 274.277 167.694Z" fill="#F5E663" stroke="#E5B428" stroke-linecap="round" stroke-linejoin="round"/>
<path d="M271.605 170.276C271.605 170.276 272.745 170.165 272.912 171.66C273.078 173.156 272.031 173.304 272.031 173.304" stroke="#E5B428" stroke-linecap="round" stroke-linejoin="round"/>
<path d="M267.465 175.534C267.465 175.534 266.559 176.135 265.743 175.534C264.924 174.933 265.225 173.986 265.225 173.986C265.225 173.986 264.16 173.704 264.002 172.529C263.85 171.371 264.753 170.804 264.753 170.804" stroke="#E5B428" stroke-linecap="round" stroke-linejoin="round"/>
<path d="M249.383 167.694C249.383 167.694 250.06 165.648 248.181 164.746C246.301 163.845 245.35 165.259 245.35 165.259C245.35 165.259 243.966 163.408 242.221 163.972C240.476 164.537 240.501 165.623 240.501 165.623C240.501 165.623 238.959 165.183 237.778 166.267C236.571 167.373 237.055 168.997 237.055 168.997C237.055 168.997 235.613 169.422 235.403 171.337C235.18 173.374 236.669 174.474 236.669 174.474C236.669 174.474 235.777 176.061 236.881 177.65C237.775 178.934 238.92 178.683 238.92 178.683C238.92 178.683 239.167 179.887 240.725 180.229C242.282 180.57 242.985 179.646 242.985 179.646C242.985 179.646 243.884 180.513 245.273 180.284C246.81 180.029 246.949 178.977 246.949 178.977C246.949 178.977 248.737 179.553 249.759 178.296C250.781 177.04 250.197 176.391 250.197 176.391C250.197 176.391 252.32 176.577 252.48 174.513C252.64 172.45 251.547 172.068 251.547 172.068C251.547 172.068 252.902 170.246 251.992 168.84C251.082 167.43 249.383 167.694 249.383 167.694Z" fill="#F5E663" stroke="#E5B428" stroke-linecap="round" stroke-linejoin="round"/>
<path d="M246.706 170.276C246.706 170.276 247.847 170.165 248.013 171.66C248.18 173.156 247.133 173.304 247.133 173.304" stroke="#E5B428" stroke-linecap="round" stroke-linejoin="round"/>
<path d="M242.566 175.534C242.566 175.534 241.661 176.135 240.844 175.534C240.026 174.933 240.327 173.986 240.327 173.986C240.327 173.986 239.261 173.704 239.104 172.529C238.951 171.371 239.854 170.804 239.854 170.804" stroke="#E5B428" stroke-linecap="round" stroke-linejoin="round"/>
<path d="M268.765 142.71C268.765 142.71 272.538 146.641 272.656 152.972" stroke="#000001" stroke-linecap="round" stroke-linejoin="round"/>
<path d="M272.949 143.813C272.949 143.813 270.858 144.89 268.768 145.967" stroke="#000001" stroke-linecap="round" stroke-linejoin="round"/>
<path d="M274.844 148.561C274.844 148.561 270.934 149.453 270.225 149.587" stroke="#000001" stroke-linecap="round" stroke-linejoin="round"/>
<path d="M279.473 166.836C279.473 166.836 280.511 168.908 280.598 172.101" stroke="#000001" stroke-linecap="round" stroke-linejoin="round"/>
<path d="M282.761 168.305C282.761 168.305 283.505 170.852 283.158 173.397" stroke="#000001" stroke-linecap="round" stroke-linejoin="round"/>
<path d="M224.211 161.865C224.211 161.865 234.667 165.665 235.837 176.203C236.952 186.247 227.231 184.999 224.941 182.506C222.651 180.014 220.843 166.507 220.843 166.507L224.211 161.865Z" fill="white" stroke="#000001" stroke-linecap="round" stroke-linejoin="round"/>
<path d="M190.234 176.668C189.561 179.487 185.175 188.272 178.143 196.936C176.726 198.682 176.368 200.271 178.574 201.596C180.779 202.921 190.14 203.531 195.281 199.181L190.234 176.666V176.668Z" fill="white" stroke="#000001" stroke-linecap="round" stroke-linejoin="round"/>
<path d="M209.843 201.193C209.843 201.193 209.555 205.441 210.383 207.526C211.211 209.612 212.89 209.632 216.781 209.68C220.672 209.728 222.353 209.088 222.971 207.503C223.589 205.919 222.755 193.544 222.755 193.544L209.843 201.193Z" fill="white" stroke="#000001" stroke-linecap="round" stroke-linejoin="round"/>
<path d="M204.211 146.257C204.211 146.257 202.418 144.165 199.638 145.003C196.83 145.852 196.185 148.49 196.627 150.193C197.364 153.023 200.596 153.371 200.596 153.371L204.211 146.257Z" fill="#0D529D" stroke="#000001" stroke-linecap="round" stroke-linejoin="round"/>
<path d="M200.105 153.287C200.105 153.287 198.388 151.131 195.64 151.946C192.864 152.768 192.173 155.445 192.572 157.182C193.235 160.071 196.404 160.474 196.404 160.474L200.105 153.287Z" fill="#0D529D" stroke="#000001" stroke-linecap="round" stroke-linejoin="round"/>
<path d="M196.398 161.088C196.398 161.088 194.681 158.933 191.932 159.748C189.157 160.569 188.466 163.247 188.865 164.983C189.528 167.872 192.697 168.275 192.697 168.275L196.398 161.088Z" fill="#0D529D" stroke="#000001" stroke-linecap="round" stroke-linejoin="round"/>
<path d="M210.984 142.74C210.984 142.74 210.248 140.343 207.529 140.033C204.78 139.721 203.204 141.686 202.928 143.266C202.468 145.893 204.13 146.717 204.13 146.717L210.982 142.737L210.984 142.74Z" fill="#0D529D" stroke="#000001" stroke-linecap="round" stroke-linejoin="round"/>
<path d="M224.799 162.598C224.799 162.598 224.391 163.053 224.396 163.085C224.412 163.222 224.578 163.265 224.854 163.456C224.918 163.499 224.959 163.52 225.078 163.588C225.112 163.609 225.128 163.652 225.139 163.686C225.928 166.397 227.76 173.901 227.019 183.039C226.152 193.731 220.388 202.96 209.146 202.995C193.13 203.045 186.853 194.606 189.996 177.256C192.899 161.232 198.864 150.448 205.22 145.59C211.495 140.794 218.862 141.187 223.317 143.89C230.967 148.529 229.338 157.913 224.797 162.603L224.799 162.598Z" fill="white"/>
<path d="M214.536 170.247C202.846 169.195 200.18 184.803 199.779 188.386C199.074 199.398 205.392 199.616 205.873 202.305C206.471 202.48 207.112 202.61 207.803 202.69C214.944 203.514 219.082 197.709 221.331 190.519C223.58 183.328 224.054 171.103 214.536 170.247Z" fill="#0D529D"/>
<path d="M226.271 168.642C226.941 172.311 227.498 177.422 227.03 183.182C226.633 188.088 225.192 192.802 222.676 196.344" stroke="#000001" stroke-linecap="round" stroke-linejoin="round"/>
<path d="M188.621 180.72C189.223 179.744 189.827 178.398 190.007 177.399C192.911 161.375 198.875 150.591 205.232 145.733C211.507 140.936 218.874 141.33 223.329 144.032C230.979 148.672 229.35 158.055 224.809 162.745" stroke="#000001" stroke-linecap="round" stroke-linejoin="round"/>
<path d="M207.758 148.231C206.959 148.318 206.305 148.673 205.794 149.294C205.297 149.92 205.091 150.635 205.18 151.436C205.269 152.24 205.623 152.889 206.243 153.385C206.877 153.886 207.593 154.095 208.392 154.007C209.19 153.918 209.847 153.563 210.344 152.937C210.848 152.317 211.056 151.605 210.969 150.801C210.88 149.998 210.522 149.347 209.895 148.843C209.274 148.347 208.563 148.142 207.758 148.231Z" fill="#385DA4"/>
<path d="M224.428 147.295C223.746 147.375 223.189 147.721 222.758 148.336C222.338 148.955 222.172 149.667 222.256 150.471C222.341 151.275 222.651 151.928 223.187 152.431C223.734 152.939 224.35 153.155 225.034 153.075C225.723 152.996 226.275 152.647 226.695 152.026C227.119 151.411 227.29 150.703 227.206 149.9C227.121 149.096 226.809 148.44 226.266 147.933C225.73 147.43 225.116 147.218 224.428 147.298V147.295Z" fill="#385DA4"/>
<path d="M208.812 178.415C208.812 178.415 207.98 183.269 202.567 183.476C197.155 183.683 195.212 181.463 194.933 180.947" fill="white"/>
<path d="M208.812 178.415C208.812 178.415 207.98 183.269 202.567 183.476C197.155 183.683 195.212 181.463 194.933 180.947" stroke="#000001" stroke-linecap="round" stroke-linejoin="round"/>
<path d="M210.522 152.05C215.296 152.537 219.545 152.241 223.27 151.162C223.27 151.162 222.907 157.008 216.29 156.906C210.072 156.81 210.522 152.05 210.522 152.05Z" fill="#FEFEFF" stroke="#000001" stroke-linecap="round" stroke-linejoin="round"/>
<path d="M211.5 150.227C211.5 150.227 213.715 149.728 213.61 149.084C213.505 148.44 211.653 147.923 211.653 147.923" stroke="#000001" stroke-linecap="round" stroke-linejoin="round"/>
<path d="M222.211 149.485C222.211 149.485 220.439 149.02 220.532 148.376C220.626 147.732 222.122 147.186 222.122 147.186" stroke="#000001" stroke-linecap="round" stroke-linejoin="round"/>
<path d="M211.591 152.18C211.559 153.37 212.1 153.976 212.85 153.942C214.034 153.887 214.02 152.364 214.02 152.364C214.287 153.427 214.823 154.01 215.626 153.994C216.429 153.976 216.983 153.329 217.047 152.209C215.117 152.41 213.281 152.435 211.593 152.182L211.591 152.18Z" fill="white" stroke="#000001" stroke-linecap="round" stroke-linejoin="round"/>
<path d="M236.914 167.694C236.914 167.694 237.591 165.648 235.712 164.746C233.833 163.845 232.881 165.259 232.881 165.259C232.881 165.259 231.497 163.408 229.752 163.972C228.007 164.537 228.032 165.623 228.032 165.623C228.032 165.623 226.49 165.183 225.309 166.267C224.102 167.373 224.586 168.997 224.586 168.997C224.586 168.997 223.144 169.422 222.935 171.337C222.711 173.374 224.2 174.474 224.2 174.474C224.2 174.474 223.309 176.061 224.413 177.65C225.307 178.934 226.452 178.683 226.452 178.683C226.452 178.683 226.698 179.887 228.256 180.229C229.814 180.57 230.516 179.646 230.516 179.646C230.516 179.646 231.415 180.513 232.804 180.284C234.341 180.029 234.48 178.977 234.48 178.977C234.48 178.977 236.268 179.553 237.29 178.296C238.312 177.04 237.728 176.391 237.728 176.391C237.728 176.391 239.852 176.577 240.011 174.513C240.171 172.45 239.079 172.068 239.079 172.068C239.079 172.068 240.433 170.246 239.523 168.84C238.613 167.43 236.914 167.694 236.914 167.694Z" fill="#F5E663" stroke="#E5B428" stroke-linecap="round" stroke-linejoin="round"/>
<path d="M234.241 170.276C234.241 170.276 235.382 170.165 235.548 171.66C235.715 173.156 234.668 173.304 234.668 173.304" stroke="#E5B428" stroke-linecap="round" stroke-linejoin="round"/>
<path d="M230.102 175.534C230.102 175.534 229.196 176.135 228.379 175.534C227.561 174.933 227.862 173.986 227.862 173.986C227.862 173.986 226.797 173.704 226.639 172.529C226.486 171.371 227.39 170.804 227.39 170.804" stroke="#E5B428" stroke-linecap="round" stroke-linejoin="round"/>
<path d="M212.019 167.694C212.019 167.694 212.697 165.648 210.817 164.746C208.938 163.845 207.987 165.259 207.987 165.259C207.987 165.259 206.602 163.408 204.858 163.972C203.113 164.537 203.138 165.623 203.138 165.623C203.138 165.623 201.596 165.183 200.414 166.267C199.208 167.373 199.691 168.997 199.691 168.997C199.691 168.997 198.25 169.422 198.04 171.337C197.816 173.374 199.306 174.474 199.306 174.474C199.306 174.474 198.414 176.061 199.518 177.65C200.412 178.934 201.557 178.683 201.557 178.683C201.557 178.683 201.803 179.887 203.361 180.229C204.919 180.57 205.622 179.646 205.622 179.646C205.622 179.646 206.52 180.513 207.909 180.284C209.447 180.029 209.586 178.977 209.586 178.977C209.586 178.977 211.374 179.553 212.396 178.296C213.418 177.04 212.834 176.391 212.834 176.391C212.834 176.391 214.957 176.577 215.117 174.513C215.277 172.45 214.184 172.068 214.184 172.068C214.184 172.068 215.539 170.246 214.629 168.84C213.719 167.43 212.019 167.694 212.019 167.694Z" fill="#F5E663" stroke="#E5B428" stroke-linecap="round" stroke-linejoin="round"/>
<path d="M209.343 170.276C209.343 170.276 210.484 170.165 210.65 171.66C210.817 173.156 209.77 173.304 209.77 173.304" stroke="#E5B428" stroke-linecap="round" stroke-linejoin="round"/>
<path d="M205.203 175.534C205.203 175.534 204.298 176.135 203.481 175.534C202.662 174.933 202.963 173.986 202.963 173.986C202.963 173.986 201.898 173.704 201.741 172.529C201.588 171.371 202.491 170.804 202.491 170.804" stroke="#E5B428" stroke-linecap="round" stroke-linejoin="round"/>
<path d="M231.402 142.71C231.402 142.71 235.174 146.641 235.293 152.972" stroke="#000001" stroke-linecap="round" stroke-linejoin="round"/>
<path d="M235.586 143.814C235.586 143.814 233.494 144.891 231.405 145.968" stroke="#000001" stroke-linecap="round" stroke-linejoin="round"/>
<path d="M237.48 148.561C237.48 148.561 233.571 149.453 232.862 149.587" stroke="#000001" stroke-linecap="round" stroke-linejoin="round"/>
<path d="M242.11 166.836C242.11 166.836 243.148 168.908 243.234 172.101" stroke="#000001" stroke-linecap="round" stroke-linejoin="round"/>
<path d="M245.398 168.305C245.398 168.305 246.141 170.852 245.795 173.397" stroke="#000001" stroke-linecap="round" stroke-linejoin="round"/>
</g>
<rect x="12.25" y="12.25" width="389.5" height="181.5" stroke="#0073F0" stroke-opacity="0.16" stroke-width="0.5"/>
</g>
<defs>
<filter id="filter0_d_5847_22276" x="0" y="0" width="414" height="206" filterUnits="userSpaceOnUse" color-interpolation-filters="sRGB">
<feFlood flood-opacity="0" result="BackgroundImageFix"/>
<feColorMatrix in="SourceAlpha" type="matrix" values="0 0 0 0 0 0 0 0 0 0 0 0 0 0 0 0 0 0 127 0" result="hardAlpha"/>
<feOffset/>
<feGaussianBlur stdDeviation="6"/>
<feComposite in2="hardAlpha" operator="out"/>
<feColorMatrix type="matrix" values="0 0 0 0 0 0 0 0 0 0 0 0 0 0 0 0 0 0 0.04 0"/>
<feBlend mode="normal" in2="BackgroundImageFix" result="effect1_dropShadow_5847_22276"/>
<feBlend mode="normal" in="SourceGraphic" in2="effect1_dropShadow_5847_22276" result="shape"/>
</filter>
<filter id="filter1_df_5847_22276" x="221.055" y="37.6484" width="12.7852" height="13.4053" filterUnits="userSpaceOnUse" color-interpolation-filters="sRGB">
<feFlood flood-opacity="0" result="BackgroundImageFix"/>
<feColorMatrix in="SourceAlpha" type="matrix" values="0 0 0 0 0 0 0 0 0 0 0 0 0 0 0 0 0 0 127 0" result="hardAlpha"/>
<feOffset/>
<feGaussianBlur stdDeviation="2"/>
<feComposite in2="hardAlpha" operator="out"/>
<feColorMatrix type="matrix" values="0 0 0 0 1 0 0 0 0 1 0 0 0 0 1 0 0 0 0.25 0"/>
<feBlend mode="normal" in2="BackgroundImageFix" result="effect1_dropShadow_5847_22276"/>
<feBlend mode="normal" in="SourceGraphic" in2="effect1_dropShadow_5847_22276" result="shape"/>
<feGaussianBlur stdDeviation="0.3" result="effect2_foregroundBlur_5847_22276"/>
</filter>
<filter id="filter2_df_5847_22276" x="211.594" y="10.6221" width="12.7852" height="13.4053" filterUnits="userSpaceOnUse" color-interpolation-filters="sRGB">
<feFlood flood-opacity="0" result="BackgroundImageFix"/>
<feColorMatrix in="SourceAlpha" type="matrix" values="0 0 0 0 0 0 0 0 0 0 0 0 0 0 0 0 0 0 127 0" result="hardAlpha"/>
<feOffset/>
<feGaussianBlur stdDeviation="2"/>
<feComposite in2="hardAlpha" operator="out"/>
<feColorMatrix type="matrix" values="0 0 0 0 1 0 0 0 0 1 0 0 0 0 1 0 0 0 0.25 0"/>
<feBlend mode="normal" in2="BackgroundImageFix" result="effect1_dropShadow_5847_22276"/>
<feBlend mode="normal" in="SourceGraphic" in2="effect1_dropShadow_5847_22276" result="shape"/>
<feGaussianBlur stdDeviation="0.3" result="effect2_foregroundBlur_5847_22276"/>
</filter>
<filter id="filter3_df_5847_22276" x="189" y="22" width="12.7852" height="13.4053" filterUnits="userSpaceOnUse" color-interpolation-filters="sRGB">
<feFlood flood-opacity="0" result="BackgroundImageFix"/>
<feColorMatrix in="SourceAlpha" type="matrix" values="0 0 0 0 0 0 0 0 0 0 0 0 0 0 0 0 0 0 127 0" result="hardAlpha"/>
<feOffset/>
<feGaussianBlur stdDeviation="2"/>
<feComposite in2="hardAlpha" operator="out"/>
<feColorMatrix type="matrix" values="0 0 0 0 1 0 0 0 0 1 0 0 0 0 1 0 0 0 0.25 0"/>
<feBlend mode="normal" in2="BackgroundImageFix" result="effect1_dropShadow_5847_22276"/>
<feBlend mode="normal" in="SourceGraphic" in2="effect1_dropShadow_5847_22276" result="shape"/>
<feGaussianBlur stdDeviation="0.3" result="effect2_foregroundBlur_5847_22276"/>
</filter>
<filter id="filter4_df_5847_22276" x="214" y="77" width="12.7852" height="13.4053" filterUnits="userSpaceOnUse" color-interpolation-filters="sRGB">
<feFlood flood-opacity="0" result="BackgroundImageFix"/>
<feColorMatrix in="SourceAlpha" type="matrix" values="0 0 0 0 0 0 0 0 0 0 0 0 0 0 0 0 0 0 127 0" result="hardAlpha"/>
<feOffset/>
<feGaussianBlur stdDeviation="2"/>
<feComposite in2="hardAlpha" operator="out"/>
<feColorMatrix type="matrix" values="0 0 0 0 1 0 0 0 0 1 0 0 0 0 1 0 0 0 0.25 0"/>
<feBlend mode="normal" in2="BackgroundImageFix" result="effect1_dropShadow_5847_22276"/>
<feBlend mode="normal" in="SourceGraphic" in2="effect1_dropShadow_5847_22276" result="shape"/>
<feGaussianBlur stdDeviation="0.3" result="effect2_foregroundBlur_5847_22276"/>
</filter>
<filter id="filter5_df_5847_22276" x="205" y="50" width="12.7852" height="13.4053" filterUnits="userSpaceOnUse" color-interpolation-filters="sRGB">
<feFlood flood-opacity="0" result="BackgroundImageFix"/>
<feColorMatrix in="SourceAlpha" type="matrix" values="0 0 0 0 0 0 0 0 0 0 0 0 0 0 0 0 0 0 127 0" result="hardAlpha"/>
<feOffset/>
<feGaussianBlur stdDeviation="2"/>
<feComposite in2="hardAlpha" operator="out"/>
<feColorMatrix type="matrix" values="0 0 0 0 1 0 0 0 0 1 0 0 0 0 1 0 0 0 0.25 0"/>
<feBlend mode="normal" in2="BackgroundImageFix" result="effect1_dropShadow_5847_22276"/>
<feBlend mode="normal" in="SourceGraphic" in2="effect1_dropShadow_5847_22276" result="shape"/>
<feGaussianBlur stdDeviation="0.3" result="effect2_foregroundBlur_5847_22276"/>
</filter>
<filter id="filter6_df_5847_22276" x="223.758" y="18.7295" width="12.7852" height="13.4053" filterUnits="userSpaceOnUse" color-interpolation-filters="sRGB">
<feFlood flood-opacity="0" result="BackgroundImageFix"/>
<feColorMatrix in="SourceAlpha" type="matrix" values="0 0 0 0 0 0 0 0 0 0 0 0 0 0 0 0 0 0 127 0" result="hardAlpha"/>
<feOffset/>
<feGaussianBlur stdDeviation="2"/>
<feComposite in2="hardAlpha" operator="out"/>
<feColorMatrix type="matrix" values="0 0 0 0 1 0 0 0 0 1 0 0 0 0 1 0 0 0 0.25 0"/>
<feBlend mode="normal" in2="BackgroundImageFix" result="effect1_dropShadow_5847_22276"/>
<feBlend mode="normal" in="SourceGraphic" in2="effect1_dropShadow_5847_22276" result="shape"/>
<feGaussianBlur stdDeviation="0.3" result="effect2_foregroundBlur_5847_22276"/>
</filter>
<filter id="filter8_df_5847_22276" x="260.246" y="28.1895" width="12.7852" height="13.4053" filterUnits="userSpaceOnUse" color-interpolation-filters="sRGB">
<feFlood flood-opacity="0" result="BackgroundImageFix"/>
<feColorMatrix in="SourceAlpha" type="matrix" values="0 0 0 0 0 0 0 0 0 0 0 0 0 0 0 0 0 0 127 0" result="hardAlpha"/>
<feOffset/>
<feGaussianBlur stdDeviation="2"/>
<feComposite in2="hardAlpha" operator="out"/>
<feColorMatrix type="matrix" values="0 0 0 0 1 0 0 0 0 1 0 0 0 0 1 0 0 0 0.25 0"/>
<feBlend mode="normal" in2="BackgroundImageFix" result="effect1_dropShadow_5847_22276"/>
<feBlend mode="normal" in="SourceGraphic" in2="effect1_dropShadow_5847_22276" result="shape"/>
<feGaussianBlur stdDeviation="0.3" result="effect2_foregroundBlur_5847_22276"/>
</filter>
<filter id="filter9_df_5847_22276" x="230.516" y="59.2705" width="12.7852" height="13.4053" filterUnits="userSpaceOnUse" color-interpolation-filters="sRGB">
<feFlood flood-opacity="0" result="BackgroundImageFix"/>
<feColorMatrix in="SourceAlpha" type="matrix" values="0 0 0 0 0 0 0 0 0 0 0 0 0 0 0 0 0 0 127 0" result="hardAlpha"/>
<feOffset/>
<feGaussianBlur stdDeviation="2"/>
<feComposite in2="hardAlpha" operator="out"/>
<feColorMatrix type="matrix" values="0 0 0 0 1 0 0 0 0 1 0 0 0 0 1 0 0 0 0.25 0"/>
<feBlend mode="normal" in2="BackgroundImageFix" result="effect1_dropShadow_5847_22276"/>
<feBlend mode="normal" in="SourceGraphic" in2="effect1_dropShadow_5847_22276" result="shape"/>
<feGaussianBlur stdDeviation="0.3" result="effect2_foregroundBlur_5847_22276"/>
</filter>
<filter id="filter10_df_5847_22276" x="311.594" y="11.9736" width="12.7852" height="13.4053" filterUnits="userSpaceOnUse" color-interpolation-filters="sRGB">
<feFlood flood-opacity="0" result="BackgroundImageFix"/>
<feColorMatrix in="SourceAlpha" type="matrix" values="0 0 0 0 0 0 0 0 0 0 0 0 0 0 0 0 0 0 127 0" result="hardAlpha"/>
<feOffset/>
<feGaussianBlur stdDeviation="2"/>
<feComposite in2="hardAlpha" operator="out"/>
<feColorMatrix type="matrix" values="0 0 0 0 1 0 0 0 0 1 0 0 0 0 1 0 0 0 0.25 0"/>
<feBlend mode="normal" in2="BackgroundImageFix" result="effect1_dropShadow_5847_22276"/>
<feBlend mode="normal" in="SourceGraphic" in2="effect1_dropShadow_5847_22276" result="shape"/>
<feGaussianBlur stdDeviation="0.3" result="effect2_foregroundBlur_5847_22276"/>
</filter>
<filter id="filter11_df_5847_22276" x="338.621" y="61.9736" width="12.7852" height="13.4053" filterUnits="userSpaceOnUse" color-interpolation-filters="sRGB">
<feFlood flood-opacity="0" result="BackgroundImageFix"/>
<feColorMatrix in="SourceAlpha" type="matrix" values="0 0 0 0 0 0 0 0 0 0 0 0 0 0 0 0 0 0 127 0" result="hardAlpha"/>
<feOffset/>
<feGaussianBlur stdDeviation="2"/>
<feComposite in2="hardAlpha" operator="out"/>
<feColorMatrix type="matrix" values="0 0 0 0 1 0 0 0 0 1 0 0 0 0 1 0 0 0 0.25 0"/>
<feBlend mode="normal" in2="BackgroundImageFix" result="effect1_dropShadow_5847_22276"/>
<feBlend mode="normal" in="SourceGraphic" in2="effect1_dropShadow_5847_22276" result="shape"/>
<feGaussianBlur stdDeviation="0.3" result="effect2_foregroundBlur_5847_22276"/>
</filter>
<filter id="filter12_df_5847_22276" x="361.594" y="24.1357" width="12.7852" height="13.4053" filterUnits="userSpaceOnUse" color-interpolation-filters="sRGB">
<feFlood flood-opacity="0" result="BackgroundImageFix"/>
<feColorMatrix in="SourceAlpha" type="matrix" values="0 0 0 0 0 0 0 0 0 0 0 0 0 0 0 0 0 0 127 0" result="hardAlpha"/>
<feOffset/>
<feGaussianBlur stdDeviation="2"/>
<feComposite in2="hardAlpha" operator="out"/>
<feColorMatrix type="matrix" values="0 0 0 0 1 0 0 0 0 1 0 0 0 0 1 0 0 0 0.25 0"/>
<feBlend mode="normal" in2="BackgroundImageFix" result="effect1_dropShadow_5847_22276"/>
<feBlend mode="normal" in="SourceGraphic" in2="effect1_dropShadow_5847_22276" result="shape"/>
<feGaussianBlur stdDeviation="0.3" result="effect2_foregroundBlur_5847_22276"/>
</filter>
<filter id="filter13_df_5847_22276" x="329.164" y="36.2979" width="12.7852" height="13.4053" filterUnits="userSpaceOnUse" color-interpolation-filters="sRGB">
<feFlood flood-opacity="0" result="BackgroundImageFix"/>
<feColorMatrix in="SourceAlpha" type="matrix" values="0 0 0 0 0 0 0 0 0 0 0 0 0 0 0 0 0 0 127 0" result="hardAlpha"/>
<feOffset/>
<feGaussianBlur stdDeviation="2"/>
<feComposite in2="hardAlpha" operator="out"/>
<feColorMatrix type="matrix" values="0 0 0 0 1 0 0 0 0 1 0 0 0 0 1 0 0 0 0.25 0"/>
<feBlend mode="normal" in2="BackgroundImageFix" result="effect1_dropShadow_5847_22276"/>
<feBlend mode="normal" in="SourceGraphic" in2="effect1_dropShadow_5847_22276" result="shape"/>
<feGaussianBlur stdDeviation="0.3" result="effect2_foregroundBlur_5847_22276"/>
</filter>
<filter id="filter14_df_5847_22276" x="387.27" y="71.4326" width="12.7852" height="13.4053" filterUnits="userSpaceOnUse" color-interpolation-filters="sRGB">
<feFlood flood-opacity="0" result="BackgroundImageFix"/>
<feColorMatrix in="SourceAlpha" type="matrix" values="0 0 0 0 0 0 0 0 0 0 0 0 0 0 0 0 0 0 127 0" result="hardAlpha"/>
<feOffset/>
<feGaussianBlur stdDeviation="2"/>
<feComposite in2="hardAlpha" operator="out"/>
<feColorMatrix type="matrix" values="0 0 0 0 1 0 0 0 0 1 0 0 0 0 1 0 0 0 0.25 0"/>
<feBlend mode="normal" in2="BackgroundImageFix" result="effect1_dropShadow_5847_22276"/>
<feBlend mode="normal" in="SourceGraphic" in2="effect1_dropShadow_5847_22276" result="shape"/>
<feGaussianBlur stdDeviation="0.3" result="effect2_foregroundBlur_5847_22276"/>
</filter>
<filter id="filter15_df_5847_22276" x="296.73" y="33.5947" width="12.7852" height="13.4053" filterUnits="userSpaceOnUse" color-interpolation-filters="sRGB">
<feFlood flood-opacity="0" result="BackgroundImageFix"/>
<feColorMatrix in="SourceAlpha" type="matrix" values="0 0 0 0 0 0 0 0 0 0 0 0 0 0 0 0 0 0 127 0" result="hardAlpha"/>
<feOffset/>
<feGaussianBlur stdDeviation="2"/>
<feComposite in2="hardAlpha" operator="out"/>
<feColorMatrix type="matrix" values="0 0 0 0 1 0 0 0 0 1 0 0 0 0 1 0 0 0 0.25 0"/>
<feBlend mode="normal" in2="BackgroundImageFix" result="effect1_dropShadow_5847_22276"/>
<feBlend mode="normal" in="SourceGraphic" in2="effect1_dropShadow_5847_22276" result="shape"/>
<feGaussianBlur stdDeviation="0.3" result="effect2_foregroundBlur_5847_22276"/>
</filter>
<filter id="filter16_df_5847_22276" x="387.27" y="41.7031" width="12.7852" height="13.4053" filterUnits="userSpaceOnUse" color-interpolation-filters="sRGB">
<feFlood flood-opacity="0" result="BackgroundImageFix"/>
<feColorMatrix in="SourceAlpha" type="matrix" values="0 0 0 0 0 0 0 0 0 0 0 0 0 0 0 0 0 0 127 0" result="hardAlpha"/>
<feOffset/>
<feGaussianBlur stdDeviation="2"/>
<feComposite in2="hardAlpha" operator="out"/>
<feColorMatrix type="matrix" values="0 0 0 0 1 0 0 0 0 1 0 0 0 0 1 0 0 0 0.25 0"/>
<feBlend mode="normal" in2="BackgroundImageFix" result="effect1_dropShadow_5847_22276"/>
<feBlend mode="normal" in="SourceGraphic" in2="effect1_dropShadow_5847_22276" result="shape"/>
<feGaussianBlur stdDeviation="0.3" result="effect2_foregroundBlur_5847_22276"/>
</filter>
<filter id="filter17_d_5847_22276" x="360.217" y="-4.58014" width="38.7501" height="40.0255" filterUnits="userSpaceOnUse" color-interpolation-filters="sRGB">
<feFlood flood-opacity="0" result="BackgroundImageFix"/>
<feColorMatrix in="SourceAlpha" type="matrix" values="0 0 0 0 0 0 0 0 0 0 0 0 0 0 0 0 0 0 127 0" result="hardAlpha"/>
<feOffset/>
<feGaussianBlur stdDeviation="2.31156"/>
<feComposite in2="hardAlpha" operator="out"/>
<feColorMatrix type="matrix" values="0 0 0 0 0 0 0 0 0 1 0 0 0 0 0.28 0 0 0 0.71 0"/>
<feBlend mode="normal" in2="BackgroundImageFix" result="effect1_dropShadow_5847_22276"/>
<feBlend mode="normal" in="SourceGraphic" in2="effect1_dropShadow_5847_22276" result="shape"/>
</filter>
<filter id="filter18_d_5847_22276" x="192.361" y="-18.377" width="63.1603" height="65.4952" filterUnits="userSpaceOnUse" color-interpolation-filters="sRGB">
<feFlood flood-opacity="0" result="BackgroundImageFix"/>
<feColorMatrix in="SourceAlpha" type="matrix" values="0 0 0 0 0 0 0 0 0 0 0 0 0 0 0 0 0 0 127 0" result="hardAlpha"/>
<feOffset/>
<feGaussianBlur stdDeviation="2.31156"/>
<feComposite in2="hardAlpha" operator="out"/>
<feColorMatrix type="matrix" values="0 0 0 0 0.926667 0 0 0 0 1 0 0 0 0 0.0833333 0 0 0 0.5 0"/>
<feBlend mode="normal" in2="BackgroundImageFix" result="effect1_dropShadow_5847_22276"/>
<feBlend mode="normal" in="SourceGraphic" in2="effect1_dropShadow_5847_22276" result="shape"/>
</filter>
<filter id="filter19_d_5847_22276" x="196.377" y="92.3769" width="40.4415" height="41.7902" filterUnits="userSpaceOnUse" color-interpolation-filters="sRGB">
<feFlood flood-opacity="0" result="BackgroundImageFix"/>
<feColorMatrix in="SourceAlpha" type="matrix" values="0 0 0 0 0 0 0 0 0 0 0 0 0 0 0 0 0 0 127 0" result="hardAlpha"/>
<feOffset/>
<feGaussianBlur stdDeviation="2.31156"/>
<feComposite in2="hardAlpha" operator="out"/>
<feColorMatrix type="matrix" values="0 0 0 0 0.926667 0 0 0 0 1 0 0 0 0 0.0833333 0 0 0 0.5 0"/>
<feBlend mode="normal" in2="BackgroundImageFix" result="effect1_dropShadow_5847_22276"/>
<feBlend mode="normal" in="SourceGraphic" in2="effect1_dropShadow_5847_22276" result="shape"/>
</filter>
<clipPath id="clip0_5847_22276">
<rect x="12" y="12" width="390" height="182" fill="white"/>
</clipPath>
<clipPath id="clip1_5847_22276">
<rect width="285.773" height="190" fill="white" transform="translate(191.895 17)"/>
</clipPath>
</defs>
</svg>
