<svg width="390" height="182" viewBox="0 0 390 182" fill="none" xmlns="http://www.w3.org/2000/svg">
<g clip-path="url(#clip0_5847_25650)">
<g filter="url(#filter0_d_5847_25650)">
<g clip-path="url(#clip1_5847_25650)">
<rect width="390" height="182" fill="#0073F0"/>
<path d="M439.66 37.9772L422.45 28.0096L439.66 18.042C443.838 15.6175 446.579 11.3072 447.02 6.47733L449.99 -26.3888C450.029 -26.7544 449.952 -27.1392 449.76 -27.4856C449.569 -27.8319 449.281 -28.0821 448.936 -28.236L419.096 -42.0906C414.726 -44.1303 409.609 -43.8994 405.431 -41.4748L388.22 -31.5072V-51.4616C388.22 -56.3107 385.863 -60.852 381.915 -63.6421L355.064 -82.6729C354.757 -82.8845 354.393 -83 354.01 -83C353.626 -83 353.243 -82.8845 352.955 -82.6729L326.085 -63.6614C322.137 -60.8712 319.799 -56.3107 319.799 -51.4809V-31.5265L302.589 -41.4941C298.41 -43.9186 293.312 -44.1495 288.924 -42.1098L259.083 -28.2553C258.757 -28.1013 258.47 -27.8512 258.259 -27.5048C258.067 -27.1584 257.99 -26.7736 258.029 -26.408L260.999 6.45809C261.44 11.2879 264.181 15.5982 268.359 18.0228L285.57 27.9904L268.359 37.958C264.181 40.3825 261.44 44.6928 260.999 49.5227L258.01 82.4272C257.971 82.7928 258.048 83.1777 258.24 83.5048C258.431 83.8512 258.719 84.1013 259.064 84.2553L288.904 98.1098C293.274 100.15 298.391 99.9186 302.569 97.4941L319.78 87.5265V107.481C319.78 112.33 322.137 116.871 326.085 119.661L352.955 138.673C353.262 138.885 353.626 139 354.01 139C354.393 139 354.776 138.885 355.064 138.673L381.934 119.661C385.882 116.871 388.22 112.311 388.22 107.481V87.5265L405.431 97.4941C409.609 99.9186 414.707 100.15 419.096 98.1098L448.936 84.2553C449.262 84.1013 449.55 83.8512 449.76 83.5048C449.952 83.1584 450.029 82.7928 449.99 82.4272L447.02 49.5611C446.579 44.7313 443.838 40.421 439.66 37.9964V37.9772ZM438.434 40.1131C441.922 42.1336 444.222 45.7511 444.586 49.7728L447.365 80.7147L388.22 46.4246V10.9993L408.9 22.9873L438.414 40.0939L438.434 40.1131ZM385.767 10.9993V45.0007L356.424 27.9904L385.767 10.9801V10.9993ZM355.217 -8.12768L384.54 8.88264L355.217 25.893V-8.10844V-8.12768ZM351.537 28.0096L322.214 45.0199V11.0185L351.537 28.0289V28.0096ZM352.764 64.1469L323.421 47.1366L352.764 30.1263V64.1277V64.1469ZM355.217 30.1455L384.54 47.1558L355.217 64.1662V30.1648V30.1455ZM352.764 25.893L323.421 8.88264L352.764 -8.12768V25.8737V25.893ZM444.567 6.26566C444.202 10.2873 441.903 13.9049 438.414 15.9254L419.977 26.6049L389.427 8.88264L447.346 -24.6954L444.567 6.24642V6.26566ZM406.638 -39.3389C408.516 -40.4357 410.663 -41.013 412.828 -41.013C414.649 -41.013 416.393 -40.6282 418.042 -39.8585L446.119 -26.8121L388.201 6.76597V-28.6786L406.638 -39.3582V-39.3389ZM385.767 -51.4424V-30.295V6.76597L355.217 -10.9371V-79.5364L380.515 -61.6409C383.812 -59.3126 385.767 -55.5026 385.767 -51.4616V-51.4424ZM327.465 -61.6217L352.783 -79.5364V-10.9756L322.233 6.74673V-51.4616C322.233 -55.5026 324.207 -59.3126 327.485 -61.6409L327.465 -61.6217ZM289.92 -39.8585C291.568 -40.6282 293.312 -41.013 295.133 -41.013C297.318 -41.013 299.445 -40.4357 301.324 -39.3389L319.761 -28.6594V6.76597L261.843 -26.8313L289.92 -39.8777V-39.8585ZM269.566 15.9061C266.078 13.8857 263.778 10.2681 263.414 6.24642L260.635 -24.6954L318.553 8.88264L288.004 26.5857L269.586 15.9061H269.566ZM263.414 49.7728C263.778 45.7511 266.078 42.1336 269.566 40.1131L294.577 25.6043L319.78 10.9993V46.4246L260.635 80.7147L263.414 49.7728ZM301.343 95.3774C299.465 96.4742 297.318 97.0515 295.152 97.0515C293.332 97.0515 291.588 96.6666 289.939 95.8969L261.843 82.8506L320.987 48.5605L351.537 66.2828L331.988 77.6166L301.324 95.3966L301.343 95.3774ZM322.214 107.481V86.1218L352.764 68.3995V135.556L327.465 117.66C324.169 115.332 322.214 111.522 322.214 107.481ZM380.515 117.66L355.217 135.556V68.3995L385.767 86.1025V107.462C385.767 111.503 383.793 115.313 380.515 117.641V117.66ZM418.061 95.8969C416.412 96.6666 414.668 97.0515 412.848 97.0515C410.682 97.0515 408.535 96.4742 406.657 95.3774L376.127 77.6936L356.444 66.2828L386.993 48.5798L446.138 82.8698L418.061 95.9162V95.8969Z" fill="white" fill-opacity="0.3"/>
</g>
<rect x="0.25" y="0.25" width="389.5" height="181.5" stroke="#0073F0" stroke-opacity="0.16" stroke-width="0.5"/>
</g>
<path d="M359.12 100.637C359.12 100.637 367.371 99.5322 371.925 107.013C376.527 114.573 372.658 121.818 368.233 124.759C360.875 129.651 352.907 123.931 352.907 123.931L359.12 100.637Z" fill="#0255A9"/>
<path d="M359.12 100.637C359.12 100.637 367.371 99.5322 371.925 107.013C376.527 114.573 372.658 121.818 368.233 124.759C360.875 129.651 352.907 123.931 352.907 123.931L359.12 100.637Z" stroke="black" stroke-width="2.5" stroke-linecap="round" stroke-linejoin="round"/>
<path d="M354.175 124.731C354.175 124.731 362.382 123.333 366.918 130.693C371.503 138.132 367.659 145.549 363.26 148.659C355.943 153.832 348.012 148.362 348.012 148.362L354.175 124.731Z" fill="#0255A9"/>
<path d="M354.175 124.731C354.175 124.731 362.382 123.333 366.918 130.693C371.503 138.132 367.659 145.549 363.26 148.659C355.943 153.832 348.012 148.362 348.012 148.362L354.175 124.731Z" stroke="black" stroke-width="2.5" stroke-linecap="round" stroke-linejoin="round"/>
<path d="M350.988 79.0963C350.988 79.0963 357.473 75.1792 364.208 79.9515C371.014 84.7742 370.595 92.3763 368.033 96.4899C363.771 103.331 358.373 101.843 358.373 101.843L350.988 79.0963Z" fill="#0255A9"/>
<path d="M350.988 79.0963C350.988 79.0963 357.473 75.1792 364.208 79.9515C371.014 84.7742 370.595 92.3763 368.033 96.4899C363.771 103.331 358.373 101.843 358.373 101.843L350.988 79.0963Z" stroke="black" stroke-width="2.5" stroke-linecap="round" stroke-linejoin="round"/>
<path d="M345.291 150.467C345.291 150.467 352.599 149.149 356.535 155.475C360.512 161.868 357.003 168.351 353.054 171.105C346.488 175.686 339.513 171.043 339.513 171.043L345.291 150.467Z" fill="#0255A9"/>
<path d="M345.291 150.467C345.291 150.467 352.599 149.149 356.535 155.475C360.512 161.868 357.003 168.351 353.054 171.105C346.488 175.686 339.513 171.043 339.513 171.043L345.291 150.467Z" stroke="black" stroke-width="2.5" stroke-linecap="round" stroke-linejoin="round"/>
<path d="M260.318 100.579C254.17 100.579 250.055 100.914 244.301 101.987C208.038 108.752 196.194 136.136 196.194 136.136C178.522 170.085 188.52 198.918 188.52 198.918C185.182 208.342 172.965 211.613 164.937 219.319C154.912 228.943 158.836 235.696 167.415 239.114C180.087 244.163 225.088 242.59 247.613 235.451C270.137 228.312 289.727 222.317 311.179 203.735C329 188.298 343.427 169.302 351.837 147.275C360.614 124.29 361.66 107.317 356.869 91.9559C349.734 69.0852 331.68 62.655 315.944 61.1852C290.069 58.7679 275.843 80.5003 276.963 99.656C276.963 99.656 277.112 102.11 277.268 102.497C277.422 102.885 267.252 100.579 260.318 100.579Z" fill="white"/>
<path d="M260.318 100.579C254.17 100.579 250.055 100.914 244.301 101.987C208.038 108.752 196.194 136.136 196.194 136.136C178.522 170.085 188.52 198.918 188.52 198.918C185.182 208.342 172.965 211.613 164.937 219.319C154.912 228.943 158.836 235.696 167.415 239.114C180.087 244.163 225.088 242.59 247.613 235.451C270.137 228.312 289.727 222.317 311.179 203.735C329 188.298 343.427 169.302 351.837 147.275C360.614 124.29 361.66 107.317 356.869 91.9559C349.734 69.0852 331.68 62.655 315.944 61.1852C290.069 58.7679 275.843 80.5003 276.963 99.656C276.963 99.656 277.112 102.11 277.268 102.497C277.422 102.885 267.252 100.579 260.318 100.579Z" stroke="black" stroke-width="2.5" stroke-linecap="round" stroke-linejoin="round"/>
<path d="M280.782 118.272C252.797 100.946 222.513 120.555 211.348 133.07C198.462 147.514 189.774 173.907 208.88 184.289C229.628 195.564 257.325 187.016 272.997 173.327C288.669 159.638 301.985 131.399 280.782 118.272Z" fill="#0D57A7"/>
<path d="M336.626 100.058C334.165 100.044 332.047 100.892 330.273 102.607C328.537 104.34 327.662 106.448 327.647 108.928C327.632 111.409 328.481 113.517 330.196 115.252C331.949 117.007 334.056 117.892 336.517 117.907C338.998 117.922 341.106 117.063 342.842 115.33C344.596 113.615 345.481 111.517 345.496 109.037C345.511 106.556 344.652 104.439 342.918 102.684C341.204 100.948 339.107 100.074 336.626 100.058Z" fill="#3A61AF"/>
<path d="M306.118 71.7508C304.356 70.3915 302.313 69.9048 299.988 70.2887C297.678 70.7096 295.759 71.8969 294.23 73.8506C292.701 75.8036 292.023 77.9356 292.195 80.2459C292.383 82.5932 293.357 84.4462 295.119 85.8055C296.895 87.1753 298.937 87.6494 301.247 87.2285C303.559 86.8334 305.479 85.6594 307.007 83.7057C308.536 81.7527 309.213 79.6075 309.04 77.2713C308.868 74.9603 307.895 73.1206 306.118 71.7508Z" fill="#3A61AF"/>
<path d="M333.176 87.9968C333.176 87.9968 335.496 92.3461 335.602 94.4424L333.176 87.9968Z" fill="#0255A9"/>
<path d="M333.176 87.9968C333.176 87.9968 335.496 92.3461 335.602 94.4424" stroke="black" stroke-width="2.5" stroke-linecap="round" stroke-linejoin="round"/>
<path d="M317.371 77.584C317.371 77.584 313.978 77.0099 310.353 77.4756L317.371 77.584Z" fill="#0255A9"/>
<path d="M317.371 77.584C317.371 77.584 313.978 77.0099 310.353 77.4756" stroke="black" stroke-width="2.5" stroke-linecap="round" stroke-linejoin="round"/>
<path d="M337.465 99.3969C337.465 99.3969 327.931 97.8852 326.42 109.279" stroke="black" stroke-width="2.5" stroke-linecap="round" stroke-linejoin="round"/>
<path d="M304.554 79.0128C304.554 79.0128 317.181 93.4934 330.527 100.78C328.701 102.663 328.472 103.519 327.559 104.889C323.682 105.98 317.52 106.199 311.072 102.5C302.859 97.7867 301.068 87.4568 304.554 79.0128Z" fill="white"/>
<path d="M304.554 79.0128C304.554 79.0128 317.181 93.4934 330.527 100.78C328.701 102.663 328.472 103.519 327.559 104.889C323.682 105.98 317.52 106.199 311.072 102.5C302.859 97.7867 301.068 87.4568 304.554 79.0128Z" stroke="black" stroke-width="2.5" stroke-linecap="round" stroke-linejoin="round"/>
<path d="M296.361 94.5834C297.503 95.4211 298.878 96.9014 297.938 98.7684C297.384 99.8662 296.274 100.628 295.046 100.689C293.844 100.749 292.346 100.2 291.621 97.472C291.621 97.472 290.993 94.8512 293.218 94.0464C294.276 93.6639 295.455 93.9184 296.361 94.5834Z" fill="#FFEE5D"/>
<path d="M296.361 94.5834C297.503 95.4211 298.878 96.9014 297.938 98.7684C297.384 99.8662 296.274 100.628 295.046 100.689C293.844 100.749 292.346 100.2 291.621 97.472C291.621 97.472 290.993 94.8512 293.218 94.0464C294.276 93.6639 295.455 93.9184 296.361 94.5834Z" stroke="#EFB91A" stroke-width="2.5" stroke-linecap="round" stroke-linejoin="round"/>
<path d="M294.015 81.7624C294.981 82.4714 296.145 83.7237 295.349 85.3033C294.881 86.2326 293.941 86.8773 292.902 86.9291C291.885 86.9794 290.618 86.5158 290.004 84.2069C290.004 84.2069 289.473 81.9889 291.355 81.3079C292.25 80.9841 293.248 81.1995 294.015 81.7624Z" fill="#FFEE5D"/>
<path d="M294.015 81.7624C294.981 82.4714 296.145 83.7237 295.349 85.3033C294.881 86.2326 293.941 86.8773 292.902 86.9291C291.885 86.9794 290.618 86.5158 290.004 84.2069C290.004 84.2069 289.473 81.9889 291.355 81.3079C292.25 80.9841 293.248 81.1995 294.015 81.7624Z" stroke="#EFB91A" stroke-width="2.5" stroke-linecap="round" stroke-linejoin="round"/>
<path d="M298.398 113.92C298.398 113.92 289.905 105.853 275.377 102.271" stroke="black" stroke-width="2.5" stroke-linecap="round" stroke-linejoin="round"/>
<path d="M208.441 193.055C197.36 202.979 189.821 207.071 180.161 204.804C173.727 203.293 158.011 195.162 161.92 179.526C165.828 163.891 188.941 158.673 188.941 158.673" fill="white"/>
<path d="M208.441 193.055C197.36 202.979 189.821 207.071 180.161 204.804C173.727 203.293 158.011 195.162 161.92 179.526C165.828 163.891 188.941 158.673 188.941 158.673" stroke="black" stroke-width="2.5" stroke-linecap="round" stroke-linejoin="round"/>
<path d="M306.026 144.74C306.026 144.74 289.785 136.824 281.53 139.805C273.275 142.787 263.406 165.428 269.985 172.395C273.998 176.644 287.982 186.134 307.721 187.102C335.358 188.456 343.441 165.374 343.441 165.374" fill="white"/>
<path d="M306.026 144.74C306.026 144.74 289.785 136.824 281.53 139.805C273.275 142.787 263.406 165.428 269.985 172.395C273.998 176.644 287.982 186.134 307.721 187.102C335.358 188.456 343.441 165.374 343.441 165.374" stroke="black" stroke-width="2.5" stroke-linecap="round" stroke-linejoin="round"/>
<path d="M276.184 144.079C278.612 145.571 279.693 148.304 278.978 150.489C278.122 153.107 276.272 154.428 272.748 153.885C275.909 156.064 275.883 158.389 275.143 160.221C274.403 162.053 271.999 163.701 268.434 162.988L268.408 162.981C268.427 162.775 268.322 162.376 268.169 161.833C269.188 155.648 272.444 148.584 276.184 144.079Z" fill="white"/>
<path d="M276.184 144.079C278.612 145.571 279.693 148.304 278.978 150.489C278.122 153.107 276.272 154.428 272.748 153.885C275.909 156.064 275.883 158.389 275.143 160.221C274.403 162.053 271.999 163.701 268.434 162.988L268.408 162.981C268.427 162.775 268.322 162.376 268.169 161.833C269.188 155.648 272.444 148.584 276.184 144.079Z" stroke="black" stroke-width="2.5" stroke-linecap="round" stroke-linejoin="round"/>
<path d="M247.004 115.092C247.004 115.092 255.09 111.504 251.77 104.305C248.864 98.0016 247.108 92.7195 232.355 96.6493C219.405 100.099 210.41 108.615 213.753 117.069C218.047 127.931 228.751 124.859 247.004 115.092Z" fill="white"/>
<path d="M247.004 115.092C247.004 115.092 255.09 111.504 251.77 104.305C248.864 98.0016 247.108 92.7195 232.355 96.6493C219.405 100.099 210.41 108.615 213.753 117.069C218.047 127.931 228.751 124.859 247.004 115.092Z" stroke="black" stroke-width="2.5" stroke-linecap="round" stroke-linejoin="round"/>
<path d="M246.444 114.232L246.457 114.255C245.345 115.208 244.245 116.048 243.163 116.797C241.652 117.556 240.078 118.307 238.492 119.015C238.179 119.15 237.872 119.285 237.545 119.424C236.982 119.664 236.449 119.894 235.939 120.116C234.061 120.896 232.233 121.586 230.564 122.135C229.517 122.313 228.561 122.412 227.716 122.457C226.966 119.659 228.105 116.896 230.168 115.818C232.609 114.541 234.856 114.886 236.999 117.736C236.259 113.97 237.9 112.323 239.709 111.529C241.518 110.734 244.389 111.232 246.444 114.232Z" fill="white"/>
<path d="M246.444 114.232L246.457 114.255C245.345 115.208 244.245 116.048 243.163 116.797C241.652 117.556 240.078 118.307 238.492 119.015C238.179 119.15 237.872 119.285 237.545 119.424C236.982 119.664 236.449 119.894 235.939 120.116C234.061 120.896 232.233 121.586 230.564 122.135C229.517 122.313 228.561 122.412 227.716 122.457C226.966 119.659 228.105 116.896 230.168 115.818C232.609 114.541 234.856 114.886 236.999 117.736C236.259 113.97 237.9 112.323 239.709 111.529C241.518 110.734 244.389 111.232 246.444 114.232Z" stroke="black" stroke-width="2.5" stroke-linecap="round" stroke-linejoin="round"/>
<path d="M213.52 93.816C213.52 93.816 204.218 95.5599 200.963 105.907" stroke="black" stroke-width="2.5" stroke-linecap="round" stroke-linejoin="round"/>
<path d="M198.52 91.4141C198.52 91.4141 189.916 93.9335 188.056 103.583" stroke="black" stroke-width="2.5" stroke-linecap="round" stroke-linejoin="round"/>
<path d="M187.24 180.195C182.634 174.79 172.155 169.549 166.09 171.542C166.09 171.542 172.624 166.217 176.898 166.873C181.171 167.528 179.051 172.313 179.051 172.313C179.051 172.313 182.73 168.373 187.093 171.273C191.455 174.173 187.24 180.195 187.24 180.195Z" fill="white"/>
<path d="M187.24 180.195C182.634 174.79 172.155 169.549 166.09 171.542C166.09 171.542 172.624 166.217 176.898 166.873C181.171 167.528 179.051 172.313 179.051 172.313C179.051 172.313 182.73 168.373 187.093 171.273C191.455 174.173 187.24 180.195 187.24 180.195Z" stroke="black" stroke-width="2.5" stroke-linecap="round" stroke-linejoin="round"/>
<path d="M187.239 180.196C190.885 183.073 193.022 186.806 193.664 188.62L187.239 180.196Z" fill="white"/>
<path d="M187.239 180.196C190.885 183.073 193.022 186.806 193.664 188.62" stroke="black" stroke-width="2.5" stroke-linecap="round" stroke-linejoin="round"/>
</g>
<defs>
<filter id="filter0_d_5847_25650" x="-12" y="-12" width="414" height="206" filterUnits="userSpaceOnUse" color-interpolation-filters="sRGB">
<feFlood flood-opacity="0" result="BackgroundImageFix"/>
<feColorMatrix in="SourceAlpha" type="matrix" values="0 0 0 0 0 0 0 0 0 0 0 0 0 0 0 0 0 0 127 0" result="hardAlpha"/>
<feOffset/>
<feGaussianBlur stdDeviation="6"/>
<feComposite in2="hardAlpha" operator="out"/>
<feColorMatrix type="matrix" values="0 0 0 0 0 0 0 0 0 0 0 0 0 0 0 0 0 0 0.04 0"/>
<feBlend mode="normal" in2="BackgroundImageFix" result="effect1_dropShadow_5847_25650"/>
<feBlend mode="normal" in="SourceGraphic" in2="effect1_dropShadow_5847_25650" result="shape"/>
</filter>
<clipPath id="clip0_5847_25650">
<rect width="390" height="182" fill="white"/>
</clipPath>
<clipPath id="clip1_5847_25650">
<rect width="390" height="182" fill="white"/>
</clipPath>
</defs>
</svg>
