<svg width="28" height="28" viewBox="0 0 28 28" fill="none" xmlns="http://www.w3.org/2000/svg">
<mask id="mask0_6306_17311" style="mask-type:alpha" maskUnits="userSpaceOnUse" x="0" y="0" width="28" height="28">
<rect width="28" height="28" fill="#D9D9D9"/>
</mask>
<g mask="url(#mask0_6306_17311)">
<path d="M14.175 24.5C12.3642 24.5 10.8865 24.2139 9.74187 23.6416C8.59729 23.0693 8.025 22.3304 8.025 21.425C8.025 21.015 8.14885 20.6349 8.39656 20.2847C8.52013 20.11 8.66815 19.947 8.84061 19.7957C9.16601 19.5101 9.65038 19.5773 9.96636 19.8732L10.647 20.5107C10.8377 20.6892 10.7849 21.0052 10.5491 21.1175C10.3697 21.2029 10.2287 21.3054 10.1263 21.425C10.3483 21.6983 10.8608 21.9375 11.6638 22.1425C12.4667 22.3475 13.3037 22.45 14.175 22.45C15.0462 22.45 15.8876 22.3475 16.6991 22.1425C17.5105 21.9375 18.0273 21.6983 18.2494 21.425C18.1298 21.2883 17.976 21.1773 17.7881 21.0919C17.5378 20.9781 17.4732 20.6453 17.6708 20.4541L18.3189 19.8268C18.6269 19.5288 19.1049 19.4585 19.4355 19.7312C19.6355 19.8962 19.8039 20.0722 19.9406 20.2591C20.1969 20.6093 20.325 20.9979 20.325 21.425C20.325 22.3304 19.7527 23.0693 18.6081 23.6416C17.4635 24.2139 15.9858 24.5 14.175 24.5ZM15.3458 20.5271C14.6606 21.0746 13.6894 21.0746 13.0042 20.5271C11.175 19.0656 9.76724 17.6395 8.78094 16.2487C7.59365 14.5746 7 12.9346 7 11.3287C7 10.1158 7.21781 9.0524 7.65344 8.13844C8.08906 7.22448 8.64854 6.46 9.33188 5.845C10.0152 5.23 10.784 4.76875 11.6381 4.46125C12.4923 4.15375 13.3379 4 14.175 4C15.0121 4 15.8577 4.15375 16.7119 4.46125C17.566 4.76875 18.3348 5.23 19.0181 5.845C19.7015 6.46 20.2609 7.22448 20.6966 8.13844C21.1322 9.0524 21.35 10.1158 21.35 11.3287C21.35 12.9346 20.7564 14.5746 19.5691 16.2487C18.5828 17.6395 17.175 19.0656 15.3458 20.5271ZM14.175 13.225C14.7387 13.225 15.2214 13.0243 15.6228 12.6228C16.0243 12.2214 16.225 11.7387 16.225 11.175C16.225 10.6112 16.0243 10.1286 15.6228 9.72719C15.2214 9.32573 14.7387 9.125 14.175 9.125C13.6112 9.125 13.1286 9.32573 12.7272 9.72719C12.3257 10.1286 12.125 10.6112 12.125 11.175C12.125 11.7387 12.3257 12.2214 12.7272 12.6228C13.1286 13.0243 13.6112 13.225 14.175 13.225Z" fill="#CCCCCC"/>
</g>
</svg>
