<svg width="28" height="28" viewBox="0 0 28 28" fill="none" xmlns="http://www.w3.org/2000/svg">
<mask id="mask0_6306_17315" style="mask-type:alpha" maskUnits="userSpaceOnUse" x="0" y="0" width="28" height="28">
<rect width="28" height="28" fill="#D9D9D9"/>
</mask>
<g mask="url(#mask0_6306_17315)">
<path d="M13.7 13.225C14.8275 13.225 15.7927 12.8235 16.5956 12.0206C17.3985 11.2177 17.8 10.2525 17.8 9.125V6.05H9.6V9.125C9.6 10.2525 10.0015 11.2177 10.8044 12.0206C11.6073 12.8235 12.5725 13.225 13.7 13.225ZM6.525 24.5C5.95891 24.5 5.5 24.0411 5.5 23.475C5.5 22.9089 5.95891 22.45 6.525 22.45H7.55V19.375C7.55 18.3329 7.79344 17.3549 8.28031 16.4409C8.76719 15.527 9.44625 14.7967 10.3175 14.25C9.44625 13.7033 8.76719 12.973 8.28031 12.0591C7.79344 11.1451 7.55 10.1671 7.55 9.125V6.05H6.525C5.95891 6.05 5.5 5.59109 5.5 5.025C5.5 4.45891 5.95891 4 6.525 4H20.875C21.4411 4 21.9 4.45891 21.9 5.025C21.9 5.59109 21.4411 6.05 20.875 6.05H19.85V9.125C19.85 10.1671 19.6066 11.1451 19.1197 12.0591C18.6328 12.973 17.9538 13.7033 17.0825 14.25C17.9538 14.7967 18.6328 15.527 19.1197 16.4409C19.6066 17.3549 19.85 18.3329 19.85 19.375V22.45H20.875C21.4411 22.45 21.9 22.9089 21.9 23.475C21.9 24.0411 21.4411 24.5 20.875 24.5H6.525Z" fill="#CCCCCC"/>
</g>
</svg>
