<svg width="28" height="28" viewBox="0 0 28 28" fill="none" xmlns="http://www.w3.org/2000/svg">
<mask id="mask0_6306_17307" style="mask-type:alpha" maskUnits="userSpaceOnUse" x="0" y="0" width="28" height="28">
<rect width="28" height="28" fill="#D9D9D9"/>
</mask>
<g mask="url(#mask0_6306_17307)">
<path d="M17.4993 23.3332C14.8938 23.3332 12.6868 22.429 10.8785 20.6207C9.07018 18.8123 8.16602 16.6054 8.16602 13.9998C8.16602 11.4137 9.07018 9.21164 10.8785 7.39359C12.6868 5.57553 14.8938 4.6665 17.4993 4.6665C20.0855 4.6665 22.2875 5.57553 24.1056 7.39359C25.9237 9.21164 26.8327 11.4137 26.8327 13.9998C26.8327 16.6054 25.9237 18.8123 24.1056 20.6207C22.2875 22.429 20.0855 23.3332 17.4993 23.3332ZM19.3239 17.5097C19.7816 17.9709 20.5269 17.9723 20.9863 17.5128C21.4446 17.0546 21.4446 16.3117 20.9863 15.8535L19.2518 14.119C18.8767 13.7439 18.666 13.2352 18.666 12.7047V10.4998C18.666 9.85551 18.1437 9.33317 17.4993 9.33317C16.855 9.33317 16.3327 9.85551 16.3327 10.4998V13.6717C16.3327 14.1995 16.5413 14.7059 16.9131 15.0805L19.3239 17.5097ZM3.49935 10.4998C2.85502 10.4998 2.33268 9.9775 2.33268 9.33317C2.33268 8.68884 2.85502 8.1665 3.49935 8.1665H5.83268C6.47702 8.1665 6.99935 8.68884 6.99935 9.33317C6.99935 9.9775 6.47702 10.4998 5.83268 10.4998H3.49935ZM2.33268 15.1665C1.68835 15.1665 1.16602 14.6442 1.16602 13.9998C1.16602 13.3555 1.68835 12.8332 2.33268 12.8332H5.83268C6.47701 12.8332 6.99935 13.3555 6.99935 13.9998C6.99935 14.6442 6.47702 15.1665 5.83268 15.1665H2.33268ZM3.49935 19.8332C2.85502 19.8332 2.33268 19.3108 2.33268 18.6665C2.33268 18.0222 2.85502 17.4998 3.49935 17.4998H5.83268C6.47702 17.4998 6.99935 18.0222 6.99935 18.6665C6.99935 19.3108 6.47702 19.8332 5.83268 19.8332H3.49935Z" fill="#CCCCCC"/>
</g>
</svg>
