<svg width="30" height="24" viewBox="0 0 30 24" fill="none" xmlns="http://www.w3.org/2000/svg">
<path d="M6.38889 7.125H20.4444C20.7958 7.125 21.0833 7.40625 21.0833 7.75V16.5C21.0833 16.8438 20.7958 17.125 20.4444 17.125H19.5979L15.497 10.9883C15.3214 10.7227 15.0179 10.5625 14.6944 10.5625C14.371 10.5625 14.0675 10.7227 13.8918 10.9883L11.8075 14.1055L11.3123 13.4453C11.1326 13.2031 10.8451 13.0625 10.5377 13.0625C10.2302 13.0625 9.9467 13.2031 9.76302 13.4453L7.01181 17.125H6.38889C6.0375 17.125 5.75 16.8438 5.75 16.5V7.75C5.75 7.40625 6.0375 7.125 6.38889 7.125ZM3.83333 7.75V16.5C3.83333 17.8789 4.97934 19 6.38889 19H20.4444C21.854 19 23 17.8789 23 16.5V7.75C23 6.37109 21.854 5.25 20.4444 5.25H6.38889C4.97934 5.25 3.83333 6.37109 3.83333 7.75ZM1.91667 8.6875C1.91667 8.16797 1.48941 7.75 0.958333 7.75C0.427257 7.75 0 8.16797 0 8.6875V17.4375C0 20.3711 2.43177 22.75 5.43056 22.75H18.2083C18.7394 22.75 19.1667 22.332 19.1667 21.8125C19.1667 21.293 18.7394 20.875 18.2083 20.875H5.43056C3.48993 20.875 1.91667 19.3359 1.91667 17.4375V8.6875ZM10.2222 9.625C10.2222 9.29348 10.0876 8.97554 9.84797 8.74112C9.60834 8.5067 9.28333 8.375 8.94444 8.375C8.60556 8.375 8.28055 8.5067 8.04092 8.74112C7.80129 8.97554 7.66667 9.29348 7.66667 9.625C7.66667 9.95652 7.80129 10.2745 8.04092 10.5089C8.28055 10.7433 8.60556 10.875 8.94444 10.875C9.28333 10.875 9.60834 10.7433 9.84797 10.5089C10.0876 10.2745 10.2222 9.95652 10.2222 9.625Z" fill="#ADADAD"/>
<path d="M24 3.5H29" stroke="#ADADAD" stroke-linecap="round"/>
<path d="M26.5 1L26.5 6" stroke="#ADADAD" stroke-linecap="round"/>
</svg>
