<svg width="45" height="44" viewBox="0 0 45 44" fill="none" xmlns="http://www.w3.org/2000/svg">
<ellipse cx="21.8383" cy="40" rx="4.57068" ry="2" fill="#4E4E4E" fill-opacity="0.36"/>
<mask id="mask0_3745_6856" style="mask-type:alpha" maskUnits="userSpaceOnUse" x="0" y="0" width="45" height="44">
<rect width="44.6911" height="44" fill="#D9D9D9"/>
</mask>
<g mask="url(#mask0_3745_6856)">
<path d="M23.2826 39.5802C22.5497 40.2146 21.4632 40.2146 20.7302 39.5802C16.3695 35.8058 13.0629 32.2798 10.8104 29.0021C8.34304 25.4118 7.10938 22.0889 7.10938 19.0333C7.10938 14.45 8.60684 10.7986 11.6018 8.07917C14.5967 5.35972 18.0649 4 22.0064 4C25.9479 4 29.4161 5.35972 32.4111 8.07917C35.406 10.7986 36.9034 14.45 36.9034 19.0333C36.9034 22.0889 35.6698 25.4118 33.2025 29.0021C30.9499 32.2798 27.6433 35.8058 23.2826 39.5802Z" fill="#F6BC29"/>
<rect width="15" height="15" transform="translate(15 11)" fill="#F6BC29"/>
<path d="M26.4843 17.0938H25.7811V16.9256C26.0175 16.6583 26.1726 16.3291 26.2282 15.9766C26.2837 15.6241 26.2374 15.2631 26.0948 14.9361C25.9521 14.609 25.719 14.3295 25.4229 14.1305C25.1268 13.9314 24.7799 13.8211 24.4232 13.8125C24.2737 13.2905 23.9958 12.8142 23.6149 12.4271C23.3173 12.1224 22.9615 11.8806 22.5686 11.716C22.1758 11.5514 21.7539 11.4673 21.328 11.4688C20.4517 11.4688 19.6352 11.8285 19.0136 12.4848C18.7084 12.3876 18.3815 12.3818 18.0732 12.4681C17.7648 12.5544 17.4884 12.7292 17.2781 12.9707C17.0678 13.2122 16.9328 13.51 16.8898 13.8273C16.8467 14.1446 16.8974 14.4676 17.0357 14.7565C16.8138 14.9534 16.6419 15.2003 16.5341 15.4768C16.4263 15.7533 16.3858 16.0514 16.4159 16.3466C16.446 16.6418 16.5458 16.9256 16.7071 17.1746C16.8684 17.4237 17.0866 17.6309 17.3436 17.779V23.8906C17.3441 24.3256 17.5171 24.7427 17.8247 25.0502C18.1323 25.3578 18.5493 25.5308 18.9843 25.5313H24.1405C24.5755 25.5308 24.9925 25.3578 25.3001 25.0502C25.6077 24.7427 25.7807 24.3256 25.7811 23.8906V23.6563H26.4843C27.0435 23.6556 27.5797 23.4332 27.9751 23.0378C28.3706 22.6423 28.593 22.1061 28.5936 21.5469V19.2031C28.593 18.6439 28.3706 18.1077 27.9751 17.7123C27.5797 17.3168 27.0435 17.0944 26.4843 17.0938ZM20.1561 23.1875C20.1561 23.3118 20.1068 23.4311 20.0188 23.519C19.9309 23.6069 19.8117 23.6563 19.6874 23.6563C19.5631 23.6563 19.4438 23.6069 19.3559 23.519C19.268 23.4311 19.2186 23.3118 19.2186 23.1875V18.5C19.2186 18.3757 19.268 18.2565 19.3559 18.1686C19.4438 18.0807 19.5631 18.0313 19.6874 18.0313C19.8117 18.0313 19.9309 18.0807 20.0188 18.1686C20.1068 18.2565 20.1561 18.3757 20.1561 18.5V23.1875ZM22.0311 23.1875C22.0311 23.3118 21.9818 23.4311 21.8938 23.519C21.8059 23.6069 21.6867 23.6563 21.5624 23.6563C21.4381 23.6563 21.3188 23.6069 21.2309 23.519C21.143 23.4311 21.0936 23.3118 21.0936 23.1875V18.5C21.0936 18.3757 21.143 18.2565 21.2309 18.1686C21.3188 18.0807 21.4381 18.0313 21.5624 18.0313C21.6867 18.0313 21.8059 18.0807 21.8938 18.1686C21.9818 18.2565 22.0311 18.3757 22.0311 18.5V23.1875ZM23.9061 23.1875C23.9061 23.3118 23.8568 23.4311 23.7688 23.519C23.6809 23.6069 23.5617 23.6563 23.4374 23.6563C23.3131 23.6563 23.1938 23.6069 23.1059 23.519C23.018 23.4311 22.9686 23.3118 22.9686 23.1875V18.5C22.9686 18.3757 23.018 18.2565 23.1059 18.1686C23.1938 18.0807 23.3131 18.0313 23.4374 18.0313C23.5617 18.0313 23.6809 18.0807 23.7688 18.1686C23.8568 18.2565 23.9061 18.3757 23.9061 18.5V23.1875ZM24.3749 16.625C24.1308 16.625 23.7728 16.4733 23.593 16.2937C23.5051 16.2057 23.3859 16.1563 23.2616 16.1563H19.6874C19.5914 16.1565 19.4977 16.1862 19.4191 16.2414C19.3405 16.2965 19.2808 16.3745 19.2479 16.4648C19.0478 17.012 18.5565 17.0938 18.2811 17.0938C18.0325 17.0938 17.794 16.995 17.6182 16.8192C17.4424 16.6434 17.3436 16.4049 17.3436 16.1563C17.3436 15.9076 17.4424 15.6692 17.6182 15.4934C17.794 15.3175 18.0325 15.2188 18.2811 15.2188C18.2838 15.2188 18.5483 15.2287 18.7616 15.3887C18.8109 15.4256 18.8669 15.4525 18.9265 15.4678C18.9862 15.4831 19.0482 15.4864 19.1091 15.4777C19.1701 15.469 19.2287 15.4484 19.2817 15.417C19.3346 15.3857 19.3809 15.3442 19.4179 15.2949C19.4548 15.2457 19.4817 15.1897 19.4969 15.13C19.5122 15.0704 19.5156 15.0083 19.5069 14.9474C19.4982 14.8865 19.4776 14.8278 19.4462 14.7749C19.4148 14.7219 19.3734 14.6756 19.3241 14.6387C19.0204 14.4172 18.6569 14.2927 18.2811 14.2813C18.1431 14.2814 18.0056 14.2968 17.871 14.3273C17.8245 14.2203 17.8053 14.1034 17.8152 13.9872C17.8251 13.871 17.8638 13.7591 17.9277 13.6615C17.9916 13.5639 18.0788 13.4838 18.1815 13.4283C18.2841 13.3729 18.3989 13.3438 18.5155 13.3438C18.6263 13.3432 18.7355 13.3691 18.8343 13.4192C18.933 13.4694 19.0184 13.5423 19.0833 13.632C19.1361 13.7049 19.1823 13.7824 19.2213 13.8635C19.234 13.983 19.2921 14.093 19.3836 14.1708C19.4751 14.2487 19.593 14.2885 19.7129 14.2819C19.8329 14.2754 19.9457 14.223 20.0282 14.1357C20.1107 14.0483 20.1565 13.9327 20.1561 13.8125C20.1561 13.6142 20.0504 13.3681 19.8409 13.0801C19.8274 13.0616 19.8116 13.0435 19.7984 13.0256C20.2262 12.6242 20.7608 12.4063 21.328 12.4063C21.6294 12.4054 21.928 12.4651 22.2059 12.5817C22.4839 12.6984 22.7356 12.8696 22.9461 13.0854C23.2094 13.3555 23.4037 13.6851 23.5128 14.0462C23.6218 14.4074 23.6423 14.7895 23.5724 15.1602C23.5609 15.2207 23.5615 15.2828 23.574 15.3431C23.5865 15.4034 23.6107 15.4606 23.6454 15.5115C23.68 15.5624 23.7243 15.606 23.7758 15.6398C23.8273 15.6735 23.8849 15.6968 23.9454 15.7083C23.9744 15.7138 24.0038 15.7165 24.0333 15.7165C24.1423 15.7164 24.2478 15.6783 24.3318 15.6088C24.4157 15.5393 24.4728 15.4427 24.4932 15.3357C24.5289 15.148 24.5481 14.9577 24.5507 14.7667C24.7798 14.8106 24.9844 14.9382 25.1244 15.1248C25.2644 15.3114 25.3298 15.5436 25.3078 15.7758C25.2859 16.0081 25.1781 16.2238 25.0056 16.3808C24.8331 16.5379 24.6082 16.6249 24.3749 16.625ZM27.6561 21.5469C27.6561 21.8577 27.5327 22.1558 27.3129 22.3755C27.0931 22.5953 26.7951 22.7188 26.4843 22.7188H25.7811V18.0313H26.4843C26.7951 18.0313 27.0931 18.1547 27.3129 18.3745C27.5327 18.5943 27.6561 18.8923 27.6561 19.2031V21.5469Z" fill="white"/>
</g>
</svg>
