<svg width="45" height="44" viewBox="0 0 45 44" fill="none" xmlns="http://www.w3.org/2000/svg">
<ellipse cx="21.8383" cy="40" rx="4.57068" ry="2" fill="#4E4E4E" fill-opacity="0.36"/>
<mask id="mask0_3367_28246" style="mask-type:alpha" maskUnits="userSpaceOnUse" x="0" y="0" width="45" height="44">
<rect width="44.6911" height="44" fill="#D9D9D9"/>
</mask>
<g mask="url(#mask0_3367_28246)">
<path d="M23.2826 39.5802C22.5497 40.2146 21.4632 40.2146 20.7302 39.5802C16.3695 35.8058 13.0629 32.2798 10.8104 29.0021C8.34304 25.4118 7.10938 22.0889 7.10938 19.0333C7.10938 14.45 8.60684 10.7986 11.6018 8.07917C14.5967 5.35972 18.0649 4 22.0064 4C25.9479 4 29.4161 5.35972 32.4111 8.07917C35.406 10.7986 36.9034 14.45 36.9034 19.0333C36.9034 22.0889 35.6698 25.4118 33.2025 29.0021C30.9499 32.2798 27.6433 35.8058 23.2826 39.5802Z" fill="#83E541"/>
<mask id="mask1_3367_28246" style="mask-type:alpha" maskUnits="userSpaceOnUse" x="15" y="11" width="14" height="14">
<rect x="15" y="11" width="14" height="14" fill="#D9D9D9"/>
</mask>
<g mask="url(#mask1_3367_28246)">
<path d="M16.1673 23.8334C16.4493 23.1139 16.6364 22.3726 16.7288 21.6094C16.8211 20.8462 16.877 20.0806 16.8965 19.3125C16.5173 19.1667 16.2038 18.9236 15.9559 18.5834C15.7079 18.2431 15.584 17.8542 15.584 17.4167V16.25C16.702 15.8806 17.842 15.3167 19.0038 14.5584C20.1656 13.8 21.1645 13.0028 22.0007 12.1667C22.8368 13.0028 23.8357 13.8 24.9975 14.5584C26.1593 15.3167 27.2993 15.8806 28.4173 16.25V17.4167C28.4173 17.8542 28.2934 18.2431 28.0454 18.5834C27.7975 18.9236 27.484 19.1667 27.1048 19.3125C27.1243 20.0806 27.1802 20.8462 27.2725 21.6094C27.3649 22.3726 27.552 23.1139 27.834 23.8334H16.1673ZM18.4423 16.25H25.559C24.8007 15.8222 24.1177 15.3823 23.51 14.9302C22.9024 14.4781 22.3993 14.082 22.0007 13.7417C21.602 14.082 21.0989 14.4781 20.4913 14.9302C19.8836 15.3823 19.2007 15.8222 18.4423 16.25ZM23.459 18.2917C23.702 18.2917 23.9086 18.2066 24.0788 18.0365C24.2489 17.8663 24.334 17.6597 24.334 17.4167H22.584C22.584 17.6597 22.6691 17.8663 22.8392 18.0365C23.0093 18.2066 23.2159 18.2917 23.459 18.2917ZM20.5423 18.2917C20.7854 18.2917 20.992 18.2066 21.1621 18.0365C21.3322 17.8663 21.4173 17.6597 21.4173 17.4167H19.6673C19.6673 17.6597 19.7524 17.8663 19.9225 18.0365C20.0927 18.2066 20.2993 18.2917 20.5423 18.2917ZM17.6257 18.2917C17.8687 18.2917 18.0753 18.2066 18.2454 18.0365C18.4156 17.8663 18.5007 17.6597 18.5007 17.4167H16.7507C16.7507 17.6597 16.8357 17.8663 17.0059 18.0365C17.176 18.2066 17.3826 18.2917 17.6257 18.2917ZM17.7132 22.6667H19.2736C19.3611 22.0834 19.4291 21.5049 19.4777 20.9313C19.5263 20.3577 19.5652 19.7792 19.5944 19.1959C19.5069 19.1472 19.4194 19.0962 19.3319 19.0427C19.2444 18.9893 19.1618 18.9236 19.084 18.8459C18.9382 18.9917 18.7802 19.1108 18.61 19.2031C18.4399 19.2955 18.2576 19.366 18.0632 19.4146C18.0437 19.9688 18.0097 20.5156 17.9611 21.0552C17.9125 21.5948 17.8298 22.132 17.7132 22.6667ZM20.4548 22.6667H23.5465C23.4687 22.132 23.4079 21.5972 23.3642 21.0625C23.3204 20.5278 23.284 19.9882 23.2548 19.4438C23.002 19.4243 22.7711 19.3636 22.5621 19.2615C22.3531 19.1594 22.1659 19.0257 22.0007 18.8604C21.8354 19.0257 21.6434 19.1594 21.4246 19.2615C21.2059 19.3636 20.9798 19.4243 20.7465 19.4438C20.7173 19.9882 20.6809 20.5278 20.6371 21.0625C20.5934 21.5972 20.5326 22.132 20.4548 22.6667ZM24.7277 22.6667H26.2882C26.1715 22.132 26.0888 21.5948 26.0402 21.0552C25.9916 20.5156 25.9576 19.9688 25.9382 19.4146C25.7437 19.366 25.559 19.2955 25.384 19.2031C25.209 19.1108 25.0534 18.9917 24.9173 18.8459C24.8395 18.9236 24.7569 18.9893 24.6694 19.0427C24.5819 19.0962 24.4944 19.1472 24.4069 19.1959C24.4361 19.7792 24.4774 20.3577 24.5309 20.9313C24.5843 21.5049 24.65 22.0834 24.7277 22.6667ZM26.3757 18.2917C26.6187 18.2917 26.8253 18.2066 26.9954 18.0365C27.1656 17.8663 27.2507 17.6597 27.2507 17.4167H25.5007C25.5007 17.6597 25.5857 17.8663 25.7559 18.0365C25.926 18.2066 26.1326 18.2917 26.3757 18.2917Z" fill="white"/>
</g>
<path d="M22 12.75L23.5155 16.25H20.4845L22 12.75Z" fill="white"/>
<path d="M18.4995 23.25C18.7328 23.0166 18.9856 20.0416 19.0828 18.5833L20.2497 18.875C20.0552 20.2361 19.6662 23.0166 19.6662 23.25C19.6662 23.5416 18.2078 23.5416 18.4995 23.25Z" fill="white"/>
<path d="M25.5005 23.25C25.2672 23.0166 25.0144 20.0416 24.9172 18.5833L23.7503 18.875C23.9448 20.2361 24.3338 23.0166 24.3338 23.25C24.3338 23.5416 25.7922 23.5416 25.5005 23.25Z" fill="white"/>
</g>
</svg>
