<svg width="11" height="10" viewBox="0 0 11 10" fill="none" xmlns="http://www.w3.org/2000/svg">
<mask id="mask0_1948_6675" style="mask-type:alpha" maskUnits="userSpaceOnUse" x="0" y="0" width="11" height="10">
<rect x="0.716797" width="10" height="10" fill="#D9D9D9"/>
</mask>
<g mask="url(#mask0_1948_6675)">
<path d="M5.71799 4.94387C5.92529 4.94387 6.10251 4.87006 6.24966 4.72242C6.39688 4.57478 6.47049 4.39731 6.47049 4.19002C6.47049 3.98273 6.39668 3.80547 6.24904 3.65825C6.1014 3.5111 5.9239 3.43752 5.71654 3.43752C5.50924 3.43752 5.33202 3.51134 5.18487 3.65898C5.03765 3.80662 4.96404 3.98412 4.96404 4.19148C4.96404 4.39877 5.03786 4.57599 5.1855 4.72315C5.33313 4.8703 5.51063 4.94387 5.71799 4.94387ZM5.06771 7.51476C5.42639 7.87677 6.00814 7.87677 6.36683 7.51476C6.87201 7.00488 7.27928 6.51024 7.58862 6.03085C8.02105 5.36071 8.23727 4.77377 8.23727 4.27002C8.23727 3.51044 7.99595 2.88599 7.51331 2.39669C7.03067 1.90738 6.43199 1.66273 5.71727 1.66273C5.00254 1.66273 4.40386 1.90738 3.92122 2.39669C3.43858 2.88599 3.19727 3.51044 3.19727 4.27002C3.19727 4.77377 3.41348 5.36071 3.84591 6.03085C4.15525 6.51024 4.56252 7.00488 5.06771 7.51476ZM6.36058 8.38185C5.99867 8.72293 5.43586 8.72293 5.07395 8.38185C4.34093 7.69103 3.76905 7.03893 3.35831 6.42554C2.83428 5.6429 2.57227 4.9244 2.57227 4.27002C2.57227 3.30849 2.88327 2.53005 3.50529 1.93471C4.12737 1.33936 4.8647 1.04169 5.71727 1.04169C6.56984 1.04169 7.30716 1.33936 7.92924 1.93471C8.55126 2.53005 8.86227 3.30849 8.86227 4.27002C8.86227 4.9244 8.60025 5.6429 8.07622 6.42554C7.66549 7.03893 7.0936 7.69103 6.36058 8.38185Z" fill="#444444"/>
</g>
</svg>
