<svg width="45" height="44" viewBox="0 0 45 44" fill="none" xmlns="http://www.w3.org/2000/svg">
<ellipse cx="21.8383" cy="40" rx="4.57068" ry="2" fill="#4E4E4E" fill-opacity="0.36"/>
<mask id="mask0_3367_28282" style="mask-type:alpha" maskUnits="userSpaceOnUse" x="0" y="0" width="45" height="44">
<rect width="44.6911" height="44" fill="#D9D9D9"/>
</mask>
<g mask="url(#mask0_3367_28282)">
<path d="M23.2826 39.5802C22.5497 40.2146 21.4632 40.2146 20.7302 39.5802C16.3695 35.8058 13.0629 32.2798 10.8104 29.0021C8.34304 25.4118 7.10938 22.0889 7.10938 19.0333C7.10938 14.45 8.60684 10.7986 11.6018 8.07917C14.5967 5.35972 18.0649 4 22.0064 4C25.9479 4 29.4161 5.35972 32.4111 8.07917C35.406 10.7986 36.9034 14.45 36.9034 19.0333C36.9034 22.0889 35.6698 25.4118 33.2025 29.0021C30.9499 32.2798 27.6433 35.8058 23.2826 39.5802Z" fill="#222222"/>
<mask id="mask1_3367_28282" style="mask-type:alpha" maskUnits="userSpaceOnUse" x="15" y="11" width="15" height="15">
<rect x="15.2363" y="11.332" width="14.2199" height="14" fill="#D9D9D9"/>
</mask>
<g mask="url(#mask1_3367_28282)">
</g>
<path d="M24.334 21H16.334C15.7807 21 15.334 21.4188 15.334 21.9375C15.334 22.4563 15.7807 22.875 16.334 22.875H24.334C24.8873 22.875 25.334 22.4563 25.334 21.9375C25.334 21.4188 24.8873 21 24.334 21ZM26.5673 15.8313C26.9807 15.45 27.234 14.925 27.234 14.3438C27.234 13.4 26.5673 12.6 25.6473 12.3375C25.5724 12.3171 25.4935 12.3131 25.4167 12.326C25.3399 12.339 25.2674 12.3684 25.2048 12.4119C25.1421 12.4555 25.0911 12.5121 25.0557 12.5773C25.0203 12.6424 25.0014 12.7144 25.0007 12.7875C25.0007 12.9938 25.1407 13.175 25.3473 13.2313C25.8607 13.375 26.234 13.8188 26.234 14.3438C26.234 14.8563 25.8807 15.2875 25.3873 15.4438C25.1673 15.5125 25.0007 15.6875 25.0007 15.9063V16C25.0007 16.2313 25.1806 16.4313 25.4273 16.4688C26.714 16.6625 27.6673 17.7188 27.6673 18.9813V19.9063C27.6673 20.1625 27.894 20.375 28.1673 20.375C28.4406 20.375 28.6673 20.1625 28.6673 19.9063V18.975C28.6673 17.5875 27.814 16.3875 26.5673 15.8313ZM24.6873 17.375H23.8207C23.1407 17.375 22.5273 16.9188 22.4407 16.2813C22.3607 15.6875 22.7473 15.2188 23.3073 15.075C23.5207 15.0188 23.6673 14.8375 23.6673 14.625C23.6673 14.3188 23.3607 14.0875 23.0473 14.175C22.5753 14.3028 22.1615 14.5729 21.8698 14.9435C21.5781 15.3141 21.425 15.7645 21.434 16.225C21.454 17.375 22.514 18.2813 23.7407 18.2813H24.6873C25.3873 18.2813 26.0007 18.7438 26.0007 19.5625V19.9063C26.0007 20.1625 26.2207 20.375 26.5007 20.375H26.5073C26.7807 20.375 27.0073 20.1688 27.0073 19.9063V19.35C27.0007 18.2188 25.934 17.375 24.6873 17.375ZM26.0007 21H27.0007V22.875H26.0007V21ZM27.6673 21H28.6673V22.875H27.6673V21Z" fill="white"/>
</g>
</svg>
