<svg width="46" height="44" viewBox="0 0 46 44" fill="none" xmlns="http://www.w3.org/2000/svg">
<ellipse cx="22.7894" cy="40" rx="4.57068" ry="2" fill="#4E4E4E" fill-opacity="0.36"/>
<mask id="mask0_3367_28120" style="mask-type:alpha" maskUnits="userSpaceOnUse" x="0" y="0" width="46" height="44">
<rect x="0.951172" width="44.6911" height="44" fill="#D9D9D9"/>
</mask>
<g mask="url(#mask0_3367_28120)">
<path d="M24.2338 39.5802C23.5008 40.2146 22.4143 40.2146 21.6813 39.5802C17.3207 35.8058 14.0141 32.2798 11.7615 29.0021C9.29421 25.4118 8.06055 22.0889 8.06055 19.0333C8.06055 14.45 9.55801 10.7986 12.5529 8.07917C15.5479 5.35972 19.0161 4 22.9576 4C26.8991 4 30.3673 5.35972 33.3622 8.07917C36.3572 10.7986 37.8546 14.45 37.8546 19.0333C37.8546 22.0889 36.621 25.4118 34.1536 29.0021C31.9011 32.2798 28.5945 35.8058 24.2338 39.5802Z" fill="#222222"/>
<mask id="mask1_3367_28120" style="mask-type:alpha" maskUnits="userSpaceOnUse" x="15" y="12" width="15" height="14">
<rect x="15.9492" y="12" width="14" height="14" fill="#D9D9D9"/>
</mask>
<g mask="url(#mask1_3367_28120)">
<path d="M20.6309 22.5H22.3809V21.9167H21.2142V21.3333H22.3809V19.5833H20.6309V20.1667H21.7976V20.75H20.6309V22.5ZM24.7142 22.5H25.2976V19.5833H24.7142V20.75H24.1309V19.5833H23.5476V21.3333H24.7142V22.5ZM28.2142 18.4458V23.0833C28.2142 23.4042 28.1 23.6788 27.8715 23.9073C27.6431 24.1358 27.3684 24.25 27.0476 24.25H18.8809C18.5601 24.25 18.2854 24.1358 18.0569 23.9073C17.8285 23.6788 17.7142 23.4042 17.7142 23.0833V18.4458C17.4906 18.2417 17.318 17.9792 17.1965 17.6583C17.075 17.3375 17.0726 16.9875 17.1892 16.6083L17.8017 14.625C17.8795 14.3722 18.018 14.1632 18.2174 13.9979C18.4167 13.8326 18.6476 13.75 18.9101 13.75H27.0184C27.2809 13.75 27.5094 13.8302 27.7038 13.9906C27.8983 14.151 28.0392 14.3625 28.1267 14.625L28.7392 16.6083C28.8559 16.9875 28.8535 17.3326 28.7319 17.6437C28.6104 17.9549 28.4378 18.2222 28.2142 18.4458ZM24.2476 17.8333C24.5101 17.8333 24.7094 17.7434 24.8455 17.5635C24.9816 17.3837 25.0351 17.1819 25.0059 16.9583L24.6851 14.9167H23.5476V17.075C23.5476 17.2792 23.6156 17.4566 23.7517 17.6073C23.8878 17.758 24.0531 17.8333 24.2476 17.8333ZM21.6226 17.8333C21.8462 17.8333 22.0285 17.758 22.1694 17.6073C22.3104 17.4566 22.3809 17.2792 22.3809 17.075V14.9167H21.2434L20.9226 16.9583C20.8837 17.1917 20.9347 17.3958 21.0757 17.5708C21.2167 17.7458 21.399 17.8333 21.6226 17.8333ZM19.0267 17.8333C19.2017 17.8333 19.3549 17.7701 19.4861 17.6437C19.6174 17.5174 19.6976 17.3569 19.7267 17.1625L20.0476 14.9167H18.9101L18.3267 16.8708C18.2684 17.0653 18.3 17.2743 18.4215 17.4979C18.543 17.7215 18.7448 17.8333 19.0267 17.8333ZM26.9017 17.8333C27.1837 17.8333 27.3878 17.7215 27.5142 17.4979C27.6406 17.2743 27.6698 17.0653 27.6017 16.8708L26.9892 14.9167H25.8809L26.2017 17.1625C26.2309 17.3569 26.3111 17.5174 26.4424 17.6437C26.5736 17.7701 26.7267 17.8333 26.9017 17.8333Z" fill="white"/>
</g>
</g>
</svg>
