<svg width="45" height="44" viewBox="0 0 45 44" fill="none" xmlns="http://www.w3.org/2000/svg">
<ellipse cx="21.8383" cy="40" rx="4.57068" ry="2" fill="#4E4E4E" fill-opacity="0.36"/>
<mask id="mask0_3367_28237" style="mask-type:alpha" maskUnits="userSpaceOnUse" x="0" y="0" width="45" height="44">
<rect width="44.6911" height="44" fill="#D9D9D9"/>
</mask>
<g mask="url(#mask0_3367_28237)">
<path d="M23.2826 39.5802C22.5497 40.2146 21.4632 40.2146 20.7302 39.5802C16.3695 35.8058 13.0629 32.2798 10.8104 29.0021C8.34304 25.4118 7.10938 22.0889 7.10938 19.0333C7.10938 14.45 8.60684 10.7986 11.6018 8.07917C14.5967 5.35972 18.0649 4 22.0064 4C25.9479 4 29.4161 5.35972 32.4111 8.07917C35.406 10.7986 36.9034 14.45 36.9034 19.0333C36.9034 22.0889 35.6698 25.4118 33.2025 29.0021C30.9499 32.2798 27.6433 35.8058 23.2826 39.5802Z" fill="#83E541"/>
<mask id="mask1_3367_28237" style="mask-type:alpha" maskUnits="userSpaceOnUse" x="15" y="12" width="14" height="14">
<rect x="15" y="12" width="14" height="14" fill="#D9D9D9"/>
</mask>
<g mask="url(#mask1_3367_28237)">
<path d="M21.9993 21.9166C22.1646 21.9166 22.3032 21.8607 22.415 21.7489C22.5268 21.6371 22.5827 21.4986 22.5827 21.3333C22.5827 21.168 22.5268 21.0295 22.415 20.9177C22.3032 20.8059 22.1646 20.75 21.9993 20.75C21.8341 20.75 21.6955 20.8059 21.5837 20.9177C21.4719 21.0295 21.416 21.168 21.416 21.3333C21.416 21.4986 21.4719 21.6371 21.5837 21.7489C21.6955 21.8607 21.8341 21.9166 21.9993 21.9166ZM21.9993 19.5833C22.1646 19.5833 22.3032 19.5274 22.415 19.4156C22.5268 19.3038 22.5827 19.1653 22.5827 19C22.5827 18.8347 22.5268 18.6962 22.415 18.5844C22.3032 18.4725 22.1646 18.4166 21.9993 18.4166C21.8341 18.4166 21.6955 18.4725 21.5837 18.5844C21.4719 18.6962 21.416 18.8347 21.416 19C21.416 19.1653 21.4719 19.3038 21.5837 19.4156C21.6955 19.5274 21.8341 19.5833 21.9993 19.5833ZM21.9993 17.25C22.1646 17.25 22.3032 17.1941 22.415 17.0823C22.5268 16.9705 22.5827 16.8319 22.5827 16.6666C22.5827 16.5014 22.5268 16.3628 22.415 16.251C22.3032 16.1392 22.1646 16.0833 21.9993 16.0833C21.8341 16.0833 21.6955 16.1392 21.5837 16.251C21.4719 16.3628 21.416 16.5014 21.416 16.6666C21.416 16.8319 21.4719 16.9705 21.5837 17.0823C21.6955 17.1941 21.8341 17.25 21.9993 17.25ZM26.666 23.6666H17.3327C17.0118 23.6666 16.7372 23.5524 16.5087 23.3239C16.2803 23.0955 16.166 22.8208 16.166 22.5V20.1666C16.4868 20.1666 16.7615 20.0524 16.99 19.8239C17.2184 19.5955 17.3327 19.3208 17.3327 19C17.3327 18.6791 17.2184 18.4045 16.99 18.176C16.7615 17.9475 16.4868 17.8333 16.166 17.8333V15.5C16.166 15.1791 16.2803 14.9045 16.5087 14.676C16.7372 14.4475 17.0118 14.3333 17.3327 14.3333H26.666C26.9868 14.3333 27.2615 14.4475 27.49 14.676C27.7184 14.9045 27.8327 15.1791 27.8327 15.5V17.8333C27.5118 17.8333 27.2372 17.9475 27.0087 18.176C26.7803 18.4045 26.666 18.6791 26.666 19C26.666 19.3208 26.7803 19.5955 27.0087 19.8239C27.2372 20.0524 27.5118 20.1666 27.8327 20.1666V22.5C27.8327 22.8208 27.7184 23.0955 27.49 23.3239C27.2615 23.5524 26.9868 23.6666 26.666 23.6666Z" fill="white"/>
</g>
</g>
</svg>
