<svg width="45" height="44" viewBox="0 0 45 44" fill="none" xmlns="http://www.w3.org/2000/svg">
<ellipse cx="21.8383" cy="40" rx="4.57068" ry="2" fill="#4E4E4E" fill-opacity="0.36"/>
<mask id="mask0_3367_28048" style="mask-type:alpha" maskUnits="userSpaceOnUse" x="0" y="0" width="45" height="44">
<rect width="44.6911" height="44" fill="#D9D9D9"/>
</mask>
<g mask="url(#mask0_3367_28048)">
<path d="M23.2826 39.5802C22.5497 40.2146 21.4632 40.2146 20.7302 39.5802C16.3695 35.8058 13.0629 32.2798 10.8104 29.0021C8.34304 25.4118 7.10938 22.0889 7.10938 19.0333C7.10938 14.45 8.60684 10.7986 11.6018 8.07917C14.5967 5.35972 18.0649 4 22.0064 4C25.9479 4 29.4161 5.35972 32.4111 8.07917C35.406 10.7986 36.9034 14.45 36.9034 19.0333C36.9034 22.0889 35.6698 25.4118 33.2025 29.0021C30.9499 32.2798 27.6433 35.8058 23.2826 39.5802Z" fill="#222222"/>
<g clip-path="url(#clip0_3367_28048)">
<path d="M17.2008 16C18.0833 16 18.8008 15.3273 18.8008 14.5C18.8008 13.6727 18.0833 13 17.2008 13C16.3183 13 15.6008 13.6727 15.6008 14.5C15.6008 15.3273 16.3183 16 17.2008 16ZM26.8008 16C27.6833 16 28.4008 15.3273 28.4008 14.5C28.4008 13.6727 27.6833 13 26.8008 13C25.9183 13 25.2008 13.6727 25.2008 14.5C25.2008 15.3273 25.9183 16 26.8008 16ZM29.9833 21.3086L28.8433 16.9539C28.7608 16.6375 28.4558 16.4148 28.0983 16.3867C27.7233 16.6141 27.2783 16.75 26.7983 16.75C26.3183 16.75 25.8733 16.6141 25.4983 16.3867C25.1408 16.4148 24.8358 16.6375 24.7533 16.9539L23.6133 21.3086C23.5258 21.6625 23.8258 22 24.2308 22H25.6008V24.4375C25.6008 24.7492 25.8683 25 26.2008 25H27.4008C27.7333 25 28.0008 24.7492 28.0008 24.4375V22H29.3708C29.7758 22 30.0758 21.6625 29.9833 21.3086ZM22.4008 13H21.6008C21.3808 13 21.2008 13.1688 21.2008 13.375V24.625C21.2008 24.8313 21.3808 25 21.6008 25H22.4008C22.6208 25 22.8008 24.8313 22.8008 24.625V13.375C22.8008 13.1688 22.6208 13 22.4008 13ZM18.5033 16.3844C18.1283 16.6141 17.6808 16.75 17.2008 16.75C16.7208 16.75 16.2733 16.6141 15.8983 16.3844C15.2833 16.4336 14.8008 16.9117 14.8008 17.5V20.6875C14.8008 20.9992 15.0683 21.25 15.4008 21.25H15.6008V24.4375C15.6008 24.7492 15.8683 25 16.2008 25H18.2008C18.5333 25 18.8008 24.7492 18.8008 24.4375V21.25H19.0008C19.3333 21.25 19.6008 20.9992 19.6008 20.6875V17.5C19.6008 16.9117 19.1183 16.4336 18.5033 16.3844Z" fill="white"/>
</g>
</g>
<defs>
<clipPath id="clip0_3367_28048">
<rect width="16" height="12" fill="white" transform="translate(14 13)"/>
</clipPath>
</defs>
</svg>
