<svg width="11" height="10" viewBox="0 0 11 10" fill="none" xmlns="http://www.w3.org/2000/svg">
<mask id="mask0_1948_6680" style="mask-type:alpha" maskUnits="userSpaceOnUse" x="0" y="0" width="11" height="10">
<rect x="0.716797" width="10" height="10" fill="#D9D9D9"/>
</mask>
<g mask="url(#mask0_1948_6680)">
<path d="M5.71703 8.95841C5.22557 8.95841 4.76512 8.86545 4.33568 8.67955C3.90616 8.49365 3.53168 8.24098 3.21224 7.92153C2.8928 7.60209 2.64012 7.22761 2.45422 6.79809C2.26832 6.36865 2.17536 5.9082 2.17536 5.41674C2.17536 4.92528 2.26832 4.46483 2.45422 4.03538C2.64012 3.60587 2.8928 3.23139 3.21224 2.91195C3.53168 2.5925 3.90616 2.33983 4.33568 2.15393C4.76512 1.96802 5.22557 1.87507 5.71703 1.87507C6.20849 1.87507 6.66894 1.96802 7.09839 2.15393C7.5279 2.33983 7.90238 2.5925 8.22182 2.91195C8.54127 3.23139 8.79394 3.60587 8.97984 4.03538C9.16575 4.46483 9.2587 4.92528 9.2587 5.41674C9.2587 5.9082 9.16575 6.36865 8.97984 6.79809C8.79394 7.22761 8.54127 7.60209 8.22182 7.92153C7.90238 8.24098 7.5279 8.49365 7.09839 8.67955C6.66894 8.86545 6.20849 8.95841 5.71703 8.95841ZM6.73621 6.87507C6.85747 6.99634 7.05409 6.99634 7.17536 6.87507C7.29664 6.7538 7.29663 6.55718 7.17536 6.43591L6.42946 5.69007C6.17339 5.43402 6.02953 5.08674 6.02953 4.72462V3.64591C6.02953 3.47332 5.88962 3.33341 5.71703 3.33341C5.54444 3.33341 5.40453 3.47332 5.40453 3.64591V4.90077C5.40453 5.31218 5.56796 5.70674 5.85886 5.99766L6.73621 6.87507ZM2.8949 1.42314C3.01614 1.3019 3.21272 1.30189 3.33398 1.42312C3.45527 1.54437 3.45528 1.74099 3.33401 1.86226L2.16255 3.03372C2.04128 3.15499 1.84467 3.15497 1.72341 3.03369C1.60218 2.91243 1.60219 2.71585 1.72344 2.5946L2.8949 1.42314ZM8.10008 1.42312C8.22134 1.30189 8.41792 1.3019 8.53917 1.42314L9.71062 2.5946C9.83187 2.71585 9.83189 2.91243 9.71065 3.03369C9.5894 3.15497 9.39278 3.15499 9.27151 3.03372L8.10005 1.86226C7.97878 1.74099 7.9788 1.54437 8.10008 1.42312ZM5.71703 8.33341C6.52689 8.33341 7.21547 8.04976 7.78276 7.48247C8.35005 6.91518 8.6337 6.2266 8.6337 5.41674C8.6337 4.60688 8.35005 3.9183 7.78276 3.35101C7.21547 2.78372 6.52689 2.50007 5.71703 2.50007C4.90717 2.50007 4.21859 2.78372 3.6513 3.35101C3.08401 3.9183 2.80036 4.60688 2.80036 5.41674C2.80036 6.2266 3.08401 6.91518 3.6513 7.48247C4.21859 8.04976 4.90717 8.33341 5.71703 8.33341Z" fill="#444444"/>
</g>
</svg>
