<svg width="28" height="28" viewBox="0 0 28 28" fill="none" xmlns="http://www.w3.org/2000/svg">
<mask id="mask0_5847_19428" style="mask-type:alpha" maskUnits="userSpaceOnUse" x="0" y="0" width="28" height="28">
<rect width="28" height="28" fill="#D9D9D9"/>
</mask>
<g mask="url(#mask0_5847_19428)">
<path d="M9.4625 15.3935L15.2323 21.6543C15.6627 22.1213 15.6595 22.8413 15.225 23.3045C14.7434 23.8179 13.9271 23.8143 13.4501 23.2967L6.24908 15.4829C5.54335 14.7171 5.54335 13.538 6.24908 12.7722L13.4501 4.95841C13.9271 4.44075 14.7434 4.43715 15.225 4.95057C15.6595 5.41377 15.6627 6.13383 15.2323 6.60084L9.4625 12.8616H22.4007C23.0999 12.8616 23.6667 13.4284 23.6667 14.1275C23.6667 14.8267 23.0999 15.3935 22.4007 15.3935H9.4625Z" fill="white"/>
</g>
</svg>
