<svg width="28" height="28" viewBox="0 0 28 28" fill="none" xmlns="http://www.w3.org/2000/svg">
<mask id="mask0_1954_19517" style="mask-type:alpha" maskUnits="userSpaceOnUse" x="0" y="0" width="28" height="28">
<rect width="28" height="28" fill="#D9D9D9"/>
</mask>
<g mask="url(#mask0_1954_19517)">
<path d="M9.12913 14.0569L14.8011 19.527C15.2704 19.9796 15.2671 20.7323 14.7938 21.1808C14.3497 21.6015 13.6532 21.5985 13.2128 21.1738L6.15936 14.3714C5.34384 13.5849 5.34384 12.2787 6.15936 11.4922L13.2128 4.68976C13.6532 4.2651 14.3497 4.26202 14.7938 4.68277C15.2671 5.13122 15.2704 5.88398 14.8011 6.33659L9.12913 11.8066H22.2082C22.8295 11.8066 23.3333 12.3104 23.3333 12.9318C23.3333 13.5532 22.8295 14.0569 22.2082 14.0569H9.12913Z" fill="#222222"/>
</g>
</svg>
