<svg width="430" height="269" viewBox="0 0 430 269" fill="none" xmlns="http://www.w3.org/2000/svg">
<g clip-path="url(#clip0_5847_27711)">
<rect width="430" height="269" fill="#0073F0"/>
<path d="M441.039 25.8415C432.724 31.6961 420.677 31.5513 412.506 25.5038C415.16 54.8088 394.862 84.5802 366.619 92.7991C359.879 94.7614 352.738 95.5977 345.79 94.5362C333.55 92.6543 322.806 84.9823 314.796 75.541C306.786 66.0997 301.173 54.9053 295.624 43.8395C283.883 60.1486 260.883 67.2899 241.984 60.5025C223.069 53.715 209.864 33.5779 211.167 13.5373C204.766 13.9555 198.252 11.4303 193.812 6.79809C190.419 23.9114 175.943 37.6632 159.216 42.6171C142.488 47.571 124.04 44.4668 108.455 36.65C100.976 32.9024 93.6253 27.6108 90.7141 19.7779C82.9134 23.6863 73.1826 23.445 65.5749 19.1667C57.9671 14.8883 52.7238 6.70159 52 -1.99984L450.352 -1.14739C453.295 8.58341 449.355 19.9869 441.055 25.8415H441.039Z" fill="#F8F8F8"/>
<path opacity="0.18" d="M92.2095 9.43546C83.5724 4.44943 73.1017 2.88928 63.3387 4.75502C59.2534 5.52705 56.5835 6.44386 54.8142 7.79491C53.2702 4.75504 52.2891 1.42563 52.0156 -1.98417L450.368 -1.13167C451.14 1.44176 451.429 4.12778 451.284 6.79772C435.249 0.13895 415.707 2.24594 401.697 12.6201C376.076 5.72008 348.829 4.86762 322.822 10.1432C314.506 11.832 305.998 14.2928 299.564 19.8418C274.618 4.46552 243.704 -0.938671 215.027 5.04457C198.026 -4.9275 193.426 3.09837 193.426 3.09837C155.95 -4.92753 120.678 0.283696 92.2095 9.45156V9.43546Z" fill="#99CCFF"/>
<g opacity="0.1" clip-path="url(#clip1_5847_27711)">
<path d="M153.945 72.3794C153.945 72.3794 171.338 -5.6879 230.604 -39.4883L244.405 -15.0982C244.405 -15.0982 210.471 -14.7141 154.04 72.4755L153.945 72.3794Z" fill="#FEFEFE"/>
<path d="M168.316 140.365C168.316 140.365 245.92 154.097 282.123 212.575L258.87 227.747C258.87 227.747 256.791 193.274 168.316 140.365Z" fill="#FEFEFE"/>
<path d="M103.284 79.1015C103.284 79.1015 53.1859 17.3582 -14.7767 14.1895L-16.2891 42.2284C-16.2891 42.2284 14.2421 27.0566 103.189 79.1015H103.284Z" fill="#FEFEFE"/>
<path d="M125.021 57.3994C125.021 57.3994 131.543 -22.3964 85.0375 -72.7129L64.7148 -53.7002C64.7148 -53.7002 96.9475 -42.9455 125.021 57.3994Z" fill="#FEFEFE"/>
<path d="M8.19143 92.7373C8.19143 92.7373 -28.4838 74.7809 -61 88.2242L-55.7067 101.764C-55.7067 101.764 -44.6474 87.9361 8.28595 92.7373H8.19143Z" fill="#FEFEFE"/>
<path d="M80.5962 155.248C80.5962 155.248 43.2593 171.764 32.1055 205.661L45.6224 210.366C45.6224 210.366 42.5031 192.793 80.5962 155.248Z" fill="#FEFEFE"/>
<path d="M55.7378 10.0614C55.7378 10.0614 37.8728 -27.0998 4.03328 -36.9902L-0.03125 -23.0668C-0.03125 -23.0668 17.0776 -26.9077 55.7378 10.0614Z" fill="#FEFEFE"/>
<path d="M206 63.2531C206 63.2531 239.84 40.3034 273.963 48.9455L270.56 63.061C270.56 63.061 257.705 50.962 206 63.2531Z" fill="#FEFEFE"/>
<path d="M270.211 144.974C270.211 144.974 310.856 142.477 335.999 167.443L326.075 177.91C326.075 177.91 320.97 160.818 270.211 144.974Z" fill="#FEFEFE"/>
<path d="M162.645 164.658C162.645 164.658 192.798 192.505 192.703 228.13H178.43C178.43 228.13 186.843 212.574 162.645 164.658Z" fill="#FEFEFE"/>
<path d="M96.7607 123.658C96.7607 123.658 20.0073 105.509 -35.7617 144.975L-20.1653 168.213C-20.1653 168.213 -4.94695 137.389 96.7607 123.658Z" fill="#FEFEFE"/>
<path d="M131.545 155.057C131.545 155.057 77.3833 213.151 82.5821 282L110.183 280.08C110.183 280.08 91.6564 251.176 131.545 155.057Z" fill="#FEFEFE"/>
<path d="M177.957 100.996C177.957 100.996 248.283 64.8907 311.708 89.6648L301.972 115.975C301.972 115.975 280.043 89.6648 177.957 100.996Z" fill="#FEFEFE"/>
</g>
<g opacity="0.6" clip-path="url(#clip2_5847_27711)" filter="url(#filter0_d_5847_27711)">
<path d="M119.828 69.9978C119.828 69.9978 120.704 66.2402 123.69 64.6133L124.385 65.7872C124.385 65.7872 122.676 65.8057 119.833 70.0024L119.828 69.9978Z" fill="#FEFEFE"/>
<path d="M120.551 73.2695C120.551 73.2695 124.46 73.9305 126.284 76.7452L125.113 77.4754C125.113 77.4754 125.008 75.8162 120.551 73.2695Z" fill="#FEFEFE"/>
<path d="M117.278 70.3217C117.278 70.3217 114.754 67.3498 111.33 67.1973L111.254 68.5469C111.254 68.5469 112.792 67.8166 117.273 70.3217H117.278Z" fill="#FEFEFE"/>
<path d="M118.37 69.2763C118.37 69.2763 118.699 65.4355 116.356 63.0137L115.332 63.9288C115.332 63.9288 116.956 64.4465 118.37 69.2763Z" fill="#FEFEFE"/>
<path d="M112.486 70.9771C112.486 70.9771 110.638 70.1128 109 70.7599L109.267 71.4116C109.267 71.4116 109.824 70.746 112.49 70.9771H112.486Z" fill="#FEFEFE"/>
<path d="M116.134 73.9863C116.134 73.9863 114.253 74.7813 113.691 76.4128L114.372 76.6393C114.372 76.6393 114.215 75.7935 116.134 73.9863Z" fill="#FEFEFE"/>
<path d="M119.91 66.2353C119.91 66.2353 119.748 64.2479 120.962 63L121.49 63.4761C121.49 63.4761 120.648 63.7441 119.914 66.2353H119.91Z" fill="#FEFEFE"/>
<path d="M114.88 66.9971C114.88 66.9971 113.98 65.2085 112.275 64.7324L112.07 65.4026C112.07 65.4026 112.932 65.2177 114.88 66.9971Z" fill="#FEFEFE"/>
<path d="M124.109 68.421C124.109 68.421 125.814 67.3163 127.533 67.7323L127.362 68.4117C127.362 68.4117 126.714 67.8294 124.109 68.421Z" fill="#FEFEFE"/>
<path d="M125.688 73.4916C125.688 73.4916 127.735 73.3715 129.002 74.5731L128.502 75.0769C128.502 75.0769 128.245 74.2542 125.688 73.4916Z" fill="#FEFEFE"/>
<path d="M120.266 74.4395C120.266 74.4395 121.785 75.7798 121.78 77.4945H121.061C121.061 77.4945 121.485 76.7458 120.266 74.4395Z" fill="#FEFEFE"/>
<path d="M116.946 72.4661C116.946 72.4661 113.079 71.5926 110.27 73.4922L111.055 74.6107C111.055 74.6107 111.822 73.1271 116.946 72.4661Z" fill="#FEFEFE"/>
<path d="M118.699 73.9766C118.699 73.9766 115.971 76.7728 116.233 80.0867L117.623 79.9943C117.623 79.9943 116.69 78.6031 118.699 73.9766Z" fill="#FEFEFE"/>
<path d="M121.039 71.3755C121.039 71.3755 124.582 69.6377 127.777 70.8301L127.287 72.0965C127.287 72.0965 126.182 70.8301 121.039 71.3755Z" fill="#FEFEFE"/>
</g>
<g filter="url(#filter1_d_5847_27711)">
<path d="M510.16 269C510.796 268.271 511.41 267.518 511.959 266.692C515.315 261.663 516.478 255.201 516.5 248.957C516.544 233.141 509.414 217.52 497.963 208.118C497.502 207.73 497.019 207.365 496.537 207.001C484.252 197.745 467.776 195.752 453.978 201.85C454.921 201.437 445.181 185.281 444.018 183.8C439.214 177.629 433.203 172.308 426.27 169.369C413.854 164.097 397.861 166.623 389.262 178.601C366.6 144.127 324.063 127.388 286.835 138.32C249.628 149.253 220.166 187.152 215.91 229.522C197.263 218.686 171.816 225.489 159.684 244.536C151.874 234.478 137.396 231.708 126.997 238.34C124.343 217.617 110.763 199.834 93.9371 190.335C77.1109 180.836 57.4548 178.868 38.6762 181.273C7.87574 185.233 -24.921 205.446 -30.581 239.191C-30.581 239.191 -53.9665 232.826 -77.5494 256.974C-79.2606 258.723 -83.3629 263.777 -86.5 268.976H510.16V269Z" fill="#F8F8F8"/>
<path opacity="0.18" d="M512.111 265.283C514.854 260.449 516.127 254.506 516.5 248.477C492.646 263.918 459.685 253.567 445.267 223.937C426.351 238.24 400.631 235.425 383.821 217.227C341.6 266.477 276.402 279.557 224.678 249.103C210.37 264.6 199.266 265.112 180.656 263.804C167.95 262.894 159.655 250.354 159.655 250.354C159.655 250.354 133.102 268.013 119.079 245.804C75.1895 269.719 24.9797 273.586 -20.7753 256.581C-29.7507 262.667 -40.6134 267.558 -49.7424 261.899C-56.4136 257.776 -59.3323 245.861 -56.9403 236.961C-63.3702 240.174 -70.4364 245.435 -77.5465 253.937C-79.2582 255.984 -83.3619 261.899 -86.5 267.984H510.312C510.948 267.131 511.562 266.25 512.111 265.283Z" fill="#99CCFF"/>
</g>
<path d="M298.9 174.416C298.9 174.416 286.994 189.023 282.752 197.018C282.752 197.018 274.933 191.578 271.49 190.639C268.046 189.701 265.218 188.995 260.51 194.167C255.801 199.34 250.852 207.335 249.438 212.035C248.024 216.734 249.912 221.441 257.208 226.606C264.511 231.779 280.433 241.065 290.254 240.536L297.621 223.671L305.355 188.056L298.893 174.423L298.9 174.416Z" fill="white" stroke="black" stroke-width="3" stroke-linecap="round" stroke-linejoin="round"/>
<path d="M282.753 197.018C282.753 197.018 284.761 198.627 285.496 199.424Z" fill="white"/>
<path d="M282.753 197.018C282.753 197.018 284.761 198.627 285.496 199.424" stroke="black" stroke-width="3" stroke-linecap="round" stroke-linejoin="round"/>
<path d="M404.557 223.663C406.642 232.399 420.238 259.631 442.036 286.488C446.426 291.901 447.536 296.826 440.699 300.933C433.862 305.04 404.847 306.931 388.911 293.446L404.557 223.656V223.663Z" fill="white" stroke="black" stroke-width="3" stroke-linecap="round" stroke-linejoin="round"/>
<path d="M361.231 129.394C361.231 129.394 366.788 122.909 375.406 125.506C384.11 128.138 386.111 136.317 384.739 141.595C382.455 150.367 372.437 151.446 372.437 151.446L361.231 129.394Z" fill="#0A509D" stroke="black" stroke-width="3" stroke-linecap="round" stroke-linejoin="round"/>
<path d="M373.946 151.192C373.946 151.192 379.269 144.509 387.789 147.035C396.393 149.583 398.536 157.881 397.298 163.265C395.241 172.22 385.42 173.469 385.42 173.469L373.946 151.192Z" fill="#0A509D" stroke="black" stroke-width="3" stroke-linecap="round" stroke-linejoin="round"/>
<path d="M385.446 175.369C385.446 175.369 390.769 168.687 399.289 171.213C407.893 173.76 410.036 182.059 408.798 187.443C406.741 196.398 396.92 197.647 396.92 197.647L385.446 175.369Z" fill="#0A509D" stroke="black" stroke-width="3" stroke-linecap="round" stroke-linejoin="round"/>
<path d="M340.239 118.492C340.239 118.492 342.523 111.062 350.95 110.102C359.47 109.135 364.355 115.225 365.211 120.122C366.639 128.266 361.485 130.82 361.485 130.82L340.246 118.485L340.239 118.492Z" fill="#0A509D" stroke="black" stroke-width="3" stroke-linecap="round" stroke-linejoin="round"/>
<path d="M297.383 180.492C297.383 180.492 287.612 208.147 290.503 243.846C293.19 276.991 311.056 305.598 345.905 305.704C395.551 305.859 415.008 279.7 405.266 225.922C396.265 176.251 377.777 142.824 358.073 127.765C338.623 112.897 315.786 114.117 301.978 122.494C278.265 136.875 283.313 165.962 297.39 180.499L297.383 180.492Z" fill="white"/>
<path d="M278.824 124.893C278.824 124.893 267.399 127.638 268.594 148.814" stroke="black" stroke-width="3" stroke-linecap="round" stroke-linejoin="round"/>
<path d="M277.551 132.357L265.418 127.051" stroke="black" stroke-width="3" stroke-linecap="round" stroke-linejoin="round"/>
<path d="M275.027 141.78L261.983 139.508" stroke="black" stroke-width="3" stroke-linecap="round" stroke-linejoin="round"/>
<path d="M329.227 203.757C365.461 200.497 373.726 248.877 374.971 259.984C377.155 294.116 357.571 294.794 356.079 303.128C354.227 303.671 352.24 304.073 350.098 304.32C327.961 306.875 315.136 288.881 308.165 266.596C301.194 244.304 299.723 206.41 329.227 203.757Z" fill="#0A509D"/>
<path d="M292.85 198.783C290.771 210.158 289.046 226.001 290.495 243.854C291.725 259.061 296.194 273.675 303.992 284.655" stroke="black" stroke-width="3" stroke-linecap="round" stroke-linejoin="round"/>
<path d="M409.559 236.226C407.692 233.198 405.818 229.028 405.26 225.93C396.26 176.259 377.771 142.831 358.067 127.773C338.617 112.904 315.78 114.125 301.972 122.501C278.259 136.883 283.307 165.97 297.384 180.507" stroke="black" stroke-width="3" stroke-linecap="round" stroke-linejoin="round"/>
<path d="M350.241 135.514C352.716 135.782 354.745 136.883 356.329 138.809C357.87 140.75 358.506 142.965 358.23 145.449C357.955 147.933 356.859 149.951 354.936 151.49C352.97 153.042 350.75 153.691 348.276 153.416C345.78 153.141 343.765 152.04 342.224 150.1C340.661 148.18 340.018 145.971 340.286 143.48C340.562 140.989 341.672 138.971 343.616 137.412C345.54 135.873 347.745 135.238 350.241 135.514Z" fill="#375BA5"/>
<path d="M298.567 132.612C300.681 132.859 302.406 133.932 303.742 135.837C305.043 137.756 305.559 139.965 305.297 142.456C305.036 144.947 304.074 146.972 302.413 148.532C300.716 150.105 298.807 150.776 296.686 150.529C294.551 150.282 292.84 149.202 291.539 147.276C290.224 145.37 289.694 143.176 289.955 140.685C290.217 138.194 291.185 136.161 292.868 134.588C294.53 133.028 296.431 132.372 298.567 132.619V132.612Z" fill="#375BA5"/>
<path d="M312.958 131.017C312.874 130.925 312.775 130.826 312.669 130.734C311.728 129.951 310.654 129.612 309.438 129.718C308.193 129.824 307.182 130.346 306.397 131.285C305.613 132.223 305.273 133.31 305.386 134.545C305.492 135.759 306.016 136.747 306.949 137.502C307.613 138.052 308.328 138.398 309.105 138.532C309.466 138.574 309.841 138.581 310.215 138.546C310.59 138.511 310.943 138.44 311.269 138.341C312.039 138.073 312.683 137.607 313.213 136.944C313.998 136.034 314.337 134.975 314.231 133.762L314.167 133.042C313.948 132.273 313.545 131.595 312.951 131.01L312.958 131.017Z" fill="black"/>
<path d="M339.145 133.641C339.032 133.549 338.926 133.457 338.813 133.366C337.851 132.561 336.748 132.208 335.504 132.321C334.238 132.434 333.185 132.97 332.358 133.937C331.552 134.897 331.198 136.012 331.311 137.275C331.424 138.538 331.962 139.575 332.923 140.38C333.609 140.93 334.344 141.276 335.122 141.41C335.511 141.481 335.907 141.495 336.31 141.46C336.692 141.424 337.066 141.34 337.434 141.206C338.176 140.937 338.827 140.472 339.378 139.808C340.184 138.849 340.538 137.734 340.425 136.471C340.404 136.217 340.382 135.977 340.361 135.751C340.135 134.953 339.732 134.255 339.138 133.641H339.145Z" fill="black"/>
<path d="M341.515 146.767C326.809 148.037 315.398 147.409 303.994 143.916C303.994 143.916 301.745 161.219 319.901 163.293C338.058 165.368 343.65 153.732 341.515 146.774V146.767Z" stroke="black" stroke-width="3" stroke-linecap="round" stroke-linejoin="round"/>
<path d="M306.042 144.982C305.398 149.025 306.77 151.29 309.082 151.438C312.73 151.678 313.38 146.485 313.38 146.485C313.706 150.211 315.077 152.384 317.545 152.617C320.012 152.85 321.921 151.234 322.621 147.444C316.633 147.423 311.09 146.456 306.042 144.975V144.982Z" stroke="black" stroke-width="3" stroke-linecap="round" stroke-linejoin="round"/>
<path d="M347.523 192.883C347.523 192.883 345.006 233.946 346.406 252.335C346.406 252.335 326.271 254.403 309.225 252.335C309.225 252.335 303.83 218.816 309.225 194.464C321.357 192.403 335.144 192.178 347.523 192.883Z" fill="white" stroke="black" stroke-width="3" stroke-linecap="round" stroke-linejoin="round"/>
<path d="M340.664 189.213C340.664 189.213 338.147 229.309 339.547 247.268C339.547 247.268 319.411 249.286 302.365 247.268C302.365 247.268 296.971 214.539 302.365 190.759C314.498 188.747 328.284 188.522 340.664 189.213Z" fill="white" stroke="black" stroke-width="3" stroke-linecap="round" stroke-linejoin="round"/>
<path d="M362.82 207.194C353.664 202.466 338.987 202.248 335.932 207.413C332.072 213.94 327.264 231.582 333.394 236.776C339.524 241.962 351.126 247.445 364.559 247.269C372.619 247.163 379.696 245.829 384.009 238.032C386.788 233.007 388.93 226.536 390.16 219.734" fill="white"/>
<path d="M362.82 207.194C353.664 202.466 338.987 202.248 335.932 207.413C332.072 213.94 327.264 231.582 333.394 236.776C339.524 241.962 351.126 247.445 364.559 247.269C372.619 247.163 379.696 245.829 384.009 238.032C386.788 233.007 388.93 226.536 390.16 219.734" stroke="black" stroke-width="3" stroke-linecap="round" stroke-linejoin="round"/>
<path d="M338.131 226.577C338.944 223.529 338.095 221.186 334.617 219.718C338.753 219.373 340.132 217.086 340.577 214.871C341.022 212.655 339.87 209.677 336.257 208.357L335.578 208.174C333.627 210.333 328.593 222.026 331.131 231.263C334.468 231.475 337.403 229.294 338.131 226.577Z" fill="white" stroke="black" stroke-width="3" stroke-linecap="round" stroke-linejoin="round"/>
</g>
<defs>
<filter id="filter0_d_5847_27711" x="105" y="63" width="28" height="25.0879" filterUnits="userSpaceOnUse" color-interpolation-filters="sRGB">
<feFlood flood-opacity="0" result="BackgroundImageFix"/>
<feColorMatrix in="SourceAlpha" type="matrix" values="0 0 0 0 0 0 0 0 0 0 0 0 0 0 0 0 0 0 127 0" result="hardAlpha"/>
<feOffset dy="4"/>
<feGaussianBlur stdDeviation="2"/>
<feComposite in2="hardAlpha" operator="out"/>
<feColorMatrix type="matrix" values="0 0 0 0 0 0 0 0 0 0 0 0 0 0 0 0 0 0 0.25 0"/>
<feBlend mode="normal" in2="BackgroundImageFix" result="effect1_dropShadow_5847_27711"/>
<feBlend mode="normal" in="SourceGraphic" in2="effect1_dropShadow_5847_27711" result="shape"/>
</filter>
<filter id="filter1_d_5847_27711" x="-90.5" y="135" width="611" height="142" filterUnits="userSpaceOnUse" color-interpolation-filters="sRGB">
<feFlood flood-opacity="0" result="BackgroundImageFix"/>
<feColorMatrix in="SourceAlpha" type="matrix" values="0 0 0 0 0 0 0 0 0 0 0 0 0 0 0 0 0 0 127 0" result="hardAlpha"/>
<feOffset dy="4"/>
<feGaussianBlur stdDeviation="2"/>
<feComposite in2="hardAlpha" operator="out"/>
<feColorMatrix type="matrix" values="0 0 0 0 0 0 0 0 0 0 0 0 0 0 0 0 0 0 0.25 0"/>
<feBlend mode="normal" in2="BackgroundImageFix" result="effect1_dropShadow_5847_27711"/>
<feBlend mode="normal" in="SourceGraphic" in2="effect1_dropShadow_5847_27711" result="shape"/>
</filter>
<clipPath id="clip0_5847_27711">
<rect width="430" height="269" fill="white"/>
</clipPath>
<clipPath id="clip1_5847_27711">
<rect width="397" height="355" fill="white" transform="translate(-61 -73)"/>
</clipPath>
<clipPath id="clip2_5847_27711">
<rect width="20" height="17.0871" fill="white" transform="translate(109 63)"/>
</clipPath>
</defs>
</svg>
