<svg width="430" height="220" viewBox="0 0 430 220" fill="none" xmlns="http://www.w3.org/2000/svg">
<g clip-path="url(#clip0_5847_25351)">
<rect width="433" height="248" fill="#0073F0"/>
<g clip-path="url(#clip1_5847_25351)">
<path d="M457.008 23.9184L429.235 6.48701L457.008 -10.9444C463.75 -15.1844 468.173 -22.7223 468.884 -31.1688L473.678 -88.6453C473.74 -89.2846 473.616 -89.9577 473.307 -90.5634C472.998 -91.1691 472.534 -91.6066 471.977 -91.8758L423.822 -116.105C416.771 -119.672 408.513 -119.268 401.77 -115.028L373.997 -97.5965V-132.493C373.997 -140.973 370.193 -148.915 363.822 -153.794L320.491 -187.075C319.996 -187.446 319.409 -187.647 318.79 -187.647C318.172 -187.647 317.553 -187.446 317.089 -187.075L273.728 -153.828C267.357 -148.948 263.583 -140.973 263.583 -132.527V-97.6302L235.81 -115.062C229.067 -119.302 220.841 -119.705 213.758 -116.138L165.603 -91.9094C165.077 -91.6402 164.613 -91.2028 164.273 -90.597C163.964 -89.9913 163.84 -89.3183 163.902 -88.6789L168.696 -31.2025C169.407 -22.756 173.83 -15.2181 180.572 -10.978L208.346 6.45337L180.572 23.8848C173.83 28.1248 169.407 35.6627 168.696 44.1092L163.871 101.653C163.809 102.292 163.933 102.965 164.242 103.537C164.551 104.143 165.015 104.581 165.572 104.85L213.727 129.079C220.779 132.646 229.037 132.242 235.779 128.002L263.552 110.571V145.467C263.552 153.947 267.357 161.889 273.728 166.768L317.089 200.016C317.584 200.386 318.172 200.588 318.79 200.588C319.409 200.588 320.027 200.386 320.491 200.016L363.852 166.768C370.224 161.889 373.997 153.913 373.997 145.467V110.571L401.77 128.002C408.513 132.242 416.74 132.646 423.822 129.079L471.977 104.85C472.503 104.581 472.967 104.143 473.307 103.537C473.616 102.932 473.74 102.292 473.678 101.653L468.884 44.1765C468.173 35.73 463.75 28.1921 457.008 23.9521V23.9184ZM455.029 27.6537C460.658 31.1871 464.369 37.5135 464.957 44.5467L469.441 98.658L373.997 38.6913V-23.2608L407.368 -2.29596L454.998 27.6201L455.029 27.6537ZM370.038 -23.2608V36.2011L322.687 6.45337L370.038 -23.2944V-23.2608ZM320.739 -56.7102L368.059 -26.9624L320.739 2.78539V-56.6765V-56.7102ZM314.8 6.48701L267.48 36.2348V-23.2271L314.8 6.52068V6.48701ZM316.78 69.6842L269.429 39.9364L316.78 10.1887V69.6505V69.6842ZM320.739 10.2223L368.059 39.9701L320.739 69.7179V10.256V10.2223ZM316.78 2.78539L269.429 -26.9624L316.78 -56.7102V2.75174V2.78539ZM464.926 -31.539C464.338 -24.5058 460.627 -18.1794 454.998 -14.646L425.245 4.03047L375.945 -26.9624L469.41 -85.684L464.926 -31.5726V-31.539ZM403.719 -111.293C406.75 -113.211 410.214 -114.22 413.709 -114.22C416.647 -114.22 419.461 -113.547 422.121 -112.201L467.431 -89.3856L373.966 -30.664V-92.6498L403.719 -111.326V-111.293ZM370.038 -132.459V-95.4765V-30.664L320.739 -61.6233V-181.59L361.564 -150.294C366.883 -146.223 370.038 -139.56 370.038 -132.493V-132.459ZM275.955 -150.261L316.811 -181.59V-61.6906L267.511 -30.6977V-132.493C267.511 -139.56 270.697 -146.223 275.986 -150.294L275.955 -150.261ZM215.366 -112.201C218.026 -113.547 220.841 -114.22 223.779 -114.22C227.305 -114.22 230.738 -113.211 233.769 -111.293L263.521 -92.6161V-30.664L170.057 -89.4192L215.366 -112.235V-112.201ZM182.521 -14.6797C176.892 -18.213 173.18 -24.5395 172.593 -31.5726L168.108 -85.684L261.573 -26.9624L212.274 3.99683L182.552 -14.6797H182.521ZM172.593 44.5467C173.18 37.5135 176.892 31.1871 182.521 27.6537L222.882 2.28061L263.552 -23.2608V38.6913L168.108 98.658L172.593 44.5467ZM233.8 124.3C230.769 126.218 227.305 127.228 223.81 127.228C220.872 127.228 218.057 126.555 215.397 125.209L170.057 102.393L265.501 42.4267L314.8 73.4195L283.254 93.2401L233.769 124.334L233.8 124.3ZM267.48 145.467V108.114L316.78 77.1212V194.564L275.955 163.269C270.635 159.197 267.48 152.534 267.48 145.467ZM361.564 163.269L320.739 194.564V77.1212L370.038 108.08V145.433C370.038 152.5 366.852 159.163 361.564 163.235V163.269ZM422.152 125.209C419.492 126.555 416.678 127.228 413.74 127.228C410.245 127.228 406.781 126.218 403.75 124.3L354.481 93.3748L322.718 73.4195L372.017 42.4603L467.462 102.427L422.152 125.243V125.209Z" fill="white" fill-opacity="0.16"/>
</g>
<g clip-path="url(#clip2_5847_25351)">
<path d="M135.18 183.794L117.199 172.56L135.18 161.326C139.546 158.594 142.409 153.736 142.87 148.293L145.973 111.253C146.013 110.841 145.933 110.407 145.733 110.016C145.533 109.626 145.232 109.344 144.872 109.171L113.695 93.5565C109.129 91.2577 103.783 91.518 99.4174 94.2504L81.4359 105.484V82.9952C81.4359 77.5302 78.9729 72.4122 74.848 69.2677L46.7944 47.8198C46.474 47.5813 46.0935 47.4512 45.6931 47.4512C45.2926 47.4512 44.8921 47.5813 44.5917 47.8198L16.5181 69.246C12.3931 72.3905 9.95021 77.5302 9.95021 82.9735V105.462L-8.03135 94.2288C-12.3966 91.4963 -17.723 91.236 -22.3085 93.5348L-53.4858 109.149C-53.8262 109.322 -54.1266 109.604 -54.3469 109.995C-54.5471 110.385 -54.6272 110.819 -54.5872 111.231L-51.4834 148.271C-51.0229 153.715 -48.1594 158.572 -43.7942 161.305L-25.8127 172.538L-43.7942 183.772C-48.1594 186.504 -51.0229 191.362 -51.4834 196.805L-54.6072 233.889C-54.6472 234.301 -54.5671 234.735 -54.3669 235.104C-54.1666 235.494 -53.8663 235.776 -53.5059 235.949L-22.3285 251.564C-17.763 253.862 -12.4166 253.602 -8.05137 250.87L9.93018 239.636V262.125C9.93018 267.59 12.3931 272.708 16.5181 275.852L44.5917 297.279C44.9121 297.517 45.2926 297.647 45.6931 297.647C46.0935 297.647 46.494 297.517 46.7944 297.279L74.868 275.852C78.993 272.708 81.4359 267.568 81.4359 262.125V239.636L99.4174 250.87C103.783 253.602 109.109 253.862 113.695 251.564L144.872 235.949C145.212 235.776 145.513 235.494 145.733 235.104C145.933 234.713 146.013 234.301 145.973 233.889L142.87 196.849C142.409 191.406 139.546 186.548 135.18 183.815V183.794ZM133.899 186.201C137.543 188.478 139.946 192.555 140.326 197.087L143.23 231.959L81.4359 193.314V153.389L103.042 166.9L133.879 186.179L133.899 186.201ZM78.8728 153.389V191.709L48.2161 172.538L78.8728 153.368V153.389ZM46.9546 131.833L77.5913 151.004L46.9546 170.175V131.855V131.833ZM43.11 172.56L12.4732 191.731V153.411L43.11 172.582V172.56ZM44.3915 213.287L13.7347 194.116L44.3915 174.946V213.265V213.287ZM46.9546 174.967L77.5913 194.138L46.9546 213.309V174.989V174.967ZM44.3915 170.175L13.7347 151.004L44.3915 131.833V170.153V170.175ZM140.306 148.054C139.926 152.587 137.523 156.664 133.879 158.941L114.616 170.977L82.6974 151.004L143.21 113.161L140.306 148.033V148.054ZM100.679 96.6576C102.641 95.4215 104.884 94.7709 107.147 94.7709C109.049 94.7709 110.871 95.2046 112.593 96.0721L141.928 110.775L81.4159 148.618V108.672L100.679 96.6359V96.6576ZM78.8728 83.0169V106.85V148.618L46.9546 128.667V51.3547L73.3862 71.5231C76.8304 74.1471 78.8728 78.441 78.8728 82.9952V83.0169ZM17.9598 71.5448L44.4115 51.3547V128.623L12.4933 148.597V82.9952C12.4933 78.441 14.5557 74.1471 17.9798 71.5231L17.9598 71.5448ZM-21.2672 96.0721C-19.5452 95.2046 -17.723 94.7709 -15.8207 94.7709C-13.5379 94.7709 -11.3153 95.4215 -9.35293 96.6576L9.91016 108.694V148.618L-50.6024 110.754L-21.2672 96.0504V96.0721ZM-42.5327 158.919C-46.1771 156.642 -48.58 152.565 -48.9604 148.033L-51.8639 113.161L8.64864 151.004L-23.2696 170.955L-42.5127 158.919H-42.5327ZM-48.9604 197.087C-48.58 192.555 -46.1771 188.478 -42.5327 186.201L-16.4014 169.849L9.93018 153.389V193.314L-51.8639 231.959L-48.9604 197.087ZM-9.33291 248.484C-11.2953 249.72 -13.538 250.371 -15.8007 250.371C-17.7029 250.371 -19.5251 249.937 -21.2472 249.07L-50.6024 234.366L11.1917 195.721L43.11 215.694L22.6855 228.468L-9.35293 248.506L-9.33291 248.484ZM12.4732 262.125V238.053L44.3915 218.08V293.765L17.9598 273.597C14.5157 270.973 12.4732 266.679 12.4732 262.125ZM73.3862 273.597L46.9546 293.765V218.08L78.8728 238.031V262.103C78.8728 266.657 76.8103 270.951 73.3862 273.575V273.597ZM112.613 249.07C110.891 249.937 109.069 250.371 107.167 250.371C104.904 250.371 102.661 249.72 100.699 248.484L68.8008 228.554L48.2361 215.694L80.1544 195.743L141.948 234.388L112.613 249.091V249.07Z" fill="white" fill-opacity="0.12"/>
</g>
<path d="M391.588 140.652C391.588 140.652 401.507 139.324 406.982 148.318C412.515 157.406 407.863 166.116 402.544 169.652C393.698 175.533 384.119 168.657 384.119 168.657L391.588 140.652Z" fill="#0255A9"/>
<path d="M391.588 140.652C391.588 140.652 401.507 139.324 406.982 148.318C412.515 157.406 407.863 166.116 402.544 169.652C393.698 175.533 384.119 168.657 384.119 168.657L391.588 140.652Z" stroke="black" stroke-width="4" stroke-linecap="round" stroke-linejoin="round"/>
<path d="M385.641 169.618C385.641 169.618 395.507 167.937 400.96 176.786C406.472 185.729 401.851 194.646 396.563 198.385C387.766 204.604 378.231 198.028 378.231 198.028L385.641 169.618Z" fill="#0255A9"/>
<path d="M385.641 169.618C385.641 169.618 395.507 167.937 400.96 176.786C406.472 185.729 401.851 194.646 396.563 198.385C387.766 204.604 378.231 198.028 378.231 198.028L385.641 169.618Z" stroke="black" stroke-width="4" stroke-linecap="round" stroke-linejoin="round"/>
<path d="M381.81 114.755C381.81 114.755 389.607 110.046 397.704 115.783C405.886 121.581 405.383 130.721 402.302 135.666C397.179 143.891 390.688 142.101 390.688 142.101L381.81 114.755Z" fill="#0255A9"/>
<path d="M381.81 114.755C381.81 114.755 389.607 110.046 397.704 115.783C405.886 121.581 405.383 130.721 402.302 135.666C397.179 143.891 390.688 142.101 390.688 142.101L381.81 114.755Z" stroke="black" stroke-width="4" stroke-linecap="round" stroke-linejoin="round"/>
<path d="M374.96 200.558C374.96 200.558 383.747 198.973 388.478 206.579C393.259 214.265 389.04 222.058 384.293 225.37C376.399 230.877 368.014 225.295 368.014 225.295L374.96 200.558Z" fill="#0255A9"/>
<path d="M374.96 200.558C374.96 200.558 383.747 198.973 388.478 206.579C393.259 214.265 389.04 222.058 384.293 225.37C376.399 230.877 368.014 225.295 368.014 225.295L374.96 200.558Z" stroke="black" stroke-width="4" stroke-linecap="round" stroke-linejoin="round"/>
<path d="M272.807 140.582C265.416 140.582 260.469 140.985 253.552 142.275C209.955 150.407 195.716 183.329 195.716 183.329C174.47 224.143 186.491 258.807 186.491 258.807C182.478 270.137 167.79 274.069 158.139 283.333C146.086 294.904 150.804 303.022 161.118 307.131C176.352 313.201 230.454 311.31 257.533 302.728C284.613 294.145 308.164 286.938 333.953 264.598C355.378 246.039 372.722 223.202 382.834 196.721C393.385 169.088 394.643 148.682 388.883 130.215C380.305 102.72 358.6 94.9891 339.682 93.222C308.575 90.316 291.471 116.443 292.818 139.472C292.818 139.472 292.998 142.422 293.185 142.888C293.37 143.354 281.144 140.582 272.807 140.582Z" fill="white"/>
<path d="M272.807 140.582C265.416 140.582 260.469 140.985 253.552 142.275C209.955 150.407 195.716 183.329 195.716 183.329C174.47 224.143 186.491 258.807 186.491 258.807C182.478 270.137 167.79 274.069 158.139 283.333C146.086 294.904 150.804 303.022 161.118 307.131C176.352 313.201 230.454 311.31 257.533 302.728C284.613 294.145 308.164 286.938 333.953 264.598C355.378 246.039 372.722 223.202 382.834 196.721C393.385 169.088 394.643 148.682 388.883 130.215C380.305 102.72 358.6 94.9891 339.682 93.222C308.575 90.316 291.471 116.443 292.818 139.472C292.818 139.472 292.998 142.422 293.184 142.888C293.37 143.354 281.144 140.582 272.807 140.582Z" stroke="black" stroke-width="4" stroke-linecap="round" stroke-linejoin="round"/>
<path d="M297.407 161.852C263.764 141.023 227.355 164.597 213.933 179.643C198.442 197.008 187.997 228.738 210.966 241.219C235.91 254.775 269.207 244.498 288.049 228.041C306.89 211.584 322.898 177.634 297.407 161.852Z" fill="#0D57A7"/>
<path d="M364.547 139.957C361.588 139.939 359.043 140.96 356.909 143.021C354.823 145.105 353.771 147.638 353.753 150.62C353.734 153.603 354.755 156.137 356.817 158.223C358.924 160.333 361.457 161.397 364.416 161.415C367.399 161.433 369.933 160.4 372.02 158.316C374.129 156.255 375.193 153.733 375.211 150.751C375.229 147.769 374.196 145.223 372.112 143.113C370.051 141.027 367.53 139.975 364.547 139.957Z" fill="#3A61AF"/>
<path d="M327.87 105.925C325.752 104.291 323.295 103.706 320.499 104.167C317.723 104.673 315.416 106.101 313.577 108.449C311.74 110.797 310.924 113.36 311.13 116.138C311.357 118.96 312.528 121.188 314.646 122.822C316.781 124.469 319.237 125.039 322.013 124.532C324.792 124.057 327.101 122.646 328.938 120.297C330.776 117.949 331.591 115.37 331.382 112.562C331.175 109.783 330.005 107.572 327.87 105.925Z" fill="#3A61AF"/>
<path d="M360.396 125.456C360.396 125.456 363.186 130.685 363.312 133.205L360.396 125.456Z" fill="#0255A9"/>
<path d="M360.396 125.456C360.396 125.456 363.186 130.685 363.312 133.205" stroke="black" stroke-width="4" stroke-linecap="round" stroke-linejoin="round"/>
<path d="M341.395 112.938C341.395 112.938 337.316 112.247 332.957 112.807L341.395 112.938Z" fill="#0255A9"/>
<path d="M341.395 112.938C341.395 112.938 337.316 112.247 332.957 112.807" stroke="black" stroke-width="4" stroke-linecap="round" stroke-linejoin="round"/>
<path d="M365.555 139.161C365.555 139.161 354.093 137.344 352.276 151.042" stroke="black" stroke-width="4" stroke-linecap="round" stroke-linejoin="round"/>
<path d="M325.985 114.654C325.985 114.654 341.166 132.063 357.211 140.824C355.015 143.087 354.74 144.116 353.642 145.763C348.982 147.075 341.573 147.338 333.822 142.891C323.948 137.225 321.794 124.806 325.985 114.654Z" fill="white"/>
<path d="M325.985 114.654C325.985 114.654 341.166 132.063 357.211 140.824C355.015 143.087 354.74 144.116 353.642 145.763C348.982 147.075 341.573 147.338 333.822 142.891C323.948 137.225 321.794 124.806 325.985 114.654Z" stroke="black" stroke-width="4" stroke-linecap="round" stroke-linejoin="round"/>
<path d="M316.14 133.374C317.512 134.381 319.165 136.161 318.034 138.405C317.37 139.725 316.035 140.642 314.558 140.715C313.113 140.786 311.312 140.127 310.441 136.847C310.441 136.847 309.686 133.696 312.361 132.729C313.632 132.269 315.05 132.575 316.14 133.374Z" fill="#FFEE5D"/>
<path d="M316.14 133.374C317.512 134.381 319.165 136.161 318.034 138.405C317.37 139.725 316.035 140.642 314.558 140.715C313.113 140.786 311.312 140.127 310.441 136.847C310.441 136.847 309.686 133.696 312.361 132.729C313.632 132.269 315.05 132.575 316.14 133.374Z" stroke="#EFB91A" stroke-width="4" stroke-linecap="round" stroke-linejoin="round"/>
<path d="M313.317 117.96C314.478 118.812 315.878 120.318 314.92 122.217C314.358 123.334 313.228 124.109 311.979 124.172C310.756 124.232 309.232 123.675 308.494 120.899C308.494 120.899 307.856 118.232 310.119 117.414C311.194 117.024 312.395 117.283 313.317 117.96Z" fill="#FFEE5D"/>
<path d="M313.317 117.96C314.478 118.812 315.878 120.318 314.92 122.217C314.358 123.334 313.228 124.109 311.979 124.172C310.756 124.232 309.232 123.675 308.494 120.899C308.494 120.899 307.856 118.232 310.119 117.414C311.194 117.024 312.395 117.283 313.317 117.96Z" stroke="#EFB91A" stroke-width="4" stroke-linecap="round" stroke-linejoin="round"/>
<path d="M318.586 156.621C318.586 156.621 308.376 146.923 290.91 142.616" stroke="black" stroke-width="4" stroke-linecap="round" stroke-linejoin="round"/>
<path d="M210.438 251.758C197.115 263.689 188.052 268.609 176.438 265.883C168.703 264.067 149.809 254.291 154.508 235.493C159.207 216.697 186.994 210.423 186.994 210.423" fill="white"/>
<path d="M210.438 251.758C197.115 263.689 188.052 268.609 176.438 265.883C168.703 264.067 149.809 254.291 154.508 235.493C159.207 216.697 186.994 210.423 186.994 210.423" stroke="black" stroke-width="4" stroke-linecap="round" stroke-linejoin="round"/>
<path d="M327.757 193.674C327.757 193.674 308.231 184.157 298.307 187.741C288.383 191.326 276.518 218.546 284.428 226.921C289.253 232.029 306.064 243.439 329.794 244.602C363.021 246.23 372.738 218.48 372.738 218.48" fill="white"/>
<path d="M327.757 193.674C327.757 193.674 308.231 184.157 298.307 187.741C288.383 191.326 276.518 218.546 284.428 226.921C289.253 232.029 306.064 243.439 329.794 244.602C363.021 246.23 372.738 218.48 372.738 218.48" stroke="black" stroke-width="4" stroke-linecap="round" stroke-linejoin="round"/>
<path d="M291.88 192.879C294.799 194.672 296.098 197.957 295.239 200.584C294.21 203.731 291.986 205.32 287.749 204.667C291.549 207.287 291.518 210.081 290.628 212.284C289.738 214.486 286.849 216.469 282.562 215.611L282.531 215.602C282.554 215.355 282.428 214.875 282.245 214.222C283.469 206.787 287.383 198.294 291.88 192.879Z" fill="white"/>
<path d="M291.88 192.879C294.799 194.672 296.098 197.957 295.239 200.584C294.21 203.731 291.986 205.32 287.749 204.667C291.549 207.287 291.518 210.081 290.628 212.284C289.738 214.486 286.849 216.469 282.562 215.611L282.531 215.602C282.554 215.355 282.428 214.875 282.245 214.222C283.469 206.787 287.383 198.294 291.88 192.879Z" stroke="black" stroke-width="4" stroke-linecap="round" stroke-linejoin="round"/>
<path d="M256.8 158.031C256.8 158.031 266.522 153.717 262.53 145.062C259.036 137.484 256.925 131.134 239.188 135.858C223.621 140.006 212.807 150.243 216.825 160.407C221.987 173.466 234.856 169.772 256.8 158.031Z" fill="white"/>
<path d="M256.8 158.031C256.8 158.031 266.522 153.717 262.53 145.062C259.036 137.484 256.925 131.134 239.188 135.858C223.621 140.006 212.807 150.243 216.825 160.407C221.987 173.466 234.856 169.772 256.8 158.031Z" stroke="black" stroke-width="4" stroke-linecap="round" stroke-linejoin="round"/>
<path d="M256.125 156.996L256.141 157.024C254.803 158.17 253.481 159.179 252.18 160.081C250.364 160.993 248.471 161.896 246.565 162.746C246.188 162.909 245.819 163.071 245.426 163.239C244.749 163.527 244.109 163.804 243.496 164.07C241.238 165.008 239.04 165.838 237.034 166.497C235.774 166.712 234.626 166.83 233.61 166.885C232.708 163.521 234.078 160.199 236.558 158.903C239.492 157.368 242.194 157.783 244.77 161.21C243.88 156.681 245.853 154.701 248.028 153.746C250.202 152.791 253.655 153.39 256.125 156.996Z" fill="white"/>
<path d="M256.125 156.996L256.141 157.024C254.803 158.17 253.481 159.179 252.18 160.081C250.364 160.993 248.471 161.896 246.565 162.746C246.188 162.909 245.819 163.071 245.426 163.239C244.749 163.527 244.109 163.804 243.496 164.07C241.238 165.008 239.04 165.838 237.034 166.497C235.774 166.712 234.626 166.83 233.61 166.885C232.708 163.521 234.078 160.199 236.558 158.903C239.492 157.368 242.194 157.783 244.77 161.21C243.88 156.681 245.853 154.701 248.028 153.746C250.202 152.791 253.655 153.39 256.125 156.996Z" stroke="black" stroke-width="4" stroke-linecap="round" stroke-linejoin="round"/>
<path d="M216.543 132.452C216.543 132.452 205.361 134.549 201.448 146.988" stroke="black" stroke-width="4" stroke-linecap="round" stroke-linejoin="round"/>
<path d="M198.512 129.564C198.512 129.564 188.169 132.593 185.932 144.193" stroke="black" stroke-width="4" stroke-linecap="round" stroke-linejoin="round"/>
<path d="M184.952 236.298C179.414 229.8 166.817 223.499 159.525 225.895C159.525 225.895 167.381 219.493 172.519 220.281C177.656 221.069 175.107 226.821 175.107 226.821C175.107 226.821 179.53 222.085 184.775 225.571C190.019 229.057 184.952 236.298 184.952 236.298Z" fill="white"/>
<path d="M184.952 236.298C179.414 229.8 166.817 223.499 159.525 225.895C159.525 225.895 167.381 219.493 172.519 220.281C177.656 221.069 175.107 226.821 175.107 226.821C175.107 226.821 179.53 222.085 184.775 225.571C190.019 229.057 184.952 236.298 184.952 236.298Z" stroke="black" stroke-width="4" stroke-linecap="round" stroke-linejoin="round"/>
</g>
<defs>
<clipPath id="clip0_5847_25351">
<rect width="430" height="220" fill="white"/>
</clipPath>
<clipPath id="clip1_5847_25351">
<rect width="266.143" height="200.588" fill="white" transform="translate(163.855)"/>
</clipPath>
<clipPath id="clip2_5847_25351">
<rect width="145.982" height="172.549" fill="white" transform="translate(0 47.4512)"/>
</clipPath>
</defs>
</svg>
