<svg width="100" height="100" viewBox="0 0 100 100" fill="none" xmlns="http://www.w3.org/2000/svg">
<rect width="100" height="100" transform="translate(0.000976562)" fill="#3082F6"/>
<path d="M38.2982 38.465C38.2982 38.465 28.9901 41.8475 27.9484 51.229C26.9555 60.1707 35.6097 59.0601 37.6484 56.8409C39.6871 54.6216 41.2974 42.5973 41.2974 42.5973L38.2982 38.465Z" fill="white" stroke="#000001" stroke-width="1.01334" stroke-linecap="round" stroke-linejoin="round"/>
<path d="M68.5457 51.6444C69.1447 54.1534 73.0495 61.9744 79.3097 69.6879C80.5707 71.2424 80.8895 72.657 78.9259 73.8365C76.9624 75.016 68.6289 75.5592 64.052 71.6862L68.5457 51.6423V51.6444Z" fill="white" stroke="#000001" stroke-width="1.01334" stroke-linecap="round" stroke-linejoin="round"/>
<path d="M51.0911 73.4777C51.0911 73.4777 51.347 77.2595 50.6099 79.116C49.8728 80.9724 48.3782 80.9906 44.9141 81.0332C41.4499 81.0758 39.9534 80.5063 39.4031 79.0957C38.8528 77.6851 39.596 66.6681 39.596 66.6681L51.0911 73.4777Z" fill="white" stroke="#000001" stroke-width="1.01334" stroke-linecap="round" stroke-linejoin="round"/>
<path d="M56.1023 24.57C56.1023 24.57 57.6983 22.7075 60.1736 23.4533C62.6732 24.2093 63.2479 26.5582 62.8539 28.0742C62.1981 30.5934 59.3208 30.9034 59.3208 30.9034L56.1023 24.57Z" fill="#0D529D" stroke="#000001" stroke-width="1.01334" stroke-linecap="round" stroke-linejoin="round"/>
<path d="M59.7573 30.828C59.7573 30.828 61.2864 28.9088 63.7332 29.6343C66.2044 30.3659 66.8197 32.7493 66.4643 34.2957C65.8734 36.8675 63.0529 37.2262 63.0529 37.2262L59.7573 30.828Z" fill="#0D529D" stroke="#000001" stroke-width="1.01334" stroke-linecap="round" stroke-linejoin="round"/>
<path d="M63.0571 37.7737C63.0571 37.7737 64.5862 35.8544 67.033 36.58C69.5042 37.3116 70.1195 39.695 69.7641 41.2413C69.1732 43.8132 66.3527 44.1719 66.3527 44.1719L63.0571 37.7737Z" fill="#0D529D" stroke="#000001" stroke-width="1.01334" stroke-linecap="round" stroke-linejoin="round"/>
<path d="M50.0737 21.4389C50.0737 21.4389 50.7296 19.3048 53.15 19.0292C55.5969 18.7516 57 20.5006 57.2457 21.9071C57.6559 24.2459 56.1756 24.9795 56.1756 24.9795L50.0758 21.4369L50.0737 21.4389Z" fill="#0D529D" stroke="#000001" stroke-width="1.01334" stroke-linecap="round" stroke-linejoin="round"/>
<path d="M37.7725 39.1173C37.7725 39.1173 38.136 39.5226 38.1319 39.551C38.1177 39.6726 37.9695 39.7111 37.7238 39.8813C37.6669 39.9198 37.6304 39.9381 37.5248 39.9989C37.4943 40.0171 37.4801 40.0556 37.47 40.086C36.7674 42.4998 35.1368 49.1797 35.7968 57.3148C36.5684 66.8341 41.6996 75.0503 51.7083 75.0807C65.967 75.1253 71.5551 67.6124 68.757 52.1671C66.1721 37.9013 60.8621 28.3009 55.2029 23.9759C49.6168 19.7057 43.0581 20.0563 39.0924 22.462C32.2818 26.5924 33.7317 34.9464 37.7745 39.1213L37.7725 39.1173Z" fill="white"/>
<path d="M46.9121 45.927C57.3188 44.9907 59.6925 58.8856 60.0499 62.0756C60.6773 71.8787 55.0527 72.0732 54.6242 74.4667C54.0922 74.6228 53.5216 74.7383 52.9063 74.8092C46.5486 75.5429 42.8652 70.3749 40.863 63.9746C38.8609 57.5723 38.4385 46.689 46.9121 45.927Z" fill="#0D529D"/>
<path d="M36.4647 44.498C35.8677 47.7651 35.3723 52.315 35.7886 57.4425C36.1419 61.81 37.4252 66.0072 39.6649 69.1607" stroke="#000001" stroke-width="1.01334" stroke-linecap="round" stroke-linejoin="round"/>
<path d="M69.9813 55.2519C69.4452 54.3825 68.9071 53.1847 68.7467 52.295C66.1618 38.0292 60.8518 28.4288 55.1927 24.1039C49.6066 19.8336 43.0478 20.1843 39.0821 22.5899C32.2716 26.7203 33.7214 35.0743 37.7643 39.2493" stroke="#000001" stroke-width="1.01334" stroke-linecap="round" stroke-linejoin="round"/>
<path d="M47.5171 74.6632C48.8024 75.0139 50.1954 75.2044 51.7001 75.2084C57.5684 75.2267 61.9686 73.964 64.9191 71.3962" stroke="#000001" stroke-width="1.01334" stroke-linecap="round" stroke-linejoin="round"/>
<path d="M68.2898 69.5907C68.0461 73.2387 67.6481 78.0034 67.1669 79.1161C66.3648 80.9725 64.7383 80.9908 60.9716 81.0333C57.2049 81.0759 55.5744 80.5064 54.9753 79.0958C54.3763 77.6853 54.7276 73.7089 54.7276 73.7089" fill="white"/>
<path d="M68.2898 69.5907C68.0461 73.2387 67.6481 78.0034 67.1669 79.1161C66.3648 80.9725 64.7383 80.9908 60.9716 81.0333C57.2049 81.0759 55.5744 80.5064 54.9753 79.0958C54.3763 77.6853 54.7276 73.7089 54.7276 73.7089" stroke="#000001" stroke-width="1.01334" stroke-linecap="round" stroke-linejoin="round"/>
<path d="M52.9474 26.3265C53.6581 26.4035 54.2409 26.7197 54.6957 27.273C55.1384 27.8303 55.3211 28.4667 55.2419 29.1801C55.1627 29.8955 54.848 30.4731 54.2957 30.9149C53.7312 31.3608 53.0936 31.5473 52.3829 31.4682C51.6722 31.3892 51.0874 31.073 50.6447 30.5157C50.1959 29.9644 50.0112 29.33 50.0883 28.6146C50.1675 27.8992 50.4863 27.3196 51.0447 26.8717C51.5971 26.4299 52.2306 26.2475 52.9474 26.3265Z" fill="#385DA4"/>
<path d="M38.1051 25.494C38.7123 25.5649 39.2077 25.873 39.5915 26.4202C39.9651 26.9714 40.1134 27.6058 40.0382 28.3212C39.9631 29.0366 39.687 29.6183 39.2098 30.0662C38.7224 30.5181 38.1742 30.7106 37.565 30.6397C36.9518 30.5688 36.4604 30.2587 36.0868 29.7054C35.7091 29.1582 35.5568 28.5279 35.6319 27.8125C35.707 27.0971 35.9852 26.5134 36.4685 26.0614C36.9457 25.6135 37.4919 25.4251 38.1051 25.496V25.494Z" fill="#385DA4"/>
<path d="M44.9484 78.6702C44.0692 78.6013 43.6102 79.1242 43.3483 80.3909C43.4173 79.5519 43.0315 78.6419 42.1584 78.6378C41.4172 78.6338 40.806 79.1769 40.5664 80.3625C41.1187 80.6706 41.87 80.8652 42.8792 80.9624C42.997 80.9624 43.1209 80.9624 43.2529 80.9604C44.7129 80.9422 45.651 80.9787 46.5505 80.8733C46.5322 79.6532 45.7728 78.7331 44.9504 78.6702H44.9484Z" fill="white" stroke="#000001" stroke-width="1.01334" stroke-linecap="round" stroke-linejoin="round"/>
<path d="M61.0061 78.6702C60.0497 78.6013 59.5501 79.1242 59.2659 80.3909C59.341 79.5519 58.9207 78.6419 57.9704 78.6378C57.1642 78.6338 56.5002 79.1769 56.2383 80.3625C56.8393 80.6706 57.6556 80.8652 58.7542 80.9624C58.8821 80.9624 59.0161 80.9624 59.1623 80.9604C60.7522 80.9422 61.7695 80.9787 62.7503 80.8733C62.73 79.6532 61.9036 78.7331 61.0081 78.6702H61.0061Z" fill="white" stroke="#000001" stroke-width="1.01334" stroke-linecap="round" stroke-linejoin="round"/>
<path d="M52.0046 53.199C52.0046 53.199 52.7458 57.5199 57.5643 57.7043C62.3829 57.8887 64.1129 55.9127 64.3607 55.4526" fill="white"/>
<path d="M52.0046 53.199C52.0046 53.199 52.7458 57.5199 57.5643 57.7043C62.3829 57.8887 64.1129 55.9127 64.3607 55.4526" stroke="#000001" stroke-width="1.01334" stroke-linecap="round" stroke-linejoin="round"/>
<path d="M50.4858 29.7269C46.2358 30.1606 42.4529 29.8972 39.137 28.9365C39.137 28.9365 39.4598 34.141 45.3505 34.0498C50.8858 33.9647 50.4858 29.7269 50.4858 29.7269Z" fill="#FEFEFF" stroke="#000001" stroke-width="1.01334" stroke-linecap="round" stroke-linejoin="round"/>
<path d="M49.6127 28.1037C49.6127 28.1037 47.641 27.6599 47.7344 27.0864C47.8278 26.5128 49.4766 26.0527 49.4766 26.0527" stroke="#000001" stroke-width="1.01334" stroke-linecap="round" stroke-linejoin="round"/>
<path d="M40.0789 27.4432C40.0789 27.4432 41.6566 27.0298 41.5734 26.4562C41.4901 25.8827 40.158 25.3962 40.158 25.3962" stroke="#000001" stroke-width="1.01334" stroke-linecap="round" stroke-linejoin="round"/>
<path d="M49.5314 29.8429C49.5599 30.9028 49.0786 31.4419 48.4105 31.4115C47.3567 31.3629 47.3689 30.007 47.3689 30.007C47.1313 30.9535 46.6541 31.4723 45.9394 31.4582C45.2246 31.4419 44.7312 30.8664 44.6743 29.8692C46.3922 30.0476 48.0268 30.0699 49.5294 29.8449L49.5314 29.8429Z" fill="white" stroke="#000001" stroke-width="1.01334" stroke-linecap="round" stroke-linejoin="round"/>
<path d="M26.988 43.6541C26.988 43.6541 26.3849 41.8321 28.0581 41.0296C29.7313 40.227 30.5781 41.4856 30.5781 41.4856C30.5781 41.4856 31.8106 39.8379 33.364 40.3405C34.9174 40.8431 34.8951 41.8098 34.8951 41.8098C34.8951 41.8098 36.2677 41.4187 37.3195 42.3834C38.3937 43.3684 37.9632 44.8134 37.9632 44.8134C37.9632 44.8134 39.2466 45.1924 39.4334 46.8968C39.6324 48.7107 38.3064 49.6896 38.3064 49.6896C38.3064 49.6896 39.1004 51.1022 38.1176 52.5168C37.3216 53.6598 36.3022 53.4369 36.3022 53.4369C36.3022 53.4369 36.0829 54.509 34.6961 54.813C33.3092 55.117 32.6838 54.2942 32.6838 54.2942C32.6838 54.2942 31.8837 55.0664 30.6471 54.8617C29.2785 54.6347 29.1546 53.6983 29.1546 53.6983C29.1546 53.6983 27.5627 54.2111 26.653 53.0924C25.7433 51.9736 26.2631 51.396 26.2631 51.396C26.2631 51.396 24.3726 51.5622 24.2305 49.724C24.0884 47.8879 25.061 47.5474 25.061 47.5474C25.061 47.5474 23.8548 45.926 24.665 44.6735C25.4752 43.419 26.988 43.6541 26.988 43.6541Z" fill="#F5E663" stroke="#E5B428" stroke-width="1.01334" stroke-linecap="round" stroke-linejoin="round"/>
<path d="M29.3699 45.9527C29.3699 45.9527 28.3546 45.8534 28.2064 47.1849C28.0582 48.5165 28.9902 48.6482 28.9902 48.6482" stroke="#E5B428" stroke-width="1.01334" stroke-linecap="round" stroke-linejoin="round"/>
<path d="M33.0535 50.6343C33.0535 50.6343 33.8596 51.1693 34.5866 50.6343C35.3155 50.0993 35.0475 49.2562 35.0475 49.2562C35.0475 49.2562 35.9958 49.0049 36.1359 47.9591C36.2719 46.9275 35.4678 46.4229 35.4678 46.4229" stroke="#E5B428" stroke-width="1.01334" stroke-linecap="round" stroke-linejoin="round"/>
<path d="M49.1516 43.6541C49.1516 43.6541 48.5485 41.8321 50.2217 41.0296C51.8949 40.227 52.7416 41.4856 52.7416 41.4856C52.7416 41.4856 53.9742 39.8379 55.5276 40.3405C57.081 40.8431 57.0586 41.8098 57.0586 41.8098C57.0586 41.8098 58.4313 41.4187 59.4831 42.3834C60.5573 43.3684 60.1268 44.8134 60.1268 44.8134C60.1268 44.8134 61.4101 45.1924 61.5969 46.8968C61.7959 48.7107 60.47 49.6896 60.47 49.6896C60.47 49.6896 61.2639 51.1022 60.2811 52.5168C59.4852 53.6598 58.4658 53.4369 58.4658 53.4369C58.4658 53.4369 58.2465 54.509 56.8596 54.813C55.4727 55.117 54.8473 54.2942 54.8473 54.2942C54.8473 54.2942 54.0473 55.0664 52.8107 54.8617C51.4421 54.6347 51.3182 53.6983 51.3182 53.6983C51.3182 53.6983 49.7262 54.2111 48.8165 53.0924C47.9068 51.9736 48.4267 51.396 48.4267 51.396C48.4267 51.396 46.5362 51.5622 46.3941 49.724C46.2519 47.8879 47.2246 47.5474 47.2246 47.5474C47.2246 47.5474 46.0184 45.926 46.8286 44.6735C47.6388 43.419 49.1516 43.6541 49.1516 43.6541Z" fill="#F5E663" stroke="#E5B428" stroke-width="1.01334" stroke-linecap="round" stroke-linejoin="round"/>
<path d="M51.5337 45.9519C51.5337 45.9519 50.5185 45.8526 50.3702 47.1841C50.222 48.5156 51.154 48.6474 51.154 48.6474" stroke="#E5B428" stroke-width="1.01334" stroke-linecap="round" stroke-linejoin="round"/>
<path d="M55.219 50.6341C55.219 50.6341 56.0251 51.1691 56.7521 50.6341C57.4811 50.099 57.213 49.2559 57.213 49.2559C57.213 49.2559 58.1613 49.0046 58.3014 47.9588C58.4375 46.9273 57.6333 46.4226 57.6333 46.4226" stroke="#E5B428" stroke-width="1.01334" stroke-linecap="round" stroke-linejoin="round"/>
<path d="M31.8958 21.4119C31.8958 21.4119 28.5372 24.9119 28.4316 30.5481" stroke="#000001" stroke-width="1.01334" stroke-linecap="round" stroke-linejoin="round"/>
<path d="M28.1719 22.3945C28.1719 22.3945 30.0339 23.3531 31.8939 24.3118" stroke="#000001" stroke-width="1.01334" stroke-linecap="round" stroke-linejoin="round"/>
<path d="M26.4866 26.6201C26.4866 26.6201 29.967 27.4146 30.5985 27.5342" stroke="#000001" stroke-width="1.01334" stroke-linecap="round" stroke-linejoin="round"/>
<path d="M22.3624 42.8906C22.3624 42.8906 21.4385 44.7349 21.3613 47.5783" stroke="#000001" stroke-width="1.01334" stroke-linecap="round" stroke-linejoin="round"/>
<path d="M19.4363 44.1981C19.4363 44.1981 18.7743 46.466 19.083 48.7318" stroke="#000001" stroke-width="1.01334" stroke-linecap="round" stroke-linejoin="round"/>
</svg>
