<svg width="390" height="178" viewBox="0 0 390 178" fill="none" xmlns="http://www.w3.org/2000/svg">
<rect width="390" height="178" fill="#D9D9D9" style="fill:#D9D9D9;fill:color(display-p3 0.8510 0.8510 0.8510);fill-opacity:1;"/>
<path d="M-3650 -2991C-3650 -2992.1 -3649.1 -2993 -3648 -2993H2307C2308.1 -2993 2309 -2992.1 2309 -2991V547C2309 548.105 2308.1 549 2307 549H-3648C-3649.1 549 -3650 548.104 -3650 547V-2991Z" fill="#4B4B4B" style="fill:#4B4B4B;fill:color(display-p3 0.2948 0.2948 0.2948);fill-opacity:1;"/>
<path d="M-3648 -2992H2307V-2994H-3648V-2992ZM2308 -2991V547H2310V-2991H2308ZM2307 548H-3648V550H2307V548ZM-3649 547V-2991H-3651V547H-3649ZM-3648 548C-3648.55 548 -3649 547.552 -3649 547H-3651C-3651 548.657 -3649.66 550 -3648 550V548ZM2308 547C2308 547.552 2307.55 548 2307 548V550C2308.66 550 2310 548.657 2310 547H2308ZM2307 -2992C2307.55 -2992 2308 -2991.55 2308 -2991H2310C2310 -2992.66 2308.66 -2994 2307 -2994V-2992ZM-3648 -2994C-3649.66 -2994 -3651 -2992.66 -3651 -2991H-3649C-3649 -2991.55 -3648.55 -2992 -3648 -2992V-2994Z" fill="black" fill-opacity="0.1" style="fill:black;fill-opacity:0.1;"/>
<g filter="url(#filter0_d_512_33)">
<g clip-path="url(#clip0_512_33)">
<rect width="390" height="178" fill="#0073F0" style="fill:#0073F0;fill:color(display-p3 0.0000 0.4510 0.9412);fill-opacity:1;"/>
<path d="M402.876 122.664L386.024 112.97L402.876 103.275C406.967 100.917 409.65 96.7247 410.082 92.0271L412.991 60.061C413.028 59.7054 412.953 59.3311 412.765 58.9942C412.578 58.6574 412.296 58.414 411.958 58.2643L382.739 44.7892C378.461 42.8053 373.45 43.0299 369.359 45.3881L352.507 55.0827V35.6747C352.507 30.9584 350.199 26.5415 346.333 23.8278L320.042 5.31816C319.741 5.11229 319.385 5 319.009 5C318.634 5 318.259 5.11229 317.977 5.31816L291.667 23.8091C287.801 26.5228 285.512 30.9584 285.512 35.656V55.064L268.66 45.3693C264.569 43.0112 259.577 42.7866 255.279 44.7704L226.06 58.2456C225.741 58.3953 225.46 58.6386 225.253 58.9755C225.066 59.3124 224.991 59.6867 225.028 60.0423L227.937 92.0084C228.369 96.706 231.052 100.898 235.143 103.256L251.995 112.951L235.143 122.646C231.052 125.004 228.369 129.196 227.937 133.894L225.009 165.897C224.972 166.253 225.047 166.627 225.235 166.945C225.422 167.282 225.704 167.525 226.042 167.675L255.261 181.15C259.539 183.134 264.55 182.91 268.641 180.551L285.493 170.857V190.265C285.493 194.981 287.801 199.398 291.667 202.112L317.977 220.603C318.277 220.808 318.634 220.921 319.009 220.921C319.385 220.921 319.76 220.808 320.042 220.603L346.352 202.112C350.218 199.398 352.507 194.962 352.507 190.265V170.857L369.359 180.551C373.45 182.91 378.442 183.134 382.739 181.15L411.958 167.675C412.277 167.525 412.559 167.282 412.765 166.945C412.953 166.608 413.028 166.253 412.991 165.897L410.082 133.931C409.65 129.234 406.967 125.041 402.876 122.683V122.664ZM401.675 124.742C405.09 126.707 407.342 130.225 407.699 134.137L410.42 164.232L352.507 130.88V96.4252L372.756 108.085L401.656 124.723L401.675 124.742ZM350.105 96.4252V129.496L321.374 112.951L350.105 96.4065V96.4252ZM320.192 77.822L348.904 94.3665L320.192 110.911V77.8407V77.822ZM316.589 112.97L287.876 129.514V96.444L316.589 112.988V112.97ZM317.79 148.117L289.058 131.573L317.79 115.028V148.099V148.117ZM320.192 115.047L348.904 131.592L320.192 148.136V115.066V115.047ZM317.79 110.911L289.058 94.3665L317.79 77.822V110.892V110.911ZM407.68 91.8212C407.323 95.7328 405.071 99.2513 401.656 101.216L383.603 111.604L353.689 94.3665L410.401 61.708L407.68 91.8025V91.8212ZM370.541 47.4655C372.381 46.3987 374.482 45.8372 376.603 45.8372C378.386 45.8372 380.093 46.2115 381.707 46.9602L409.2 59.6493L352.488 92.3078V57.8339L370.541 47.4468V47.4655ZM350.105 35.6934V56.2618V92.3078L320.192 75.0896V8.36879L344.963 25.7742C348.191 28.0388 350.105 31.7445 350.105 35.6747V35.6934ZM293.018 25.7929L317.808 8.36879V75.0521L287.895 92.2891V35.6747C287.895 31.7445 289.828 28.0388 293.037 25.7742L293.018 25.7929ZM256.255 46.9602C257.869 46.2115 259.577 45.8372 261.36 45.8372C263.499 45.8372 265.582 46.3987 267.421 47.4655L285.474 57.8526V92.3078L228.763 59.6306L256.255 46.9414V46.9602ZM236.325 101.198C232.91 99.2326 230.658 95.7141 230.301 91.8025L227.58 61.708L284.292 94.3665L254.379 111.585L236.344 101.198H236.325ZM230.301 134.137C230.658 130.225 232.91 126.707 236.325 124.742L260.815 110.63L285.493 96.4252V130.88L227.58 164.232L230.301 134.137ZM267.44 178.493C265.601 179.56 263.499 180.121 261.378 180.121C259.596 180.121 257.888 179.747 256.274 178.998L228.763 166.309L286.675 132.958L316.589 150.195L297.447 161.218L267.421 178.511L267.44 178.493ZM287.876 190.265V169.491L317.79 152.254V217.571L293.018 200.165C289.79 197.901 287.876 194.195 287.876 190.265ZM344.963 200.165L320.192 217.571V152.254L350.105 169.472V190.246C350.105 194.176 348.172 197.882 344.963 200.147V200.165ZM381.726 178.998C380.112 179.747 378.404 180.121 376.622 180.121C374.501 180.121 372.399 179.56 370.56 178.493L340.666 161.293L321.393 150.195L351.306 132.977L409.219 166.328L381.726 179.017V178.998Z" fill="white" fill-opacity="0.08" style="fill:white;fill-opacity:0.08;"/>
<path d="M204.746 184.196L193.117 177.506L204.746 170.816C207.569 169.189 209.421 166.296 209.719 163.055L211.726 140.996C211.752 140.75 211.7 140.492 211.571 140.26C211.441 140.027 211.247 139.859 211.014 139.756L190.851 130.457C187.898 129.088 184.441 129.243 181.618 130.871L169.989 137.56V124.168C169.989 120.913 168.396 117.865 165.728 115.992L147.585 103.22C147.378 103.077 147.132 103 146.873 103C146.614 103 146.355 103.077 146.161 103.22L128.005 115.98C125.337 117.852 123.757 120.913 123.757 124.155V137.548L112.128 130.858C109.305 129.23 105.86 129.075 102.895 130.444L82.7317 139.743C82.5115 139.846 82.3173 140.014 82.1748 140.247C82.0453 140.479 81.9935 140.738 82.0194 140.983L84.0267 163.042C84.3245 166.283 86.1764 169.176 88.9995 170.804L100.629 177.494L88.9995 184.183C86.1764 185.811 84.3245 188.704 84.0267 191.945L82.0065 214.03C81.9806 214.275 82.0324 214.534 82.1619 214.753C82.2914 214.986 82.4856 215.154 82.7187 215.257L102.882 224.556C105.834 225.925 109.292 225.77 112.115 224.142L123.744 217.452V230.845C123.744 234.1 125.337 237.148 128.005 239.02L146.161 251.78C146.368 251.923 146.614 252 146.873 252C147.132 252 147.391 251.923 147.585 251.78L165.741 239.02C168.409 237.148 169.989 234.087 169.989 230.845V217.452L181.618 224.142C184.441 225.77 187.885 225.925 190.851 224.556L211.014 215.257C211.234 215.154 211.428 214.986 211.571 214.753C211.7 214.521 211.752 214.275 211.726 214.03L209.719 191.971C209.421 188.73 207.569 185.837 204.746 184.209V184.196ZM203.917 185.63C206.274 186.986 207.828 189.414 208.074 192.113L209.952 212.881L169.989 189.866V166.09L183.962 174.136L203.905 185.617L203.917 185.63ZM168.331 166.09V188.91L148.505 177.494L168.331 166.077V166.09ZM147.689 153.252L167.502 164.669L147.689 176.086V153.265V153.252ZM145.202 177.506L125.389 188.923V166.103L145.202 177.519V177.506ZM146.031 201.761L126.205 190.344L146.031 178.927V201.748V201.761ZM147.689 178.94L167.502 190.357L147.689 201.774V178.953V178.94ZM146.031 176.086L126.205 164.669L146.031 153.252V176.073V176.086ZM208.061 162.913C207.815 165.612 206.261 168.04 203.905 169.396L191.447 176.564L170.804 164.669L209.939 142.132L208.061 162.9V162.913ZM182.433 132.304C183.703 131.568 185.153 131.18 186.616 131.18C187.847 131.18 189.025 131.439 190.139 131.955L209.11 140.712L169.976 163.248V139.459L182.433 132.291V132.304ZM168.331 124.181V138.374V163.248L147.689 151.367V105.325L164.783 117.336C167.01 118.898 168.331 121.455 168.331 124.168V124.181ZM128.937 117.349L146.044 105.325V151.341L125.402 163.235V124.168C125.402 121.455 126.736 118.898 128.95 117.336L128.937 117.349ZM103.568 131.955C104.682 131.439 105.86 131.18 107.091 131.18C108.567 131.18 110.004 131.568 111.273 132.304L123.731 139.472V163.248L84.5965 140.699L103.568 131.942V131.955ZM89.8153 169.383C87.4584 168.027 85.9044 165.599 85.6584 162.9L83.7806 142.132L122.915 164.669L102.273 176.551L89.8283 169.383H89.8153ZM85.6584 192.113C85.9044 189.414 87.4584 186.986 89.8153 185.63L106.715 175.892L123.744 166.09V189.866L83.7806 212.881L85.6584 192.113ZM111.286 222.722C110.017 223.458 108.567 223.845 107.104 223.845C105.873 223.845 104.695 223.587 103.581 223.07L84.5965 214.314L124.56 191.3L145.202 203.194L131.993 210.801L111.273 222.735L111.286 222.722ZM125.389 230.845V216.51L146.031 204.615V249.688L128.937 237.677C126.71 236.115 125.389 233.557 125.389 230.845ZM164.783 237.677L147.689 249.688V204.615L168.331 216.497V230.832C168.331 233.545 166.997 236.102 164.783 237.664V237.677ZM190.152 223.07C189.038 223.587 187.859 223.845 186.629 223.845C185.166 223.845 183.715 223.458 182.446 222.722L161.817 210.853L148.518 203.194L169.16 191.313L209.123 214.327L190.152 223.083V223.07Z" fill="white" fill-opacity="0.08" style="fill:white;fill-opacity:0.08;"/>
<circle cx="2.67459" cy="2.67459" r="2.67459" transform="matrix(-1 0 0 1 214.319 73.6986)" fill="#FFD04F" style="fill:#FFD04F;fill:color(display-p3 1.0000 0.8157 0.3098);fill-opacity:1;"/>
<circle cx="2.67459" cy="2.67459" r="2.67459" transform="matrix(-1 0 0 1 200.947 77.7104)" fill="#FFD04F" style="fill:#FFD04F;fill:color(display-p3 1.0000 0.8157 0.3098);fill-opacity:1;"/>
<circle cx="2.67459" cy="2.67459" r="2.67459" transform="matrix(-1 0 0 1 187.573 77.0411)" fill="#FFD04F" style="fill:#FFD04F;fill:color(display-p3 1.0000 0.8157 0.3098);fill-opacity:1;"/>
<circle cx="2.67459" cy="2.67459" r="2.67459" transform="matrix(-1 0 0 1 176.207 74.3671)" fill="#FFD04F" style="fill:#FFD04F;fill:color(display-p3 1.0000 0.8157 0.3098);fill-opacity:1;"/>
<circle cx="2.67459" cy="2.67459" r="2.67459" transform="matrix(-1 0 0 1 166.845 69.6868)" fill="#FFD04F" style="fill:#FFD04F;fill:color(display-p3 1.0000 0.8157 0.3098);fill-opacity:1;"/>
<circle cx="2.67459" cy="2.67459" r="2.67459" transform="matrix(-1 0 0 1 154.81 69.6868)" fill="#FFD04F" style="fill:#FFD04F;fill:color(display-p3 1.0000 0.8157 0.3098);fill-opacity:1;"/>
<circle cx="2.67459" cy="2.67459" r="2.67459" transform="matrix(-1 0 0 1 144.78 76.3726)" fill="#FFD04F" style="fill:#FFD04F;fill:color(display-p3 1.0000 0.8157 0.3098);fill-opacity:1;"/>
<circle cx="2.67459" cy="2.67459" r="2.67459" transform="matrix(-1 0 0 1 129.401 81.7224)" fill="#FFD04F" style="fill:#FFD04F;fill:color(display-p3 1.0000 0.8157 0.3098);fill-opacity:1;"/>
<circle cx="2.67459" cy="2.67459" r="2.67459" transform="matrix(-1 0 0 1 112.685 82.3909)" fill="#FFD04F" style="fill:#FFD04F;fill:color(display-p3 1.0000 0.8157 0.3098);fill-opacity:1;"/>
<circle cx="2.67459" cy="2.67459" r="2.67459" transform="matrix(-1 0 0 1 98.6434 78.379)" fill="#FFD04F" style="fill:#FFD04F;fill:color(display-p3 1.0000 0.8157 0.3098);fill-opacity:1;"/>
<circle cx="2.67459" cy="2.67459" r="2.67459" transform="matrix(-1 0 0 1 88.6137 73.0292)" fill="#FFD04F" style="fill:#FFD04F;fill:color(display-p3 1.0000 0.8157 0.3098);fill-opacity:1;"/>
<circle cx="2.67459" cy="2.67459" r="2.67459" transform="matrix(-1 0 0 1 80.59 67.0118)" fill="#FFD04F" style="fill:#FFD04F;fill:color(display-p3 1.0000 0.8157 0.3098);fill-opacity:1;"/>
<circle cx="2.67459" cy="2.67459" r="2.67459" transform="matrix(-1 0 0 1 68.5543 71.6923)" fill="#FFD04F" style="fill:#FFD04F;fill:color(display-p3 1.0000 0.8157 0.3098);fill-opacity:1;"/>
<circle cx="2.67459" cy="2.67459" r="2.67459" transform="matrix(-1 0 0 1 55.85 77.0411)" fill="#FFD04F" style="fill:#FFD04F;fill:color(display-p3 1.0000 0.8157 0.3098);fill-opacity:1;"/>
<circle cx="2.67459" cy="2.67459" r="2.67459" transform="matrix(-1 0 0 1 39.8023 79.7159)" fill="#FFD04F" style="fill:#FFD04F;fill:color(display-p3 1.0000 0.8157 0.3098);fill-opacity:1;"/>
<circle cx="2.67459" cy="2.67459" r="2.67459" transform="matrix(-1 0 0 1 24.4235 76.3726)" fill="#FFD04F" style="fill:#FFD04F;fill:color(display-p3 1.0000 0.8157 0.3098);fill-opacity:1;"/>
<circle cx="2.67459" cy="2.67459" r="2.67459" transform="matrix(-1 0 0 1 13.0564 67.0118)" fill="#FFD04F" style="fill:#FFD04F;fill:color(display-p3 1.0000 0.8157 0.3098);fill-opacity:1;"/>
<circle cx="2.67459" cy="2.67459" r="2.67459" transform="matrix(-1 0 0 1 2.35797 71.0238)" fill="#FFD04F" style="fill:#FFD04F;fill:color(display-p3 1.0000 0.8157 0.3098);fill-opacity:1;"/>
<path d="M219 68.0149C211.088 76.0386 187.574 86.5364 156.816 64.3373C144.334 78.156 110.746 97.5022 76.2437 64.3373C61.1991 76.0386 26.6969 92.153 9.04458 63C7.26152 65.4517 1.75632 70.9569 -5.99999 73.364" stroke="#222222" style="stroke:#222222;stroke:color(display-p3 0.1333 0.1333 0.1333);stroke-opacity:1;" stroke-width="1.00297"/>
<g filter="url(#filter1_i_512_33)">
<path d="M219 65L219 178" stroke="#E5E5E5" style="stroke:#E5E5E5;stroke:color(display-p3 0.8980 0.8980 0.8980);stroke-opacity:1;" stroke-width="1.90483"/>
</g>
<g filter="url(#filter2_i_512_33)">
<path d="M110 61L110 178" stroke="#E5E5E5" style="stroke:#E5E5E5;stroke:color(display-p3 0.8980 0.8980 0.8980);stroke-opacity:1;" stroke-width="1.90483"/>
</g>
<path d="M219.997 52.9225V67.8436L-105.729 72.9232L-146.682 64.3514V49.4303C-131.55 46.3614 -100.014 39.1442 -94.9346 34.8266C-62.87 21.4929 -40.3296 -2 -40.3296 -2C-40.3296 -2 -20.9638 11.3338 32.6888 13.2386C79.4354 14.8983 105.707 4.34942 105.707 4.34942C105.707 4.34942 133.01 27.8423 156.502 36.7315C180.436 45.7874 219.997 52.9225 219.997 52.9225Z" fill="white" style="fill:white;fill-opacity:1;"/>
<path d="M219.997 67.843V52.9219L-105.729 53.8743V72.9226L219.997 67.843Z" fill="#F2F2F2" style="fill:#F2F2F2;fill:color(display-p3 0.9503 0.9503 0.9503);fill-opacity:1;"/>
<path d="M32.6885 13.2386C79.4352 14.8983 105.707 4.34942 105.707 4.34942C116.374 31.7789 141.052 48.0546 152.058 53.24V68.796L138.565 69.1135L57.1338 70.3834L16.4181 71.0183L-6.99537 71.3358V53.5574C-16.6253 45.8323 -36.7742 24.4136 -40.3298 -2C-40.3298 -2 -20.9641 11.3338 32.6885 13.2386Z" fill="#B2D7FF" style="fill:#B2D7FF;fill:color(display-p3 0.6980 0.8427 1.0000);fill-opacity:1;"/>
<path d="M16.4182 71.018L57.1339 70.3831L138.565 69.1132L152.058 68.9066V53.2396L-6.9953 53.5571V71.3355L16.4182 71.018Z" fill="#A1C6EF" style="fill:#A1C6EF;fill:color(display-p3 0.6330 0.7782 0.9360);fill-opacity:1;"/>
<path d="M109.386 92.4319C109.386 92.4319 119.077 104.321 122.53 110.829C122.53 110.829 128.894 106.4 131.697 105.636C134.499 104.873 136.801 104.298 140.634 108.508C144.466 112.718 148.495 119.226 149.646 123.051C150.796 126.876 149.26 130.707 143.321 134.911C137.377 139.122 124.417 146.68 116.424 146.249L110.428 132.522L104.132 103.534L109.392 92.4376L109.386 92.4319Z" fill="white" stroke="#000001" style="fill:white;fill-opacity:1;stroke:#000001;stroke:color(display-p3 0.0000 0.0000 0.0039);stroke-opacity:1;" stroke-width="2.87181" stroke-linecap="round" stroke-linejoin="round"/>
<path d="M122.53 110.827C122.53 110.827 120.895 112.136 120.297 112.785L122.53 110.827Z" fill="white" style="fill:white;fill-opacity:1;"/>
<path d="M122.53 110.827C122.53 110.827 120.895 112.136 120.297 112.785" stroke="#000001" style="stroke:#000001;stroke:color(display-p3 0.0000 0.0000 0.0039);stroke-opacity:1;" stroke-width="2.87181" stroke-linecap="round" stroke-linejoin="round"/>
<path d="M23.3888 132.515C21.6911 139.626 10.625 161.79 -7.11658 183.65C-10.6902 188.056 -11.5937 192.065 -6.02895 195.408C-0.464212 198.75 23.1528 200.29 36.1238 189.314L23.3888 132.509V132.515Z" fill="white" stroke="#000001" style="fill:white;fill-opacity:1;stroke:#000001;stroke:color(display-p3 0.0000 0.0000 0.0039);stroke-opacity:1;" stroke-width="2.87181" stroke-linecap="round" stroke-linejoin="round"/>
<path d="M72.8613 194.391C72.8613 194.391 72.1362 205.109 74.2252 210.37C76.3141 215.631 80.5496 215.683 90.367 215.803C100.184 215.924 104.426 214.31 105.985 210.312C107.545 206.315 105.438 175.093 105.438 175.093L72.8613 194.391Z" fill="white" stroke="#000001" style="fill:white;fill-opacity:1;stroke:#000001;stroke:color(display-p3 0.0000 0.0000 0.0039);stroke-opacity:1;" stroke-width="2.87181" stroke-linecap="round" stroke-linejoin="round"/>
<path d="M58.6532 55.7868C58.6532 55.7868 54.13 50.5084 47.1151 52.622C40.0312 54.7644 38.4026 61.4213 39.519 65.7175C41.3778 72.8568 49.5321 73.7355 49.5321 73.7355L58.6532 55.7868Z" fill="#0A509D" stroke="#000001" style="fill:#0A509D;fill:color(display-p3 0.0392 0.3137 0.6157);fill-opacity:1;stroke:#000001;stroke:color(display-p3 0.0000 0.0000 0.0039);stroke-opacity:1;" stroke-width="2.87181" stroke-linecap="round" stroke-linejoin="round"/>
<path d="M48.3007 73.5288C48.3007 73.5288 43.9674 68.0896 37.0331 70.1458C30.0297 72.2193 28.2861 78.9738 29.2931 83.3561C30.9677 90.6448 38.9609 91.6614 38.9609 91.6614L48.3007 73.5288Z" fill="#0A509D" stroke="#000001" style="fill:#0A509D;fill:color(display-p3 0.0392 0.3137 0.6157);fill-opacity:1;stroke:#000001;stroke:color(display-p3 0.0000 0.0000 0.0039);stroke-opacity:1;" stroke-width="2.87181" stroke-linecap="round" stroke-linejoin="round"/>
<path d="M38.9436 93.2058C38.9436 93.2058 34.6104 87.7666 27.676 89.8229C20.6726 91.8963 18.929 98.6508 19.936 103.033C21.6106 110.322 29.6038 111.338 29.6038 111.338L38.9436 93.2058Z" fill="#0A509D" stroke="#000001" style="fill:#0A509D;fill:color(display-p3 0.0392 0.3137 0.6157);fill-opacity:1;stroke:#000001;stroke:color(display-p3 0.0000 0.0000 0.0039);stroke-opacity:1;" stroke-width="2.87181" stroke-linecap="round" stroke-linejoin="round"/>
<path d="M75.7387 46.9123C75.7387 46.9123 73.88 40.8643 67.0205 40.0832C60.0861 39.2963 56.1097 44.253 55.4134 48.239C54.2509 54.8672 58.4461 56.9464 58.4461 56.9464L75.733 46.9066L75.7387 46.9123Z" fill="#0A509D" stroke="#000001" style="fill:#0A509D;fill:color(display-p3 0.0392 0.3137 0.6157);fill-opacity:1;stroke:#000001;stroke:color(display-p3 0.0000 0.0000 0.0039);stroke-opacity:1;" stroke-width="2.87181" stroke-linecap="round" stroke-linejoin="round"/>
<path d="M110.623 97.3754C110.623 97.3754 118.576 119.885 116.223 148.942C114.036 175.919 99.4939 199.204 71.1293 199.29C30.7202 199.416 14.8835 178.125 22.8134 134.353C30.139 93.9235 45.1874 66.716 61.2256 54.4592C77.0566 42.3574 95.644 43.351 106.883 50.1687C126.184 61.8742 122.075 85.5494 110.618 97.3812L110.623 97.3754Z" fill="white" style="fill:white;fill-opacity:1;"/>
<path d="M125.723 52.1223C125.723 52.1223 135.023 54.3566 134.05 71.5931" stroke="#000001" style="stroke:#000001;stroke:color(display-p3 0.0000 0.0000 0.0039);stroke-opacity:1;" stroke-width="2.87181" stroke-linecap="round" stroke-linejoin="round"/>
<path d="M126.759 58.1993L136.634 53.8801" stroke="#000001" style="stroke:#000001;stroke:color(display-p3 0.0000 0.0000 0.0039);stroke-opacity:1;" stroke-width="2.87181" stroke-linecap="round" stroke-linejoin="round"/>
<path d="M128.814 65.8668L139.431 64.0173" stroke="#000001" style="stroke:#000001;stroke:color(display-p3 0.0000 0.0000 0.0039);stroke-opacity:1;" stroke-width="2.87181" stroke-linecap="round" stroke-linejoin="round"/>
<path d="M84.7045 116.313C55.212 113.659 48.4848 153.037 47.472 162.078C45.6938 189.859 61.6342 190.411 62.8484 197.194C64.3561 197.636 65.9732 197.964 67.7168 198.165C85.7346 200.244 96.1735 185.598 101.848 167.459C107.522 149.315 108.719 118.472 84.7045 116.313Z" fill="#0A509D" style="fill:#0A509D;fill:color(display-p3 0.0392 0.3137 0.6157);fill-opacity:1;"/>
<path d="M114.312 112.264C116.004 121.522 117.408 134.417 116.228 148.948C115.227 161.325 111.59 173.22 105.243 182.157" stroke="#000001" style="stroke:#000001;stroke:color(display-p3 0.0000 0.0000 0.0039);stroke-opacity:1;" stroke-width="2.87181" stroke-linecap="round" stroke-linejoin="round"/>
<path d="M19.3202 142.739C20.8394 140.275 22.3644 136.88 22.819 134.359C30.1447 93.9294 45.193 66.722 61.2312 54.4651C77.0622 42.3634 95.6497 43.357 106.888 50.1747C126.19 61.8802 122.081 85.5553 110.623 97.3872" stroke="#000001" style="stroke:#000001;stroke:color(display-p3 0.0000 0.0000 0.0039);stroke-opacity:1;" stroke-width="2.87181" stroke-linecap="round" stroke-linejoin="round"/>
<path d="M67.596 60.7666C65.5818 60.9849 63.9302 61.8808 62.6412 63.4489C61.3867 65.0283 60.8688 66.8319 61.0932 68.8536C61.3177 70.8754 62.2096 72.518 63.7749 73.7701C65.3747 75.0337 67.1816 75.5622 69.1957 75.3382C71.2271 75.1142 72.8672 74.2181 74.1217 72.6386C75.3935 71.0764 75.9172 69.2786 75.6985 67.2511C75.474 65.2236 74.5706 63.581 72.9881 62.3116C71.4228 61.0595 69.6274 60.5426 67.596 60.7666Z" fill="#375BA5" style="fill:#375BA5;fill:color(display-p3 0.2157 0.3569 0.6471);fill-opacity:1;"/>
<path d="M109.657 58.4058C107.936 58.6069 106.532 59.4799 105.444 61.0307C104.385 62.593 103.965 64.3907 104.178 66.4182C104.391 68.4457 105.174 70.0941 106.526 71.3634C107.907 72.6443 109.461 73.1899 111.187 72.9889C112.925 72.7878 114.318 71.9091 115.377 70.3411C116.447 68.7903 116.879 67.0041 116.666 64.9766C116.453 62.9491 115.664 61.2949 114.295 60.0141C112.943 58.7447 111.395 58.2106 109.657 58.4116V58.4058Z" fill="#375BA5" style="fill:#375BA5;fill:color(display-p3 0.2157 0.3569 0.6471);fill-opacity:1;"/>
<path d="M97.9461 57.1086C98.0152 57.034 98.0957 56.9535 98.1821 56.8789C98.9474 56.2413 99.8221 55.9656 100.812 56.0518C101.825 56.1379 102.648 56.563 103.286 57.3269C103.925 58.0908 104.201 58.9753 104.109 59.9804C104.023 60.9683 103.597 61.7724 102.838 62.387C102.297 62.835 101.715 63.1164 101.082 63.2255C100.789 63.26 100.484 63.2657 100.179 63.237C99.8739 63.2083 99.5862 63.1509 99.3215 63.0705C98.6943 62.8522 98.1706 62.4731 97.739 61.9332C97.1002 61.1923 96.824 60.3307 96.9103 59.3428L96.9621 58.757C97.1405 58.131 97.4685 57.5796 97.9519 57.1029L97.9461 57.1086Z" fill="#000001" style="fill:#000001;fill:color(display-p3 0.0000 0.0000 0.0039);fill-opacity:1;"/>
<path d="M76.6312 59.2461C76.7233 59.1714 76.8096 59.0967 76.9016 59.022C77.6843 58.3673 78.582 58.0801 79.5948 58.172C80.6249 58.2639 81.4823 58.7004 82.1556 59.4872C82.8117 60.2684 83.0994 61.1759 83.0073 62.204C82.9152 63.2321 82.4779 64.0764 81.6953 64.7312C81.1371 65.1792 80.5386 65.4606 79.9056 65.5698C79.589 65.6272 79.2668 65.6387 78.9388 65.6099C78.628 65.5812 78.3231 65.5123 78.0238 65.4032C77.4196 65.1849 76.8901 64.8059 76.4413 64.266C75.7853 63.4848 75.4975 62.5774 75.5896 61.5492C75.6068 61.3425 75.6241 61.1472 75.6414 60.9634C75.8255 60.3144 76.1535 59.7457 76.6369 59.2461H76.6312Z" fill="#000001" style="fill:#000001;fill:color(display-p3 0.0000 0.0000 0.0039);fill-opacity:1;"/>
<path d="M74.7031 69.9281C86.6728 70.962 95.9608 70.4508 105.243 67.6077C105.243 67.6077 107.073 81.691 92.2951 83.3797C77.5172 85.0683 72.9652 75.597 74.7031 69.9339V69.9281Z" stroke="#000001" style="stroke:#000001;stroke:color(display-p3 0.0000 0.0000 0.0039);stroke-opacity:1;" stroke-width="2.87181" stroke-linecap="round" stroke-linejoin="round"/>
<path d="M103.574 68.4752C104.098 71.7663 102.981 73.61 101.1 73.7306C98.1302 73.9259 97.6008 69.6986 97.6008 69.6986C97.3361 72.7312 96.2197 74.5003 94.2114 74.6899C92.203 74.8794 90.6492 73.5641 90.0795 70.4797C94.9537 70.4625 99.4653 69.6756 103.574 68.4695V68.4752Z" stroke="#000001" style="stroke:#000001;stroke:color(display-p3 0.0000 0.0000 0.0039);stroke-opacity:1;" stroke-width="2.87181" stroke-linecap="round" stroke-linejoin="round"/>
<path d="M69.8058 107.462C69.8058 107.462 71.8545 140.884 70.7151 155.851C70.7151 155.851 87.1043 157.534 100.979 155.851C100.979 155.851 105.369 128.569 100.979 108.748C91.1038 107.071 79.8822 106.887 69.8058 107.462Z" fill="white" stroke="#000001" style="fill:white;fill-opacity:1;stroke:#000001;stroke:color(display-p3 0.0000 0.0000 0.0039);stroke-opacity:1;" stroke-width="2.87181" stroke-linecap="round" stroke-linejoin="round"/>
<path d="M75.3876 104.475C75.3876 104.475 77.4363 137.11 76.2969 151.728C76.2969 151.728 92.6861 153.37 106.56 151.728C106.56 151.728 110.951 125.089 106.56 105.733C96.6855 104.096 85.464 103.912 75.3876 104.475Z" fill="white" stroke="#000001" style="fill:white;fill-opacity:1;stroke:#000001;stroke:color(display-p3 0.0000 0.0000 0.0039);stroke-opacity:1;" stroke-width="2.87181" stroke-linecap="round" stroke-linejoin="round"/>
<path d="M57.3584 119.11C64.8107 115.262 76.7573 115.084 79.2433 119.288C82.3854 124.601 86.2985 138.96 81.3092 143.187C76.32 147.409 66.8766 151.872 55.9428 151.728C49.3825 151.642 43.6221 150.556 40.1118 144.21C37.8502 140.12 36.1066 134.853 35.1053 129.316" fill="white" style="fill:white;fill-opacity:1;"/>
<path d="M57.3584 119.11C64.8107 115.262 76.7573 115.084 79.2433 119.288C82.3854 124.601 86.2985 138.96 81.3092 143.187C76.32 147.409 66.8766 151.872 55.9428 151.728C49.3825 151.642 43.6221 150.556 40.1118 144.21C37.8502 140.12 36.1066 134.853 35.1053 129.316" stroke="#000001" style="stroke:#000001;stroke:color(display-p3 0.0000 0.0000 0.0039);stroke-opacity:1;" stroke-width="2.87181" stroke-linecap="round" stroke-linejoin="round"/>
<path d="M77.4537 134.887C76.7919 132.406 77.4824 130.499 80.3137 129.304C76.9472 129.023 75.8251 127.162 75.4625 125.359C75.1 123.555 76.038 121.131 78.9786 120.057L79.5311 119.908C81.1194 121.665 85.2166 131.183 83.1507 138.701C80.4345 138.873 78.0464 137.098 77.4537 134.887Z" fill="white" stroke="#000001" style="fill:white;fill-opacity:1;stroke:#000001;stroke:color(display-p3 0.0000 0.0000 0.0039);stroke-opacity:1;" stroke-width="2.87181" stroke-linecap="round" stroke-linejoin="round"/>
</g>
<rect x="0.25" y="0.25" width="389.5" height="177.5" stroke="#0073F0" stroke-opacity="0.16" style="stroke:#0073F0;stroke:color(display-p3 0.0000 0.4510 0.9412);stroke-opacity:0.16;" stroke-width="0.5"/>
</g>
<defs>
<filter id="filter0_d_512_33" x="-12" y="-12" width="414" height="202" filterUnits="userSpaceOnUse" color-interpolation-filters="sRGB">
<feFlood flood-opacity="0" result="BackgroundImageFix"/>
<feColorMatrix in="SourceAlpha" type="matrix" values="0 0 0 0 0 0 0 0 0 0 0 0 0 0 0 0 0 0 127 0" result="hardAlpha"/>
<feOffset/>
<feGaussianBlur stdDeviation="6"/>
<feComposite in2="hardAlpha" operator="out"/>
<feColorMatrix type="matrix" values="0 0 0 0 0 0 0 0 0 0 0 0 0 0 0 0 0 0 0.04 0"/>
<feBlend mode="normal" in2="BackgroundImageFix" result="effect1_dropShadow_512_33"/>
<feBlend mode="normal" in="SourceGraphic" in2="effect1_dropShadow_512_33" result="shape"/>
</filter>
<filter id="filter1_i_512_33" x="218.048" y="65" width="2.53973" height="113" filterUnits="userSpaceOnUse" color-interpolation-filters="sRGB">
<feFlood flood-opacity="0" result="BackgroundImageFix"/>
<feBlend mode="normal" in="SourceGraphic" in2="BackgroundImageFix" result="shape"/>
<feColorMatrix in="SourceAlpha" type="matrix" values="0 0 0 0 0 0 0 0 0 0 0 0 0 0 0 0 0 0 127 0" result="hardAlpha"/>
<feOffset dx="0.634942"/>
<feGaussianBlur stdDeviation="1.26988"/>
<feComposite in2="hardAlpha" operator="arithmetic" k2="-1" k3="1"/>
<feColorMatrix type="matrix" values="0 0 0 0 0 0 0 0 0 0 0 0 0 0 0 0 0 0 0.25 0"/>
<feBlend mode="normal" in2="shape" result="effect1_innerShadow_512_33"/>
</filter>
<filter id="filter2_i_512_33" x="109.048" y="61" width="2.53973" height="117" filterUnits="userSpaceOnUse" color-interpolation-filters="sRGB">
<feFlood flood-opacity="0" result="BackgroundImageFix"/>
<feBlend mode="normal" in="SourceGraphic" in2="BackgroundImageFix" result="shape"/>
<feColorMatrix in="SourceAlpha" type="matrix" values="0 0 0 0 0 0 0 0 0 0 0 0 0 0 0 0 0 0 127 0" result="hardAlpha"/>
<feOffset dx="0.634942"/>
<feGaussianBlur stdDeviation="1.26988"/>
<feComposite in2="hardAlpha" operator="arithmetic" k2="-1" k3="1"/>
<feColorMatrix type="matrix" values="0 0 0 0 0 0 0 0 0 0 0 0 0 0 0 0 0 0 0.25 0"/>
<feBlend mode="normal" in2="shape" result="effect1_innerShadow_512_33"/>
</filter>
<clipPath id="clip0_512_33">
<rect width="390" height="178" fill="white" style="fill:white;fill-opacity:1;"/>
</clipPath>
</defs>
</svg>
