<svg width="32" height="33" viewBox="0 0 32 33" fill="none" xmlns="http://www.w3.org/2000/svg">
<path d="M31.25 16.5501C31.25 24.9721 24.4224 31.7995 16 31.7995C7.57763 31.7995 0.75 24.9721 0.75 16.5501C0.75 8.12817 7.57763 1.30078 16 1.30078C24.4224 1.30078 31.25 8.12817 31.25 16.5501Z" fill="white" stroke="#0073F0" stroke-width="1.5"/>
<mask id="mask0_3170_9551" style="mask-type:alpha" maskUnits="userSpaceOnUse" x="1" y="1" width="30" height="31">
<circle cx="16" cy="16.0684" r="14.0588" fill="white" stroke="#0073F0" stroke-width="1.88231"/>
</mask>
<g mask="url(#mask0_3170_9551)">
<path d="M1.64113 2.43457H1.69268C1.93287 2.43457 2.05237 3.20747 2.05237 4.75214C2.05237 5.50636 1.98442 5.88407 1.84851 5.88407H1.69268C1.64231 5.88407 1.59193 5.83261 1.5392 5.72854V5.16258C1.5392 4.98133 1.55561 4.82699 1.59076 4.70187L1.48531 3.10576L1.17601 3.363H0.968629C0.900675 3.363 0.866699 3.32794 0.866699 3.25778V3.05432C1.19475 2.64155 1.4525 2.43457 1.64113 2.43457Z" fill="#0073F0" fill-opacity="0.36"/>
<path d="M3.33662 4.2384C3.33662 3.51927 3.61195 2.97085 4.16143 2.59082H4.36881C4.91947 2.59082 5.29673 2.83055 5.50293 3.30997C5.57089 3.53331 5.60486 3.68883 5.60486 3.77419V4.28868C5.60486 5.07914 5.24401 5.5422 4.52112 5.67784H4.36764C3.83338 5.67784 3.48893 5.19725 3.33545 4.23723L3.33662 4.2384ZM4.47074 5.2148C4.91947 5.13295 5.14325 4.79033 5.14325 4.18813V3.87941C5.14325 3.32983 4.88549 3.05621 4.36881 3.05621C4.02436 3.25032 3.85213 3.62686 3.85213 4.18813V4.39159C3.94 4.94117 4.14621 5.2148 4.47074 5.2148Z" fill="#0073F0" fill-opacity="0.36"/>
<path d="M6.19551 4.2384C6.19551 3.51927 6.47084 2.97085 7.02033 2.59082H7.2277C7.77836 2.59082 8.15562 2.83055 8.36182 3.30997C8.42977 3.53331 8.46375 3.68883 8.46375 3.77419V4.28868C8.46375 5.07914 8.1029 5.5422 7.38001 5.67784H7.22653C6.69228 5.67784 6.34782 5.19725 6.19434 4.23723L6.19551 4.2384ZM7.32963 5.2148C7.77836 5.13295 8.00214 4.79033 8.00214 4.18813V3.87941C8.00214 3.32983 7.74438 3.05621 7.2277 3.05621C6.88325 3.25032 6.71102 3.62686 6.71102 4.18813V4.39159C6.79889 4.94117 7.00509 5.2148 7.32963 5.2148Z" fill="#0073F0" fill-opacity="0.36"/>
<path d="M10.2197 2.43457H10.2713C10.5115 2.43457 10.631 3.20747 10.631 4.75214C10.631 5.50636 10.563 5.88407 10.4271 5.88407H10.2713C10.2209 5.88407 10.1705 5.83261 10.1178 5.72854V5.16258C10.1178 4.98133 10.1342 4.82699 10.1694 4.70187L10.0639 3.10576L9.75462 3.363H9.54724C9.47929 3.363 9.44531 3.32794 9.44531 3.25778V3.05432C9.77336 2.64155 10.0311 2.43457 10.2197 2.43457Z" fill="#0073F0" fill-opacity="0.36"/>
<path d="M13.0796 2.43457H13.1312C13.3713 2.43457 13.4908 3.20747 13.4908 4.75214C13.4908 5.50636 13.4229 5.88407 13.287 5.88407H13.1312C13.0808 5.88407 13.0304 5.83261 12.9777 5.72854V5.16258C12.9777 4.98133 12.9941 4.82699 13.0292 4.70187L12.9238 3.10576L12.6145 3.363H12.4071C12.3392 3.363 12.3052 3.32794 12.3052 3.25778V3.05432C12.6332 2.64155 12.891 2.43457 13.0796 2.43457Z" fill="#0073F0" fill-opacity="0.36"/>
<path d="M14.7756 4.2384C14.7756 3.51927 15.0509 2.97085 15.6004 2.59082H15.8078C16.3584 2.59082 16.7357 2.83055 16.9419 3.30997C17.0099 3.53331 17.0438 3.68883 17.0438 3.77419V4.28868C17.0438 5.07914 16.683 5.5422 15.9601 5.67784H15.8066C15.2724 5.67784 14.9279 5.19725 14.7744 4.23723L14.7756 4.2384ZM15.9097 5.2148C16.3584 5.13295 16.5822 4.79033 16.5822 4.18813V3.87941C16.5822 3.32983 16.3245 3.05621 15.8078 3.05621C15.4633 3.25032 15.2911 3.62686 15.2911 4.18813V4.39159C15.379 4.94117 15.5852 5.2148 15.9097 5.2148Z" fill="#0073F0" fill-opacity="0.36"/>
<path d="M18.7989 2.43457H18.8504C19.0906 2.43457 19.2101 3.20747 19.2101 4.75214C19.2101 5.50636 19.1421 5.88407 19.0062 5.88407H18.8504C18.8 5.88407 18.7497 5.83261 18.6969 5.72854V5.16258C18.6969 4.98133 18.7133 4.82699 18.7485 4.70187L18.643 3.10576L18.3337 3.363H18.1264C18.0584 3.363 18.0244 3.32794 18.0244 3.25778V3.05432C18.3525 2.64155 18.6102 2.43457 18.7989 2.43457Z" fill="#0073F0" fill-opacity="0.36"/>
<path d="M20.4934 4.2384C20.4934 3.51927 20.7687 2.97085 21.3182 2.59082H21.5255C22.0762 2.59082 22.4535 2.83055 22.6597 3.30997C22.7276 3.53331 22.7616 3.68883 22.7616 3.77419V4.28868C22.7616 5.07914 22.4007 5.5422 21.6779 5.67784H21.5244C20.9901 5.67784 20.6457 5.19725 20.4922 4.23723L20.4934 4.2384ZM21.6275 5.2148C22.0762 5.13295 22.3 4.79033 22.3 4.18813V3.87941C22.3 3.32983 22.0422 3.05621 21.5255 3.05621C21.1811 3.25032 21.0089 3.62686 21.0089 4.18813V4.39159C21.0967 4.94117 21.3029 5.2148 21.6275 5.2148Z" fill="#0073F0" fill-opacity="0.36"/>
<path d="M24.5186 2.43457H24.5701C24.8103 2.43457 24.9298 3.20747 24.9298 4.75214C24.9298 5.50636 24.8619 5.88407 24.726 5.88407H24.5701C24.5198 5.88407 24.4694 5.83261 24.4166 5.72854V5.16258C24.4166 4.98133 24.433 4.82699 24.4682 4.70187L24.3628 3.10576L24.0534 3.363H23.8461C23.7781 3.363 23.7441 3.32794 23.7441 3.25778V3.05432C24.0722 2.64155 24.3299 2.43457 24.5186 2.43457Z" fill="#0073F0" fill-opacity="0.36"/>
<path d="M27.377 2.43457H27.4285C27.6687 2.43457 27.7882 3.20747 27.7882 4.75214C27.7882 5.50636 27.7203 5.88407 27.5844 5.88407H27.4285C27.3781 5.88407 27.3278 5.83261 27.275 5.72854V5.16258C27.275 4.98133 27.2914 4.82699 27.3266 4.70187L27.2211 3.10576L26.9118 3.363H26.7045C26.6365 3.363 26.6025 3.32794 26.6025 3.25778V3.05432C26.9306 2.64155 27.1883 2.43457 27.377 2.43457Z" fill="#0073F0" fill-opacity="0.36"/>
<path d="M29.0725 4.2384C29.0725 3.51927 29.3478 2.97085 29.8973 2.59082H30.1047C30.6553 2.59082 31.0326 2.83055 31.2388 3.30997C31.3067 3.53331 31.3407 3.68883 31.3407 3.77419V4.28868C31.3407 5.07914 30.9798 5.5422 30.257 5.67784H30.1035C29.5692 5.67784 29.2248 5.19725 29.0713 4.23723L29.0725 4.2384ZM30.2066 5.2148C30.6553 5.13295 30.8791 4.79033 30.8791 4.18813V3.87941C30.8791 3.32983 30.6213 3.05621 30.1047 3.05621C29.7602 3.25032 29.588 3.62686 29.588 4.18813V4.39159C29.6758 4.94117 29.8821 5.2148 30.2066 5.2148Z" fill="#0073F0" fill-opacity="0.36"/>
<path d="M0.476759 9.34677C0.476759 8.62764 0.752092 8.07925 1.30158 7.69922H1.50895C2.05961 7.69922 2.43687 7.93892 2.64307 8.41834C2.71102 8.64168 2.74501 8.7972 2.74501 8.88256V9.39705C2.74501 10.1875 2.38415 10.6506 1.66126 10.7862H1.50778C0.973521 10.7862 0.629067 10.3056 0.475586 9.3456L0.476759 9.34677ZM1.61088 10.3232C2.05961 10.2413 2.28339 9.8987 2.28339 9.2965V8.98778C2.28339 8.4382 2.02563 8.16461 1.50895 8.16461C1.1645 8.35871 0.992271 8.73523 0.992271 9.2965V9.49996C1.08014 10.0495 1.28634 10.3232 1.61088 10.3232Z" fill="#0073F0" fill-opacity="0.36"/>
<path d="M3.33662 9.34677C3.33662 8.62764 3.61195 8.07925 4.16143 7.69922H4.36881C4.91947 7.69922 5.29673 7.93892 5.50293 8.41834C5.57089 8.64168 5.60486 8.7972 5.60486 8.88256V9.39705C5.60486 10.1875 5.24401 10.6506 4.52112 10.7862H4.36764C3.83338 10.7862 3.48893 10.3056 3.33545 9.3456L3.33662 9.34677ZM4.47074 10.3232C4.91947 10.2413 5.14325 9.8987 5.14325 9.2965V8.98778C5.14325 8.4382 4.88549 8.16461 4.36881 8.16461C4.02436 8.35871 3.85213 8.73523 3.85213 9.2965V9.49996C3.94 10.0495 4.14621 10.3232 4.47074 10.3232Z" fill="#0073F0" fill-opacity="0.36"/>
<path d="M7.35988 7.54492H7.41143C7.65162 7.54492 7.77112 8.31785 7.77112 9.86252C7.77112 10.6167 7.70317 10.9944 7.56726 10.9944H7.41143C7.36106 10.9944 7.31068 10.943 7.25795 10.8389V10.273C7.25795 10.0917 7.27436 9.93734 7.30951 9.81222L7.20406 8.21611L6.89476 8.47336H6.68738C6.61943 8.47336 6.58545 8.43829 6.58545 8.36813V8.16467C6.9135 7.7519 7.17125 7.54492 7.35988 7.54492Z" fill="#0073F0" fill-opacity="0.36"/>
<path d="M9.05537 9.34677C9.05537 8.62764 9.33071 8.07925 9.88019 7.69922H10.0876C10.6382 7.69922 11.0155 7.93892 11.2217 8.41834C11.2896 8.64168 11.3236 8.7972 11.3236 8.88256V9.39705C11.3236 10.1875 10.9628 10.6506 10.2399 10.7862H10.0864C9.55213 10.7862 9.20768 10.3056 9.0542 9.3456L9.05537 9.34677ZM10.1895 10.3232C10.6382 10.2413 10.862 9.8987 10.862 9.2965V8.98778C10.862 8.4382 10.6042 8.16461 10.0876 8.16461C9.7431 8.35871 9.57088 8.73523 9.57088 9.2965V9.49996C9.65876 10.0495 9.86495 10.3232 10.1895 10.3232Z" fill="#0073F0" fill-opacity="0.36"/>
<path d="M11.9152 9.34677C11.9152 8.62764 12.1906 8.07925 12.74 7.69922H12.9474C13.4981 7.69922 13.8753 7.93892 14.0815 8.41834C14.1495 8.64168 14.1835 8.7972 14.1835 8.88256V9.39705C14.1835 10.1875 13.8226 10.6506 13.0997 10.7862H12.9462C12.412 10.7862 12.0675 10.3056 11.9141 9.3456L11.9152 9.34677ZM13.0493 10.3232C13.4981 10.2413 13.7219 9.8987 13.7219 9.2965V8.98778C13.7219 8.4382 13.4641 8.16461 12.9474 8.16461C12.603 8.35871 12.4307 8.73523 12.4307 9.2965V9.49996C12.5186 10.0495 12.7248 10.3232 13.0493 10.3232Z" fill="#0073F0" fill-opacity="0.36"/>
<path d="M15.9385 7.54492H15.99C16.2302 7.54492 16.3497 8.31785 16.3497 9.86252C16.3497 10.6167 16.2818 10.9944 16.1459 10.9944H15.99C15.9397 10.9944 15.8893 10.943 15.8366 10.8389V10.273C15.8366 10.0917 15.853 9.93734 15.8881 9.81222L15.7827 8.21611L15.4734 8.47336H15.266C15.198 8.47336 15.1641 8.43829 15.1641 8.36813V8.16467C15.4921 7.7519 15.7499 7.54492 15.9385 7.54492Z" fill="#0073F0" fill-opacity="0.36"/>
<path d="M17.634 9.34677C17.634 8.62764 17.9093 8.07925 18.4588 7.69922H18.6662C19.2168 7.69922 19.5941 7.93892 19.8003 8.41834C19.8682 8.64168 19.9022 8.7972 19.9022 8.88256V9.39705C19.9022 10.1875 19.5414 10.6506 18.8185 10.7862H18.665C18.1308 10.7862 17.7863 10.3056 17.6328 9.3456L17.634 9.34677ZM18.7681 10.3232C19.2168 10.2413 19.4406 9.8987 19.4406 9.2965V8.98778C19.4406 8.4382 19.1829 8.16461 18.6662 8.16461C18.3217 8.35871 18.1495 8.73523 18.1495 9.2965V9.49996C18.2374 10.0495 18.4436 10.3232 18.7681 10.3232Z" fill="#0073F0" fill-opacity="0.36"/>
<path d="M20.4934 9.34677C20.4934 8.62764 20.7687 8.07925 21.3182 7.69922H21.5255C22.0762 7.69922 22.4535 7.93892 22.6597 8.41834C22.7276 8.64168 22.7616 8.7972 22.7616 8.88256V9.39705C22.7616 10.1875 22.4007 10.6506 21.6779 10.7862H21.5244C20.9901 10.7862 20.6457 10.3056 20.4922 9.3456L20.4934 9.34677ZM21.6275 10.3232C22.0762 10.2413 22.3 9.8987 22.3 9.2965V8.98778C22.3 8.4382 22.0422 8.16461 21.5255 8.16461C21.1811 8.35871 21.0089 8.73523 21.0089 9.2965V9.49996C21.0967 10.0495 21.3029 10.3232 21.6275 10.3232Z" fill="#0073F0" fill-opacity="0.36"/>
<path d="M24.5186 7.54492H24.5701C24.8103 7.54492 24.9298 8.31785 24.9298 9.86252C24.9298 10.6167 24.8619 10.9944 24.726 10.9944H24.5701C24.5198 10.9944 24.4694 10.943 24.4166 10.8389V10.273C24.4166 10.0917 24.433 9.93734 24.4682 9.81222L24.3628 8.21611L24.0534 8.47336H23.8461C23.7781 8.47336 23.7441 8.43829 23.7441 8.36813V8.16467C24.0722 7.7519 24.3299 7.54492 24.5186 7.54492Z" fill="#0073F0" fill-opacity="0.36"/>
<path d="M26.2121 9.34677C26.2121 8.62764 26.4874 8.07925 27.0369 7.69922H27.2443C27.795 7.69922 28.1722 7.93892 28.3784 8.41834C28.4464 8.64168 28.4804 8.7972 28.4804 8.88256V9.39705C28.4804 10.1875 28.1195 10.6506 27.3966 10.7862H27.2431C26.7089 10.7862 26.3644 10.3056 26.2109 9.3456L26.2121 9.34677ZM27.3462 10.3232C27.795 10.2413 28.0187 9.8987 28.0187 9.2965V8.98778C28.0187 8.4382 27.761 8.16461 27.2443 8.16461C26.8999 8.35871 26.7276 8.73523 26.7276 9.2965V9.49996C26.8155 10.0495 27.0217 10.3232 27.3462 10.3232Z" fill="#0073F0" fill-opacity="0.36"/>
<path d="M30.2364 7.54492H30.2879C30.5281 7.54492 30.6476 8.31785 30.6476 9.86252C30.6476 10.6167 30.5796 10.9944 30.4437 10.9944H30.2879C30.2375 10.9944 30.1872 10.943 30.1344 10.8389V10.273C30.1344 10.0917 30.1508 9.93734 30.186 9.81222L30.0805 8.21611L29.7712 8.47336H29.5638C29.4959 8.47336 29.4619 8.43829 29.4619 8.36813V8.16467C29.79 7.7519 30.0477 7.54492 30.2364 7.54492Z" fill="#0073F0" fill-opacity="0.36"/>
<path d="M0.476759 14.2697C0.476759 13.5505 0.752092 13.0021 1.30158 12.6221H1.50895C2.05961 12.6221 2.43687 12.8618 2.64307 13.3412C2.71102 13.5646 2.74501 13.7201 2.74501 13.8054V14.3199C2.74501 15.1104 2.38415 15.5735 1.66126 15.7091H1.50778C0.973521 15.7091 0.629067 15.2285 0.475586 14.2685L0.476759 14.2697ZM1.61088 15.246C2.05961 15.1642 2.28339 14.8216 2.28339 14.2194V13.9107C2.28339 13.3611 2.02563 13.0875 1.50895 13.0875C1.1645 13.2816 0.992271 13.6581 0.992271 14.2194V14.4228C1.08014 14.9724 1.28634 15.246 1.61088 15.246Z" fill="#0073F0" fill-opacity="0.36"/>
<path d="M3.33662 14.2697C3.33662 13.5505 3.61195 13.0021 4.16143 12.6221H4.36881C4.91947 12.6221 5.29673 12.8618 5.50293 13.3412C5.57089 13.5646 5.60486 13.7201 5.60486 13.8054V14.3199C5.60486 15.1104 5.24401 15.5735 4.52112 15.7091H4.36764C3.83338 15.7091 3.48893 15.2285 3.33545 14.2685L3.33662 14.2697ZM4.47074 15.246C4.91947 15.1642 5.14325 14.8216 5.14325 14.2194V13.9107C5.14325 13.3611 4.88549 13.0875 4.36881 13.0875C4.02436 13.2816 3.85213 13.6581 3.85213 14.2194V14.4228C3.94 14.9724 4.14621 15.246 4.47074 15.246Z" fill="#0073F0" fill-opacity="0.36"/>
<path d="M7.35988 12.4648H7.41143C7.65162 12.4648 7.77112 13.2377 7.77112 14.7824C7.77112 15.5366 7.70317 15.9143 7.56726 15.9143H7.41143C7.36106 15.9143 7.31068 15.8629 7.25795 15.7588V15.1929C7.25795 15.0116 7.27436 14.8573 7.30951 14.7321L7.20406 13.136L6.89476 13.3933H6.68738C6.61943 13.3933 6.58545 13.3582 6.58545 13.288V13.0846C6.9135 12.6718 7.17125 12.4648 7.35988 12.4648Z" fill="#0073F0" fill-opacity="0.36"/>
<path d="M9.05537 14.2697C9.05537 13.5505 9.33071 13.0021 9.88019 12.6221H10.0876C10.6382 12.6221 11.0155 12.8618 11.2217 13.3412C11.2896 13.5646 11.3236 13.7201 11.3236 13.8054V14.3199C11.3236 15.1104 10.9628 15.5735 10.2399 15.7091H10.0864C9.55213 15.7091 9.20768 15.2285 9.0542 14.2685L9.05537 14.2697ZM10.1895 15.246C10.6382 15.1642 10.862 14.8216 10.862 14.2194V13.9107C10.862 13.3611 10.6042 13.0875 10.0876 13.0875C9.7431 13.2816 9.57088 13.6581 9.57088 14.2194V14.4228C9.65876 14.9724 9.86495 15.246 10.1895 15.246Z" fill="#0073F0" fill-opacity="0.36"/>
<path d="M11.9152 14.2697C11.9152 13.5505 12.1906 13.0021 12.74 12.6221H12.9474C13.4981 12.6221 13.8753 12.8618 14.0815 13.3412C14.1495 13.5646 14.1835 13.7201 14.1835 13.8054V14.3199C14.1835 15.1104 13.8226 15.5735 13.0997 15.7091H12.9462C12.412 15.7091 12.0675 15.2285 11.9141 14.2685L11.9152 14.2697ZM13.0493 15.246C13.4981 15.1642 13.7219 14.8216 13.7219 14.2194V13.9107C13.7219 13.3611 13.4641 13.0875 12.9474 13.0875C12.603 13.2816 12.4307 13.6581 12.4307 14.2194V14.4228C12.5186 14.9724 12.7248 15.246 13.0493 15.246Z" fill="#0073F0" fill-opacity="0.36"/>
<path d="M15.9385 12.4648H15.99C16.2302 12.4648 16.3497 13.2377 16.3497 14.7824C16.3497 15.5366 16.2818 15.9143 16.1459 15.9143H15.99C15.9397 15.9143 15.8893 15.8629 15.8366 15.7588V15.1929C15.8366 15.0116 15.853 14.8573 15.8881 14.7321L15.7827 13.136L15.4734 13.3933H15.266C15.198 13.3933 15.1641 13.3582 15.1641 13.288V13.0846C15.4921 12.6718 15.7499 12.4648 15.9385 12.4648Z" fill="#0073F0" fill-opacity="0.36"/>
<path d="M17.634 14.2697C17.634 13.5505 17.9093 13.0021 18.4588 12.6221H18.6662C19.2168 12.6221 19.5941 12.8618 19.8003 13.3412C19.8682 13.5646 19.9022 13.7201 19.9022 13.8054V14.3199C19.9022 15.1104 19.5414 15.5735 18.8185 15.7091H18.665C18.1308 15.7091 17.7863 15.2285 17.6328 14.2685L17.634 14.2697ZM18.7681 15.246C19.2168 15.1642 19.4406 14.8216 19.4406 14.2194V13.9107C19.4406 13.3611 19.1829 13.0875 18.6662 13.0875C18.3217 13.2816 18.1495 13.6581 18.1495 14.2194V14.4228C18.2374 14.9724 18.4436 15.246 18.7681 15.246Z" fill="#0073F0" fill-opacity="0.36"/>
<path d="M21.6582 12.4648H21.7098C21.95 12.4648 22.0695 13.2377 22.0695 14.7824C22.0695 15.5366 22.0015 15.9143 21.8656 15.9143H21.7098C21.6594 15.9143 21.609 15.8629 21.5563 15.7588V15.1929C21.5563 15.0116 21.5727 14.8573 21.6079 14.7321L21.5024 13.136L21.1931 13.3933H20.9857C20.9178 13.3933 20.8838 13.3582 20.8838 13.288V13.0846C21.2118 12.6718 21.4696 12.4648 21.6582 12.4648Z" fill="#0073F0" fill-opacity="0.36"/>
<path d="M23.3537 14.2697C23.3537 13.5505 23.629 13.0021 24.1785 12.6221H24.3859C24.9366 12.6221 25.3138 12.8618 25.52 13.3412C25.588 13.5646 25.622 13.7201 25.622 13.8054V14.3199C25.622 15.1104 25.2611 15.5735 24.5382 15.7091H24.3847C23.8505 15.7091 23.506 15.2285 23.3525 14.2685L23.3537 14.2697ZM24.4878 15.246C24.9366 15.1642 25.1603 14.8216 25.1603 14.2194V13.9107C25.1603 13.3611 24.9026 13.0875 24.3859 13.0875C24.0414 13.2816 23.8692 13.6581 23.8692 14.2194V14.4228C23.9571 14.9724 24.1633 15.246 24.4878 15.246Z" fill="#0073F0" fill-opacity="0.36"/>
<path d="M27.377 12.4648H27.4285C27.6687 12.4648 27.7882 13.2377 27.7882 14.7824C27.7882 15.5366 27.7203 15.9143 27.5844 15.9143H27.4285C27.3781 15.9143 27.3278 15.8629 27.275 15.7588V15.1929C27.275 15.0116 27.2914 14.8573 27.3266 14.7321L27.2211 13.136L26.9118 13.3933H26.7045C26.6365 13.3933 26.6025 13.3582 26.6025 13.288V13.0846C26.9306 12.6718 27.1883 12.4648 27.377 12.4648Z" fill="#0073F0" fill-opacity="0.36"/>
<path d="M29.0725 14.2697C29.0725 13.5505 29.3478 13.0021 29.8973 12.6221H30.1047C30.6553 12.6221 31.0326 12.8618 31.2388 13.3412C31.3067 13.5646 31.3407 13.7201 31.3407 13.8054V14.3199C31.3407 15.1104 30.9798 15.5735 30.257 15.7091H30.1035C29.5692 15.7091 29.2248 15.2285 29.0713 14.2685L29.0725 14.2697ZM30.2066 15.246C30.6553 15.1642 30.8791 14.8216 30.8791 14.2194V13.9107C30.8791 13.3611 30.6213 13.0875 30.1047 13.0875C29.7602 13.2816 29.588 13.6581 29.588 14.2194V14.4228C29.6758 14.9724 29.8821 15.246 30.2066 15.246Z" fill="#0073F0" fill-opacity="0.36"/>
<path d="M1.64162 17.1885H1.69317C1.93335 17.1885 2.05286 17.9614 2.05286 19.5061C2.05286 20.2603 1.98491 20.638 1.849 20.638H1.69317C1.64279 20.638 1.59241 20.5865 1.53969 20.4824V19.9165C1.53969 19.7353 1.5561 19.5809 1.59124 19.4558L1.4858 17.8597L1.1765 18.1169H0.969117C0.901164 18.1169 0.867188 18.0818 0.867188 18.0117V17.8082C1.19524 17.3955 1.45299 17.1885 1.64162 17.1885Z" fill="#0073F0" fill-opacity="0.36"/>
<path d="M3.33662 18.9913C3.33662 18.2722 3.61195 17.7238 4.16143 17.3438H4.36881C4.91947 17.3438 5.29673 17.5834 5.50293 18.0629C5.57089 18.2862 5.60486 18.4417 5.60486 18.5271V19.0416C5.60486 19.8321 5.24401 20.2951 4.52112 20.4307H4.36764C3.83338 20.4307 3.48893 19.9501 3.33545 18.9901L3.33662 18.9913ZM4.47074 19.9677C4.91947 19.8858 5.14325 19.5432 5.14325 18.941V18.6323C5.14325 18.0828 4.88549 17.8091 4.36881 17.8091C4.02436 18.0032 3.85213 18.3798 3.85213 18.941V19.1445C3.94 19.6941 4.14621 19.9677 4.47074 19.9677Z" fill="#0073F0" fill-opacity="0.36"/>
<path d="M6.19551 18.9913C6.19551 18.2722 6.47084 17.7238 7.02033 17.3438H7.2277C7.77836 17.3438 8.15562 17.5834 8.36182 18.0629C8.42977 18.2862 8.46375 18.4417 8.46375 18.5271V19.0416C8.46375 19.8321 8.1029 20.2951 7.38001 20.4307H7.22653C6.69228 20.4307 6.34782 19.9501 6.19434 18.9901L6.19551 18.9913ZM7.32963 19.9677C7.77836 19.8858 8.00214 19.5432 8.00214 18.941V18.6323C8.00214 18.0828 7.74438 17.8091 7.2277 17.8091C6.88325 18.0032 6.71102 18.3798 6.71102 18.941V19.1445C6.79889 19.6941 7.00509 19.9677 7.32963 19.9677Z" fill="#0073F0" fill-opacity="0.36"/>
<path d="M10.2197 17.1885H10.2713C10.5115 17.1885 10.631 17.9614 10.631 19.5061C10.631 20.2603 10.563 20.638 10.4271 20.638H10.2713C10.2209 20.638 10.1705 20.5865 10.1178 20.4824V19.9165C10.1178 19.7353 10.1342 19.5809 10.1694 19.4558L10.0639 17.8597L9.75462 18.1169H9.54724C9.47929 18.1169 9.44531 18.0818 9.44531 18.0117V17.8082C9.77336 17.3955 10.0311 17.1885 10.2197 17.1885Z" fill="#0073F0" fill-opacity="0.36"/>
<path d="M13.0796 17.1885H13.1312C13.3713 17.1885 13.4908 17.9614 13.4908 19.5061C13.4908 20.2603 13.4229 20.638 13.287 20.638H13.1312C13.0808 20.638 13.0304 20.5865 12.9777 20.4824V19.9165C12.9777 19.7353 12.9941 19.5809 13.0292 19.4558L12.9238 17.8597L12.6145 18.1169H12.4071C12.3392 18.1169 12.3052 18.0818 12.3052 18.0117V17.8082C12.6332 17.3955 12.891 17.1885 13.0796 17.1885Z" fill="#0073F0" fill-opacity="0.36"/>
<path d="M14.7756 18.9913C14.7756 18.2722 15.0509 17.7238 15.6004 17.3438H15.8078C16.3584 17.3438 16.7357 17.5834 16.9419 18.0629C17.0099 18.2862 17.0438 18.4417 17.0438 18.5271V19.0416C17.0438 19.8321 16.683 20.2951 15.9601 20.4307H15.8066C15.2724 20.4307 14.9279 19.9501 14.7744 18.9901L14.7756 18.9913ZM15.9097 19.9677C16.3584 19.8858 16.5822 19.5432 16.5822 18.941V18.6323C16.5822 18.0828 16.3245 17.8091 15.8078 17.8091C15.4633 18.0032 15.2911 18.3798 15.2911 18.941V19.1445C15.379 19.6941 15.5852 19.9677 15.9097 19.9677Z" fill="#0073F0" fill-opacity="0.36"/>
<path d="M18.7989 17.1885H18.8504C19.0906 17.1885 19.2101 17.9614 19.2101 19.5061C19.2101 20.2603 19.1421 20.638 19.0062 20.638H18.8504C18.8 20.638 18.7497 20.5865 18.6969 20.4824V19.9165C18.6969 19.7353 18.7133 19.5809 18.7485 19.4558L18.643 17.8597L18.3337 18.1169H18.1264C18.0584 18.1169 18.0244 18.0818 18.0244 18.0117V17.8082C18.3525 17.3955 18.6102 17.1885 18.7989 17.1885Z" fill="#0073F0" fill-opacity="0.36"/>
<path d="M20.4934 18.9913C20.4934 18.2722 20.7687 17.7238 21.3182 17.3438H21.5255C22.0762 17.3438 22.4535 17.5834 22.6597 18.0629C22.7276 18.2862 22.7616 18.4417 22.7616 18.5271V19.0416C22.7616 19.8321 22.4007 20.2951 21.6779 20.4307H21.5244C20.9901 20.4307 20.6457 19.9501 20.4922 18.9901L20.4934 18.9913ZM21.6275 19.9677C22.0762 19.8858 22.3 19.5432 22.3 18.941V18.6323C22.3 18.0828 22.0422 17.8091 21.5255 17.8091C21.1811 18.0032 21.0089 18.3798 21.0089 18.941V19.1445C21.0967 19.6941 21.3029 19.9677 21.6275 19.9677Z" fill="#0073F0" fill-opacity="0.36"/>
<path d="M24.5186 17.1885H24.5701C24.8103 17.1885 24.9298 17.9614 24.9298 19.5061C24.9298 20.2603 24.8619 20.638 24.726 20.638H24.5701C24.5198 20.638 24.4694 20.5865 24.4166 20.4824V19.9165C24.4166 19.7353 24.433 19.5809 24.4682 19.4558L24.3628 17.8597L24.0534 18.1169H23.8461C23.7781 18.1169 23.7441 18.0818 23.7441 18.0117V17.8082C24.0722 17.3955 24.3299 17.1885 24.5186 17.1885Z" fill="#0073F0" fill-opacity="0.36"/>
<path d="M27.377 17.1885H27.4285C27.6687 17.1885 27.7882 17.9614 27.7882 19.5061C27.7882 20.2603 27.7203 20.638 27.5844 20.638H27.4285C27.3781 20.638 27.3278 20.5865 27.275 20.4824V19.9165C27.275 19.7353 27.2914 19.5809 27.3266 19.4558L27.2211 17.8597L26.9118 18.1169H26.7045C26.6365 18.1169 26.6025 18.0818 26.6025 18.0117V17.8082C26.9306 17.3955 27.1883 17.1885 27.377 17.1885Z" fill="#0073F0" fill-opacity="0.36"/>
<path d="M29.0725 18.9913C29.0725 18.2722 29.3478 17.7238 29.8973 17.3438H30.1047C30.6553 17.3438 31.0326 17.5834 31.2388 18.0629C31.3067 18.2862 31.3407 18.4417 31.3407 18.5271V19.0416C31.3407 19.8321 30.9798 20.2951 30.257 20.4307H30.1035C29.5692 20.4307 29.2248 19.9501 29.0713 18.9901L29.0725 18.9913ZM30.2066 19.9677C30.6553 19.8858 30.8791 19.5432 30.8791 18.941V18.6323C30.8791 18.0828 30.6213 17.8091 30.1047 17.8091C29.7602 18.0032 29.588 18.3798 29.588 18.941V19.1445C29.6758 19.6941 29.8821 19.9677 30.2066 19.9677Z" fill="#0073F0" fill-opacity="0.36"/>
<path d="M0.476759 24.1036C0.476759 23.3845 0.752092 22.8361 1.30158 22.4561H1.50895C2.05961 22.4561 2.43687 22.6958 2.64307 23.1752C2.71102 23.3985 2.74501 23.554 2.74501 23.6394V24.1539C2.74501 24.9444 2.38415 25.4074 1.66126 25.5431H1.50778C0.973521 25.5431 0.629067 25.0625 0.475586 24.1024L0.476759 24.1036ZM1.61088 25.08C2.05961 24.9982 2.28339 24.6555 2.28339 24.0533V23.7446C2.28339 23.1951 2.02563 22.9214 1.50895 22.9214C1.1645 23.1155 0.992271 23.4921 0.992271 24.0533V24.2568C1.08014 24.8064 1.28634 25.08 1.61088 25.08Z" fill="#0073F0" fill-opacity="0.36"/>
<path d="M3.33662 24.1036C3.33662 23.3845 3.61195 22.8361 4.16143 22.4561H4.36881C4.91947 22.4561 5.29673 22.6958 5.50293 23.1752C5.57089 23.3985 5.60486 23.554 5.60486 23.6394V24.1539C5.60486 24.9444 5.24401 25.4074 4.52112 25.5431H4.36764C3.83338 25.5431 3.48893 25.0625 3.33545 24.1024L3.33662 24.1036ZM4.47074 25.08C4.91947 24.9982 5.14325 24.6555 5.14325 24.0533V23.7446C5.14325 23.1951 4.88549 22.9214 4.36881 22.9214C4.02436 23.1155 3.85213 23.4921 3.85213 24.0533V24.2568C3.94 24.8064 4.14621 25.08 4.47074 25.08Z" fill="#0073F0" fill-opacity="0.36"/>
<path d="M7.35988 22.2998H7.41143C7.65162 22.2998 7.77112 23.0727 7.77112 24.6174C7.77112 25.3716 7.70317 25.7493 7.56726 25.7493H7.41143C7.36106 25.7493 7.31068 25.6978 7.25795 25.5938V25.0278C7.25795 24.8466 7.27436 24.6923 7.30951 24.5671L7.20406 22.971L6.89476 23.2282H6.68738C6.61943 23.2282 6.58545 23.1932 6.58545 23.123V22.9196C6.9135 22.5068 7.17125 22.2998 7.35988 22.2998Z" fill="#0073F0" fill-opacity="0.36"/>
<path d="M9.05488 24.1036C9.05488 23.3845 9.33022 22.8361 9.8797 22.4561H10.0871C10.6377 22.4561 11.015 22.6958 11.2212 23.1752C11.2891 23.3985 11.3231 23.554 11.3231 23.6394V24.1539C11.3231 24.9444 10.9623 25.4074 10.2394 25.5431H10.0859C9.55164 25.5431 9.20719 25.0625 9.05371 24.1024L9.05488 24.1036ZM10.189 25.08C10.6377 24.9982 10.8615 24.6555 10.8615 24.0533V23.7446C10.8615 23.1951 10.6037 22.9214 10.0871 22.9214C9.74261 23.1155 9.5704 23.4921 9.5704 24.0533V24.2568C9.65827 24.8064 9.86446 25.08 10.189 25.08Z" fill="#0073F0" fill-opacity="0.36"/>
<path d="M11.9152 24.1036C11.9152 23.3845 12.1906 22.8361 12.74 22.4561H12.9474C13.4981 22.4561 13.8753 22.6958 14.0815 23.1752C14.1495 23.3985 14.1835 23.554 14.1835 23.6394V24.1539C14.1835 24.9444 13.8226 25.4074 13.0997 25.5431H12.9462C12.412 25.5431 12.0675 25.0625 11.9141 24.1024L11.9152 24.1036ZM13.0493 25.08C13.4981 24.9982 13.7219 24.6555 13.7219 24.0533V23.7446C13.7219 23.1951 13.4641 22.9214 12.9474 22.9214C12.603 23.1155 12.4307 23.4921 12.4307 24.0533V24.2568C12.5186 24.8064 12.7248 25.08 13.0493 25.08Z" fill="#0073F0" fill-opacity="0.36"/>
<path d="M15.9385 22.2998H15.99C16.2302 22.2998 16.3497 23.0727 16.3497 24.6174C16.3497 25.3716 16.2818 25.7493 16.1459 25.7493H15.99C15.9397 25.7493 15.8893 25.6978 15.8366 25.5938V25.0278C15.8366 24.8466 15.853 24.6923 15.8881 24.5671L15.7827 22.971L15.4734 23.2282H15.266C15.198 23.2282 15.1641 23.1932 15.1641 23.123V22.9196C15.4921 22.5068 15.7499 22.2998 15.9385 22.2998Z" fill="#0073F0" fill-opacity="0.36"/>
<path d="M17.634 24.1036C17.634 23.3845 17.9093 22.8361 18.4588 22.4561H18.6662C19.2168 22.4561 19.5941 22.6958 19.8003 23.1752C19.8682 23.3985 19.9022 23.554 19.9022 23.6394V24.1539C19.9022 24.9444 19.5414 25.4074 18.8185 25.5431H18.665C18.1308 25.5431 17.7863 25.0625 17.6328 24.1024L17.634 24.1036ZM18.7681 25.08C19.2168 24.9982 19.4406 24.6555 19.4406 24.0533V23.7446C19.4406 23.1951 19.1829 22.9214 18.6662 22.9214C18.3217 23.1155 18.1495 23.4921 18.1495 24.0533V24.2568C18.2374 24.8064 18.4436 25.08 18.7681 25.08Z" fill="#0073F0" fill-opacity="0.36"/>
<path d="M20.4934 24.1036C20.4934 23.3845 20.7687 22.8361 21.3182 22.4561H21.5255C22.0762 22.4561 22.4535 22.6958 22.6597 23.1752C22.7276 23.3985 22.7616 23.554 22.7616 23.6394V24.1539C22.7616 24.9444 22.4007 25.4074 21.6779 25.5431H21.5244C20.9901 25.5431 20.6457 25.0625 20.4922 24.1024L20.4934 24.1036ZM21.6275 25.08C22.0762 24.9982 22.3 24.6555 22.3 24.0533V23.7446C22.3 23.1951 22.0422 22.9214 21.5255 22.9214C21.1811 23.1155 21.0089 23.4921 21.0089 24.0533V24.2568C21.0967 24.8064 21.3029 25.08 21.6275 25.08Z" fill="#0073F0" fill-opacity="0.36"/>
<path d="M24.5186 22.2998H24.5701C24.8103 22.2998 24.9298 23.0727 24.9298 24.6174C24.9298 25.3716 24.8619 25.7493 24.726 25.7493H24.5701C24.5198 25.7493 24.4694 25.6978 24.4166 25.5938V25.0278C24.4166 24.8466 24.433 24.6923 24.4682 24.5671L24.3628 22.971L24.0534 23.2282H23.8461C23.7781 23.2282 23.7441 23.1932 23.7441 23.123V22.9196C24.0722 22.5068 24.3299 22.2998 24.5186 22.2998Z" fill="#0073F0" fill-opacity="0.36"/>
<path d="M26.2121 24.1036C26.2121 23.3845 26.4874 22.8361 27.0369 22.4561H27.2443C27.795 22.4561 28.1722 22.6958 28.3784 23.1752C28.4464 23.3985 28.4804 23.554 28.4804 23.6394V24.1539C28.4804 24.9444 28.1195 25.4074 27.3966 25.5431H27.2431C26.7089 25.5431 26.3644 25.0625 26.2109 24.1024L26.2121 24.1036ZM27.3462 25.08C27.795 24.9982 28.0187 24.6555 28.0187 24.0533V23.7446C28.0187 23.1951 27.761 22.9214 27.2443 22.9214C26.8999 23.1155 26.7276 23.4921 26.7276 24.0533V24.2568C26.8155 24.8064 27.0217 25.08 27.3462 25.08Z" fill="#0073F0" fill-opacity="0.36"/>
<path d="M30.2364 22.2998H30.2879C30.5281 22.2998 30.6476 23.0727 30.6476 24.6174C30.6476 25.3716 30.5796 25.7493 30.4437 25.7493H30.2879C30.2375 25.7493 30.1872 25.6978 30.1344 25.5938V25.0278C30.1344 24.8466 30.1508 24.6923 30.186 24.5671L30.0805 22.971L29.7712 23.2282H29.5638C29.4959 23.2282 29.4619 23.1932 29.4619 23.123V22.9196C29.79 22.5068 30.0477 22.2998 30.2364 22.2998Z" fill="#0073F0" fill-opacity="0.36"/>
<path d="M0.476759 29.0216C0.476759 28.3024 0.752092 27.7541 1.30158 27.374H1.50895C2.05961 27.374 2.43687 27.6137 2.64307 28.0931C2.71102 28.3165 2.74501 28.472 2.74501 28.5574V29.0719C2.74501 29.8623 2.38415 30.3254 1.66126 30.461H1.50778C0.973521 30.461 0.629067 29.9804 0.475586 29.0204L0.476759 29.0216ZM1.61088 29.998C2.05961 29.9161 2.28339 29.5735 2.28339 28.9713V28.6626C2.28339 28.113 2.02563 27.8394 1.50895 27.8394C1.1645 28.0335 0.992271 28.41 0.992271 28.9713V29.1748C1.08014 29.7243 1.28634 29.998 1.61088 29.998Z" fill="#0073F0" fill-opacity="0.36"/>
<path d="M3.33662 29.0216C3.33662 28.3024 3.61195 27.7541 4.16143 27.374H4.36881C4.91947 27.374 5.29673 27.6137 5.50293 28.0931C5.57089 28.3165 5.60486 28.472 5.60486 28.5574V29.0719C5.60486 29.8623 5.24401 30.3254 4.52112 30.461H4.36764C3.83338 30.461 3.48893 29.9804 3.33545 29.0204L3.33662 29.0216ZM4.47074 29.998C4.91947 29.9161 5.14325 29.5735 5.14325 28.9713V28.6626C5.14325 28.113 4.88549 27.8394 4.36881 27.8394C4.02436 28.0335 3.85213 28.41 3.85213 28.9713V29.1748C3.94 29.7243 4.14621 29.998 4.47074 29.998Z" fill="#0073F0" fill-opacity="0.36"/>
<path d="M7.35988 27.2178H7.41143C7.65162 27.2178 7.77112 27.9907 7.77112 29.5354C7.77112 30.2896 7.70317 30.6673 7.56726 30.6673H7.41143C7.36106 30.6673 7.31068 30.6158 7.25795 30.5117V29.9458C7.25795 29.7646 7.27436 29.6102 7.30951 29.4851L7.20406 27.889L6.89476 28.1462H6.68738C6.61943 28.1462 6.58545 28.1111 6.58545 28.041V27.8375C6.9135 27.4247 7.17125 27.2178 7.35988 27.2178Z" fill="#0073F0" fill-opacity="0.36"/>
<path d="M9.05537 29.0216C9.05537 28.3024 9.33071 27.7541 9.88019 27.374H10.0876C10.6382 27.374 11.0155 27.6137 11.2217 28.0931C11.2896 28.3165 11.3236 28.472 11.3236 28.5574V29.0719C11.3236 29.8623 10.9628 30.3254 10.2399 30.461H10.0864C9.55213 30.461 9.20768 29.9804 9.0542 29.0204L9.05537 29.0216ZM10.1895 29.998C10.6382 29.9161 10.862 29.5735 10.862 28.9713V28.6626C10.862 28.113 10.6042 27.8394 10.0876 27.8394C9.7431 28.0335 9.57088 28.41 9.57088 28.9713V29.1748C9.65876 29.7243 9.86495 29.998 10.1895 29.998Z" fill="#0073F0" fill-opacity="0.36"/>
<path d="M11.9152 29.0216C11.9152 28.3024 12.1906 27.7541 12.74 27.374H12.9474C13.4981 27.374 13.8753 27.6137 14.0815 28.0931C14.1495 28.3165 14.1835 28.472 14.1835 28.5574V29.0719C14.1835 29.8623 13.8226 30.3254 13.0997 30.461H12.9462C12.412 30.461 12.0675 29.9804 11.9141 29.0204L11.9152 29.0216ZM13.0493 29.998C13.4981 29.9161 13.7219 29.5735 13.7219 28.9713V28.6626C13.7219 28.113 13.4641 27.8394 12.9474 27.8394C12.603 28.0335 12.4307 28.41 12.4307 28.9713V29.1748C12.5186 29.7243 12.7248 29.998 13.0493 29.998Z" fill="#0073F0" fill-opacity="0.36"/>
<path d="M15.9385 27.2178H15.99C16.2302 27.2178 16.3497 27.9907 16.3497 29.5354C16.3497 30.2896 16.2818 30.6673 16.1459 30.6673H15.99C15.9397 30.6673 15.8893 30.6158 15.8366 30.5117V29.9458C15.8366 29.7646 15.853 29.6102 15.8881 29.4851L15.7827 27.889L15.4734 28.1462H15.266C15.198 28.1462 15.1641 28.1111 15.1641 28.041V27.8375C15.4921 27.4247 15.7499 27.2178 15.9385 27.2178Z" fill="#0073F0" fill-opacity="0.36"/>
<path d="M17.634 29.0216C17.634 28.3024 17.9093 27.7541 18.4588 27.374H18.6662C19.2168 27.374 19.5941 27.6137 19.8003 28.0931C19.8682 28.3165 19.9022 28.472 19.9022 28.5574V29.0719C19.9022 29.8623 19.5414 30.3254 18.8185 30.461H18.665C18.1308 30.461 17.7863 29.9804 17.6328 29.0204L17.634 29.0216ZM18.7681 29.998C19.2168 29.9161 19.4406 29.5735 19.4406 28.9713V28.6626C19.4406 28.113 19.1829 27.8394 18.6662 27.8394C18.3217 28.0335 18.1495 28.41 18.1495 28.9713V29.1748C18.2374 29.7243 18.4436 29.998 18.7681 29.998Z" fill="#0073F0" fill-opacity="0.36"/>
<path d="M21.6582 27.2178H21.7098C21.95 27.2178 22.0695 27.9907 22.0695 29.5354C22.0695 30.2896 22.0015 30.6673 21.8656 30.6673H21.7098C21.6594 30.6673 21.609 30.6158 21.5563 30.5117V29.9458C21.5563 29.7646 21.5727 29.6102 21.6079 29.4851L21.5024 27.889L21.1931 28.1462H20.9857C20.9178 28.1462 20.8838 28.1111 20.8838 28.041V27.8375C21.2118 27.4247 21.4696 27.2178 21.6582 27.2178Z" fill="#0073F0" fill-opacity="0.36"/>
<path d="M23.3537 29.0216C23.3537 28.3024 23.629 27.7541 24.1785 27.374H24.3859C24.9366 27.374 25.3138 27.6137 25.52 28.0931C25.588 28.3165 25.622 28.472 25.622 28.5574V29.0719C25.622 29.8623 25.2611 30.3254 24.5382 30.461H24.3847C23.8505 30.461 23.506 29.9804 23.3525 29.0204L23.3537 29.0216ZM24.4878 29.998C24.9366 29.9161 25.1603 29.5735 25.1603 28.9713V28.6626C25.1603 28.113 24.9026 27.8394 24.3859 27.8394C24.0414 28.0335 23.8692 28.41 23.8692 28.9713V29.1748C23.9571 29.7243 24.1633 29.998 24.4878 29.998Z" fill="#0073F0" fill-opacity="0.36"/>
<path d="M27.377 27.2178H27.4285C27.6687 27.2178 27.7882 27.9907 27.7882 29.5354C27.7882 30.2896 27.7203 30.6673 27.5844 30.6673H27.4285C27.3781 30.6673 27.3278 30.6158 27.275 30.5117V29.9458C27.275 29.7646 27.2914 29.6102 27.3266 29.4851L27.2211 27.889L26.9118 28.1462H26.7045C26.6365 28.1462 26.6025 28.1111 26.6025 28.041V27.8375C26.9306 27.4247 27.1883 27.2178 27.377 27.2178Z" fill="#0073F0" fill-opacity="0.36"/>
<path d="M29.0725 29.0216C29.0725 28.3024 29.3478 27.7541 29.8973 27.374H30.1047C30.6553 27.374 31.0326 27.6137 31.2388 28.0931C31.3067 28.3165 31.3407 28.472 31.3407 28.5574V29.0719C31.3407 29.8623 30.9798 30.3254 30.257 30.461H30.1035C29.5692 30.461 29.2248 29.9804 29.0713 29.0204L29.0725 29.0216ZM30.2066 29.998C30.6553 29.9161 30.8791 29.5735 30.8791 28.9713V28.6626C30.8791 28.113 30.6213 27.8394 30.1047 27.8394C29.7602 28.0335 29.588 28.41 29.588 28.9713V29.1748C29.6758 29.7243 29.8821 29.998 30.2066 29.998Z" fill="#0073F0" fill-opacity="0.36"/>
</g>
<mask id="mask1_3170_9551" style="mask-type:alpha" maskUnits="userSpaceOnUse" x="0" y="0" width="32" height="32">
<path d="M31.0588 15.9993C31.0588 24.3157 24.3168 31.0575 16 31.0575C7.68319 31.0575 0.941157 24.3157 0.941157 15.9993C0.941157 7.68297 7.68319 0.941157 16 0.941157C24.3168 0.941157 31.0588 7.68297 31.0588 15.9993Z" fill="white" stroke="#0073F0" stroke-width="1.88231"/>
</mask>
<g mask="url(#mask1_3170_9551)">
<path d="M8.8371 17.999C8.8371 17.999 5.18692 22.2181 4.79123 27.4828C4.60743 29.9306 4.60744 32.8679 5.95606 33.4182C7.30468 33.9686 9.26673 33.7851 9.26673 33.7851L10.7383 20.8137L8.83827 17.999H8.8371Z" fill="white" stroke="#0073F0" stroke-width="0.851524" stroke-linecap="round" stroke-linejoin="round"/>
<path d="M6.14794 32.0664C6.72508 32.3409 6.9159 32.9064 6.76489 33.6577C6.48509 33.6004 6.20999 33.5222 5.95596 33.4193C5.483 33.2265 5.17628 32.7393 4.98546 32.085C5.17628 32.0009 5.6621 31.8362 6.14911 32.0675L6.14794 32.0664Z" fill="white" stroke="#0073F0" stroke-width="0.584206" stroke-linecap="round" stroke-linejoin="round"/>
<path d="M26.2721 25.9543C26.6174 27.4008 28.8687 31.9096 32.4779 36.3565C33.2049 37.2526 33.3887 38.0682 32.2566 38.7482C31.1246 39.4282 26.3201 39.7413 23.6814 37.5085L26.2721 25.9531V25.9543Z" fill="white" stroke="#0073F0" stroke-width="0.584206" stroke-linecap="round" stroke-linejoin="round"/>
<path d="M19.0979 10.346C19.0979 10.346 20.0181 9.27223 21.4451 9.70219C22.8863 10.138 23.2176 11.4922 22.9904 12.3661C22.6123 13.8184 20.9535 13.9972 20.9535 13.9972L19.0979 10.346Z" fill="white" stroke="#0073F0" stroke-width="0.851524" stroke-linecap="round" stroke-linejoin="round"/>
<path d="M21.2038 13.9545C21.2038 13.9545 22.0853 12.848 23.496 13.2663C24.9207 13.6881 25.2754 15.0621 25.0706 15.9536C24.7299 17.4363 23.1038 17.6431 23.1038 17.6431L21.2038 13.9545Z" fill="white" stroke="#0073F0" stroke-width="0.851524" stroke-linecap="round" stroke-linejoin="round"/>
<path d="M23.1081 17.9594C23.1081 17.9594 23.9896 16.8529 25.4003 17.2712C26.825 17.693 27.1797 19.067 26.9749 19.9585C26.6342 21.4412 25.0081 21.648 25.0081 21.648L23.1081 17.9594Z" fill="white" stroke="#0073F0" stroke-width="0.851524" stroke-linecap="round" stroke-linejoin="round"/>
<path d="M15.6226 8.54286C15.6226 8.54286 16.0007 7.31253 17.3962 7.15363C18.8068 6.99356 19.6158 8.00191 19.7574 8.81277C19.9939 10.1611 19.1405 10.584 19.1405 10.584L15.6238 8.54169L15.6226 8.54286Z" fill="white" stroke="#0073F0" stroke-width="0.851524" stroke-linecap="round" stroke-linejoin="round"/>
<path d="M8.52469 18.8094C8.52469 18.8094 6.90681 23.3883 7.38562 29.2992C7.83048 34.7871 10.7888 39.5238 16.5591 39.5413C24.7796 39.567 28.0013 35.2358 26.3881 26.3315C24.8978 18.1072 21.8365 12.5725 18.5738 10.0792C15.3533 7.61741 11.572 7.81954 9.28563 9.20642C5.35917 11.5876 6.19504 16.4037 8.52586 18.8106L8.52469 18.8094Z" fill="white"/>
<path d="M13.799 22.6598C19.7987 22.12 21.1672 30.1305 21.3732 31.9695C21.735 37.621 18.4922 37.7332 18.2452 39.1131C17.9385 39.203 17.6095 39.2696 17.2548 39.3105C13.5894 39.7335 11.4658 36.7541 10.3115 33.0643C9.15721 29.3734 8.91371 23.0991 13.799 22.6598Z" fill="#0073F0" fill-opacity="0.8"/>
<path d="M7.77513 21.835C7.43095 23.7184 7.14531 26.3414 7.38529 29.2974C7.58899 31.8153 8.32886 34.2351 9.62012 36.0531" stroke="#0073F0" stroke-width="0.851524" stroke-linecap="round" stroke-linejoin="round"/>
<path d="M27.0996 28.0362C26.7906 27.535 26.4803 26.8444 26.3878 26.3315C24.8976 18.1072 21.8362 12.5725 18.5736 10.0792C15.353 7.61741 11.5717 7.81954 9.28539 9.20642C5.35893 11.5876 6.1948 16.4037 8.52562 18.8106" stroke="#0073F0" stroke-width="0.851524" stroke-linecap="round" stroke-linejoin="round"/>
<path d="M17.2791 11.3599C17.6888 11.4043 18.0248 11.5866 18.287 11.9056C18.5423 12.2269 18.6476 12.5938 18.6019 13.005C18.5563 13.4163 18.3748 13.7505 18.0564 14.0052C17.731 14.2622 17.3634 14.3697 16.9536 14.3242C16.5439 14.2786 16.2068 14.0963 15.9515 13.775C15.6928 13.4572 15.5863 13.0915 15.6308 12.6791C15.6764 12.2666 15.8602 11.9325 16.1822 11.6743C16.5006 11.4196 16.8658 11.3144 17.2791 11.3599Z" fill="#0073F0" fill-opacity="0.8"/>
<path d="M8.72226 10.8812C9.07229 10.9221 9.35793 11.0997 9.57919 11.4152C9.7946 11.733 9.88005 12.0987 9.83673 12.5111C9.79342 12.9236 9.63421 13.2589 9.3591 13.5171C9.07814 13.7777 8.76206 13.8887 8.41086 13.8478C8.05965 13.8069 7.774 13.6281 7.5586 13.3092C7.34085 12.9937 7.25305 12.6303 7.29637 12.2179C7.33968 11.8054 7.50006 11.4689 7.77869 11.2084C8.0538 10.9502 8.36871 10.8415 8.72226 10.8824V10.8812Z" fill="#0073F0" fill-opacity="0.8"/>
<path d="M11.105 10.6156C11.0909 10.6004 11.0746 10.584 11.057 10.5688C10.9013 10.4391 10.7234 10.3831 10.522 10.4006C10.316 10.4181 10.1485 10.5046 10.0186 10.66C9.88866 10.8154 9.83246 10.9953 9.85119 11.1998C9.86875 11.4007 9.95539 11.5643 10.1099 11.6893C10.22 11.7805 10.3382 11.8377 10.467 11.8599C10.5267 11.8669 10.5887 11.8681 10.6508 11.8622C10.7128 11.8564 10.7714 11.8447 10.8252 11.8284C10.9528 11.784 11.0593 11.7068 11.1471 11.597C11.2771 11.4463 11.3333 11.271 11.3157 11.0701L11.3052 10.9509C11.2689 10.8235 11.2022 10.7114 11.1038 10.6144L11.105 10.6156Z" fill="#0073F0"/>
<path d="M15.4409 11.049C15.4222 11.0338 15.4047 11.0187 15.3859 11.0035C15.2267 10.8703 15.0441 10.8119 14.8381 10.8306C14.632 10.8492 14.4541 10.938 14.3171 11.0981C14.1836 11.257 14.1251 11.4416 14.1438 11.6507C14.1626 11.8599 14.2515 12.0316 14.4108 12.1648C14.5243 12.256 14.6461 12.3132 14.7748 12.3354C14.8392 12.3471 14.9048 12.3495 14.9715 12.3436C15.0347 12.3378 15.0968 12.3237 15.1576 12.3015C15.2806 12.2571 15.3883 12.18 15.4796 12.0702C15.613 11.9113 15.6716 11.7267 15.6528 11.5176C15.6493 11.4755 15.6458 11.4358 15.6423 11.3984C15.6048 11.2663 15.5381 11.1507 15.4398 11.049H15.4409Z" fill="#0073F0"/>
<path d="M9.34842 12.6719C11.2367 13.2502 13.399 13.4348 15.834 13.2245L9.34842 12.6719Z" fill="#0073F0"/>
<path d="M9.34842 12.6719C11.2367 13.2502 13.399 13.4348 15.834 13.2245" stroke="#0073F0" stroke-width="0.584206" stroke-linecap="round" stroke-linejoin="round"/>
<path d="M15.2878 13.3032C15.2983 13.9808 15.0197 14.3197 14.6381 14.2904C14.0352 14.2449 14.0492 13.3779 14.0492 13.3779C13.9087 13.9808 13.6325 14.3056 13.2227 14.2858C12.813 14.2659 12.5344 13.8909 12.5074 13.2529C13.4896 13.3896 14.425 13.4258 15.2866 13.302L15.2878 13.3032Z" stroke="#0073F0" stroke-width="0.584206" stroke-linecap="round" stroke-linejoin="round"/>
<path d="M24.1418 28.9269C25.9763 29.5076 26.2034 29.5216 26.6494 29.8441C27.0954 30.1666 27.2242 30.6292 27.0369 31.3443C26.8496 32.0593 25.6403 35.8075 25.3113 36.4478C24.9824 37.0881 24.6628 37.268 23.8796 37.1138C23.0976 36.9596 15.2306 34.8997 14.4345 34.527C13.6385 34.1543 13.4102 33.6869 13.601 33.0665C13.7918 32.4461 14.9848 28.5472 15.2306 27.7515C15.4366 27.0855 15.9318 26.5165 16.9398 26.8039C17.9091 27.0809 22.9337 28.5425 24.1418 28.9257V28.9269Z" fill="white" stroke="#0073F0" stroke-width="0.851524" stroke-linecap="round" stroke-linejoin="round"/>
<path d="M20.3481 31.0156L20.7192 31.2762C20.766 31.3089 20.793 31.3626 20.793 31.4187V32.2892L20.3481 32.0333V31.0156Z" fill="#2659A6"/>
<path d="M21.2862 31.6029L21.6982 31.7933L20.8355 32.2899V31.7769L21.1258 31.6098C21.1749 31.5818 21.2347 31.5795 21.2862 31.6029Z" fill="#0091D3"/>
<path d="M21.6768 32.2799C21.6721 32.336 21.6393 32.3862 21.5902 32.4154L21.2998 32.5825L20.855 32.3266L21.7178 31.8301L21.6768 32.2811V32.2799Z" fill="#73C4EF"/>
<path d="M19.9355 31.2762L20.3066 31.0156V32.0333L19.8618 32.2892V31.4187C19.8618 31.3626 19.8899 31.3089 19.9355 31.2762Z" fill="#8BADDC"/>
<path d="M19.7998 32.3259L19.355 32.5817L19.0646 32.4147C19.0155 32.3866 18.9839 32.3364 18.978 32.2791L18.937 31.8281L19.7998 32.3247V32.3259Z" fill="#00B3CD"/>
<path d="M19.3696 31.6029C19.4211 31.5795 19.4808 31.5818 19.53 31.6098L19.8203 31.7769V32.2899L18.9575 31.7933L19.3696 31.6029Z" fill="#95D3E6"/>
<path d="M25.5306 22.3809C27.852 29.0792 24.4348 32.2199 23.8799 32.6884C23.27 33.2025 22.7139 33.3076 21.7891 33.1476C20.8654 32.9875 18.1647 31.4347 17.8778 30.6449C17.5863 29.8387 19.0064 27.8279 18.7559 24.9478" fill="white"/>
<path d="M25.5306 22.3809C27.852 29.0792 24.4348 32.2199 23.8799 32.6884C23.27 33.2025 22.7139 33.3076 21.7891 33.1476C20.8654 32.9875 18.1647 31.4347 17.8778 30.6449C17.5863 29.8387 19.0064 27.8279 18.7559 24.9478" stroke="#0073F0" stroke-width="0.851524" stroke-linecap="round" stroke-linejoin="round"/>
<path d="M20.0056 30.821C20.4703 31.0476 20.6881 31.4262 20.5464 32.0677C20.9796 31.536 21.3999 31.6015 21.7241 31.7861C22.0484 31.9707 22.3177 32.4614 22.1456 33.1052L22.114 33.194C22.011 33.1823 21.9033 33.1671 21.7897 33.1472C20.9995 33.0105 19.5514 32.0045 18.767 31.3514C18.7612 31.3222 18.7553 31.293 18.7506 31.2615C19.0386 30.7777 19.5912 30.6165 20.0056 30.8186V30.821Z" fill="white" stroke="#0073F0" stroke-width="0.584206" stroke-linecap="round" stroke-linejoin="round"/>
</g>
<path d="M31.25 16.5501C31.25 24.9721 24.4224 31.7995 16 31.7995C7.57763 31.7995 0.75 24.9721 0.75 16.5501C0.75 8.12817 7.57763 1.30078 16 1.30078C24.4224 1.30078 31.25 8.12817 31.25 16.5501Z" stroke="#0073F0" stroke-width="1.5"/>
</svg>
