<svg width="1172" height="603" viewBox="0 0 1172 603" fill="none" xmlns="http://www.w3.org/2000/svg">
<mask id="mask0_4587_36003" style="mask-type:alpha" maskUnits="userSpaceOnUse" x="10" y="0" width="662" height="386">
<rect x="10" width="661.555" height="385.891" fill="#D9D9D9"/>
</mask>
<g mask="url(#mask0_4587_36003)">
<path d="M273.378 115.994C273.378 115.994 247.939 86.3087 208.486 98.1958C168.645 110.244 159.485 147.682 165.764 171.844C176.218 211.995 222.08 216.937 222.08 216.937L273.378 115.994Z" fill="white" stroke="#0073F0" stroke-width="22.8345" stroke-linecap="round" stroke-linejoin="round"/>
<path d="M215.173 215.749C215.173 215.749 190.802 185.159 151.802 196.723C112.414 208.384 102.607 246.371 108.271 271.017C117.689 312.008 162.644 317.725 162.644 317.725L215.173 215.749Z" fill="white" stroke="#0073F0" stroke-width="22.8345" stroke-linecap="round" stroke-linejoin="round"/>
<path d="M162.567 326.434C162.567 326.434 138.196 295.844 99.1964 307.408C59.8081 319.069 50.0016 357.056 55.6655 381.702C65.0837 422.693 110.039 428.411 110.039 428.411L162.567 326.434Z" fill="white" stroke="#0073F0" stroke-width="16.1512" stroke-linecap="round" stroke-linejoin="round"/>
<path d="M369.486 66.105C369.486 66.105 359.032 32.0911 320.453 27.6981C281.453 23.2728 259.088 51.149 255.172 73.5665C248.635 110.843 272.229 122.536 272.229 122.536L369.454 66.0726L369.486 66.105Z" fill="white" stroke="#0073F0" stroke-width="22.8345" stroke-linecap="round" stroke-linejoin="round"/>
<path d="M565.604 347.851C565.604 347.851 559.325 354.699 559.552 355.086C559.746 355.442 562.432 359.027 567.19 359.027C568.873 359.027 567.87 360.933 569.553 361.902C570.038 362.193 570.265 362.806 570.427 363.291C581.625 401.762 607.614 508.229 597.095 637.888C584.797 789.61 503.01 920.561 343.482 921.046C116.215 921.756 27.146 802.014 71.7451 555.842C112.946 328.47 197.581 175.456 287.782 106.524C376.819 38.4639 481.358 44.0522 544.567 82.3944C653.12 148.225 630.011 281.374 565.572 347.915L565.604 347.851Z" fill="white"/>
<path d="M52.1797 605.011C60.7241 591.154 69.3007 572.063 71.8575 557.883C113.058 330.511 197.693 177.497 287.895 108.565C376.931 40.5049 481.471 46.0932 544.68 84.4354C653.232 150.266 630.124 283.415 565.685 349.956" stroke="#0073F0" stroke-width="22.8345" stroke-linecap="round" stroke-linejoin="round"/>
<path d="M323.722 144.01C312.395 145.238 303.106 150.277 295.856 159.095C288.8 167.978 285.887 178.121 287.15 189.491C288.412 200.861 293.429 210.1 302.232 217.142C311.229 224.248 321.392 227.22 332.72 225.96C344.048 224.7 353.369 219.661 360.424 210.778C367.577 201.992 370.522 191.881 369.292 180.479C368.03 169.076 362.949 159.838 354.048 152.699C345.245 145.658 335.147 142.751 323.722 144.01Z" fill="#0073F0" fill-opacity="0.8"/>
<path d="M560.235 130.712C550.558 131.842 542.661 136.752 536.544 145.473C530.588 154.259 528.226 164.37 529.423 175.772C530.621 187.175 535.022 196.446 542.628 203.584C550.396 210.788 559.134 213.856 568.844 212.726C578.618 211.595 586.451 206.653 592.406 197.834C598.426 189.113 600.853 179.067 599.656 167.665C598.458 156.262 594.024 146.959 586.321 139.756C578.715 132.617 570.009 129.613 560.235 130.744L560.235 130.712Z" fill="#0073F0" fill-opacity="0.8"/>
<path d="M491.896 125.99C493.644 124.052 496.557 122.21 500.603 120.466C500.894 120.337 501.217 120.24 501.541 120.208C510.344 119.013 517.238 121.371 522.157 127.249C525.782 131.578 527.336 136.585 526.818 142.302C526.333 147.89 523.905 152.445 519.601 155.934C516.559 158.485 513.225 160.068 509.632 160.682C507.982 160.876 506.266 160.908 504.519 160.746C502.771 160.585 501.153 160.262 499.664 159.778C496.136 158.518 493.126 156.386 490.699 153.349C487.074 149.15 485.488 144.24 486.006 138.652L486.297 135.325C487.333 131.772 489.177 128.638 491.896 125.957L491.896 125.99Z" fill="#0073F0"/>
<path d="M538.045 173.598C485.451 189.716 425.22 194.852 357.383 189.006" stroke="#0073F0" stroke-width="17.1259" stroke-linecap="round" stroke-linejoin="round"/>
<path d="M537.2 173.63C540.404 188.65 534.287 197.856 523.768 199.439C507.165 201.959 503.831 182.545 503.831 182.545C502.601 196.79 496.484 205.641 485.254 207.612C474.023 209.582 464.831 202.863 461.336 188.78C488.652 186.066 514.253 181.415 537.2 173.598L537.2 173.63Z" fill="white" stroke="#0073F0" stroke-width="17.1259" stroke-linecap="round" stroke-linejoin="round"/>
<path d="M375.822 164.512C375.822 164.512 406.505 154.692 404.207 145.712C401.909 136.732 375.078 131.758 375.078 131.758" stroke="#0073F0" stroke-width="17.1259" stroke-linecap="round" stroke-linejoin="round"/>
</g>
<path d="M1031.55 329.109C1050.53 329.109 1068.03 332.158 1083.93 338.423L1085.41 338.988C1100.59 344.894 1113.78 353.336 1124.82 364.35C1136.57 375.457 1145.56 389.012 1151.83 404.844L1152.41 406.341C1158.32 421.854 1161.21 438.755 1161.21 456.933C1161.21 476.827 1158.16 494.982 1151.85 511.24L1151.83 511.305C1145.56 527.133 1136.58 540.685 1124.83 551.791L1124.83 551.792C1113.73 562.567 1100.48 570.732 1085.24 576.341L1083.75 576.876C1067.91 582.486 1050.47 585.213 1031.55 585.213C1013.16 585.213 996.16 582.494 980.666 576.906L979.172 576.356C963.397 570.441 949.602 561.995 937.917 550.979L937.81 550.877L937.706 550.773C926.674 539.742 918.076 526.576 911.867 511.409L911.273 509.935C904.956 493.975 901.895 476.258 901.895 456.933C901.895 437.888 904.963 420.328 911.273 404.388L911.868 402.912C918.087 387.731 926.714 374.673 937.812 363.901C949.507 352.542 963.335 343.905 979.172 337.966L980.666 337.417C996.16 331.829 1013.16 329.109 1031.55 329.109ZM1031.55 409.848C1022.16 409.848 1015.53 413.191 1010.55 419.97L1010.07 420.637L1010.03 420.696L1009.98 420.755C1004.69 428.118 1001.36 439.731 1001.36 456.933C1001.36 474.345 1004.66 486.29 1009.97 494.002C1015.27 500.988 1022.25 504.475 1032.01 504.475C1041.69 504.475 1048.2 500.932 1052.92 493.857L1052.97 493.771L1053.03 493.687C1058.42 485.956 1061.74 474.105 1061.74 456.933C1061.74 439.731 1058.41 428.118 1053.12 420.755L1053.07 420.696L1053.03 420.637C1047.99 413.41 1041.24 409.848 1031.55 409.848Z" fill="#0073F0" stroke="white" stroke-width="20"/>
<path d="M840.208 329.109C875.946 329.109 905.02 337.002 926.014 354.209H926.013C947.211 371.274 957.533 395.149 957.533 424.509V574.89L950.406 577.028C946.58 578.176 941.077 579.167 934.332 580.088L934.333 580.089C927.434 581.074 920.26 581.56 912.823 581.56C905.683 581.56 899.033 581.074 892.912 580.054L892.864 580.046L892.817 580.037C886.533 578.928 880.77 576.672 875.791 573.063L875.312 572.71C870.211 568.885 866.325 563.878 863.572 557.979L863.407 557.625L863.271 557.261C860.876 550.875 859.894 543.331 859.894 535.025V427.249C859.894 419.71 857.774 416.334 855.534 414.592L855.289 414.401L855.058 414.196C852.231 411.702 847.706 409.848 840.208 409.848C834.978 409.848 829.72 410.498 824.417 411.819C821.599 412.565 819.095 413.508 816.869 414.616V574.89L809.743 577.028C805.905 578.18 800.38 579.174 793.606 580.098L793.605 580.097C786.726 581.076 779.574 581.56 772.16 581.56C765.019 581.56 758.369 581.074 752.248 580.054L752.201 580.046L752.154 580.037C745.869 578.928 740.106 576.672 735.128 573.063L734.648 572.71C729.707 569.004 725.906 564.189 723.17 558.528L722.909 557.979L722.744 557.625L722.607 557.261C720.213 550.875 719.23 543.331 719.23 535.025V398.021C719.23 388.502 721.166 379.745 725.858 372.494L725.968 372.325L726.085 372.16C730.501 365.904 736.241 360.407 743.102 355.601L744.184 354.848C755.437 347.118 769.072 341.011 784.866 336.366L784.892 336.358L784.916 336.352C801.782 331.486 820.239 329.109 840.208 329.109Z" fill="#0073F0" stroke="white" stroke-width="20"/>
<path d="M487.165 329.109C498.9 329.109 509.968 330.057 520.343 331.989C531.014 333.618 540.575 336.261 548.876 340.065C557.367 343.957 564.484 349.267 569.868 356.148C575.682 363.258 578.458 371.767 578.458 381.124C578.458 389.44 576.825 397.196 573.186 404.07C570.187 410.003 566.201 415.137 561.216 419.355L555.646 424.069L549.457 420.201C548.097 419.352 545.396 418.131 540.813 416.699L540.547 416.616L540.285 416.519C535.945 414.891 531.108 413.501 525.752 412.373L525.508 412.322L525.267 412.259C519.841 410.831 514.259 409.686 508.517 408.824L508.44 408.812C503.072 407.965 498.273 407.564 494.016 407.564C484.546 407.564 478.405 408.748 474.785 410.356L474.569 410.452L474.349 410.538C473.206 410.983 472.696 411.366 472.515 411.527C472.585 411.587 472.68 411.662 472.805 411.749L473.067 411.92C474.447 412.757 478.016 414.184 484.977 415.761L486.521 416.101L486.628 416.124L500.785 419.321L500.801 419.324L500.816 419.328C530.593 426.152 553.436 435.937 567.597 449.697C582.249 463.33 589.419 481.122 589.419 502.145C589.419 527.779 579.759 548.692 560.341 563.76L559.409 564.473C539.594 579.42 511.5 586.127 476.661 586.127C464.232 586.127 452.529 585.295 441.575 583.601L439.395 583.25C427.782 581.315 417.445 578.359 408.533 574.246L408.319 574.147L408.11 574.038C399.718 569.674 392.639 564.168 387.135 557.407L386.606 556.749L386.504 556.618L386.405 556.484C380.747 548.806 378.062 539.824 378.062 530.002C378.062 521.397 379.845 513.408 384.045 506.604C387.648 500.495 392.085 495.269 397.411 491.084L402.62 486.992L408.42 490.191C416.644 494.729 426.118 498.908 436.886 502.699C447.256 505.955 459.406 507.672 473.464 507.672C482.225 507.672 487.353 506.349 490.026 504.846L490.138 504.783L490.25 504.724C491.864 503.869 492.437 503.204 492.592 502.986C492.63 502.932 492.649 502.897 492.657 502.881C492.665 502.866 492.667 502.857 492.669 502.852C492.671 502.846 492.676 502.829 492.681 502.796C492.686 502.761 492.693 502.698 492.693 502.601C492.693 501.945 492.566 501.722 492.544 501.682C492.519 501.637 492.389 501.402 491.898 501.038L491.666 500.875C489.803 499.633 485.419 497.932 477.187 496.462L477.085 496.443L476.983 496.423L463.282 493.683V493.682C436.026 488.351 414.374 479.832 399.453 467.341L399.357 467.26L399.263 467.177C383.863 453.611 376.691 434.625 376.691 411.722C376.691 398.964 379.464 387.125 385.175 376.418L385.712 375.43C391.325 365.274 399.093 356.802 408.873 350.058L409.806 349.423C419.497 342.911 430.748 337.973 443.411 334.491L443.441 334.482L443.471 334.475C456.917 330.867 471.503 329.109 487.165 329.109Z" fill="#0073F0" stroke="white" stroke-width="20"/>
<path d="M703.18 237.775C718.186 237.775 731.152 242.507 740.958 252.688C750.746 262.529 755.653 274.807 755.653 288.877C755.653 302.966 750.733 315.258 740.918 325.106C732.034 334.309 720.562 339.047 707.331 339.853C711.286 340.089 715.021 340.507 718.524 341.121H718.525C725.248 342.241 731.398 344.577 736.582 348.465L737.082 348.848C742.106 352.77 745.701 357.969 748.032 364.022C750.89 370.341 752 377.915 752 386.149V580.364L743.788 581.857C740.255 582.5 735.132 583.273 728.515 584.177C721.577 585.479 714.499 586.129 707.29 586.129C700.149 586.129 693.499 585.642 687.379 584.622L687.331 584.614L687.284 584.606C680.999 583.497 675.236 581.24 670.258 577.632L669.778 577.278C664.837 573.572 661.036 568.758 658.301 563.098L658.039 562.547L657.874 562.194L657.737 561.829C655.343 555.443 654.36 547.899 654.36 539.594V345.38L662.572 343.887L663.968 343.639C667.357 343.051 671.855 342.358 677.412 341.563C683.746 340.424 690.094 339.782 696.451 339.644C684.247 338.407 673.583 333.704 665.054 325.176L664.984 325.106L664.916 325.035C655.41 315.149 650.707 302.877 650.707 288.877C650.707 274.876 655.41 262.604 664.916 252.718L664.984 252.647L665.054 252.578C675.116 242.516 688.15 237.775 703.18 237.775Z" fill="#0073F0" stroke="white" stroke-width="20"/>
<path d="M580.808 294.855C595.095 294.856 607.602 297.401 617.175 303.69C629.35 311.107 633.28 325.741 633.28 341.847V361.074H689.044L691.887 366.285C694.117 370.373 696 375.239 697.625 380.704C699.847 386.774 700.872 393.349 700.872 400.302C700.872 412.008 698.273 422.768 690.986 430.307L690.636 430.664C683.787 437.513 674.772 440.442 664.84 440.442H633.28V499.401C633.28 505.122 634.898 507.086 636.168 507.995C639.14 509.862 644.106 511.322 652.053 511.322C656.082 511.322 660.285 511.057 664.665 510.521C669.077 509.683 672.783 508.742 675.835 507.725L682.373 505.546L686.737 510.879C690.024 514.896 692.722 519.386 694.865 524.294C697.819 529.971 699.045 536.428 699.045 543.243C699.045 557.759 693.326 570.033 682.176 579.261C670.755 588.956 652.398 592.518 630.131 592.518C601.941 592.518 578.641 586.117 561.618 571.933L561.578 571.899L561.538 571.865C544.125 557.046 536.555 533.836 536.555 504.882V301.784L543.924 299.774C547.791 298.72 552.892 297.749 559.034 296.823C566.03 295.504 573.293 294.855 580.808 294.855Z" fill="#0073F0" stroke="white" stroke-width="20"/>
<path d="M284.97 332.733C301.531 328.295 317.481 326.702 332.741 328.147L332.74 328.149C348.043 329.491 362.056 333.309 374.638 339.744C387.484 346.086 398.42 354.888 407.365 366.086C416.691 377.31 423.303 390.397 427.267 405.19C430.384 416.822 429.913 428.061 424.172 437.735L423.894 438.194C418.361 447.207 409.597 453.829 398.7 458.541L398.701 458.541L307.728 498.132C310.609 499.781 313.937 501.009 317.782 501.806C327.332 503.503 337.888 502.942 349.596 499.805C360.829 496.795 370.88 492.639 379.807 487.386C389.341 481.525 396.391 476.017 401.251 470.927L405.51 466.465L411.408 468.269C418.553 470.454 424.952 474.378 430.596 479.747C436.506 485.369 440.629 492.108 442.707 499.866C444.898 508.041 445.007 516.159 442.614 523.947C440.236 531.685 435.586 538.448 429.256 544.29L429.257 544.29C420.547 552.407 410.265 559.054 398.53 564.296L397.389 564.798C385.712 569.883 374.448 573.896 363.609 576.801C345.378 581.685 327.556 583.809 310.183 583.076L310.064 583.071L309.946 583.063C292.674 581.923 276.492 577.725 261.495 570.42L261.435 570.392L261.376 570.362C246.955 563.1 234.268 552.697 223.293 539.351L222.237 538.05L222.184 537.984L222.133 537.918C211.035 523.602 202.828 505.945 197.283 485.25C191.817 464.852 190.227 445.953 192.975 428.756L192.982 428.708L192.99 428.662C195.884 411.593 201.665 396.476 210.523 383.54C219.122 370.573 230.071 359.875 243.292 351.501C256.217 342.976 270.121 336.711 284.97 332.733ZM304.804 406.75C298.853 408.345 294.354 410.605 290.997 413.299C287.658 416.14 285.334 419.187 283.809 422.421L283.724 422.6L283.633 422.777C282.204 425.519 281.229 428.508 280.736 431.801L327.939 410.489C326.955 409.722 325.853 408.947 324.62 408.169L324.063 407.823C319.954 405.308 313.976 404.293 304.804 406.75Z" fill="#0073F0" stroke="white" stroke-width="20"/>
<path d="M254.413 241.164L257.36 245.795L257.664 246.279C260.731 251.25 263.086 257.411 264.944 264.391C267.38 271.807 268.575 279.569 268.575 287.625C268.575 302.64 265.363 315.891 256.53 324.724L256.529 324.723C248.51 332.741 237.86 336.231 225.866 336.231H123.262V376.821H235.784L238.779 380.938L239.13 381.429C242.677 386.46 245.295 392.574 247.222 399.428C249.676 406.87 250.88 414.66 250.88 422.746C250.88 437.262 247.73 450.108 239.244 458.893L238.836 459.308C230.817 467.327 220.165 470.815 208.171 470.815H124.334V581.59L116.965 583.6C112.306 584.87 105.456 586.011 96.8066 587.092L96.8057 587.091C88.1764 588.214 79.5406 588.777 70.9004 588.777C62.2122 588.777 54.2132 588.03 46.9775 586.443C39.8981 585.168 33.455 582.62 27.9043 578.597L27.3652 578.199C21.5328 573.825 17.3379 567.937 14.6094 560.981L14.3506 560.306C11.6248 553.037 10.4961 544.206 10.4961 534.273V301.03C10.4961 283.619 15.6261 268.702 26.8301 257.498C38.0343 246.294 52.9519 241.164 70.3643 241.164H254.413Z" fill="#0073F0" stroke="white" stroke-width="20"/>
</svg>
