<svg width="45" height="44" viewBox="0 0 45 44" fill="none" xmlns="http://www.w3.org/2000/svg">
<ellipse cx="21.8383" cy="40" rx="4.57068" ry="2" fill="#4E4E4E" fill-opacity="0.36"/>
<mask id="mask0_3947_10287" style="mask-type:alpha" maskUnits="userSpaceOnUse" x="0" y="0" width="45" height="44">
<rect width="44.6911" height="44" fill="#D9D9D9"/>
</mask>
<g mask="url(#mask0_3947_10287)">
<path d="M23.2826 39.5802C22.5497 40.2146 21.4632 40.2146 20.7302 39.5802C16.3695 35.8058 13.0629 32.2798 10.8104 29.0021C8.34304 25.4118 7.10938 22.0889 7.10938 19.0333C7.10938 14.45 8.60684 10.7986 11.6018 8.07917C14.5967 5.35972 18.0649 4 22.0064 4C25.9479 4 29.4161 5.35972 32.4111 8.07917C35.406 10.7986 36.9034 14.45 36.9034 19.0333C36.9034 22.0889 35.6698 25.4118 33.2025 29.0021C30.9499 32.2798 27.6433 35.8058 23.2826 39.5802Z" fill="#A4EE73"/>
<mask id="mask1_3947_10287" style="mask-type:alpha" maskUnits="userSpaceOnUse" x="15" y="11" width="14" height="14">
<rect x="15" y="11" width="14" height="14" fill="#D9D9D9"/>
</mask>
<g mask="url(#mask1_3947_10287)">
<path d="M16.1673 23.8337C16.4493 23.1142 16.6364 22.3729 16.7288 21.6097C16.8211 20.8465 16.877 20.0809 16.8965 19.3128C16.5173 19.167 16.2038 18.9239 15.9559 18.5837C15.7079 18.2434 15.584 17.8545 15.584 17.417V16.2503C16.702 15.8809 17.842 15.317 19.0038 14.5587C20.1656 13.8003 21.1645 13.0031 22.0007 12.167C22.8368 13.0031 23.8357 13.8003 24.9975 14.5587C26.1593 15.317 27.2993 15.8809 28.4173 16.2503V17.417C28.4173 17.8545 28.2934 18.2434 28.0454 18.5837C27.7975 18.9239 27.484 19.167 27.1048 19.3128C27.1243 20.0809 27.1802 20.8465 27.2725 21.6097C27.3649 22.3729 27.552 23.1142 27.834 23.8337H16.1673ZM18.4423 16.2503H25.559C24.8007 15.8225 24.1177 15.3826 23.51 14.9305C22.9024 14.4785 22.3993 14.0823 22.0007 13.742C21.602 14.0823 21.0989 14.4785 20.4913 14.9305C19.8836 15.3826 19.2007 15.8225 18.4423 16.2503ZM23.459 18.292C23.702 18.292 23.9086 18.2069 24.0788 18.0368C24.2489 17.8666 24.334 17.66 24.334 17.417H22.584C22.584 17.66 22.6691 17.8666 22.8392 18.0368C23.0093 18.2069 23.2159 18.292 23.459 18.292ZM20.5423 18.292C20.7854 18.292 20.992 18.2069 21.1621 18.0368C21.3322 17.8666 21.4173 17.66 21.4173 17.417H19.6673C19.6673 17.66 19.7524 17.8666 19.9225 18.0368C20.0927 18.2069 20.2993 18.292 20.5423 18.292ZM17.6257 18.292C17.8687 18.292 18.0753 18.2069 18.2454 18.0368C18.4156 17.8666 18.5007 17.66 18.5007 17.417H16.7507C16.7507 17.66 16.8357 17.8666 17.0059 18.0368C17.176 18.2069 17.3826 18.292 17.6257 18.292ZM17.7132 22.667H19.2736C19.3611 22.0837 19.4291 21.5052 19.4777 20.9316C19.5263 20.358 19.5652 19.7795 19.5944 19.1962C19.5069 19.1475 19.4194 19.0965 19.3319 19.043C19.2444 18.9896 19.1618 18.9239 19.084 18.8462C18.9382 18.992 18.7802 19.1111 18.61 19.2035C18.4399 19.2958 18.2576 19.3663 18.0632 19.4149C18.0437 19.9691 18.0097 20.516 17.9611 21.0555C17.9125 21.5951 17.8298 22.1323 17.7132 22.667ZM20.4548 22.667H23.5465C23.4687 22.1323 23.4079 21.5975 23.3642 21.0628C23.3204 20.5281 23.284 19.9885 23.2548 19.4441C23.002 19.4246 22.7711 19.3639 22.5621 19.2618C22.3531 19.1597 22.1659 19.026 22.0007 18.8607C21.8354 19.026 21.6434 19.1597 21.4246 19.2618C21.2059 19.3639 20.9798 19.4246 20.7465 19.4441C20.7173 19.9885 20.6809 20.5281 20.6371 21.0628C20.5934 21.5975 20.5326 22.1323 20.4548 22.667ZM24.7277 22.667H26.2882C26.1715 22.1323 26.0888 21.5951 26.0402 21.0555C25.9916 20.516 25.9576 19.9691 25.9382 19.4149C25.7437 19.3663 25.559 19.2958 25.384 19.2035C25.209 19.1111 25.0534 18.992 24.9173 18.8462C24.8395 18.9239 24.7569 18.9896 24.6694 19.043C24.5819 19.0965 24.4944 19.1475 24.4069 19.1962C24.4361 19.7795 24.4774 20.358 24.5309 20.9316C24.5843 21.5052 24.65 22.0837 24.7277 22.667ZM26.3757 18.292C26.6187 18.292 26.8253 18.2069 26.9954 18.0368C27.1656 17.8666 27.2507 17.66 27.2507 17.417H25.5007C25.5007 17.66 25.5857 17.8666 25.7559 18.0368C25.926 18.2069 26.1326 18.292 26.3757 18.292Z" fill="white"/>
</g>
<path d="M22 12.75L23.5155 16.25H20.4845L22 12.75Z" fill="white"/>
<path d="M18.4995 23.2497C18.7328 23.0163 18.9856 20.0413 19.0828 18.583L20.2497 18.8747C20.0552 20.2358 19.6662 23.0163 19.6662 23.2497C19.6662 23.5413 18.2078 23.5413 18.4995 23.2497Z" fill="white"/>
<path d="M25.5005 23.2497C25.2672 23.0163 25.0144 20.0413 24.9172 18.583L23.7503 18.8747C23.9448 20.2358 24.3338 23.0163 24.3338 23.2497C24.3338 23.5413 25.7922 23.5413 25.5005 23.2497Z" fill="white"/>
</g>
</svg>
