<svg width="45" height="44" viewBox="0 0 45 44" fill="none" xmlns="http://www.w3.org/2000/svg">
<ellipse cx="21.8383" cy="40" rx="4.57068" ry="2" fill="#4E4E4E" fill-opacity="0.36"/>
<mask id="mask0_3947_10215" style="mask-type:alpha" maskUnits="userSpaceOnUse" x="0" y="0" width="45" height="44">
<rect width="44.6911" height="44" fill="#D9D9D9"/>
</mask>
<g mask="url(#mask0_3947_10215)">
<path d="M23.2826 39.5802C22.5497 40.2146 21.4632 40.2146 20.7302 39.5802C16.3695 35.8058 13.0629 32.2798 10.8104 29.0021C8.34304 25.4118 7.10938 22.0889 7.10938 19.0333C7.10938 14.45 8.60684 10.7986 11.6018 8.07917C14.5967 5.35972 18.0649 4 22.0064 4C25.9479 4 29.4161 5.35972 32.4111 8.07917C35.406 10.7986 36.9034 14.45 36.9034 19.0333C36.9034 22.0889 35.6698 25.4118 33.2025 29.0021C30.9499 32.2798 27.6433 35.8058 23.2826 39.5802Z" fill="#C840FF"/>
<mask id="mask1_3947_10215" style="mask-type:alpha" maskUnits="userSpaceOnUse" x="15" y="12" width="14" height="14">
<rect x="15" y="12" width="14" height="14" fill="#D9D9D9"/>
</mask>
<g mask="url(#mask1_3947_10215)">
<path d="M20.25 24.2503V21.3337C19.6472 21.285 19.0566 21.217 18.4781 21.1295C17.8997 21.042 17.3236 20.9156 16.75 20.7503L17.0417 19.5837C17.8486 19.8073 18.6653 19.9604 19.4917 20.043C20.3181 20.1257 21.1542 20.167 22 20.167C22.8361 20.167 23.6674 20.1257 24.4938 20.043C25.3201 19.9604 26.1417 19.8073 26.9583 19.5837L27.25 20.7503C26.6667 20.9156 26.0858 21.042 25.5073 21.1295C24.9288 21.217 24.3431 21.285 23.75 21.3337V24.2503H20.25ZM22 19.5837C21.6694 19.5837 21.3924 19.4719 21.1687 19.2482C20.9451 19.0246 20.8333 18.7475 20.8333 18.417C20.8333 18.0962 20.9451 17.8215 21.1687 17.593C21.3924 17.3646 21.6694 17.2503 22 17.2503C22.3208 17.2503 22.5955 17.3646 22.824 17.593C23.0524 17.8215 23.1667 18.0962 23.1667 18.417C23.1667 18.7475 23.0524 19.0246 22.824 19.2482C22.5955 19.4719 22.3208 19.5837 22 19.5837ZM17.625 17.8337C17.3722 17.8337 17.1632 17.751 16.9979 17.5857C16.8326 17.4205 16.75 17.2114 16.75 16.9587C16.75 16.7156 16.8326 16.509 16.9979 16.3389C17.1632 16.1687 17.3722 16.0837 17.625 16.0837C17.8681 16.0837 18.0747 16.1687 18.2448 16.3389C18.4149 16.509 18.5 16.7156 18.5 16.9587C18.5 17.2114 18.4149 17.4205 18.2448 17.5857C18.0747 17.751 17.8681 17.8337 17.625 17.8337ZM26.375 17.8337C26.1222 17.8337 25.9132 17.751 25.7479 17.5857C25.5826 17.4205 25.5 17.2114 25.5 16.9587C25.5 16.7156 25.5826 16.509 25.7479 16.3389C25.9132 16.1687 26.1222 16.0837 26.375 16.0837C26.6181 16.0837 26.8247 16.1687 26.9948 16.3389C27.1649 16.509 27.25 16.7156 27.25 16.9587C27.25 17.2114 27.1649 17.4205 26.9948 17.5857C26.8247 17.751 26.6181 17.8337 26.375 17.8337ZM19.2292 15.6462C18.9764 15.6462 18.7674 15.5635 18.6021 15.3982C18.4368 15.233 18.3542 15.0239 18.3542 14.7712C18.3542 14.5281 18.4368 14.3215 18.6021 14.1514C18.7674 13.9812 18.9764 13.8962 19.2292 13.8962C19.4722 13.8962 19.6788 13.9812 19.849 14.1514C20.0191 14.3215 20.1042 14.5281 20.1042 14.7712C20.1042 15.0239 20.0191 15.233 19.849 15.3982C19.6788 15.5635 19.4722 15.6462 19.2292 15.6462ZM24.7708 15.6462C24.5181 15.6462 24.309 15.5635 24.1437 15.3982C23.9785 15.233 23.8958 15.0239 23.8958 14.7712C23.8958 14.5281 23.9785 14.3215 24.1437 14.1514C24.309 13.9812 24.5181 13.8962 24.7708 13.8962C25.0139 13.8962 25.2205 13.9812 25.3906 14.1514C25.5608 14.3215 25.6458 14.5281 25.6458 14.7712C25.6458 15.0239 25.5608 15.233 25.3906 15.3982C25.2205 15.5635 25.0139 15.6462 24.7708 15.6462ZM22 14.917C21.7472 14.917 21.5382 14.8344 21.3729 14.6691C21.2076 14.5038 21.125 14.2948 21.125 14.042C21.125 13.7989 21.2076 13.5923 21.3729 13.4222C21.5382 13.2521 21.7472 13.167 22 13.167C22.2431 13.167 22.4497 13.2521 22.6198 13.4222C22.7899 13.5923 22.875 13.7989 22.875 14.042C22.875 14.2948 22.7899 14.5038 22.6198 14.6691C22.4497 14.8344 22.2431 14.917 22 14.917Z" fill="white"/>
</g>
</g>
</svg>
