<svg width="45" height="44" viewBox="0 0 45 44" fill="none" xmlns="http://www.w3.org/2000/svg">
<ellipse cx="21.8383" cy="40" rx="4.57068" ry="2" fill="#4E4E4E" fill-opacity="0.36"/>
<mask id="mask0_3947_10188" style="mask-type:alpha" maskUnits="userSpaceOnUse" x="0" y="0" width="45" height="44">
<rect width="44.6911" height="44" fill="#D9D9D9"/>
</mask>
<g mask="url(#mask0_3947_10188)">
<path d="M23.2826 39.5802C22.5497 40.2146 21.4632 40.2146 20.7302 39.5802C16.3695 35.8058 13.0629 32.2798 10.8104 29.0021C8.34304 25.4118 7.10938 22.0889 7.10938 19.0333C7.10938 14.45 8.60684 10.7986 11.6018 8.07917C14.5967 5.35972 18.0649 4 22.0064 4C25.9479 4 29.4161 5.35972 32.4111 8.07917C35.406 10.7986 36.9034 14.45 36.9034 19.0333C36.9034 22.0889 35.6698 25.4118 33.2025 29.0021C30.9499 32.2798 27.6433 35.8058 23.2826 39.5802Z" fill="#FF4F5B"/>
<mask id="mask1_3947_10188" style="mask-type:alpha" maskUnits="userSpaceOnUse" x="15" y="12" width="14" height="14">
<rect x="15" y="12" width="14" height="14" fill="#D9D9D9"/>
</mask>
<g mask="url(#mask1_3947_10188)">
<path d="M20.8333 24.25C20.1917 24.25 19.6424 24.0215 19.1854 23.5646C18.7285 23.1076 18.5 22.5583 18.5 21.9167C18.5 21.275 18.7285 20.7257 19.1854 20.2687C19.6424 19.8118 20.1917 19.5833 20.8333 19.5833C21.0569 19.5833 21.2635 19.6101 21.4531 19.6635C21.6427 19.717 21.825 19.7972 22 19.9042V13.75H25.5V16.0833H23.1667V21.9167C23.1667 22.5583 22.9382 23.1076 22.4813 23.5646C22.0243 24.0215 21.475 24.25 20.8333 24.25Z" fill="white"/>
</g>
</g>
</svg>
