<svg width="45" height="44" viewBox="0 0 45 44" fill="none" xmlns="http://www.w3.org/2000/svg">
<ellipse cx="21.8383" cy="40" rx="4.57068" ry="2" fill="#4E4E4E" fill-opacity="0.36"/>
<mask id="mask0_3947_10323" style="mask-type:alpha" maskUnits="userSpaceOnUse" x="0" y="0" width="45" height="44">
<rect width="44.6911" height="44" fill="#D9D9D9"/>
</mask>
<g mask="url(#mask0_3947_10323)">
<path d="M23.2826 39.5802C22.5497 40.2146 21.4632 40.2146 20.7302 39.5802C16.3695 35.8058 13.0629 32.2798 10.8104 29.0021C8.34304 25.4118 7.10938 22.0889 7.10938 19.0333C7.10938 14.45 8.60684 10.7986 11.6018 8.07917C14.5967 5.35972 18.0649 4 22.0064 4C25.9479 4 29.4161 5.35972 32.4111 8.07917C35.406 10.7986 36.9034 14.45 36.9034 19.0333C36.9034 22.0889 35.6698 25.4118 33.2025 29.0021C30.9499 32.2798 27.6433 35.8058 23.2826 39.5802Z" fill="#444444"/>
<mask id="mask1_3947_10323" style="mask-type:alpha" maskUnits="userSpaceOnUse" x="15" y="11" width="15" height="15">
<rect x="15.2363" y="11.332" width="14.2199" height="14" fill="#D9D9D9"/>
</mask>
<g mask="url(#mask1_3947_10323)">
</g>
<path d="M24.334 20.9998H16.334C15.7807 20.9998 15.334 21.4185 15.334 21.9373C15.334 22.456 15.7807 22.8748 16.334 22.8748H24.334C24.8873 22.8748 25.334 22.456 25.334 21.9373C25.334 21.4185 24.8873 20.9998 24.334 20.9998ZM26.5673 15.831C26.9807 15.4498 27.234 14.9248 27.234 14.3435C27.234 13.3998 26.5673 12.5998 25.6473 12.3373C25.5724 12.3168 25.4935 12.3129 25.4167 12.3258C25.3399 12.3387 25.2674 12.3681 25.2048 12.4117C25.1421 12.4553 25.0911 12.5119 25.0557 12.577C25.0203 12.6422 25.0014 12.7141 25.0007 12.7873C25.0007 12.9935 25.1407 13.1748 25.3473 13.231C25.8607 13.3748 26.234 13.8185 26.234 14.3435C26.234 14.856 25.8807 15.2873 25.3873 15.4435C25.1673 15.5123 25.0007 15.6873 25.0007 15.906V15.9998C25.0007 16.231 25.1806 16.431 25.4273 16.4685C26.714 16.6623 27.6673 17.7185 27.6673 18.981V19.906C27.6673 20.1623 27.894 20.3748 28.1673 20.3748C28.4406 20.3748 28.6673 20.1623 28.6673 19.906V18.9748C28.6673 17.5873 27.814 16.3873 26.5673 15.831ZM24.6873 17.3748H23.8207C23.1407 17.3748 22.5273 16.9185 22.4407 16.281C22.3607 15.6873 22.7473 15.2185 23.3073 15.0748C23.5207 15.0185 23.6673 14.8373 23.6673 14.6248C23.6673 14.3185 23.3607 14.0873 23.0473 14.1748C22.5753 14.3026 22.1615 14.5727 21.8698 14.9433C21.5781 15.3139 21.425 15.7643 21.434 16.2248C21.454 17.3748 22.514 18.281 23.7407 18.281H24.6873C25.3873 18.281 26.0007 18.7435 26.0007 19.5623V19.906C26.0007 20.1623 26.2207 20.3748 26.5007 20.3748H26.5073C26.7807 20.3748 27.0073 20.1685 27.0073 19.906V19.3498C27.0007 18.2185 25.934 17.3748 24.6873 17.3748ZM26.0007 20.9998H27.0007V22.8748H26.0007V20.9998ZM27.6673 20.9998H28.6673V22.8748H27.6673V20.9998Z" fill="white"/>
</g>
</svg>
