<svg width="45" height="44" viewBox="0 0 45 44" fill="none" xmlns="http://www.w3.org/2000/svg">
<ellipse cx="21.8383" cy="40" rx="4.57068" ry="2" fill="#4E4E4E" fill-opacity="0.36"/>
<mask id="mask0_3947_10278" style="mask-type:alpha" maskUnits="userSpaceOnUse" x="0" y="0" width="45" height="44">
<rect width="44.6911" height="44" fill="#D9D9D9"/>
</mask>
<g mask="url(#mask0_3947_10278)">
<path d="M23.2826 39.5802C22.5497 40.2146 21.4632 40.2146 20.7302 39.5802C16.3695 35.8058 13.0629 32.2798 10.8104 29.0021C8.34304 25.4118 7.10938 22.0889 7.10938 19.0333C7.10938 14.45 8.60684 10.7986 11.6018 8.07917C14.5967 5.35972 18.0649 4 22.0064 4C25.9479 4 29.4161 5.35972 32.4111 8.07917C35.406 10.7986 36.9034 14.45 36.9034 19.0333C36.9034 22.0889 35.6698 25.4118 33.2025 29.0021C30.9499 32.2798 27.6433 35.8058 23.2826 39.5802Z" fill="#A4EE73"/>
<mask id="mask1_3947_10278" style="mask-type:alpha" maskUnits="userSpaceOnUse" x="15" y="12" width="14" height="14">
<rect x="15" y="12" width="14" height="14" fill="#D9D9D9"/>
</mask>
<g mask="url(#mask1_3947_10278)">
<path d="M21.9993 21.9163C22.1646 21.9163 22.3032 21.8604 22.415 21.7486C22.5268 21.6368 22.5827 21.4983 22.5827 21.333C22.5827 21.1677 22.5268 21.0292 22.415 20.9174C22.3032 20.8056 22.1646 20.7497 21.9993 20.7497C21.8341 20.7497 21.6955 20.8056 21.5837 20.9174C21.4719 21.0292 21.416 21.1677 21.416 21.333C21.416 21.4983 21.4719 21.6368 21.5837 21.7486C21.6955 21.8604 21.8341 21.9163 21.9993 21.9163ZM21.9993 19.583C22.1646 19.583 22.3032 19.5271 22.415 19.4153C22.5268 19.3035 22.5827 19.165 22.5827 18.9997C22.5827 18.8344 22.5268 18.6959 22.415 18.584C22.3032 18.4722 22.1646 18.4163 21.9993 18.4163C21.8341 18.4163 21.6955 18.4722 21.5837 18.584C21.4719 18.6959 21.416 18.8344 21.416 18.9997C21.416 19.165 21.4719 19.3035 21.5837 19.4153C21.6955 19.5271 21.8341 19.583 21.9993 19.583ZM21.9993 17.2497C22.1646 17.2497 22.3032 17.1938 22.415 17.082C22.5268 16.9702 22.5827 16.8316 22.5827 16.6663C22.5827 16.5011 22.5268 16.3625 22.415 16.2507C22.3032 16.1389 22.1646 16.083 21.9993 16.083C21.8341 16.083 21.6955 16.1389 21.5837 16.2507C21.4719 16.3625 21.416 16.5011 21.416 16.6663C21.416 16.8316 21.4719 16.9702 21.5837 17.082C21.6955 17.1938 21.8341 17.2497 21.9993 17.2497ZM26.666 23.6663H17.3327C17.0118 23.6663 16.7372 23.5521 16.5087 23.3236C16.2803 23.0952 16.166 22.8205 16.166 22.4997V20.1663C16.4868 20.1663 16.7615 20.0521 16.99 19.8236C17.2184 19.5952 17.3327 19.3205 17.3327 18.9997C17.3327 18.6788 17.2184 18.4042 16.99 18.1757C16.7615 17.9472 16.4868 17.833 16.166 17.833V15.4997C16.166 15.1788 16.2803 14.9042 16.5087 14.6757C16.7372 14.4472 17.0118 14.333 17.3327 14.333H26.666C26.9868 14.333 27.2615 14.4472 27.49 14.6757C27.7184 14.9042 27.8327 15.1788 27.8327 15.4997V17.833C27.5118 17.833 27.2372 17.9472 27.0087 18.1757C26.7803 18.4042 26.666 18.6788 26.666 18.9997C26.666 19.3205 26.7803 19.5952 27.0087 19.8236C27.2372 20.0521 27.5118 20.1663 27.8327 20.1663V22.4997C27.8327 22.8205 27.7184 23.0952 27.49 23.3236C27.2615 23.5521 26.9868 23.6663 26.666 23.6663Z" fill="white"/>
</g>
</g>
</svg>
