<svg width="32" height="32" viewBox="0 0 32 32" fill="none" xmlns="http://www.w3.org/2000/svg">
<mask id="mask0_2917_8496" style="mask-type:alpha" maskUnits="userSpaceOnUse" x="0" y="0" width="32" height="32">
<rect width="32" height="32" fill="#D9D9D9"/>
</mask>
<g mask="url(#mask0_2917_8496)">
<path d="M14.6667 21.3333C14.6667 22.0697 15.2637 22.6667 16.0001 22.6667V22.6667C16.7365 22.6667 17.3334 22.0697 17.3334 21.3333V16C17.3334 15.2636 16.7365 14.6667 16.0001 14.6667V14.6667C15.2637 14.6667 14.6667 15.2636 14.6667 16V21.3333ZM16.0001 12C16.3779 12 16.6945 11.8722 16.9501 11.6167C17.2056 11.3611 17.3334 11.0444 17.3334 10.6667C17.3334 10.2889 17.2056 9.97221 16.9501 9.71666C16.6945 9.4611 16.3779 9.33332 16.0001 9.33332C15.6223 9.33332 15.3056 9.4611 15.0501 9.71666C14.7945 9.97221 14.6667 10.2889 14.6667 10.6667C14.6667 11.0444 14.7945 11.3611 15.0501 11.6167C15.3056 11.8722 15.6223 12 16.0001 12ZM16.0001 29.3333C14.1556 29.3333 12.4223 28.9833 10.8001 28.2833C9.17786 27.5833 7.76675 26.6333 6.56675 25.4333C5.36675 24.2333 4.41675 22.8222 3.71675 21.2C3.01675 19.5778 2.66675 17.8444 2.66675 16C2.66675 14.1555 3.01675 12.4222 3.71675 10.8C4.41675 9.17777 5.36675 7.76666 6.56675 6.56666C7.76675 5.36666 9.17786 4.41666 10.8001 3.71666C12.4223 3.01666 14.1556 2.66666 16.0001 2.66666C17.8445 2.66666 19.5779 3.01666 21.2001 3.71666C22.8223 4.41666 24.2334 5.36666 25.4334 6.56666C26.6334 7.76666 27.5834 9.17777 28.2834 10.8C28.9834 12.4222 29.3334 14.1555 29.3334 16C29.3334 17.8444 28.9834 19.5778 28.2834 21.2C27.5834 22.8222 26.6334 24.2333 25.4334 25.4333C24.2334 26.6333 22.8223 27.5833 21.2001 28.2833C19.5779 28.9833 17.8445 29.3333 16.0001 29.3333ZM16.0001 26.6667C18.9779 26.6667 21.5001 25.6333 23.5668 23.5667C25.6334 21.5 26.6667 18.9778 26.6667 16C26.6667 13.0222 25.6334 10.5 23.5668 8.43332C21.5001 6.36666 18.9779 5.33332 16.0001 5.33332C13.0223 5.33332 10.5001 6.36666 8.43342 8.43332C6.36675 10.5 5.33341 13.0222 5.33341 16C5.33341 18.9778 6.36675 21.5 8.43342 23.5667C10.5001 25.6333 13.0223 26.6667 16.0001 26.6667Z" fill="#0073F0"/>
</g>
</svg>
