<svg width="63" height="64" viewBox="0 0 63 64" fill="none" xmlns="http://www.w3.org/2000/svg">
<path d="M20.2982 20.465C20.2982 20.465 10.9901 23.8475 9.94841 33.229C8.95546 42.1707 17.6097 41.0601 19.6484 38.8409C21.6871 36.6216 23.2974 24.5973 23.2974 24.5973L20.2982 20.465Z" fill="white" stroke="#000001" stroke-width="1.01334" stroke-linecap="round" stroke-linejoin="round"/>
<path d="M50.5457 33.6444C51.1447 36.1534 55.0495 43.9744 61.3097 51.6879C62.5707 53.2424 62.8895 54.657 60.9259 55.8365C58.9624 57.016 50.6289 57.5592 46.052 53.6862L50.5457 33.6423V33.6444Z" fill="white" stroke="#000001" stroke-width="1.01334" stroke-linecap="round" stroke-linejoin="round"/>
<path d="M33.0911 55.4777C33.0911 55.4777 33.347 59.2595 32.6099 61.116C31.8728 62.9724 30.3782 62.9906 26.9141 63.0332C23.4499 63.0758 21.9534 62.5063 21.4031 61.0957C20.8528 59.6851 21.596 48.6681 21.596 48.6681L33.0911 55.4777Z" fill="white" stroke="#000001" stroke-width="1.01334" stroke-linecap="round" stroke-linejoin="round"/>
<path d="M38.1023 6.57005C38.1023 6.57005 39.6983 4.70753 42.1736 5.45335C44.6732 6.2093 45.2479 8.55823 44.8539 10.0742C44.1981 12.5934 41.3208 12.9034 41.3208 12.9034L38.1023 6.57005Z" fill="#0D529D" stroke="#000001" stroke-width="1.01334" stroke-linecap="round" stroke-linejoin="round"/>
<path d="M41.7573 12.828C41.7573 12.828 43.2864 10.9088 45.7332 11.6343C48.2044 12.3659 48.8197 14.7493 48.4643 16.2957C47.8734 18.8675 45.0529 19.2262 45.0529 19.2262L41.7573 12.828Z" fill="#0D529D" stroke="#000001" stroke-width="1.01334" stroke-linecap="round" stroke-linejoin="round"/>
<path d="M45.0571 19.7737C45.0571 19.7737 46.5862 17.8544 49.033 18.58C51.5042 19.3116 52.1195 21.695 51.7641 23.2413C51.1732 25.8132 48.3527 26.1719 48.3527 26.1719L45.0571 19.7737Z" fill="#0D529D" stroke="#000001" stroke-width="1.01334" stroke-linecap="round" stroke-linejoin="round"/>
<path d="M32.0737 3.43894C32.0737 3.43894 32.7296 1.30485 35.15 1.02922C37.5969 0.751563 39 2.50058 39.2457 3.90709C39.6559 6.24588 38.1756 6.97955 38.1756 6.97955L32.0758 3.43692L32.0737 3.43894Z" fill="#0D529D" stroke="#000001" stroke-width="1.01334" stroke-linecap="round" stroke-linejoin="round"/>
<path d="M19.7725 21.1173C19.7725 21.1173 20.136 21.5226 20.1319 21.551C20.1177 21.6726 19.9695 21.7111 19.7238 21.8813C19.6669 21.9198 19.6304 21.9381 19.5248 21.9989C19.4943 22.0171 19.4801 22.0556 19.47 22.086C18.7674 24.4998 17.1368 31.1797 17.7968 39.3148C18.5684 48.8341 23.6996 57.0503 33.7083 57.0807C47.967 57.1253 53.5551 49.6124 50.757 34.1671C48.1721 19.9013 42.8621 10.3009 37.2029 5.97593C31.6168 1.70571 25.0581 2.05634 21.0924 4.46201C14.2818 8.59238 15.7317 16.9464 19.7745 21.1213L19.7725 21.1173Z" fill="white"/>
<path d="M28.9121 27.927C39.3188 26.9907 41.6925 40.8856 42.0499 44.0756C42.6773 53.8787 37.0527 54.0732 36.6242 56.4667C36.0922 56.6228 35.5216 56.7383 34.9063 56.8092C28.5486 57.5429 24.8652 52.3749 22.863 45.9746C20.8609 39.5723 20.4385 28.689 28.9121 27.927Z" fill="#0D529D"/>
<path d="M18.4647 26.498C17.8677 29.7651 17.3723 34.315 17.7886 39.4425C18.1419 43.81 19.4252 48.0072 21.6649 51.1607" stroke="#000001" stroke-width="1.01334" stroke-linecap="round" stroke-linejoin="round"/>
<path d="M51.9813 37.2519C51.4452 36.3825 50.9071 35.1847 50.7467 34.295C48.1618 20.0292 42.8518 10.4288 37.1927 6.10386C31.6066 1.83364 25.0478 2.18427 21.0821 4.58994C14.2716 8.72031 15.7214 17.0743 19.7643 21.2493" stroke="#000001" stroke-width="1.01334" stroke-linecap="round" stroke-linejoin="round"/>
<path d="M29.5171 56.6632C30.8024 57.0139 32.1954 57.2044 33.7001 57.2084C39.5684 57.2267 43.9686 55.964 46.9191 53.3962" stroke="#000001" stroke-width="1.01334" stroke-linecap="round" stroke-linejoin="round"/>
<path d="M50.2898 51.5907C50.0461 55.2387 49.6481 60.0034 49.1669 61.1161C48.3648 62.9725 46.7383 62.9908 42.9716 63.0333C39.2049 63.0759 37.5744 62.5064 36.9753 61.0958C36.3763 59.6853 36.7276 55.7089 36.7276 55.7089" fill="white"/>
<path d="M50.2898 51.5907C50.0461 55.2387 49.6481 60.0034 49.1669 61.1161C48.3648 62.9725 46.7383 62.9908 42.9716 63.0333C39.2049 63.0759 37.5744 62.5064 36.9753 61.0958C36.3763 59.6853 36.7276 55.7089 36.7276 55.7089" stroke="#000001" stroke-width="1.01334" stroke-linecap="round" stroke-linejoin="round"/>
<path d="M34.9474 8.32652C35.6581 8.40354 36.2409 8.71968 36.6957 9.27297C37.1384 9.8303 37.3211 10.4667 37.2419 11.1801C37.1627 11.8955 36.848 12.4731 36.2957 12.9149C35.7312 13.3608 35.0936 13.5473 34.3829 13.4682C33.6722 13.3892 33.0874 13.073 32.6447 12.5157C32.1959 11.9644 32.0112 11.33 32.0883 10.6146C32.1675 9.89921 32.4863 9.31959 33.0447 8.87169C33.5971 8.42987 34.2306 8.24748 34.9474 8.32652Z" fill="#385DA4"/>
<path d="M20.1051 7.49399C20.7123 7.56492 21.2077 7.87297 21.5915 8.42017C21.9651 8.97143 22.1134 9.60578 22.0382 10.3212C21.9631 11.0366 21.687 11.6183 21.2098 12.0662C20.7224 12.5181 20.1742 12.7106 19.565 12.6397C18.9518 12.5688 18.4604 12.2587 18.0868 11.7054C17.7091 11.1582 17.5568 10.5279 17.6319 9.8125C17.707 9.09708 17.9852 8.51339 18.4685 8.06144C18.9457 7.61355 19.4919 7.42506 20.1051 7.49599V7.49399Z" fill="#385DA4"/>
<path d="M26.9484 60.6702C26.0692 60.6013 25.6102 61.1242 25.3483 62.3909C25.4173 61.5519 25.0315 60.6419 24.1584 60.6378C23.4172 60.6338 22.806 61.1769 22.5664 62.3625C23.1187 62.6706 23.87 62.8652 24.8792 62.9624C24.997 62.9624 25.1209 62.9624 25.2529 62.9604C26.7129 62.9422 27.651 62.9787 28.5505 62.8733C28.5322 61.6532 27.7728 60.7331 26.9504 60.6702H26.9484Z" fill="white" stroke="#000001" stroke-width="1.01334" stroke-linecap="round" stroke-linejoin="round"/>
<path d="M43.0061 60.6702C42.0497 60.6013 41.5501 61.1242 41.2659 62.3909C41.341 61.5519 40.9207 60.6419 39.9704 60.6378C39.1642 60.6338 38.5002 61.1769 38.2383 62.3625C38.8393 62.6706 39.6556 62.8652 40.7542 62.9624C40.8821 62.9624 41.0161 62.9624 41.1623 62.9604C42.7522 62.9422 43.7695 62.9787 44.7503 62.8733C44.73 61.6532 43.9036 60.7331 43.0081 60.6702H43.0061Z" fill="white" stroke="#000001" stroke-width="1.01334" stroke-linecap="round" stroke-linejoin="round"/>
<path d="M34.0046 35.199C34.0046 35.199 34.7458 39.5199 39.5643 39.7043C44.3829 39.8887 46.1129 37.9127 46.3607 37.4526" fill="white"/>
<path d="M34.0046 35.199C34.0046 35.199 34.7458 39.5199 39.5643 39.7043C44.3829 39.8887 46.1129 37.9127 46.3607 37.4526" stroke="#000001" stroke-width="1.01334" stroke-linecap="round" stroke-linejoin="round"/>
<path d="M32.4858 11.7269C28.2358 12.1606 24.4529 11.8972 21.137 10.9365C21.137 10.9365 21.4598 16.141 27.3505 16.0498C32.8858 15.9647 32.4858 11.7269 32.4858 11.7269Z" fill="#FEFEFF" stroke="#000001" stroke-width="1.01334" stroke-linecap="round" stroke-linejoin="round"/>
<path d="M31.6127 10.1037C31.6127 10.1037 29.641 9.65991 29.7344 9.08636C29.8278 8.51281 31.4766 8.05273 31.4766 8.05273" stroke="#000001" stroke-width="1.01334" stroke-linecap="round" stroke-linejoin="round"/>
<path d="M22.0789 9.44321C22.0789 9.44321 23.6566 9.02977 23.5734 8.45622C23.4901 7.88266 22.158 7.39624 22.158 7.39624" stroke="#000001" stroke-width="1.01334" stroke-linecap="round" stroke-linejoin="round"/>
<path d="M31.5314 11.8429C31.5599 12.9028 31.0786 13.4419 30.4105 13.4115C29.3567 13.3629 29.3689 12.007 29.3689 12.007C29.1313 12.9535 28.6541 13.4723 27.9394 13.4582C27.2246 13.4419 26.7312 12.8664 26.6743 11.8692C28.3922 12.0476 30.0268 12.0699 31.5294 11.8449L31.5314 11.8429Z" fill="white" stroke="#000001" stroke-width="1.01334" stroke-linecap="round" stroke-linejoin="round"/>
<path d="M8.988 25.6541C8.988 25.6541 8.38493 23.8321 10.0581 23.0296C11.7313 22.227 12.5781 23.4856 12.5781 23.4856C12.5781 23.4856 13.8106 21.8379 15.364 22.3405C16.9174 22.8431 16.8951 23.8098 16.8951 23.8098C16.8951 23.8098 18.2677 23.4187 19.3195 24.3834C20.3937 25.3684 19.9632 26.8134 19.9632 26.8134C19.9632 26.8134 21.2466 27.1924 21.4334 28.8968C21.6324 30.7107 20.3064 31.6896 20.3064 31.6896C20.3064 31.6896 21.1004 33.1022 20.1176 34.5168C19.3216 35.6598 18.3022 35.4369 18.3022 35.4369C18.3022 35.4369 18.0829 36.509 16.6961 36.813C15.3092 37.117 14.6838 36.2942 14.6838 36.2942C14.6838 36.2942 13.8837 37.0664 12.6471 36.8617C11.2785 36.6347 11.1546 35.6983 11.1546 35.6983C11.1546 35.6983 9.56267 36.2111 8.65298 35.0924C7.74328 33.9736 8.2631 33.396 8.2631 33.396C8.2631 33.396 6.37264 33.5622 6.2305 31.724C6.08836 29.8879 7.06099 29.5474 7.06099 29.5474C7.06099 29.5474 5.85484 27.926 6.66504 26.6735C7.47524 25.419 8.988 25.6541 8.988 25.6541Z" fill="#F5E663" stroke="#E5B428" stroke-width="1.01334" stroke-linecap="round" stroke-linejoin="round"/>
<path d="M11.3699 27.9527C11.3699 27.9527 10.3546 27.8534 10.2064 29.1849C10.0582 30.5165 10.9902 30.6482 10.9902 30.6482" stroke="#E5B428" stroke-width="1.01334" stroke-linecap="round" stroke-linejoin="round"/>
<path d="M15.0535 32.6343C15.0535 32.6343 15.8596 33.1693 16.5866 32.6343C17.3155 32.0993 17.0475 31.2562 17.0475 31.2562C17.0475 31.2562 17.9958 31.0049 18.1359 29.9591C18.2719 28.9275 17.4678 28.4229 17.4678 28.4229" stroke="#E5B428" stroke-width="1.01334" stroke-linecap="round" stroke-linejoin="round"/>
<path d="M31.1516 25.6541C31.1516 25.6541 30.5485 23.8321 32.2217 23.0296C33.8949 22.227 34.7416 23.4856 34.7416 23.4856C34.7416 23.4856 35.9742 21.8379 37.5276 22.3405C39.081 22.8431 39.0586 23.8098 39.0586 23.8098C39.0586 23.8098 40.4313 23.4187 41.4831 24.3834C42.5573 25.3684 42.1268 26.8134 42.1268 26.8134C42.1268 26.8134 43.4101 27.1924 43.5969 28.8968C43.7959 30.7107 42.47 31.6896 42.47 31.6896C42.47 31.6896 43.2639 33.1022 42.2811 34.5168C41.4852 35.6598 40.4658 35.4369 40.4658 35.4369C40.4658 35.4369 40.2465 36.509 38.8596 36.813C37.4727 37.117 36.8473 36.2942 36.8473 36.2942C36.8473 36.2942 36.0473 37.0664 34.8107 36.8617C33.4421 36.6347 33.3182 35.6983 33.3182 35.6983C33.3182 35.6983 31.7262 36.2111 30.8165 35.0924C29.9068 33.9736 30.4267 33.396 30.4267 33.396C30.4267 33.396 28.5362 33.5622 28.3941 31.724C28.2519 29.8879 29.2246 29.5474 29.2246 29.5474C29.2246 29.5474 28.0184 27.926 28.8286 26.6735C29.6388 25.419 31.1516 25.6541 31.1516 25.6541Z" fill="#F5E663" stroke="#E5B428" stroke-width="1.01334" stroke-linecap="round" stroke-linejoin="round"/>
<path d="M33.5337 27.9519C33.5337 27.9519 32.5185 27.8526 32.3702 29.1841C32.222 30.5156 33.154 30.6474 33.154 30.6474" stroke="#E5B428" stroke-width="1.01334" stroke-linecap="round" stroke-linejoin="round"/>
<path d="M37.219 32.6341C37.219 32.6341 38.0251 33.1691 38.7521 32.6341C39.4811 32.099 39.213 31.2559 39.213 31.2559C39.213 31.2559 40.1613 31.0046 40.3014 29.9588C40.4375 28.9273 39.6333 28.4226 39.6333 28.4226" stroke="#E5B428" stroke-width="1.01334" stroke-linecap="round" stroke-linejoin="round"/>
<path d="M13.8958 3.41187C13.8958 3.41187 10.5372 6.91193 10.4316 12.5481" stroke="#000001" stroke-width="1.01334" stroke-linecap="round" stroke-linejoin="round"/>
<path d="M10.1719 4.39453C10.1719 4.39453 12.0339 5.35314 13.8939 6.31176" stroke="#000001" stroke-width="1.01334" stroke-linecap="round" stroke-linejoin="round"/>
<path d="M8.48657 8.62012C8.48657 8.62012 11.967 9.41458 12.5985 9.53415" stroke="#000001" stroke-width="1.01334" stroke-linecap="round" stroke-linejoin="round"/>
<path d="M4.36241 24.8906C4.36241 24.8906 3.43849 26.7349 3.36133 29.5783" stroke="#000001" stroke-width="1.01334" stroke-linecap="round" stroke-linejoin="round"/>
<path d="M1.4363 26.1981C1.4363 26.1981 0.774341 28.466 1.08299 30.7318" stroke="#000001" stroke-width="1.01334" stroke-linecap="round" stroke-linejoin="round"/>
</svg>
