<svg width="230" height="105" viewBox="0 0 230 105" fill="none" xmlns="http://www.w3.org/2000/svg">
<g clip-path="url(#clip0_5901_16355)">
<path d="M168.887 102.591C170.062 107.512 177.588 125.086 191.162 138.289C198.159 145.095 207.454 147.826 216.594 153.389C222.952 157.259 221.289 162.214 215.453 165.72C209.617 169.226 169.135 173.671 155.531 162.16L168.887 102.585V102.591Z" fill="white" stroke="#0C2243" stroke-width="2.5" stroke-linecap="round" stroke-linejoin="round"/>
<path d="M131.906 22.121C131.906 22.121 136.65 16.5852 144.007 18.8019C151.436 21.0487 153.144 28.0302 151.973 32.5359C150.024 40.0234 141.472 40.945 141.472 40.945L131.906 22.121Z" fill="#0255A9" stroke="#0C2243" stroke-width="2.5" stroke-linecap="round" stroke-linejoin="round"/>
<path d="M142.762 40.7273C142.762 40.7273 147.306 35.0229 154.579 37.1794C161.924 39.3539 163.752 46.4378 162.696 51.0338C160.94 58.6779 152.557 59.7441 152.557 59.7441L142.762 40.7273Z" fill="#0255A9" stroke="#0C2243" stroke-width="2.5" stroke-linecap="round" stroke-linejoin="round"/>
<path d="M152.574 61.365C152.574 61.365 157.119 55.6606 164.391 57.8171C171.736 59.9916 173.565 67.0755 172.509 71.6715C170.752 79.3156 162.369 80.3818 162.369 80.3818L152.574 61.365Z" fill="#0073F0" stroke="#000001" stroke-width="3.01184" stroke-linecap="round" stroke-linejoin="round"/>
<path d="M95.3945 72.232C90.7428 68.0962 66.8644 58.2109 56.1233 57.3586C51.1648 56.9674 48.5451 57.2119 45.9892 61.0752C43.4333 64.9385 40.4045 75.6062 39.8997 81.2509C39.395 86.8887 40.1553 89.257 44.1936 90.3538C48.2319 91.4506 68.1806 96.9696 81.3115 106.499" fill="white"/>
<path d="M95.3945 72.232C90.7428 68.0962 66.8644 58.2109 56.1233 57.3586C51.1648 56.9674 48.5451 57.2119 45.9892 61.0752C43.4333 64.9385 40.4045 75.6062 39.8997 81.2509C39.395 86.8887 40.1553 89.257 44.1936 90.3538C48.2319 91.4506 68.1806 96.9696 81.3115 106.499" stroke="#0C2243" stroke-width="2.5" stroke-linecap="round" stroke-linejoin="round"/>
<path d="M113.988 12.8143C113.988 12.8143 115.938 6.47137 123.132 5.65215C130.404 4.8269 134.574 10.0253 135.305 14.2058C136.524 21.1571 132.124 23.3377 132.124 23.3377L113.994 12.8083L113.988 12.8143Z" fill="#0255A9" stroke="#0C2243" stroke-width="2.5" stroke-linecap="round" stroke-linejoin="round"/>
<path d="M77.418 65.3586C77.418 65.3586 78.4983 66.5634 78.4862 66.6477C78.444 67.0091 78.0034 67.1236 77.2732 67.6296C77.1042 67.744 76.9955 67.7982 76.6817 67.9789C76.5911 68.0331 76.549 68.1475 76.5188 68.2379C74.4306 75.4121 69.5842 95.2662 71.5457 119.445C73.8391 147.739 89.0902 172.159 118.838 172.249C161.217 172.382 177.826 150.052 169.51 104.145C161.827 61.7444 146.045 33.2102 129.225 20.3556C112.622 7.66373 93.1278 8.70585 81.3409 15.856C61.0987 28.1322 65.4079 52.9619 77.4241 65.3707L77.418 65.3586Z" fill="white"/>
<path d="M104.585 85.5979C135.516 82.8149 142.571 124.113 143.633 133.595C145.498 162.731 128.78 163.309 127.507 170.423C125.926 170.887 119.876 171.06 118.047 171.271C99.1505 173.452 92.5568 158.262 86.606 139.239C80.6553 120.21 79.4 87.8628 104.585 85.5979Z" fill="#0255A9"/>
<path d="M73.5301 81.3516C71.7557 91.0617 70.2831 104.585 71.5203 119.825C72.5705 132.806 76.3847 145.281 83.0416 154.654" stroke="#0C2243" stroke-width="2.5" stroke-linecap="round" stroke-linejoin="round"/>
<path d="M173.156 113.313C171.563 110.729 169.963 107.169 169.486 104.525C161.803 62.124 146.021 33.5898 129.201 20.7353C112.598 8.04337 93.1043 9.08548 81.3175 16.2356C61.0753 28.5119 65.3845 53.3415 77.4006 65.7503" stroke="#0C2243" stroke-width="2.5" stroke-linecap="round" stroke-linejoin="round"/>
<path d="M122.529 27.3431C124.641 27.572 126.373 28.5116 127.725 30.1561C129.041 31.8126 129.584 33.7041 129.349 35.8244C129.113 37.9447 128.178 39.6675 126.536 40.9806C124.858 42.3059 122.963 42.8601 120.851 42.6252C118.721 42.3902 117 41.4505 115.685 39.794C114.351 38.1556 113.802 36.2701 114.031 34.1438C114.266 32.0174 115.214 30.2947 116.874 28.9634C118.515 27.6503 120.398 27.1082 122.529 27.3431Z" fill="#0255A9"/>
<path d="M78.4141 24.8675C80.2186 25.0784 81.6912 25.994 82.8319 27.6204C83.9424 29.2588 84.3829 31.1443 84.1596 33.2706C83.9363 35.397 83.1155 37.1258 81.6973 38.457C80.2488 39.8003 78.6193 40.3725 76.8087 40.1617C74.9982 39.9508 73.5255 39.0292 72.4151 37.3848C71.2925 35.7584 70.8399 33.885 71.0632 31.7587C71.2865 29.6323 72.1133 27.8975 73.5497 26.5542C74.968 25.223 76.5914 24.6627 78.4141 24.8736V24.8675Z" fill="#0255A9"/>
<path d="M145.465 65.9664C150.117 61.8306 170.816 51.0584 181.558 50.2061C186.516 49.8148 189.136 50.0593 191.692 53.9226C194.248 57.7859 197.276 68.4536 197.781 74.0983C198.286 79.7361 195.933 81.8614 193.549 83.8483C188.69 87.8969 181.055 92.1932 162.552 98.1539" fill="white"/>
<path d="M145.465 65.9664C150.117 61.8306 170.816 51.0584 181.558 50.2061C186.516 49.8148 189.136 50.0593 191.692 53.9226C194.248 57.7859 197.276 68.4536 197.781 74.0983C198.286 79.7361 195.933 81.8614 193.549 83.8483C188.69 87.8969 181.055 92.1932 162.552 98.1539" stroke="#0C2243" stroke-width="2.5" stroke-linecap="round" stroke-linejoin="round"/>
<path d="M87.7109 35.5811C95.2253 32.9675 103.534 33.1257 110.977 35.9609C113.556 36.9437 115.61 39.0232 116.532 41.6133L116.714 42.125C118.712 47.7389 112.875 52.9385 107.528 50.3076L106.701 49.9004C102.071 47.622 96.6786 47.4687 91.9258 49.4795L90.1611 50.2256C85.7261 52.1019 80.9194 48.4854 81.4932 43.7041L81.5488 43.2354C81.9581 39.8262 84.2152 36.9315 87.3994 35.6953L87.7109 35.5811Z" stroke="#0C2243" stroke-width="2.5"/>
<path d="M106.125 25.0364C107.185 26.096 110.099 28.2154 113.278 28.2154" stroke="#0C2243" stroke-width="2.5" stroke-linecap="round"/>
<path d="M89.0391 25.4338C87.9794 26.4935 84.6679 27.0233 81.4889 27.0233" stroke="#0C2243" stroke-width="2.5" stroke-linecap="round"/>
<path d="M96.9844 33.3813C97.1168 34.9709 98.0176 38.2293 100.561 38.5472C103.74 38.9446 105.329 34.9709 105.329 34.1761" stroke="#0C2243" stroke-width="3.01212"/>
<path d="M105.332 34.176C105.143 35.5897 105.109 39.403 107.269 40.1683C110.1 41.1712 112.332 36.857 112.485 36.1629" stroke="#0C2243" stroke-width="3.01212"/>
<ellipse cx="79.1034" cy="30.9969" rx="5.1659" ry="3.17902" fill="white" stroke="#0C2243" stroke-width="2"/>
<ellipse cx="118.842" cy="30.9971" rx="5.1659" ry="3.17902" fill="white" stroke="#0C2243" stroke-width="2"/>
<path d="M165.746 13.5126C168.793 10.9959 175.681 6.91618 178.86 10.731C182.833 15.4995 176.475 18.6785 173.296 19.8706" stroke="#0C2243" stroke-width="2.38426" stroke-linecap="round"/>
<path d="M68.7827 8.34665C65.6037 5.30009 58.2919 0.319631 54.4771 4.77025C49.7086 10.3335 59.2456 14.3073 63.2194 14.7047" stroke="#0C2243" stroke-width="2.38426" stroke-linecap="round"/>
<path d="M56.8632 21.0627C53.1544 21.3277 45.6572 23.2881 45.3393 29.0103C44.9419 36.1631 55.2737 34.5736 56.8632 30.9972" stroke="#0C2243" stroke-width="2.38426" stroke-linecap="round"/>
</g>
<defs>
<clipPath id="clip0_5901_16355">
<rect width="230" height="105" fill="white"/>
</clipPath>
</defs>
</svg>
