<svg width="224" height="197" viewBox="0 0 224 197" fill="none" xmlns="http://www.w3.org/2000/svg">
<path d="M2.00012 173.831C2.00012 159.333 36.2736 157.456 46.7938 159.333C81.9087 155.578 149.77 159.333 189.181 159.334C241.625 159.334 221.159 179.8 196.921 183.385C187.636 184.758 183.273 181.336 158.962 190.554C137.588 198.659 105.224 195.676 88.1641 190.554C74.5163 186.458 57.4302 185.788 46.7938 188.506C22.4671 194.723 2.00012 186.622 2.00012 173.831Z" fill="#B3E4FF" stroke="#5090D6" stroke-width="2.5" stroke-linecap="round"/>
<path d="M149.887 101.591C151.062 106.512 158.588 124.086 172.162 137.289C179.159 144.095 188.454 146.826 197.594 152.389C203.952 156.259 202.289 161.214 196.453 164.72C190.617 168.225 150.135 172.671 136.531 161.16L149.887 101.585V101.591Z" fill="white" stroke="#0C2243" stroke-width="2.5" stroke-linecap="round" stroke-linejoin="round"/>
<path d="M112.906 21.1211C112.906 21.1211 117.649 15.5853 125.006 17.802C132.436 20.0489 134.144 27.0304 132.973 31.5361C131.023 39.0235 122.471 39.9451 122.471 39.9451L112.906 21.1211Z" fill="#0255A9" stroke="#0C2243" stroke-width="2.5" stroke-linecap="round" stroke-linejoin="round"/>
<path d="M123.762 39.7274C123.762 39.7274 128.307 34.023 135.58 36.1795C142.924 38.354 144.753 45.4379 143.697 50.034C141.941 57.678 133.558 58.7442 133.558 58.7442L123.762 39.7274Z" fill="#0255A9" stroke="#0C2243" stroke-width="2.5" stroke-linecap="round" stroke-linejoin="round"/>
<path d="M133.574 60.3651C133.574 60.3651 138.119 54.6607 145.391 56.8172C152.736 58.9917 154.565 66.0756 153.509 70.6716C151.752 78.3157 143.369 79.3819 143.369 79.3819L133.574 60.3651Z" fill="#0073F0" stroke="#000001" stroke-width="3.01184" stroke-linecap="round" stroke-linejoin="round"/>
<path d="M76.3937 71.2321C71.742 67.0964 47.8636 57.2111 37.1224 56.3588C32.164 55.9676 29.5442 56.212 26.9883 60.0753C24.4324 63.9386 21.4037 74.6063 20.8989 80.251C20.3941 85.8888 21.1545 88.2571 25.1928 89.3539C29.2311 90.4507 49.1798 95.9698 62.3107 105.499" fill="white"/>
<path d="M76.3937 71.2321C71.742 67.0964 47.8636 57.2111 37.1224 56.3588C32.164 55.9676 29.5442 56.212 26.9883 60.0753C24.4324 63.9386 21.4037 74.6063 20.8989 80.251C20.3941 85.8888 21.1545 88.2571 25.1928 89.3539C29.2311 90.4507 49.1798 95.9698 62.3107 105.499" stroke="#0C2243" stroke-width="2.5" stroke-linecap="round" stroke-linejoin="round"/>
<path d="M94.9862 11.8143C94.9862 11.8143 96.9356 5.47137 104.13 4.65215C111.402 3.8269 115.572 9.02531 116.303 13.2058C117.522 20.1571 113.122 22.3377 113.122 22.3377L94.9922 11.8083L94.9862 11.8143Z" fill="#0255A9" stroke="#0C2243" stroke-width="2.5" stroke-linecap="round" stroke-linejoin="round"/>
<path d="M58.418 64.3586C58.418 64.3586 59.4983 65.5634 59.4862 65.6477C59.4439 66.0091 59.0034 66.1236 58.2732 66.6296C58.1042 66.744 57.9955 66.7982 57.6817 66.9789C57.5911 67.0331 57.549 67.1475 57.5188 67.2379C55.4306 74.4121 50.5842 94.2662 52.5457 118.445C54.8391 146.739 70.0902 171.159 99.8379 171.249C142.217 171.382 158.826 149.052 150.51 103.145C142.827 60.7444 127.045 32.2102 110.225 19.3556C93.6216 6.66373 74.1278 7.70585 62.3409 14.856C42.0987 27.1322 46.4079 51.9619 58.4241 64.3707L58.418 64.3586Z" fill="white"/>
<path d="M85.5831 84.598C116.514 81.8151 123.569 123.113 124.631 132.595C126.496 161.731 109.778 162.31 108.505 169.424C106.924 169.887 100.874 170.06 99.0449 170.271C80.1486 172.452 73.5548 157.262 67.6041 138.239C61.6533 119.21 60.398 86.8629 85.5831 84.598Z" fill="#0255A9"/>
<path d="M54.5309 80.3516C52.7565 90.0617 51.284 103.585 52.5212 118.825C53.5713 131.806 57.3856 144.281 64.0425 153.654" stroke="#0C2243" stroke-width="2.5" stroke-linecap="round" stroke-linejoin="round"/>
<path d="M154.155 112.313C152.562 109.729 150.963 106.169 150.486 103.525C142.803 61.124 127.021 32.5898 110.2 19.7353C93.5975 7.04337 74.1037 8.08548 62.3169 15.2356C42.0747 27.5119 46.3838 52.3415 58.4 64.7503" stroke="#0C2243" stroke-width="2.5" stroke-linecap="round" stroke-linejoin="round"/>
<path d="M79.5739 165.503C83.945 168.284 95.3422 171.617 99.8143 171.629C117.256 171.683 130.334 167.93 139.104 160.298" stroke="#0C2243" stroke-width="2.5" stroke-linecap="round" stroke-linejoin="round"/>
<path d="M150.704 165.9C138.782 176.232 122.343 181.001 118.223 181.728C111.349 182.944 105.895 179.891 100.167 170.271C94.4362 160.646 96.7402 154.346 100.167 150.311C110.168 138.539 134.411 140.07 134.411 140.07" fill="white"/>
<path d="M150.704 165.9C138.782 176.232 122.343 181.001 118.223 181.728C111.349 182.944 105.895 179.891 100.167 170.271C94.4362 160.646 96.7402 154.346 100.167 150.311C110.168 138.539 134.411 140.07 134.411 140.07" stroke="#0C2243" stroke-width="2.5" stroke-linecap="round" stroke-linejoin="round"/>
<path d="M79.5612 165.217C70.5909 173.845 50.7578 173.95 47.3864 174.245C41.0284 174.245 35.9896 173.053 32.6835 162.721C29.5044 152.787 28.8046 149.841 31.2819 146.355C38.5111 136.182 58.9003 139.939 58.9003 139.939" fill="white"/>
<path d="M79.5612 165.217C70.5909 173.845 50.7578 173.95 47.3864 174.245C41.0284 174.245 35.9896 173.053 32.6835 162.721C29.5044 152.787 28.8046 149.841 31.2819 146.355C38.5111 136.182 58.9003 139.939 58.9003 139.939" stroke="#0C2243" stroke-width="2.5" stroke-linecap="round" stroke-linejoin="round"/>
<path d="M103.527 26.3432C105.639 26.5721 107.371 27.5118 108.723 29.1562C110.039 30.8127 110.582 32.7042 110.347 34.8245C110.111 36.9449 109.176 38.6676 107.534 39.9808C105.856 41.306 103.961 41.8602 101.849 41.6253C99.7186 41.3904 97.9985 40.4506 96.6828 38.7941C95.349 37.1557 94.7998 35.2703 95.0292 33.1439C95.2645 31.0175 96.2121 29.2948 97.8718 27.9635C99.5134 26.6504 101.396 26.1083 103.527 26.3432Z" fill="#0255A9"/>
<path d="M59.4147 23.8675C61.2192 24.0784 62.6918 24.994 63.8325 26.6204C64.943 28.2588 65.3835 30.1443 65.1602 32.2706C64.9369 34.397 64.1162 36.1258 62.6979 37.457C61.2494 38.8003 59.6199 39.3725 57.8093 39.1617C55.9988 38.9508 54.5262 38.0292 53.4157 36.3848C52.2931 34.7584 51.8405 32.885 52.0638 30.7587C52.2871 28.6323 53.1139 26.8975 54.5503 25.5542C55.9686 24.223 57.592 23.6627 59.4147 23.8736V23.8675Z" fill="#0255A9"/>
<path d="M126.464 64.9662C131.116 60.8305 151.816 50.0582 162.557 49.2059C167.515 48.8147 170.135 49.0592 172.691 52.9225C175.247 56.7858 178.275 67.4535 178.78 73.0982C179.285 78.736 176.932 80.8613 174.548 82.8482C169.69 86.8968 162.054 91.1931 143.551 97.1538" fill="white"/>
<path d="M126.464 64.9662C131.116 60.8305 151.816 50.0582 162.557 49.2059C167.515 48.8147 170.135 49.0592 172.691 52.9225C175.247 56.7858 178.275 67.4535 178.78 73.0982C179.285 78.736 176.932 80.8613 174.548 82.8482C169.69 86.8968 162.054 91.1931 143.551 97.1538" stroke="#0C2243" stroke-width="2.5" stroke-linecap="round" stroke-linejoin="round"/>
<path d="M105.403 155.206C102.559 154.89 99.6372 155.52 97.8529 156.001C97.8529 153.881 99.6864 149.574 103.416 150.04C106.198 150.388 105.8 153.815 105.403 155.206ZM105.403 155.206C107.39 155.426 110.172 155.577 113.351 157.564C114.145 155.206 113.351 151.947 110.966 151.232C108.185 150.398 105.8 153.55 105.403 155.206Z" stroke="#0C2243" stroke-width="2" stroke-linejoin="round"/>
<path d="M37.8487 151.232C35.0048 150.917 32.0828 151.547 30.2986 152.027C30.2986 149.908 32.1321 145.6 35.8619 146.066C38.6435 146.414 38.2461 149.841 37.8487 151.232ZM37.8487 151.232C39.8356 151.452 42.6173 151.603 45.7963 153.59C46.591 151.232 45.7963 147.974 43.412 147.258C40.6304 146.424 38.2461 149.576 37.8487 151.232Z" stroke="#0C2243" stroke-width="2" stroke-linejoin="round"/>
<path d="M68.7081 34.5812C75.9877 32.0492 84.0125 32.1188 91.2736 34.7032L91.9738 34.9611C94.3923 35.8824 96.3492 37.7676 97.3439 40.1339L97.5294 40.6134L97.7111 41.1251C99.6781 46.6514 94.0528 51.7769 88.7765 49.4259L88.5255 49.3077L87.6984 48.9005C83.2126 46.6933 78.0119 46.48 73.3702 48.297L72.923 48.4796L71.1583 49.2257C66.7926 51.0727 62.0664 47.5975 62.4669 42.9279L62.4904 42.7042L62.546 42.2355C62.9553 38.8263 65.2124 35.9316 68.3966 34.6954L68.7081 34.5812Z" stroke="#0C2243" stroke-width="2.5"/>
<path d="M87.1232 24.0364C88.1828 25.096 91.0969 27.2154 94.276 27.2154" stroke="#0C2243" stroke-width="2.5" stroke-linecap="round"/>
<path d="M70.0363 24.4337C68.9766 25.4934 65.6651 26.0232 62.4861 26.0232" stroke="#0C2243" stroke-width="2.5" stroke-linecap="round"/>
<path d="M77.9835 32.3813C78.116 33.9709 79.0167 37.2293 81.5599 37.5472C84.7389 37.9446 86.3284 33.9709 86.3284 33.1761" stroke="#0C2243" stroke-width="3.01212"/>
<path d="M86.3287 33.176C86.1397 34.5897 86.1056 38.403 88.2659 39.1683C91.0971 40.1712 93.329 35.857 93.4814 35.1629" stroke="#0C2243" stroke-width="3.01212"/>
<ellipse cx="60.1018" cy="29.997" rx="5.1659" ry="3.17902" fill="white" stroke="#0C2243" stroke-width="2"/>
<ellipse cx="99.839" cy="29.997" rx="5.1659" ry="3.17902" fill="white" stroke="#0C2243" stroke-width="2"/>
<path d="M146.742 12.5125C149.789 9.99579 156.677 5.91605 159.856 9.73087C163.83 14.4994 157.471 17.6784 154.292 18.8705" stroke="#0C2243" stroke-width="2.38426" stroke-linecap="round"/>
<path d="M49.7823 7.34665C46.6033 4.30009 39.2915 -0.680369 35.4767 3.77025C30.7082 9.33353 40.2453 13.3073 44.219 13.7047" stroke="#0C2243" stroke-width="2.38426" stroke-linecap="round"/>
<path d="M37.8613 20.0626C34.1524 20.3275 26.6552 22.2879 26.3373 28.0102C25.94 35.1629 36.2718 33.5734 37.8613 29.997" stroke="#0C2243" stroke-width="2.38426" stroke-linecap="round"/>
</svg>
