<svg width="464" height="281" viewBox="0 0 464 281" fill="none" xmlns="http://www.w3.org/2000/svg">
<path d="M106 248.5C93.8135 263.124 64.9938 270.619 45.9498 261.72C45.0944 261.32 44.6737 260.347 45.0667 259.488C47.9445 253.203 57.3697 245.242 57 236C56.5 223.5 127 200 129.5 197.5C131.49 195.51 345.418 172.887 451.463 160.184C452.387 160.074 453.24 160.634 453.492 161.53C462.287 192.843 393.065 222.937 358.463 235.828C358.151 235.944 357.885 236.133 357.664 236.383C324.955 273.405 260.04 278.596 231.034 276.539C230.674 276.513 230.342 276.582 230.014 276.735C216.061 283.244 178.657 281.923 167.625 274.584C167.538 274.526 167.463 274.465 167.387 274.394L167.01 274.039C147.39 255.58 120.882 230.642 106 248.5Z" fill="#C2C5CC"/>
<path d="M31.5 75L53.5 53L93.5 36L125.25 33L275 76L291 64.5L315.5 66L346 31L363.5 9L374.5 5L387.5 11L396 24.5L405 52.5L403.5 99.5L413 101L436.5 112L449 125L462 136.5L456.5 155.5L426 183L388 205L358.5 222L331.5 238L292 249.5L249.5 256.5L215.5 261L164 269L138.5 261L129 249.5L103 234.5L80 255.4L40.5 256.5L7 230L3 203L13 177.5L37.5 156.5L25.5 132.5L22 105L31.5 75Z" fill="white"/>
<path d="M129.297 3.78965C114.581 6.73287 110.72 21.7451 110.325 29.8412C110.272 30.9268 111.165 31.7889 112.252 31.7947C130.484 31.8923 142.59 33.4421 160.386 40.518C161.434 40.9345 162.635 40.4017 162.994 39.3332C172.736 10.3196 148.863 -0.123631 129.297 3.78965Z" fill="#0D57A7" stroke="black" stroke-width="6" stroke-linecap="round"/>
<path d="M194.796 18.2896C176.33 16.0286 166.475 30.7499 163.305 39.7088C162.983 40.6179 163.422 41.6026 164.284 42.0339L188.654 54.2184C188.748 54.2658 188.839 54.3205 188.925 54.3822L210.444 69.8194C211.227 70.3816 212.32 70.2908 212.996 69.6037C237.209 45.0199 218.908 21.2422 194.796 18.2896Z" fill="#0D57A7" stroke="black" stroke-width="6" stroke-linecap="round"/>
<path d="M245.296 50.7896C230.315 48.1679 218.841 61.1218 214.157 69.2124C213.644 70.0972 213.945 71.2136 214.801 71.7726L237.796 86.7896L259.914 100.908C260.718 101.42 261.791 101.279 262.434 100.575C285.64 75.1225 264.984 54.2349 245.296 50.7896Z" fill="#0D57A7" stroke="black" stroke-width="6" stroke-linecap="round"/>
<path d="M282.296 82.7895C270.06 87.8277 264.192 96.2116 262.288 101.241C261.953 102.128 262.408 103.085 263.262 103.497L289.796 116.29L315.985 129.852C316.979 130.367 318.219 129.939 318.681 128.919C335.06 92.7091 299.011 75.907 282.296 82.7895Z" fill="#0D57A7" stroke="black" stroke-width="6" stroke-linecap="round"/>
<path d="M63.924 183.916C13.9957 147.633 -3.90932 75.031 80.199 39.1353C97.0646 30.3534 144.496 22.6896 199.296 62.2896C254.096 101.89 302.129 125.456 319.296 132.29" stroke="black" stroke-width="6" stroke-linecap="round" stroke-linejoin="round"/>
<path d="M74.2954 224.79C76.2954 224.29 94.2954 201.29 83.7954 190.79C73.2954 180.29 49.2954 155.79 34.2954 161.29C19.2954 166.79 -4.70455 188.29 6.29545 224.79C17.2954 261.29 77.2959 272.29 100.796 236.29L102.188 234.341C102.808 233.472 104.001 233.244 104.899 233.822L125.796 247.29" stroke="black" stroke-width="6" stroke-linecap="round"/>
<path d="M216.796 220.79C214.796 205.456 208.596 173.99 199.796 170.79C188.796 166.79 128.796 164.29 124.296 183.79C119.796 203.29 109.796 249.79 145.296 264.29C173.483 275.803 210.24 266.268 225.455 259.933C225.687 259.836 225.912 259.787 226.164 259.781C255.641 259.051 322.907 250.298 359.598 220.948C359.731 220.842 359.866 220.758 360.02 220.688C395.96 204.43 475.291 158.151 457.796 133.29C429.296 92.7895 400.296 94.7896 364.796 109.29" stroke="black" stroke-width="6" stroke-linecap="round"/>
<path d="M273.796 77.7897C277.796 70.4563 291.696 57.9897 315.296 66.7897" stroke="black" stroke-width="6" stroke-linecap="round"/>
<path d="M301.296 80.2905C314.963 70.1239 337.755 39.1695 356.296 15.2907C389.296 -27.2104 416.296 57.7895 401.796 99.7907" stroke="black" stroke-width="6" stroke-linecap="round"/>
<path d="M164.343 171.29C156.732 171.983 148.91 172.996 143.081 173.863C141.718 174.066 140.98 175.557 141.715 176.723C147.45 185.826 158.138 194.78 164.343 171.29ZM164.343 171.29C173.369 170.467 182.097 170.095 186.85 170.953C187.719 171.11 188.139 171.864 187.781 172.671C185.275 178.314 174.085 197.748 164.343 171.29Z" stroke="black" stroke-width="6" stroke-linecap="round"/>
<path d="M55.7956 168.79C36.9956 185.59 34.2956 171.123 35.2956 161.79C49.6953 158.99 66.629 173.956 73.2959 181.79C48.8959 198.99 51.4624 180.29 55.7956 168.79Z" fill="white" stroke="black" stroke-width="6" stroke-linecap="round"/>
<circle cx="78.7959" cy="80.7896" r="10" fill="black"/>
<circle cx="136.796" cy="80.7896" r="10" fill="black"/>
<circle cx="162.296" cy="101.29" r="19.5" fill="#3C63AE"/>
<ellipse cx="50.7959" cy="94.2896" rx="18" ry="19.5" fill="#3C63AE"/>
<path d="M148.679 103.328C123.763 108.456 95.8096 108.195 64.8332 102.546" stroke="black" stroke-width="6" stroke-linecap="round" stroke-linejoin="round"/>
<path d="M143.218 105.111C144.038 112.167 140.821 116.138 135.909 116.409C128.155 116.845 127.467 107.762 127.467 107.762C126.28 114.266 123.078 118.075 117.822 118.492C112.565 118.91 108.626 115.416 107.631 108.779C120.325 108.721 132.314 107.695 143.219 105.097L143.218 105.111Z" fill="white" stroke="black" stroke-width="6" stroke-linecap="round" stroke-linejoin="round"/>
<path d="M455.5 134C449.486 136.827 441.632 144.671 450.452 158" stroke="black" stroke-width="6" stroke-linecap="round"/>
</svg>
