<svg width="26" height="24" viewBox="0 0 26 24" fill="none" xmlns="http://www.w3.org/2000/svg">
<path d="M12 12C14.7614 12 17 9.53757 17 6.5C17 3.46243 14.7614 1 12 1C9.23858 1 7 3.46243 7 6.5C7 9.53757 9.23858 12 12 12Z" stroke="#222222" stroke-width="1.5" stroke-linecap="round" stroke-linejoin="round"/>
<path d="M22 22C21.3207 19.9673 19.9862 18.194 18.189 16.936C16.3917 15.6779 14.2246 15 12 15C9.7754 15 7.60826 15.6779 5.81103 16.936C4.0138 18.194 2.67932 19.9673 2 22H22Z" stroke="#222222" stroke-width="1.5" stroke-linecap="round" stroke-linejoin="round"/>
<path d="M19 10.5H26" stroke="#222222" stroke-width="1.5"/>
<path d="M22.5 7L22.5 14" stroke="#222222" stroke-width="1.5"/>
</svg>
