<svg width="16" height="17" viewBox="0 0 16 17" fill="none" xmlns="http://www.w3.org/2000/svg">
<g clip-path="url(#clip0_1950_5656)">
<path d="M13.0177 2.72188H11.9999V3.61077H12.8888V14.7219H3.11106V3.61077H3.99995V2.72188H3.11106C3.00221 2.70613 2.89127 2.71365 2.78555 2.74394C2.67982 2.77422 2.58172 2.82658 2.49772 2.89756C2.41372 2.96854 2.34573 3.05653 2.29823 3.15572C2.25073 3.25491 2.22481 3.36304 2.22217 3.47299V14.8597C2.22275 14.9589 2.24287 15.057 2.28138 15.1485C2.31989 15.2399 2.37603 15.3229 2.4466 15.3926C2.51718 15.4624 2.6008 15.5175 2.69269 15.555C2.78458 15.5924 2.88295 15.6114 2.98217 15.6108H13.0177C13.1169 15.6114 13.2153 15.5924 13.3072 15.555C13.3991 15.5175 13.4827 15.4624 13.5533 15.3926C13.6239 15.3229 13.68 15.2399 13.7185 15.1485C13.757 15.057 13.7771 14.9589 13.7777 14.8597V3.47299C13.7771 3.37377 13.757 3.27563 13.7185 3.18419C13.68 3.09274 13.6239 3.00977 13.5533 2.94003C13.4827 2.87028 13.3991 2.81512 13.3072 2.77769C13.2153 2.74026 13.1169 2.72129 13.0177 2.72188Z" fill="#444444"/>
<path d="M11.5556 3.75812C11.5544 3.48383 11.4449 3.22111 11.251 3.02716C11.057 2.83321 10.7943 2.72373 10.52 2.72256H9.72001C9.6221 2.34015 9.3997 2.00121 9.08788 1.75917C8.77605 1.51712 8.39253 1.38574 7.99779 1.38574C7.60305 1.38574 7.21953 1.51712 6.90771 1.75917C6.59588 2.00121 6.37348 2.34015 6.27557 2.72256H5.48001C5.20573 2.72373 4.94301 2.83321 4.74906 3.02716C4.55511 3.22111 4.44563 3.48383 4.44446 3.75812V5.38923H11.5556V3.75812ZM10.6667 4.50034H5.33335V3.75812C5.33335 3.73886 5.33714 3.71978 5.34451 3.70199C5.35188 3.6842 5.36269 3.66803 5.3763 3.65441C5.38992 3.64079 5.40609 3.62999 5.42389 3.62261C5.44168 3.61524 5.46075 3.61145 5.48001 3.61145H7.11112V3.16701C7.11112 2.93126 7.20478 2.70517 7.37147 2.53847C7.53817 2.37177 7.76427 2.27812 8.00001 2.27812C8.23576 2.27812 8.46185 2.37177 8.62855 2.53847C8.79525 2.70517 8.8889 2.93126 8.8889 3.16701V3.61145H10.52C10.5589 3.61145 10.5962 3.6269 10.6237 3.65441C10.6512 3.68191 10.6667 3.71922 10.6667 3.75812V4.50034Z" fill="#444444"/>
<path d="M4.88892 6.72266H11.1111V7.61155H4.88892V6.72266Z" fill="#444444"/>
<path d="M4.88892 8.5H11.1111V9.38889H4.88892V8.5Z" fill="#444444"/>
<path d="M4.88892 10.2773H11.1111V11.1662H4.88892V10.2773Z" fill="#444444"/>
<path d="M4.88892 12.0557H11.1111V12.9446H4.88892V12.0557Z" fill="#444444"/>
</g>
<defs>
<clipPath id="clip0_1950_5656">
<rect width="16" height="16" fill="white" transform="translate(0 0.5)"/>
</clipPath>
</defs>
</svg>
