<svg width="14" height="15" viewBox="0 0 14 15" fill="none" xmlns="http://www.w3.org/2000/svg">
<path d="M6.99999 13.7087C3.77824 13.7087 1.16666 11.0971 1.16666 7.87533C1.16666 4.65358 3.77824 2.04199 6.99999 2.04199C10.2217 2.04199 12.8333 4.65358 12.8333 7.87533C12.8333 11.0971 10.2217 13.7087 6.99999 13.7087ZM6.99999 12.542C8.23767 12.542 9.42465 12.0503 10.2998 11.1752C11.175 10.3 11.6667 9.113 11.6667 7.87533C11.6667 6.63765 11.175 5.45066 10.2998 4.57549C9.42465 3.70032 8.23767 3.20866 6.99999 3.20866C5.76231 3.20866 4.57533 3.70032 3.70016 4.57549C2.82499 5.45066 2.33332 6.63765 2.33332 7.87533C2.33332 9.113 2.82499 10.3 3.70016 11.1752C4.57533 12.0503 5.76231 12.542 6.99999 12.542ZM7.58332 7.87533H9.91666V9.04199H6.41666V4.95866H7.58332V7.87533Z" fill="black"/>
</svg>
