<svg width="14" height="14" viewBox="0 0 14 14" fill="none" xmlns="http://www.w3.org/2000/svg">
<path d="M7.00002 8.16667C8.28685 8.16667 9.33335 7.12017 9.33335 5.83333C9.33335 4.5465 8.28685 3.5 7.00002 3.5C5.71319 3.5 4.66669 4.5465 4.66669 5.83333C4.66669 7.12017 5.71319 8.16667 7.00002 8.16667ZM7.00002 4.66667C7.64344 4.66667 8.16669 5.18992 8.16669 5.83333C8.16669 6.47675 7.64344 7 7.00002 7C6.3566 7 5.83335 6.47675 5.83335 5.83333C5.83335 5.18992 6.3566 4.66667 7.00002 4.66667Z" fill="black"/>
<path d="M6.66164 12.7252C6.76036 12.7957 6.87865 12.8336 6.99997 12.8336C7.12129 12.8336 7.23958 12.7957 7.3383 12.7252C7.51564 12.5997 11.6836 9.59033 11.6666 5.83366C11.6666 3.26058 9.57305 1.16699 6.99997 1.16699C4.42689 1.16699 2.3333 3.26058 2.3333 5.83074C2.31639 9.59033 6.4843 12.5997 6.66164 12.7252ZM6.99997 2.33366C8.93022 2.33366 10.5 3.90341 10.5 5.83658C10.5122 8.42541 7.9403 10.75 6.99997 11.5124C6.06022 10.7494 3.48772 8.42424 3.49997 5.83366C3.49997 3.90341 5.06972 2.33366 6.99997 2.33366Z" fill="black"/>
</svg>
