<svg width="200" height="281" viewBox="0 0 200 281" fill="none" xmlns="http://www.w3.org/2000/svg">
<g style="mix-blend-mode:multiply" opacity="0.3">
<path d="M139.412 25.8642H133.173V21.7582C133.173 18.8637 130.828 16.5192 127.934 16.5192H120.102V5.23899C120.102 2.34452 117.758 0 114.863 0H81.5312C78.6367 0 76.2922 2.34452 76.2922 5.23899V16.5192H68.4606C65.5661 16.5192 63.2216 18.8637 63.2216 21.7582V25.8642H56.9819C52.971 25.8642 49.7209 29.1143 49.7209 33.1252V61.6192C49.7209 65.6301 52.971 68.8802 56.9819 68.8802H139.404C143.415 68.8802 146.665 65.6301 146.665 61.6192V33.1252C146.665 29.1143 143.415 25.8642 139.404 25.8642H139.412ZM114.379 23.8008C114.379 25.3142 113.151 26.5423 111.638 26.5423H85.1245C83.6111 26.5423 82.383 25.3142 82.383 23.8008V7.9598C82.383 6.4464 83.6111 5.21832 85.1245 5.21832H111.638C113.151 5.21832 114.379 6.4464 114.379 7.9598V23.8008Z" fill="#152C77"/>
</g>
<path d="M199.528 273.739C199.528 277.75 196.278 281 192.267 281H12.2188C6.20652 281 3.5188 273.409 3.5188 269.398L6.76888 48.1236C6.76888 44.1126 10.019 40.8626 14.0299 40.8626L189.704 37.6621C193.715 37.6621 199.528 40.631 199.528 45.3035V273.739Z" fill="#55A6FF"/>
<g style="mix-blend-mode:multiply" opacity="0.3">
<path d="M7.26099 37.6621H185.503C189.509 37.6621 192.764 40.9163 192.764 44.9231V270.539C192.764 274.546 189.509 277.8 185.503 277.8H7.26099C3.25421 277.8 0 274.546 0 270.539V44.9231C0 40.9163 3.25421 37.6621 7.26099 37.6621Z" fill="#152C77"/>
</g>
<path d="M11.4612 37.6621H189.703C193.71 37.6621 196.964 40.9163 196.964 44.9231V270.539C196.964 274.546 193.71 277.8 189.703 277.8H11.4612C7.45441 277.8 4.2002 274.546 4.2002 270.539V44.9231C4.2002 40.9163 7.45441 37.6621 11.4612 37.6621Z" fill="#55A6FF"/>
<path d="M186.987 258.105C186.987 261.624 184.134 264.477 180.615 264.477L22.3744 264.126C18.8556 264.126 16.0024 261.272 16.0024 257.754L17.826 60.119C17.826 56.6002 20.6791 53.7471 24.1979 53.7471L180.615 52.3701C184.134 52.3701 186.987 55.2232 186.987 58.7421V258.109V258.105Z" fill="#EEEFEF"/>
<path d="M22.3786 52.3662H178.792C182.306 52.3662 185.164 55.2193 185.164 58.7382V256.728C185.164 260.243 182.311 263.1 178.792 263.1H22.3744C18.8597 263.1 16.0024 260.247 16.0024 256.728V58.7382C16.0024 55.2193 18.8597 52.3662 22.3744 52.3662H22.3786Z" fill="#EEEFEF"/>
<path opacity="0.1" d="M49.7517 37.666V64.841C49.7517 68.8519 53.1589 72.102 57.3642 72.102H143.797C148.002 72.102 151.41 68.8519 151.41 64.841V37.666H49.7517Z" fill="#231F20"/>
<path d="M141.977 25.8642H135.738V21.7582C135.738 18.8637 133.393 16.5192 130.499 16.5192H122.667V5.23899C122.667 2.34452 120.323 0 117.428 0H84.0961C81.2017 0 78.8571 2.34452 78.8571 5.23899V16.5192H71.0255C68.1311 16.5192 65.7865 18.8637 65.7865 21.7582V25.8642H59.5469C55.536 25.8642 52.2859 29.1143 52.2859 33.1252V61.6192C52.2859 65.6301 55.536 68.8802 59.5469 68.8802H141.969C145.98 68.8802 149.23 65.6301 149.23 61.6192V33.1252C149.23 29.1143 145.98 25.8642 141.969 25.8642H141.977ZM116.944 23.8008C116.944 25.3142 115.716 26.5423 114.203 26.5423H87.6894C86.176 26.5423 84.9479 25.3142 84.9479 23.8008V7.9598C84.9479 6.4464 86.176 5.21832 87.6894 5.21832H114.203C115.716 5.21832 116.944 6.4464 116.944 7.9598V23.8008Z" fill="#55A6FF"/>
<path d="M41.7341 62.2395C41.7341 64.8445 39.6211 66.9575 37.0161 66.9575C34.4111 66.9575 32.2981 64.8445 32.2981 62.2395C32.2981 59.6345 34.4111 57.5215 37.0161 57.5215C39.6211 57.5215 41.7341 59.6345 41.7341 62.2395Z" fill="#55A6FF"/>
<path d="M171.94 62.2395C171.94 64.8445 169.827 66.9575 167.222 66.9575C164.617 66.9575 162.504 64.8445 162.504 62.2395C162.504 59.6345 164.617 57.5215 167.222 57.5215C169.827 57.5215 171.94 59.6345 171.94 62.2395Z" fill="#55A6FF"/>
<path d="M141.775 93.9463H164.753C166.114 93.9463 167.218 95.0503 167.218 96.4107V119.393C167.218 120.753 166.114 121.857 164.753 121.857H141.771C140.411 121.857 139.307 120.753 139.307 119.393V96.4107C139.307 95.0503 140.411 93.9463 141.771 93.9463H141.775Z" fill="#DCDDDE"/>
<path d="M141.775 135.722H164.753C166.114 135.722 167.218 136.826 167.218 138.186V161.168C167.218 162.529 166.114 163.633 164.753 163.633H141.771C140.411 163.633 139.307 162.529 139.307 161.168V138.186C139.307 136.826 140.411 135.722 141.771 135.722H141.775Z" fill="#DCDDDE"/>
<path d="M141.775 177.502H164.753C166.114 177.502 167.218 178.606 167.218 179.966V202.949C167.218 204.309 166.114 205.413 164.753 205.413H141.771C140.411 205.413 139.307 204.309 139.307 202.949V179.966C139.307 178.606 140.411 177.502 141.771 177.502H141.775Z" fill="#DCDDDE"/>
<path d="M141.775 219.277H164.758C166.118 219.277 167.222 220.381 167.222 221.742V244.724C167.222 246.084 166.118 247.188 164.758 247.188H141.775C140.415 247.188 139.311 246.084 139.311 244.724V221.742C139.311 220.381 140.415 219.277 141.775 219.277Z" fill="#DCDDDE"/>
<path d="M124.578 98.5078H38.2107V119.786H124.578V98.5078Z" fill="#DCDDDE"/>
<path d="M124.578 139.456H38.2107V160.735H124.578V139.456Z" fill="#DCDDDE"/>
<path d="M124.578 180.4H38.2107V201.679H124.578V180.4Z" fill="#DCDDDE"/>
<path d="M124.578 221.35H38.2107V242.628H124.578V221.35Z" fill="#DCDDDE"/>
</svg>
