<svg width="145" height="200" viewBox="0 0 145 200" fill="none" xmlns="http://www.w3.org/2000/svg">
<path d="M5.96831 183.867H139.037C142.331 183.867 145.005 186.541 145.005 189.835V246.914H-0.000244141V189.835C-0.000244141 186.541 2.67453 183.867 5.96831 183.867Z" fill="#55A6FF"/>
<path d="M126.027 197.501H18.979C15.8499 197.501 13.3 200.051 13.3 203.18C13.3 206.309 15.8499 208.859 18.979 208.859H126.027C129.156 208.859 131.706 206.309 131.706 203.18C131.706 200.051 129.156 197.501 126.027 197.501Z" fill="#55A6FF"/>
<path d="M126.027 207.156H18.9792C16.7814 207.156 15.0039 205.379 15.0039 203.181C15.0039 200.983 16.7814 199.206 18.9792 199.206H126.027C128.225 199.206 130.002 200.983 130.002 203.181C130.002 205.379 128.225 207.156 126.027 207.156Z" fill="#55A6FF"/>
<path d="M6.91101 183.867H5.96831C2.66885 183.867 -0.000244141 186.536 -0.000244141 189.83V246.908H6.91101V183.867Z" fill="#55A6FF"/>
<path d="M139.037 183.867H138.094V246.908H145.005V189.829C145.005 186.536 142.336 183.861 139.037 183.861V183.867Z" fill="#55A6FF"/>
<g style="mix-blend-mode:multiply" opacity="0.3">
<path d="M127 207V177L124.281 179.592L121.74 177.175L119.206 179.592L116.671 177.175L114.13 179.592L111.595 177.175L109.055 179.592L106.52 177.175L103.985 179.592L101.444 177.175L98.9095 179.592L96.3688 177.175L93.8339 179.592L91.2991 177.175L88.7584 179.592L86.2236 177.175L83.6888 179.592L81.1481 177.175L78.6133 179.592L76.0726 177.175L73.5378 179.592L71.003 177.175L68.4622 179.592L65.9274 177.175L63.3867 179.592L60.8519 177.175L58.3171 179.592L55.7764 177.175L53.2416 179.592L50.7068 177.175L48.1661 179.592L45.6313 177.175L43.0905 179.592L40.5557 177.175L38.0209 179.592L35.4802 177.175L32.9454 179.592L30.4047 177.175L27.8699 179.592L25.3351 177.175L22.7944 179.592L20.2596 177.175L17.7248 179.592L15 177V207H127Z" fill="#152C77"/>
</g>
<path d="M126.072 207.156V177.058L123.471 179.659L121.04 177.234L118.616 179.659L116.191 177.234L113.76 179.659L111.335 177.234L108.905 179.659L106.48 177.234L104.055 179.659L101.624 177.234L99.1993 179.659L96.7744 177.234L94.3439 179.659L91.919 177.234L89.4884 179.659L87.0635 177.234L84.6386 179.659L82.208 177.234L79.7831 179.659L77.3525 177.234L74.9276 179.659L72.5027 177.234L70.0721 179.659L67.6472 177.234L65.2223 179.659L62.7918 177.234L60.3669 179.659L57.9363 177.234L55.5114 179.659L53.0865 177.234L50.6559 179.659L48.231 177.234L45.8004 179.659L43.3755 177.234L40.9506 179.659L38.52 177.234L36.0951 179.659L33.6702 177.234L31.2396 179.659L28.8147 177.234L26.3842 179.659L23.9593 177.234L21.5344 179.659L18.9277 177.058V207.156H126.072Z" fill="white"/>
<g style="mix-blend-mode:multiply" opacity="0.3">
<path d="M123.936 2.96879L124.282 3.29992L124.627 2.96839L126.5 1.17232V169.532L124.305 171.334L122.084 169.234L121.74 168.909L121.396 169.235L119.206 171.311L117.015 169.235L116.671 168.909L116.327 169.234L114.131 171.311L111.939 169.235L111.596 168.909L111.252 169.234L109.055 171.311L106.864 169.235L106.52 168.909L106.176 169.235L103.985 171.311L101.788 169.234L101.444 168.909L101.1 169.235L98.9091 171.311L96.7123 169.234L96.3683 168.909L96.0248 169.235L93.8339 171.311L91.6431 169.235L91.2996 168.909L90.9556 169.234L88.7588 171.311L86.5676 169.235L86.2236 168.909L85.8797 169.235L83.6884 171.311L81.4916 169.234L81.1477 168.909L80.8041 169.235L78.6129 171.311L76.4161 169.234L76.0722 168.909L75.7286 169.235L73.5378 171.311L71.3469 169.235L71.0034 168.909L70.6594 169.234L68.4626 171.311L66.2714 169.235L65.9278 168.909L65.5839 169.234L63.3871 171.311L61.1959 169.235L60.8519 168.909L60.508 169.235L58.3167 171.311L56.1199 169.234L55.776 168.909L55.4324 169.235L53.2416 171.311L51.0508 169.235L50.7072 168.909L50.3633 169.234L48.1665 171.311L45.9752 169.235L45.6317 168.909L45.2877 169.234L43.0909 171.311L40.8997 169.235L40.5557 168.909L40.2118 169.235L38.0205 171.311L35.8237 169.234L35.4798 168.909L35.1362 169.235L32.945 171.311L30.7482 169.234L30.4043 168.909L30.0607 169.235L27.8699 171.311L25.679 169.235L25.3355 168.909L24.9915 169.234L22.7948 171.311L20.6035 169.235L20.2596 168.909L19.9156 169.235L17.7006 171.334L15.5 169.531V1.17055L17.3791 2.96877L17.7251 3.29995L18.0708 2.96839L20.2596 0.869277L22.4483 2.96839L22.7939 3.29992L23.14 2.96879L25.3347 0.86889L27.5238 2.96839L27.8699 3.30031L28.216 2.96839L30.4051 0.86889L32.5997 2.96879L32.9458 3.29992L33.2915 2.96839L35.4806 0.86889L37.6753 2.96879L38.0213 3.29992L38.367 2.96839L40.5557 0.869277L42.7444 2.96839L43.0901 3.29992L43.4362 2.96879L45.6309 0.86889L47.82 2.96839L48.1657 3.29992L48.5117 2.96879L50.7064 0.868889L52.8955 2.96839L53.2416 3.30031L53.5877 2.96839L55.7768 0.868889L57.9715 2.96879L58.3175 3.29992L58.6632 2.96839L60.8519 0.869278L63.0406 2.96839L63.3863 3.29993L63.7324 2.96879L65.927 0.868889L68.1161 2.96839L68.4618 3.29992L68.8079 2.96879L71.0026 0.868889L73.1917 2.96839L73.5378 3.30031L73.8839 2.96839L76.073 0.868889L78.2676 2.96879L78.6137 3.29992L78.9594 2.96839L81.1485 0.868889L83.3432 2.96879L83.6892 3.29992L84.0349 2.96839L86.2236 0.869279L88.4123 2.96839L88.758 3.29993L89.1041 2.96879L91.2987 0.868889L93.4879 2.96839L93.8339 3.30031L94.18 2.96839L96.3692 0.868892L98.5638 2.96879L98.9099 3.29992L99.2556 2.96839L101.445 0.868892L103.639 2.96879L103.985 3.29993L104.331 2.96839L106.52 0.869279L108.709 2.96839L109.054 3.29992L109.4 2.96879L111.595 0.868889L113.784 2.96839L114.13 3.29992L114.476 2.96879L116.67 0.868889L118.86 2.96839L119.206 3.30031L119.552 2.96839L121.741 0.868889L123.936 2.96879Z" fill="#152C77"/>
<path d="M123.936 2.96879L124.282 3.29992L124.627 2.96839L126.5 1.17232V169.532L124.305 171.334L122.084 169.234L121.74 168.909L121.396 169.235L119.206 171.311L117.015 169.235L116.671 168.909L116.327 169.234L114.131 171.311L111.939 169.235L111.596 168.909L111.252 169.234L109.055 171.311L106.864 169.235L106.52 168.909L106.176 169.235L103.985 171.311L101.788 169.234L101.444 168.909L101.1 169.235L98.9091 171.311L96.7123 169.234L96.3683 168.909L96.0248 169.235L93.8339 171.311L91.6431 169.235L91.2996 168.909L90.9556 169.234L88.7588 171.311L86.5676 169.235L86.2236 168.909L85.8797 169.235L83.6884 171.311L81.4916 169.234L81.1477 168.909L80.8041 169.235L78.6129 171.311L76.4161 169.234L76.0722 168.909L75.7286 169.235L73.5378 171.311L71.3469 169.235L71.0034 168.909L70.6594 169.234L68.4626 171.311L66.2714 169.235L65.9278 168.909L65.5839 169.234L63.3871 171.311L61.1959 169.235L60.8519 168.909L60.508 169.235L58.3167 171.311L56.1199 169.234L55.776 168.909L55.4324 169.235L53.2416 171.311L51.0508 169.235L50.7072 168.909L50.3633 169.234L48.1665 171.311L45.9752 169.235L45.6317 168.909L45.2877 169.234L43.0909 171.311L40.8997 169.235L40.5557 168.909L40.2118 169.235L38.0205 171.311L35.8237 169.234L35.4798 168.909L35.1362 169.235L32.945 171.311L30.7482 169.234L30.4043 168.909L30.0607 169.235L27.8699 171.311L25.679 169.235L25.3355 168.909L24.9915 169.234L22.7948 171.311L20.6035 169.235L20.2596 168.909L19.9156 169.235L17.7006 171.334L15.5 169.531V1.17055L17.3791 2.96877L17.7251 3.29995L18.0708 2.96839L20.2596 0.869277L22.4483 2.96839L22.7939 3.29992L23.14 2.96879L25.3347 0.86889L27.5238 2.96839L27.8699 3.30031L28.216 2.96839L30.4051 0.86889L32.5997 2.96879L32.9458 3.29992L33.2915 2.96839L35.4806 0.86889L37.6753 2.96879L38.0213 3.29992L38.367 2.96839L40.5557 0.869277L42.7444 2.96839L43.0901 3.29992L43.4362 2.96879L45.6309 0.86889L47.82 2.96839L48.1657 3.29992L48.5117 2.96879L50.7064 0.868889L52.8955 2.96839L53.2416 3.30031L53.5877 2.96839L55.7768 0.868889L57.9715 2.96879L58.3175 3.29992L58.6632 2.96839L60.8519 0.869278L63.0406 2.96839L63.3863 3.29993L63.7324 2.96879L65.927 0.868889L68.1161 2.96839L68.4618 3.29992L68.8079 2.96879L71.0026 0.868889L73.1917 2.96839L73.5378 3.30031L73.8839 2.96839L76.073 0.868889L78.2676 2.96879L78.6137 3.29992L78.9594 2.96839L81.1485 0.868889L83.3432 2.96879L83.6892 3.29992L84.0349 2.96839L86.2236 0.869279L88.4123 2.96839L88.758 3.29993L89.1041 2.96879L91.2987 0.868889L93.4879 2.96839L93.8339 3.30031L94.18 2.96839L96.3692 0.868892L98.5638 2.96879L98.9099 3.29992L99.2556 2.96839L101.445 0.868892L103.639 2.96879L103.985 3.29993L104.331 2.96839L106.52 0.869279L108.709 2.96839L109.054 3.29992L109.4 2.96879L111.595 0.868889L113.784 2.96839L114.13 3.29992L114.476 2.96879L116.67 0.868889L118.86 2.96839L119.206 3.30031L119.552 2.96839L121.741 0.868889L123.936 2.96879Z" stroke="#152C77"/>
</g>
<path d="M123.471 2.60095L121.04 0.176047L118.616 2.60095L116.191 0.176047L113.76 2.60095L111.335 0.176047L108.905 2.60095L106.48 0.176047L104.055 2.60095L101.624 0.176047L99.1993 2.60095L96.7744 0.176047L94.3439 2.60095L91.919 0.176047L89.4884 2.60095L87.0635 0.176047L84.6386 2.60095L82.208 0.176047L79.7831 2.60095L77.3525 0.176047L74.9276 2.60095L72.5027 0.176047L70.0721 2.60095L67.6472 0.176047L65.2223 2.60095L62.7918 0.176047L60.3669 2.60095L57.9363 0.176047L55.5114 2.60095L53.0865 0.176047L50.6559 2.60095L48.231 0.176047L45.8004 2.60095L43.3755 0.176047L40.9506 2.60095L38.52 0.176047L36.0951 2.60095L33.6702 0.176047L31.2396 2.60095L28.8147 0.176047L26.3842 2.60095L23.9593 0.176047L21.5344 2.60095L18.9277 0V169.34L21.5344 171.566L23.9593 169.17L26.3842 171.566L28.8147 169.17L31.2396 171.566L33.6702 169.17L36.0951 171.566L38.52 169.17L40.9506 171.566L43.3755 169.17L45.8004 171.566L48.231 169.17L50.6559 171.566L53.0865 169.17L55.5114 171.566L57.9363 169.17L60.3669 171.566L62.7918 169.17L65.2223 171.566L67.6472 169.17L70.0721 171.566L72.5027 169.17L74.9276 171.566L77.3525 169.17L79.7831 171.566L82.208 169.17L84.6386 171.566L87.0635 169.17L89.4884 171.566L91.919 169.17L94.3439 171.566L96.7744 169.17L99.1993 171.566L101.624 169.17L104.055 171.566L106.48 169.17L108.905 171.566L111.335 169.17L113.76 171.566L116.191 169.17L118.616 171.566L121.04 169.17L123.471 171.566L126.072 169.34V0L123.471 2.60095Z" fill="white"/>
<path d="M47.269 22.0312V11.8045H50.9551C51.6766 11.8045 52.3354 11.9038 52.9314 12.1025C53.5274 12.2907 54.0032 12.6149 54.3587 13.075C54.7143 13.5351 54.892 14.173 54.892 14.9886C54.892 15.7415 54.7247 16.3637 54.3901 16.8551C54.066 17.3361 53.6268 17.6969 53.0726 17.9374L55.394 22.0312H52.8059L50.8453 18.3452H49.5748V22.0312H47.269ZM49.5748 16.5101H50.7668C51.3733 16.5101 51.8334 16.3846 52.1471 16.1336C52.4713 15.8722 52.6334 15.4905 52.6334 14.9886C52.6334 14.4867 52.4713 14.1364 52.1471 13.9377C51.8334 13.739 51.3733 13.6397 50.7668 13.6397H49.5748V16.5101ZM56.8885 22.0312V11.8045H63.288V13.7495H59.1942V15.8042H62.6763V17.7335H59.1942V20.0863H63.4449V22.0312H56.8885ZM69.748 22.2195C68.8905 22.2195 68.1011 22.0208 67.3795 21.6234C66.658 21.2261 66.0777 20.6405 65.6385 19.8667C65.2098 19.0824 64.9954 18.1204 64.9954 16.9806C64.9954 15.8513 65.215 14.8893 65.6542 14.0945C66.1038 13.2894 66.6946 12.6776 67.4266 12.2594C68.169 11.8306 68.969 11.6163 69.8264 11.6163C70.4852 11.6163 71.076 11.7522 71.5989 12.0241C72.1217 12.2855 72.5557 12.594 72.9007 12.9495L71.6773 14.4239C71.4159 14.1834 71.1388 13.99 70.846 13.8436C70.5636 13.6867 70.2395 13.6083 69.8735 13.6083C69.4134 13.6083 68.9899 13.739 68.603 14.0004C68.2265 14.2619 67.9233 14.6383 67.6932 15.1298C67.4737 15.6212 67.3639 16.212 67.3639 16.9022C67.3639 17.9479 67.5887 18.7635 68.0383 19.3491C68.488 19.9347 69.0892 20.2275 69.8421 20.2275C70.2604 20.2275 70.6316 20.1333 70.9558 19.9451C71.2904 19.7569 71.5832 19.5321 71.8341 19.2707L73.0576 20.7137C72.2001 21.7175 71.0969 22.2195 69.748 22.2195ZM74.6109 22.0312V11.8045H81.0105V13.7495H76.9166V15.8042H80.3987V17.7335H76.9166V20.0863H81.1673V22.0312H74.6109ZM83.2041 22.0312V11.8045H85.5098V22.0312H83.2041ZM87.9219 22.0312V11.8045H91.4354C92.1882 11.8045 92.8679 11.9091 93.4744 12.1182C94.0914 12.3169 94.5829 12.6567 94.9488 13.1377C95.3148 13.6188 95.4978 14.2723 95.4978 15.0984C95.4978 15.8931 95.3148 16.5467 94.9488 17.059C94.5829 17.5714 94.0966 17.9531 93.4901 18.2041C92.8836 18.4446 92.2196 18.5648 91.4981 18.5648H90.2276V22.0312H87.9219ZM90.2276 16.7297H91.3569C92.6117 16.7297 93.2392 16.1859 93.2392 15.0984C93.2392 14.5651 93.0718 14.1887 92.7372 13.9691C92.4026 13.7495 91.9216 13.6397 91.2942 13.6397H90.2276V16.7297ZM99.0432 22.0312V13.7495H96.2355V11.8045H104.172V13.7495H101.365V22.0312H99.0432Z" fill="#55A6FF"/>
<path d="M51.3859 160.213V155.559H49.8082V154.466H54.268V155.559H52.6903V160.213H51.3859ZM55.164 160.213V154.466H56.4596V156.679H58.4427V154.466H59.7471V160.213H58.4427V157.816H56.4596V160.213H55.164ZM62.4514 157.304L62.3104 157.833H63.5355L63.4033 157.304C63.3269 157.016 63.2476 156.711 63.1653 156.388C63.0889 156.065 63.0125 155.753 62.9362 155.453H62.9009C62.8304 155.759 62.7569 156.073 62.6806 156.397C62.6101 156.714 62.5337 157.016 62.4514 157.304ZM60.3714 160.213L62.1694 154.466H63.7294L65.5274 160.213H64.1524L63.7999 158.847H62.046L61.6934 160.213H60.3714ZM66.1553 160.213V154.466H67.4862L68.9845 157.322L69.5486 158.591H69.5838C69.5603 158.286 69.528 157.945 69.4869 157.569C69.4457 157.193 69.4252 156.834 69.4252 156.494V154.466H70.6591V160.213H69.3282L67.8299 157.348L67.2658 156.097H67.2306C67.2599 156.414 67.2923 156.755 67.3275 157.119C67.3686 157.484 67.3892 157.836 67.3892 158.177V160.213H66.1553ZM72.0167 160.213V154.466H73.3124V156.82H73.3476L75.0575 154.466H76.4853L74.749 156.758L76.8026 160.213H75.3836L73.9822 157.789L73.3124 158.67V160.213H72.0167ZM78.1854 160.213V158.168L76.4491 154.466H77.8416L78.3528 155.788C78.4351 156.006 78.5144 156.217 78.5908 156.423C78.6672 156.623 78.7436 156.834 78.8199 157.058H78.8552C78.9375 156.834 79.0197 156.623 79.102 156.423C79.1842 156.217 79.2636 156.006 79.34 155.788L79.86 154.466H81.2173L79.481 158.168V160.213H78.1854ZM84.0096 160.319C83.4925 160.319 83.0371 160.198 82.6434 159.957C82.2556 159.716 81.9501 159.373 81.7268 158.926C81.5094 158.474 81.4007 157.936 81.4007 157.313C81.4007 156.684 81.5094 156.153 81.7268 155.718C81.9501 155.277 82.2556 154.942 82.6434 154.713C83.0371 154.478 83.4925 154.361 84.0096 154.361C84.5266 154.361 84.9791 154.478 85.3669 154.713C85.7605 154.942 86.0661 155.277 86.2835 155.718C86.5068 156.159 86.6184 156.69 86.6184 157.313C86.6184 157.936 86.5068 158.474 86.2835 158.926C86.0661 159.373 85.7605 159.716 85.3669 159.957C84.9791 160.198 84.5266 160.319 84.0096 160.319ZM84.0096 159.199C84.4032 159.199 84.7147 159.029 84.9438 158.688C85.173 158.347 85.2875 157.889 85.2875 157.313C85.2875 156.737 85.173 156.288 84.9438 155.965C84.7147 155.642 84.4032 155.48 84.0096 155.48C83.6159 155.48 83.3045 155.642 83.0753 155.965C82.8462 156.288 82.7316 156.737 82.7316 157.313C82.7316 157.889 82.8462 158.347 83.0753 158.688C83.3045 159.029 83.6159 159.199 84.0096 159.199ZM89.964 160.319C89.2178 160.319 88.6479 160.098 88.2542 159.658C87.8605 159.217 87.6637 158.515 87.6637 157.551V154.466H88.9681V157.683C88.9681 158.247 89.0533 158.641 89.2237 158.864C89.3941 159.088 89.6409 159.199 89.964 159.199C90.2872 159.199 90.5369 159.088 90.7132 158.864C90.8895 158.641 90.9776 158.247 90.9776 157.683V154.466H92.2292V157.551C92.2292 158.515 92.0353 159.217 91.6475 159.658C91.2655 160.098 90.7044 160.319 89.964 160.319ZM93.957 158.177L93.7719 155.48L93.7278 154.308H95.0323L94.9882 155.48L94.8031 158.177H93.957ZM94.38 160.319C94.1568 160.319 93.9687 160.242 93.816 160.089C93.6691 159.931 93.5956 159.737 93.5956 159.508C93.5956 159.273 93.6691 159.079 93.816 158.926C93.9687 158.767 94.1568 158.688 94.38 158.688C94.6033 158.688 94.7884 158.767 94.9353 158.926C95.0881 159.079 95.1645 159.273 95.1645 159.508C95.1645 159.737 95.0881 159.931 94.9353 160.089C94.7884 160.242 94.6033 160.319 94.38 160.319Z" fill="#55A6FF"/>
<path d="M120.37 145.931H24.6294C24.5045 145.931 24.3909 145.892 24.3 145.818C24.1694 145.716 24.0842 145.562 24.0842 145.386C24.0842 145.261 24.1297 145.142 24.2035 145.051C24.3057 144.926 24.459 144.847 24.6294 144.847H120.37C120.518 144.847 120.654 144.909 120.757 145.006C120.859 145.102 120.916 145.239 120.916 145.392C120.916 145.528 120.864 145.653 120.779 145.75C120.677 145.863 120.535 145.937 120.37 145.937V145.931Z" fill="#55A6FF"/>
<path d="M120.37 116.054H24.6294C24.5045 116.054 24.3909 116.015 24.3 115.941C24.1694 115.839 24.0842 115.685 24.0842 115.509C24.0842 115.384 24.1297 115.265 24.2035 115.174C24.3057 115.049 24.459 114.97 24.6294 114.97H120.37C120.518 114.97 120.654 115.032 120.757 115.129C120.853 115.225 120.916 115.362 120.916 115.515C120.916 115.651 120.864 115.776 120.779 115.873C120.677 115.986 120.535 116.06 120.37 116.06V116.054Z" fill="#55A6FF"/>
<path d="M120.37 29.5925H24.6294C24.5045 29.5925 24.3909 29.5527 24.3 29.4789C24.1694 29.3767 24.0842 29.2234 24.0842 29.0473C24.0842 28.9224 24.1297 28.8031 24.2035 28.7123C24.3057 28.5873 24.459 28.5078 24.6294 28.5078H120.37C120.518 28.5078 120.654 28.5703 120.757 28.6668C120.853 28.7634 120.916 28.8997 120.916 29.053C120.916 29.1893 120.864 29.3142 120.779 29.4108C120.677 29.5243 120.535 29.5982 120.37 29.5982V29.5925Z" fill="#55A6FF"/>
<path d="M66.8233 38.963H27.6387C27.3604 38.963 27.0992 38.8608 26.9005 38.6904C26.6563 38.4803 26.5029 38.1736 26.5029 37.8272C26.5029 37.5149 26.6279 37.2309 26.838 37.0265C27.0424 36.822 27.3264 36.6914 27.6387 36.6914H66.8233C67.1356 36.6914 67.4196 36.8163 67.624 37.0265C67.8285 37.2366 67.9591 37.5149 67.9591 37.8272C67.9591 38.1395 67.8341 38.4235 67.624 38.6279C67.4196 38.8324 67.1356 38.963 66.8233 38.963Z" fill="#55A6FF"/>
<path d="M115.85 38.963H103.447C103.169 38.963 102.908 38.8608 102.709 38.6904C102.465 38.4803 102.311 38.1736 102.311 37.8272C102.311 37.5149 102.436 37.2309 102.646 37.0265C102.851 36.822 103.135 36.6914 103.447 36.6914H115.85C116.162 36.6914 116.446 36.8163 116.651 37.0265C116.855 37.2309 116.986 37.5149 116.986 37.8272C116.986 38.1395 116.861 38.4235 116.651 38.6279C116.44 38.8324 116.162 38.963 115.85 38.963Z" fill="#55A6FF"/>
<path d="M71.9349 38.9626C71.9349 39.2238 71.7248 39.4339 71.4635 39.4339C71.2023 39.4339 70.9922 39.2238 70.9922 38.9626C70.9922 38.7013 71.2023 38.4912 71.4635 38.4912C71.7248 38.4912 71.9349 38.7013 71.9349 38.9626Z" fill="#55A6FF"/>
<path d="M75.3414 38.9626C75.3414 39.2238 75.1313 39.4339 74.87 39.4339C74.6088 39.4339 74.3987 39.2238 74.3987 38.9626C74.3987 38.7013 74.6088 38.4912 74.87 38.4912C75.1313 38.4912 75.3414 38.7013 75.3414 38.9626Z" fill="#55A6FF"/>
<path d="M78.7496 38.9626C78.7496 39.2238 78.5395 39.4339 78.2782 39.4339C78.017 39.4339 77.8069 39.2238 77.8069 38.9626C77.8069 38.7013 78.017 38.4912 78.2782 38.4912C78.5395 38.4912 78.7496 38.7013 78.7496 38.9626Z" fill="#55A6FF"/>
<path d="M82.1563 38.9626C82.1563 39.2238 81.9462 39.4339 81.685 39.4339C81.4237 39.4339 81.2136 39.2238 81.2136 38.9626C81.2136 38.7013 81.4237 38.4912 81.685 38.4912C81.9462 38.4912 82.1563 38.7013 82.1563 38.9626Z" fill="#55A6FF"/>
<path d="M85.564 38.9626C85.564 39.2238 85.3539 39.4339 85.0927 39.4339C84.8315 39.4339 84.6213 39.2238 84.6213 38.9626C84.6213 38.7013 84.8315 38.4912 85.0927 38.4912C85.3539 38.4912 85.564 38.7013 85.564 38.9626Z" fill="#55A6FF"/>
<path d="M88.9718 38.9626C88.9718 39.2238 88.7616 39.4339 88.5004 39.4339C88.2392 39.4339 88.0291 39.2238 88.0291 38.9626C88.0291 38.7013 88.2392 38.4912 88.5004 38.4912C88.7616 38.4912 88.9718 38.7013 88.9718 38.9626Z" fill="#55A6FF"/>
<path d="M92.3783 38.9626C92.3783 39.2238 92.1681 39.4339 91.9069 39.4339C91.6457 39.4339 91.4355 39.2238 91.4355 38.9626C91.4355 38.7013 91.6457 38.4912 91.9069 38.4912C92.1681 38.4912 92.3783 38.7013 92.3783 38.9626Z" fill="#55A6FF"/>
<path d="M95.7865 38.9626C95.7865 39.2238 95.5763 39.4339 95.3151 39.4339C95.0539 39.4339 94.8438 39.2238 94.8438 38.9626C94.8438 38.7013 95.0539 38.4912 95.3151 38.4912C95.5763 38.4912 95.7865 38.7013 95.7865 38.9626Z" fill="#55A6FF"/>
<path d="M99.1932 38.9626C99.1932 39.2238 98.9831 39.4339 98.7218 39.4339C98.4606 39.4339 98.2505 39.2238 98.2505 38.9626C98.2505 38.7013 98.4606 38.4912 98.7218 38.4912C98.9831 38.4912 99.1932 38.7013 99.1932 38.9626Z" fill="#55A6FF"/>
<path d="M66.8233 48.8048H27.6387C27.3604 48.8048 27.0992 48.7026 26.9005 48.5322C26.6563 48.3221 26.5029 48.0154 26.5029 47.669C26.5029 47.3566 26.6279 47.0727 26.838 46.8683C27.0424 46.6638 27.3264 46.5332 27.6387 46.5332H66.8233C67.1356 46.5332 67.4196 46.6581 67.624 46.8683C67.8285 47.0727 67.9591 47.3566 67.9591 47.669C67.9591 47.9813 67.8341 48.2653 67.624 48.4697C67.4139 48.6742 67.1356 48.8048 66.8233 48.8048Z" fill="#55A6FF"/>
<path d="M115.85 48.8048H103.447C103.169 48.8048 102.908 48.7026 102.709 48.5322C102.465 48.3221 102.311 48.0154 102.311 47.669C102.311 47.3566 102.436 47.0727 102.646 46.8683C102.851 46.6638 103.135 46.5332 103.447 46.5332H115.85C116.162 46.5332 116.446 46.6581 116.651 46.8683C116.855 47.0727 116.986 47.3566 116.986 47.669C116.986 47.9813 116.861 48.2653 116.651 48.4697C116.446 48.6742 116.162 48.8048 115.85 48.8048Z" fill="#55A6FF"/>
<path d="M71.9349 48.8044C71.9349 49.0656 71.7248 49.2757 71.4635 49.2757C71.2023 49.2757 70.9922 49.0656 70.9922 48.8044C70.9922 48.5431 71.2023 48.333 71.4635 48.333C71.7248 48.333 71.9349 48.5431 71.9349 48.8044Z" fill="#55A6FF"/>
<path d="M75.3414 48.8044C75.3414 49.0656 75.1313 49.2757 74.87 49.2757C74.6088 49.2757 74.3987 49.0656 74.3987 48.8044C74.3987 48.5431 74.6088 48.333 74.87 48.333C75.1313 48.333 75.3414 48.5431 75.3414 48.8044Z" fill="#55A6FF"/>
<path d="M78.7496 48.8044C78.7496 49.0656 78.5395 49.2757 78.2782 49.2757C78.017 49.2757 77.8069 49.0656 77.8069 48.8044C77.8069 48.5431 78.017 48.333 78.2782 48.333C78.5395 48.333 78.7496 48.5431 78.7496 48.8044Z" fill="#55A6FF"/>
<path d="M82.1563 48.8044C82.1563 49.0656 81.9462 49.2757 81.685 49.2757C81.4237 49.2757 81.2136 49.0656 81.2136 48.8044C81.2136 48.5431 81.4237 48.333 81.685 48.333C81.9462 48.333 82.1563 48.5431 82.1563 48.8044Z" fill="#55A6FF"/>
<path d="M85.564 48.8044C85.564 49.0656 85.3539 49.2757 85.0927 49.2757C84.8315 49.2757 84.6213 49.0656 84.6213 48.8044C84.6213 48.5431 84.8315 48.333 85.0927 48.333C85.3539 48.333 85.564 48.5431 85.564 48.8044Z" fill="#55A6FF"/>
<path d="M88.9718 48.8044C88.9718 49.0656 88.7616 49.2757 88.5004 49.2757C88.2392 49.2757 88.0291 49.0656 88.0291 48.8044C88.0291 48.5431 88.2392 48.333 88.5004 48.333C88.7616 48.333 88.9718 48.5431 88.9718 48.8044Z" fill="#55A6FF"/>
<path d="M92.3783 48.8044C92.3783 49.0656 92.1681 49.2757 91.9069 49.2757C91.6457 49.2757 91.4355 49.0656 91.4355 48.8044C91.4355 48.5431 91.6457 48.333 91.9069 48.333C92.1681 48.333 92.3783 48.5431 92.3783 48.8044Z" fill="#55A6FF"/>
<path d="M95.7865 48.8044C95.7865 49.0656 95.5763 49.2757 95.3151 49.2757C95.0539 49.2757 94.8438 49.0656 94.8438 48.8044C94.8438 48.5431 95.0539 48.333 95.3151 48.333C95.5763 48.333 95.7865 48.5431 95.7865 48.8044Z" fill="#55A6FF"/>
<path d="M99.1932 48.8044C99.1932 49.0656 98.9831 49.2757 98.7218 49.2757C98.4606 49.2757 98.2505 49.0656 98.2505 48.8044C98.2505 48.5431 98.4606 48.333 98.7218 48.333C98.9831 48.333 99.1932 48.5431 99.1932 48.8044Z" fill="#55A6FF"/>
<path d="M66.8233 58.6515H27.6387C27.3604 58.6515 27.0992 58.5492 26.9005 58.3789C26.6563 58.1687 26.5029 57.8621 26.5029 57.5157C26.5029 57.2033 26.6279 56.9194 26.838 56.7149C27.0481 56.5105 27.3264 56.3799 27.6387 56.3799H66.8233C67.1356 56.3799 67.4196 56.5048 67.624 56.7149C67.8285 56.9251 67.9591 57.2033 67.9591 57.5157C67.9591 57.828 67.8341 58.112 67.624 58.3164C67.4139 58.5208 67.1356 58.6515 66.8233 58.6515Z" fill="#55A6FF"/>
<path d="M115.85 58.6515H103.447C103.169 58.6515 102.907 58.5492 102.709 58.3789C102.464 58.1687 102.311 57.8621 102.311 57.5157C102.311 57.2033 102.436 56.9194 102.646 56.7149C102.856 56.5105 103.134 56.3799 103.447 56.3799H115.85C116.162 56.3799 116.446 56.5048 116.65 56.7149C116.855 56.9194 116.985 57.2033 116.985 57.5157C116.985 57.828 116.86 58.112 116.65 58.3164C116.446 58.5208 116.162 58.6515 115.85 58.6515Z" fill="#55A6FF"/>
<path d="M71.9346 58.651C71.9346 58.9123 71.7245 59.1224 71.4633 59.1224C71.2021 59.1224 70.9919 58.9123 70.9919 58.651C70.9919 58.3898 71.2021 58.1797 71.4633 58.1797C71.7245 58.1797 71.9346 58.3898 71.9346 58.651Z" fill="#55A6FF"/>
<path d="M75.3411 58.651C75.3411 58.9123 75.131 59.1224 74.8698 59.1224C74.6086 59.1224 74.3984 58.9123 74.3984 58.651C74.3984 58.3898 74.6086 58.1797 74.8698 58.1797C75.131 58.1797 75.3411 58.3898 75.3411 58.651Z" fill="#55A6FF"/>
<path d="M78.7493 58.651C78.7493 58.9123 78.5392 59.1224 78.278 59.1224C78.0168 59.1224 77.8066 58.9123 77.8066 58.651C77.8066 58.3898 78.0168 58.1797 78.278 58.1797C78.5392 58.1797 78.7493 58.3898 78.7493 58.651Z" fill="#55A6FF"/>
<path d="M82.1561 58.651C82.1561 58.9123 81.946 59.1224 81.6847 59.1224C81.4235 59.1224 81.2134 58.9123 81.2134 58.651C81.2134 58.3898 81.4235 58.1797 81.6847 58.1797C81.946 58.1797 82.1561 58.3898 82.1561 58.651Z" fill="#55A6FF"/>
<path d="M85.5638 58.651C85.5638 58.9123 85.3537 59.1224 85.0924 59.1224C84.8312 59.1224 84.6211 58.9123 84.6211 58.651C84.6211 58.3898 84.8312 58.1797 85.0924 58.1797C85.3537 58.1797 85.5638 58.3898 85.5638 58.651Z" fill="#55A6FF"/>
<path d="M88.9715 58.651C88.9715 58.9123 88.7614 59.1224 88.5002 59.1224C88.2389 59.1224 88.0288 58.9123 88.0288 58.651C88.0288 58.3898 88.2389 58.1797 88.5002 58.1797C88.7614 58.1797 88.9715 58.3898 88.9715 58.651Z" fill="#55A6FF"/>
<path d="M92.378 58.651C92.378 58.9123 92.1679 59.1224 91.9067 59.1224C91.6454 59.1224 91.4353 58.9123 91.4353 58.651C91.4353 58.3898 91.6454 58.1797 91.9067 58.1797C92.1679 58.1797 92.378 58.3898 92.378 58.651Z" fill="#55A6FF"/>
<path d="M95.7862 58.651C95.7862 58.9123 95.5761 59.1224 95.3149 59.1224C95.0536 59.1224 94.8435 58.9123 94.8435 58.651C94.8435 58.3898 95.0536 58.1797 95.3149 58.1797C95.5761 58.1797 95.7862 58.3898 95.7862 58.651Z" fill="#55A6FF"/>
<path d="M99.1929 58.651C99.1929 58.9123 98.9828 59.1224 98.7216 59.1224C98.4604 59.1224 98.2502 58.9123 98.2502 58.651C98.2502 58.3898 98.4604 58.1797 98.7216 58.1797C98.9828 58.1797 99.1929 58.3898 99.1929 58.651Z" fill="#55A6FF"/>
<path d="M66.8233 68.4932H27.6387C27.3604 68.4932 27.0992 68.391 26.9005 68.2207C26.6563 68.0105 26.5029 67.7039 26.5029 67.3575C26.5029 67.0451 26.6279 66.7612 26.838 66.5567C27.0424 66.3523 27.3264 66.2217 27.6387 66.2217H66.8233C67.1356 66.2217 67.4196 66.3466 67.624 66.5567C67.8285 66.7669 67.9591 67.0451 67.9591 67.3575C67.9591 67.6698 67.8341 67.9537 67.624 68.1582C67.4196 68.3626 67.1356 68.4932 66.8233 68.4932Z" fill="#55A6FF"/>
<path d="M115.85 68.4932H103.447C103.169 68.4932 102.908 68.391 102.709 68.2207C102.465 68.0105 102.311 67.7039 102.311 67.3575C102.311 67.0451 102.436 66.7612 102.646 66.5567C102.851 66.3523 103.135 66.2217 103.447 66.2217H115.85C116.162 66.2217 116.446 66.3466 116.651 66.5567C116.855 66.7612 116.986 67.0451 116.986 67.3575C116.986 67.6698 116.861 67.9537 116.651 68.1582C116.44 68.3626 116.162 68.4932 115.85 68.4932Z" fill="#55A6FF"/>
<path d="M71.9349 68.4928C71.9349 68.7541 71.7248 68.9642 71.4635 68.9642C71.2023 68.9642 70.9922 68.7541 70.9922 68.4928C70.9922 68.2316 71.2023 68.0215 71.4635 68.0215C71.7248 68.0215 71.9349 68.2316 71.9349 68.4928Z" fill="#55A6FF"/>
<path d="M75.3414 68.4928C75.3414 68.7541 75.1313 68.9642 74.87 68.9642C74.6088 68.9642 74.3987 68.7541 74.3987 68.4928C74.3987 68.2316 74.6088 68.0215 74.87 68.0215C75.1313 68.0215 75.3414 68.2316 75.3414 68.4928Z" fill="#55A6FF"/>
<path d="M78.7496 68.4928C78.7496 68.7541 78.5395 68.9642 78.2782 68.9642C78.017 68.9642 77.8069 68.7541 77.8069 68.4928C77.8069 68.2316 78.017 68.0215 78.2782 68.0215C78.5395 68.0215 78.7496 68.2316 78.7496 68.4928Z" fill="#55A6FF"/>
<path d="M82.1563 68.4928C82.1563 68.7541 81.9462 68.9642 81.685 68.9642C81.4237 68.9642 81.2136 68.7541 81.2136 68.4928C81.2136 68.2316 81.4237 68.0215 81.685 68.0215C81.9462 68.0215 82.1563 68.2316 82.1563 68.4928Z" fill="#55A6FF"/>
<path d="M85.564 68.4928C85.564 68.7541 85.3539 68.9642 85.0927 68.9642C84.8315 68.9642 84.6213 68.7541 84.6213 68.4928C84.6213 68.2316 84.8315 68.0215 85.0927 68.0215C85.3539 68.0215 85.564 68.2316 85.564 68.4928Z" fill="#55A6FF"/>
<path d="M88.9718 68.4928C88.9718 68.7541 88.7616 68.9642 88.5004 68.9642C88.2392 68.9642 88.0291 68.7541 88.0291 68.4928C88.0291 68.2316 88.2392 68.0215 88.5004 68.0215C88.7616 68.0215 88.9718 68.2316 88.9718 68.4928Z" fill="#55A6FF"/>
<path d="M92.3783 68.4928C92.3783 68.7541 92.1681 68.9642 91.9069 68.9642C91.6457 68.9642 91.4355 68.7541 91.4355 68.4928C91.4355 68.2316 91.6457 68.0215 91.9069 68.0215C92.1681 68.0215 92.3783 68.2316 92.3783 68.4928Z" fill="#55A6FF"/>
<path d="M95.7865 68.4928C95.7865 68.7541 95.5763 68.9642 95.3151 68.9642C95.0539 68.9642 94.8438 68.7541 94.8438 68.4928C94.8438 68.2316 95.0539 68.0215 95.3151 68.0215C95.5763 68.0215 95.7865 68.2316 95.7865 68.4928Z" fill="#55A6FF"/>
<path d="M99.1932 68.4928C99.1932 68.7541 98.9831 68.9642 98.7218 68.9642C98.4606 68.9642 98.2505 68.7541 98.2505 68.4928C98.2505 68.2316 98.4606 68.0215 98.7218 68.0215C98.9831 68.0215 99.1932 68.2316 99.1932 68.4928Z" fill="#55A6FF"/>
<path d="M66.8233 78.335H27.6387C27.3604 78.335 27.0992 78.2328 26.9005 78.0625C26.6563 77.8523 26.5029 77.5457 26.5029 77.1993C26.5029 76.8869 26.6279 76.603 26.838 76.3985C27.0424 76.1941 27.3264 76.0635 27.6387 76.0635H66.8233C67.1356 76.0635 67.4196 76.1884 67.624 76.3985C67.8285 76.603 67.9591 76.8869 67.9591 77.1993C67.9591 77.5116 67.8341 77.7956 67.624 78C67.4139 78.2044 67.1356 78.335 66.8233 78.335Z" fill="#55A6FF"/>
<path d="M115.85 78.335H103.447C103.169 78.335 102.908 78.2328 102.709 78.0625C102.465 77.8523 102.311 77.5457 102.311 77.1993C102.311 76.8869 102.436 76.603 102.646 76.3985C102.851 76.1941 103.135 76.0635 103.447 76.0635H115.85C116.162 76.0635 116.446 76.1884 116.651 76.3985C116.855 76.603 116.986 76.8869 116.986 77.1993C116.986 77.5116 116.861 77.7956 116.651 78C116.446 78.2044 116.162 78.335 115.85 78.335Z" fill="#55A6FF"/>
<path d="M71.9349 78.3346C71.9349 78.5959 71.7248 78.806 71.4635 78.806C71.2023 78.806 70.9922 78.5959 70.9922 78.3346C70.9922 78.0734 71.2023 77.8633 71.4635 77.8633C71.7248 77.8633 71.9349 78.0734 71.9349 78.3346Z" fill="#55A6FF"/>
<path d="M75.3414 78.3346C75.3414 78.5959 75.1313 78.806 74.87 78.806C74.6088 78.806 74.3987 78.5959 74.3987 78.3346C74.3987 78.0734 74.6088 77.8633 74.87 77.8633C75.1313 77.8633 75.3414 78.0734 75.3414 78.3346Z" fill="#55A6FF"/>
<path d="M78.7496 78.3346C78.7496 78.5959 78.5395 78.806 78.2782 78.806C78.017 78.806 77.8069 78.5959 77.8069 78.3346C77.8069 78.0734 78.017 77.8633 78.2782 77.8633C78.5395 77.8633 78.7496 78.0734 78.7496 78.3346Z" fill="#55A6FF"/>
<path d="M82.1563 78.3346C82.1563 78.5959 81.9462 78.806 81.685 78.806C81.4237 78.806 81.2136 78.5959 81.2136 78.3346C81.2136 78.0734 81.4237 77.8633 81.685 77.8633C81.9462 77.8633 82.1563 78.0734 82.1563 78.3346Z" fill="#55A6FF"/>
<path d="M85.564 78.3346C85.564 78.5959 85.3539 78.806 85.0927 78.806C84.8315 78.806 84.6213 78.5959 84.6213 78.3346C84.6213 78.0734 84.8315 77.8633 85.0927 77.8633C85.3539 77.8633 85.564 78.0734 85.564 78.3346Z" fill="#55A6FF"/>
<path d="M88.9718 78.3346C88.9718 78.5959 88.7616 78.806 88.5004 78.806C88.2392 78.806 88.0291 78.5959 88.0291 78.3346C88.0291 78.0734 88.2392 77.8633 88.5004 77.8633C88.7616 77.8633 88.9718 78.0734 88.9718 78.3346Z" fill="#55A6FF"/>
<path d="M92.3783 78.3346C92.3783 78.5959 92.1681 78.806 91.9069 78.806C91.6457 78.806 91.4355 78.5959 91.4355 78.3346C91.4355 78.0734 91.6457 77.8633 91.9069 77.8633C92.1681 77.8633 92.3783 78.0734 92.3783 78.3346Z" fill="#55A6FF"/>
<path d="M95.7865 78.3346C95.7865 78.5959 95.5763 78.806 95.3151 78.806C95.0539 78.806 94.8438 78.5959 94.8438 78.3346C94.8438 78.0734 95.0539 77.8633 95.3151 77.8633C95.5763 77.8633 95.7865 78.0734 95.7865 78.3346Z" fill="#55A6FF"/>
<path d="M99.1932 78.3346C99.1932 78.5959 98.9831 78.806 98.7218 78.806C98.4606 78.806 98.2505 78.5959 98.2505 78.3346C98.2505 78.0734 98.4606 77.8633 98.7218 77.8633C98.9831 77.8633 99.1932 78.0734 99.1932 78.3346Z" fill="#55A6FF"/>
<path d="M66.8233 88.1827H27.6387C27.3604 88.1827 27.0992 88.0805 26.9005 87.9101C26.6563 87.7 26.5029 87.3933 26.5029 87.0469C26.5029 86.7346 26.6279 86.4506 26.838 86.2462C27.0481 86.0417 27.3264 85.9111 27.6387 85.9111H66.8233C67.1356 85.9111 67.4196 86.0361 67.624 86.2462C67.8285 86.4563 67.9591 86.7346 67.9591 87.0469C67.9591 87.3593 67.8341 87.6432 67.624 87.8476C67.4139 88.0521 67.1356 88.1827 66.8233 88.1827Z" fill="#55A6FF"/>
<path d="M115.85 88.1827H103.447C103.169 88.1827 102.908 88.0805 102.709 87.9101C102.465 87.7 102.311 87.3933 102.311 87.0469C102.311 86.7346 102.436 86.4506 102.646 86.2462C102.856 86.0417 103.135 85.9111 103.447 85.9111H115.85C116.162 85.9111 116.446 86.0361 116.651 86.2462C116.855 86.4506 116.986 86.7346 116.986 87.0469C116.986 87.3593 116.861 87.6432 116.651 87.8476C116.446 88.0521 116.162 88.1827 115.85 88.1827Z" fill="#55A6FF"/>
<path d="M71.9349 88.1823C71.9349 88.4435 71.7248 88.6536 71.4635 88.6536C71.2023 88.6536 70.9922 88.4435 70.9922 88.1823C70.9922 87.9211 71.2023 87.7109 71.4635 87.7109C71.7248 87.7109 71.9349 87.9211 71.9349 88.1823Z" fill="#55A6FF"/>
<path d="M75.3414 88.1823C75.3414 88.4435 75.1313 88.6536 74.87 88.6536C74.6088 88.6536 74.3987 88.4435 74.3987 88.1823C74.3987 87.9211 74.6088 87.7109 74.87 87.7109C75.1313 87.7109 75.3414 87.9211 75.3414 88.1823Z" fill="#55A6FF"/>
<path d="M78.7496 88.1823C78.7496 88.4435 78.5395 88.6536 78.2782 88.6536C78.017 88.6536 77.8069 88.4435 77.8069 88.1823C77.8069 87.9211 78.017 87.7109 78.2782 87.7109C78.5395 87.7109 78.7496 87.9211 78.7496 88.1823Z" fill="#55A6FF"/>
<path d="M82.1563 88.1823C82.1563 88.4435 81.9462 88.6536 81.685 88.6536C81.4237 88.6536 81.2136 88.4435 81.2136 88.1823C81.2136 87.9211 81.4237 87.7109 81.685 87.7109C81.9462 87.7109 82.1563 87.9211 82.1563 88.1823Z" fill="#55A6FF"/>
<path d="M85.564 88.1823C85.564 88.4435 85.3539 88.6536 85.0927 88.6536C84.8315 88.6536 84.6213 88.4435 84.6213 88.1823C84.6213 87.9211 84.8315 87.7109 85.0927 87.7109C85.3539 87.7109 85.564 87.9211 85.564 88.1823Z" fill="#55A6FF"/>
<path d="M88.9718 88.1823C88.9718 88.4435 88.7616 88.6536 88.5004 88.6536C88.2392 88.6536 88.0291 88.4435 88.0291 88.1823C88.0291 87.9211 88.2392 87.7109 88.5004 87.7109C88.7616 87.7109 88.9718 87.9211 88.9718 88.1823Z" fill="#55A6FF"/>
<path d="M92.3783 88.1823C92.3783 88.4435 92.1681 88.6536 91.9069 88.6536C91.6457 88.6536 91.4355 88.4435 91.4355 88.1823C91.4355 87.9211 91.6457 87.7109 91.9069 87.7109C92.1681 87.7109 92.3783 87.9211 92.3783 88.1823Z" fill="#55A6FF"/>
<path d="M95.7865 88.1823C95.7865 88.4435 95.5763 88.6536 95.3151 88.6536C95.0539 88.6536 94.8438 88.4435 94.8438 88.1823C94.8438 87.9211 95.0539 87.7109 95.3151 87.7109C95.5763 87.7109 95.7865 87.9211 95.7865 88.1823Z" fill="#55A6FF"/>
<path d="M99.1932 88.1823C99.1932 88.4435 98.9831 88.6536 98.7218 88.6536C98.4606 88.6536 98.2505 88.4435 98.2505 88.1823C98.2505 87.9211 98.4606 87.7109 98.7218 87.7109C98.9831 87.7109 99.1932 87.9211 99.1932 88.1823Z" fill="#55A6FF"/>
<path d="M66.8233 98.0245H27.6387C27.3604 98.0245 27.0992 97.9223 26.9005 97.7519C26.6563 97.5418 26.5029 97.2351 26.5029 96.8887C26.5029 96.5764 26.6279 96.2924 26.838 96.088C27.0424 95.8835 27.3264 95.7529 27.6387 95.7529H66.8233C67.1356 95.7529 67.4196 95.8779 67.624 96.088C67.8285 96.2981 67.9591 96.5764 67.9591 96.8887C67.9591 97.2011 67.8341 97.485 67.624 97.6894C67.4196 97.8939 67.1356 98.0245 66.8233 98.0245Z" fill="#55A6FF"/>
<path d="M115.85 98.0245H103.447C103.169 98.0245 102.908 97.9223 102.709 97.7519C102.465 97.5418 102.311 97.2351 102.311 96.8887C102.311 96.5764 102.436 96.2924 102.646 96.088C102.851 95.8835 103.135 95.7529 103.447 95.7529H115.85C116.162 95.7529 116.446 95.8779 116.651 96.088C116.855 96.2924 116.986 96.5764 116.986 96.8887C116.986 97.2011 116.861 97.485 116.651 97.6894C116.44 97.8939 116.162 98.0245 115.85 98.0245Z" fill="#55A6FF"/>
<path d="M71.9349 98.0241C71.9349 98.2853 71.7248 98.4954 71.4635 98.4954C71.2023 98.4954 70.9922 98.2853 70.9922 98.0241C70.9922 97.7629 71.2023 97.5527 71.4635 97.5527C71.7248 97.5527 71.9349 97.7629 71.9349 98.0241Z" fill="#55A6FF"/>
<path d="M75.3414 98.0241C75.3414 98.2853 75.1313 98.4954 74.87 98.4954C74.6088 98.4954 74.3987 98.2853 74.3987 98.0241C74.3987 97.7629 74.6088 97.5527 74.87 97.5527C75.1313 97.5527 75.3414 97.7629 75.3414 98.0241Z" fill="#55A6FF"/>
<path d="M78.7496 98.0241C78.7496 98.2853 78.5395 98.4954 78.2782 98.4954C78.017 98.4954 77.8069 98.2853 77.8069 98.0241C77.8069 97.7629 78.017 97.5527 78.2782 97.5527C78.5395 97.5527 78.7496 97.7629 78.7496 98.0241Z" fill="#55A6FF"/>
<path d="M82.1563 98.0241C82.1563 98.2853 81.9462 98.4954 81.685 98.4954C81.4237 98.4954 81.2136 98.2853 81.2136 98.0241C81.2136 97.7629 81.4237 97.5527 81.685 97.5527C81.9462 97.5527 82.1563 97.7629 82.1563 98.0241Z" fill="#55A6FF"/>
<path d="M85.564 98.0241C85.564 98.2853 85.3539 98.4954 85.0927 98.4954C84.8315 98.4954 84.6213 98.2853 84.6213 98.0241C84.6213 97.7629 84.8315 97.5527 85.0927 97.5527C85.3539 97.5527 85.564 97.7629 85.564 98.0241Z" fill="#55A6FF"/>
<path d="M88.9718 98.0241C88.9718 98.2853 88.7616 98.4954 88.5004 98.4954C88.2392 98.4954 88.0291 98.2853 88.0291 98.0241C88.0291 97.7629 88.2392 97.5527 88.5004 97.5527C88.7616 97.5527 88.9718 97.7629 88.9718 98.0241Z" fill="#55A6FF"/>
<path d="M92.3783 98.0241C92.3783 98.2853 92.1681 98.4954 91.9069 98.4954C91.6457 98.4954 91.4355 98.2853 91.4355 98.0241C91.4355 97.7629 91.6457 97.5527 91.9069 97.5527C92.1681 97.5527 92.3783 97.7629 92.3783 98.0241Z" fill="#55A6FF"/>
<path d="M95.7865 98.0241C95.7865 98.2853 95.5763 98.4954 95.3151 98.4954C95.0539 98.4954 94.8438 98.2853 94.8438 98.0241C94.8438 97.7629 95.0539 97.5527 95.3151 97.5527C95.5763 97.5527 95.7865 97.7629 95.7865 98.0241Z" fill="#55A6FF"/>
<path d="M99.1932 98.0241C99.1932 98.2853 98.9831 98.4954 98.7218 98.4954C98.4606 98.4954 98.2505 98.2853 98.2505 98.0241C98.2505 97.7629 98.4606 97.5527 98.7218 97.5527C98.9831 97.5527 99.1932 97.7629 99.1932 98.0241Z" fill="#55A6FF"/>
<path d="M66.8233 107.865H27.6387C27.3604 107.865 27.0992 107.763 26.9005 107.593C26.6563 107.383 26.5029 107.076 26.5029 106.73C26.5029 106.417 26.6279 106.133 26.838 105.929C27.0424 105.724 27.3264 105.594 27.6387 105.594H66.8233C67.1356 105.594 67.4196 105.719 67.624 105.929C67.8285 106.133 67.9591 106.417 67.9591 106.73C67.9591 107.042 67.8341 107.326 67.624 107.53C67.4139 107.735 67.1356 107.865 66.8233 107.865Z" fill="#55A6FF"/>
<path d="M115.85 107.865H103.447C103.169 107.865 102.908 107.763 102.709 107.593C102.465 107.383 102.311 107.076 102.311 106.73C102.311 106.417 102.436 106.133 102.646 105.929C102.851 105.724 103.135 105.594 103.447 105.594H115.85C116.162 105.594 116.446 105.719 116.651 105.929C116.855 106.133 116.986 106.417 116.986 106.73C116.986 107.042 116.861 107.326 116.651 107.53C116.446 107.735 116.162 107.865 115.85 107.865Z" fill="#55A6FF"/>
<path d="M71.9349 107.865C71.9349 108.126 71.7248 108.336 71.4635 108.336C71.2023 108.336 70.9922 108.126 70.9922 107.865C70.9922 107.604 71.2023 107.394 71.4635 107.394C71.7248 107.394 71.9349 107.604 71.9349 107.865Z" fill="#55A6FF"/>
<path d="M75.3414 107.865C75.3414 108.126 75.1313 108.336 74.87 108.336C74.6088 108.336 74.3987 108.126 74.3987 107.865C74.3987 107.604 74.6088 107.394 74.87 107.394C75.1313 107.394 75.3414 107.604 75.3414 107.865Z" fill="#55A6FF"/>
<path d="M78.7496 107.865C78.7496 108.126 78.5395 108.336 78.2782 108.336C78.017 108.336 77.8069 108.126 77.8069 107.865C77.8069 107.604 78.017 107.394 78.2782 107.394C78.5395 107.394 78.7496 107.604 78.7496 107.865Z" fill="#55A6FF"/>
<path d="M82.1563 107.865C82.1563 108.126 81.9462 108.336 81.685 108.336C81.4237 108.336 81.2136 108.126 81.2136 107.865C81.2136 107.604 81.4237 107.394 81.685 107.394C81.9462 107.394 82.1563 107.604 82.1563 107.865Z" fill="#55A6FF"/>
<path d="M85.564 107.865C85.564 108.126 85.3539 108.336 85.0927 108.336C84.8315 108.336 84.6213 108.126 84.6213 107.865C84.6213 107.604 84.8315 107.394 85.0927 107.394C85.3539 107.394 85.564 107.604 85.564 107.865Z" fill="#55A6FF"/>
<path d="M88.9718 107.865C88.9718 108.126 88.7616 108.336 88.5004 108.336C88.2392 108.336 88.0291 108.126 88.0291 107.865C88.0291 107.604 88.2392 107.394 88.5004 107.394C88.7616 107.394 88.9718 107.604 88.9718 107.865Z" fill="#55A6FF"/>
<path d="M92.3783 107.865C92.3783 108.126 92.1681 108.336 91.9069 108.336C91.6457 108.336 91.4355 108.126 91.4355 107.865C91.4355 107.604 91.6457 107.394 91.9069 107.394C92.1681 107.394 92.3783 107.604 92.3783 107.865Z" fill="#55A6FF"/>
<path d="M95.7865 107.865C95.7865 108.126 95.5763 108.336 95.3151 108.336C95.0539 108.336 94.8438 108.126 94.8438 107.865C94.8438 107.604 95.0539 107.394 95.3151 107.394C95.5763 107.394 95.7865 107.604 95.7865 107.865Z" fill="#55A6FF"/>
<path d="M99.1932 107.865C99.1932 108.126 98.9831 108.336 98.7218 108.336C98.4606 108.336 98.2505 108.126 98.2505 107.865C98.2505 107.604 98.4606 107.394 98.7218 107.394C98.9831 107.394 99.1932 107.604 99.1932 107.865Z" fill="#55A6FF"/>
<path d="M90.7253 136.421V134.852C90.2652 134.8 89.779 134.674 89.2666 134.476C88.7647 134.267 88.3307 133.995 87.9647 133.66L88.9686 132.107C89.366 132.4 89.7424 132.625 90.0979 132.782C90.4639 132.939 90.8351 133.017 91.2116 133.017C92.0586 133.017 92.4821 132.656 92.4821 131.935C92.4821 131.663 92.3827 131.433 92.1841 131.245C91.9854 131.046 91.7292 130.863 91.4155 130.696C91.1018 130.528 90.7672 130.356 90.4116 130.178C90.0561 130 89.7215 129.796 89.4078 129.566C89.0941 129.336 88.8379 129.059 88.6392 128.735C88.4405 128.4 88.3412 127.998 88.3412 127.527C88.3412 126.753 88.5556 126.116 88.9843 125.614C89.413 125.101 89.9934 124.772 90.7253 124.625V123.01H92.2468V124.594C92.7487 124.667 93.1879 124.819 93.5644 125.049C93.9408 125.279 94.2807 125.556 94.5839 125.88L93.4232 127.198C93.1409 126.936 92.869 126.743 92.6076 126.617C92.3461 126.481 92.0481 126.414 91.7135 126.414C91.3371 126.414 91.0495 126.492 90.8508 126.649C90.6521 126.806 90.5528 127.062 90.5528 127.417C90.5528 127.668 90.6521 127.883 90.8508 128.06C91.0495 128.228 91.3057 128.39 91.6194 128.547C91.9331 128.704 92.2677 128.866 92.6233 129.033C92.9788 129.2 93.3134 129.404 93.6271 129.645C93.9408 129.885 94.197 130.178 94.3957 130.523C94.5944 130.858 94.6937 131.276 94.6937 131.778C94.6937 132.531 94.4846 133.179 94.0663 133.723C93.6585 134.256 93.052 134.612 92.2468 134.789V136.421H90.7253ZM98.1338 134.695C98.1965 133.587 98.3168 132.593 98.4945 131.715C98.6723 130.837 98.9442 129.995 99.3102 129.19C99.6762 128.385 100.173 127.548 100.8 126.68H96.33V124.735H103.263V126.147C102.688 126.847 102.222 127.506 101.867 128.123C101.522 128.74 101.25 129.373 101.051 130.021C100.863 130.659 100.727 131.354 100.643 132.107C100.56 132.86 100.497 133.723 100.455 134.695H98.1338ZM108.068 134.884C107.001 134.884 106.138 134.439 105.479 133.55C104.831 132.661 104.507 131.37 104.507 129.676C104.507 127.982 104.831 126.706 105.479 125.849C106.138 124.981 107.001 124.547 108.068 124.547C109.134 124.547 109.992 124.981 110.64 125.849C111.299 126.706 111.628 127.982 111.628 129.676C111.628 131.37 111.299 132.661 110.64 133.55C109.992 134.439 109.134 134.884 108.068 134.884ZM108.068 133.095C108.329 133.095 108.564 133.001 108.773 132.813C108.983 132.614 109.145 132.269 109.26 131.778C109.385 131.286 109.448 130.586 109.448 129.676C109.448 128.766 109.385 128.071 109.26 127.59C109.145 127.109 108.983 126.78 108.773 126.602C108.564 126.424 108.329 126.335 108.068 126.335C107.817 126.335 107.587 126.424 107.377 126.602C107.168 126.78 107.001 127.109 106.875 127.59C106.75 128.071 106.687 128.766 106.687 129.676C106.687 130.586 106.75 131.286 106.875 131.778C107.001 132.269 107.168 132.614 107.377 132.813C107.587 133.001 107.817 133.095 108.068 133.095ZM116.354 134.884C115.288 134.884 114.425 134.439 113.766 133.55C113.118 132.661 112.794 131.37 112.794 129.676C112.794 127.982 113.118 126.706 113.766 125.849C114.425 124.981 115.288 124.547 116.354 124.547C117.421 124.547 118.278 124.981 118.927 125.849C119.585 126.706 119.915 127.982 119.915 129.676C119.915 131.37 119.585 132.661 118.927 133.55C118.278 134.439 117.421 134.884 116.354 134.884ZM116.354 133.095C116.616 133.095 116.851 133.001 117.06 132.813C117.269 132.614 117.431 132.269 117.546 131.778C117.672 131.286 117.735 130.586 117.735 129.676C117.735 128.766 117.672 128.071 117.546 127.59C117.431 127.109 117.269 126.78 117.06 126.602C116.851 126.424 116.616 126.335 116.354 126.335C116.103 126.335 115.873 126.424 115.664 126.602C115.455 126.78 115.288 127.109 115.162 127.59C115.037 128.071 114.974 128.766 114.974 129.676C114.974 130.586 115.037 131.286 115.162 131.778C115.288 132.269 115.455 132.614 115.664 132.813C115.873 133.001 116.103 133.095 116.354 133.095Z" fill="#55A6FF"/>
<path d="M29.0186 133.93V129.579H27.5436V128.557H31.7132V129.579H30.2382V133.93H29.0186ZM34.5011 134.029C34.0177 134.029 33.592 133.916 33.2239 133.691C32.8614 133.465 32.5757 133.144 32.367 132.727C32.1637 132.304 32.0621 131.801 32.0621 131.219C32.0621 130.631 32.1637 130.134 32.367 129.727C32.5757 129.315 32.8614 129.002 33.2239 128.788C33.592 128.568 34.0177 128.458 34.5011 128.458C34.9846 128.458 35.4076 128.568 35.7701 128.788C36.1382 129.002 36.4238 129.315 36.6271 129.727C36.8358 130.139 36.9402 130.636 36.9402 131.219C36.9402 131.801 36.8358 132.304 36.6271 132.727C36.4238 133.144 36.1382 133.465 35.7701 133.691C35.4076 133.916 34.9846 134.029 34.5011 134.029ZM34.5011 132.982C34.8692 132.982 35.1604 132.823 35.3746 132.504C35.5888 132.186 35.696 131.757 35.696 131.219C35.696 130.68 35.5888 130.26 35.3746 129.958C35.1604 129.656 34.8692 129.505 34.5011 129.505C34.1331 129.505 33.8419 129.656 33.6277 129.958C33.4134 130.26 33.3063 130.68 33.3063 131.219C33.3063 131.757 33.4134 132.186 33.6277 132.504C33.8419 132.823 34.1331 132.982 34.5011 132.982ZM38.7635 133.93V129.579H37.2886V128.557H41.4581V129.579H39.9831V133.93H38.7635ZM43.2266 131.21L43.0948 131.705H44.2401L44.1165 131.21C44.0451 130.941 43.971 130.656 43.894 130.353C43.8226 130.051 43.7512 129.76 43.6798 129.48H43.6468C43.5809 129.766 43.5123 130.06 43.4408 130.362C43.3749 130.658 43.3035 130.941 43.2266 131.21ZM41.2819 133.93L42.9629 128.557H44.4214L46.1024 133.93H44.8169L44.4873 132.652H42.8475L42.5179 133.93H41.2819ZM46.6894 133.93V128.557H47.9007V132.908H50.0267V133.93H46.6894Z" fill="#55A6FF"/>
<path d="M54.8009 133.574C54.8009 133.835 54.5907 134.045 54.3295 134.045C54.0683 134.045 53.8582 133.835 53.8582 133.574C53.8582 133.313 54.0683 133.103 54.3295 133.103C54.5907 133.103 54.8009 133.313 54.8009 133.574Z" fill="#55A6FF"/>
<path d="M58.2086 133.574C58.2086 133.835 57.9985 134.045 57.7372 134.045C57.476 134.045 57.2659 133.835 57.2659 133.574C57.2659 133.313 57.476 133.103 57.7372 133.103C57.9985 133.103 58.2086 133.313 58.2086 133.574Z" fill="#55A6FF"/>
<path d="M61.616 133.574C61.616 133.835 61.4059 134.045 61.1447 134.045C60.8835 134.045 60.6733 133.835 60.6733 133.574C60.6733 133.313 60.8835 133.103 61.1447 133.103C61.4059 133.103 61.616 133.313 61.616 133.574Z" fill="#55A6FF"/>
<path d="M65.0233 133.574C65.0233 133.835 64.8131 134.045 64.5519 134.045C64.2907 134.045 64.0806 133.835 64.0806 133.574C64.0806 133.313 64.2907 133.103 64.5519 133.103C64.8131 133.103 65.0233 133.313 65.0233 133.574Z" fill="#55A6FF"/>
<path d="M68.431 133.574C68.431 133.835 68.2209 134.045 67.9596 134.045C67.6984 134.045 67.4883 133.835 67.4883 133.574C67.4883 133.313 67.6984 133.103 67.9596 133.103C68.2209 133.103 68.431 133.313 68.431 133.574Z" fill="#55A6FF"/>
<path d="M71.8382 133.574C71.8382 133.835 71.6281 134.045 71.3669 134.045C71.1056 134.045 70.8955 133.835 70.8955 133.574C70.8955 133.313 71.1056 133.103 71.3669 133.103C71.6281 133.103 71.8382 133.313 71.8382 133.574Z" fill="#55A6FF"/>
<path d="M75.2452 133.574C75.2452 133.835 75.0351 134.045 74.7738 134.045C74.5126 134.045 74.3025 133.835 74.3025 133.574C74.3025 133.313 74.5126 133.103 74.7738 133.103C75.0351 133.103 75.2452 133.313 75.2452 133.574Z" fill="#55A6FF"/>
<path d="M78.6534 133.574C78.6534 133.835 78.4433 134.045 78.182 134.045C77.9208 134.045 77.7107 133.835 77.7107 133.574C77.7107 133.313 77.9208 133.103 78.182 133.103C78.4433 133.103 78.6534 133.313 78.6534 133.574Z" fill="#55A6FF"/>
<path d="M82.0601 133.574C82.0601 133.835 81.85 134.045 81.5888 134.045C81.3276 134.045 81.1174 133.835 81.1174 133.574C81.1174 133.313 81.3276 133.103 81.5888 133.103C81.85 133.103 82.0601 133.313 82.0601 133.574Z" fill="#55A6FF"/>
</svg>
