<svg width="18" height="18" viewBox="0 0 18 18" fill="none" xmlns="http://www.w3.org/2000/svg">
<circle cx="9" cy="9" r="9" fill="#0073F0"/>
<path d="M12.9414 9.65625H9.66016V12.9375C9.66016 13.1115 9.59102 13.2785 9.46794 13.4015C9.34487 13.5246 9.17795 13.5937 9.00391 13.5937C8.82986 13.5937 8.66294 13.5246 8.53987 13.4015C8.4168 13.2785 8.34766 13.1115 8.34766 12.9375V9.65625H5.06641C4.89236 9.65625 4.72544 9.58711 4.60237 9.46404C4.4793 9.34097 4.41016 9.17405 4.41016 9C4.41016 8.82595 4.4793 8.65903 4.60237 8.53596C4.72544 8.41289 4.89236 8.34375 5.06641 8.34375H8.34766V5.0625C8.34766 4.88845 8.4168 4.72153 8.53987 4.59846C8.66294 4.47539 8.82986 4.40625 9.00391 4.40625C9.17795 4.40625 9.34487 4.47539 9.46794 4.59846C9.59102 4.72153 9.66016 4.88845 9.66016 5.0625V8.34375H12.9414C13.1155 8.34375 13.2824 8.41289 13.4054 8.53596C13.5285 8.65903 13.5977 8.82595 13.5977 9C13.5977 9.17405 13.5285 9.34097 13.4054 9.46404C13.2824 9.58711 13.1155 9.65625 12.9414 9.65625Z" fill="white"/>
</svg>
