<svg width="6" height="10" viewBox="0 0 6 10" fill="none" xmlns="http://www.w3.org/2000/svg">
<path d="M0.994383 9.25025C0.928961 9.18328 0.892334 9.09337 0.892334 8.99975C0.892334 8.90613 0.928961 8.81622 0.994383 8.74925L4.64913 5L0.994383 1.2515C0.928961 1.18453 0.892334 1.09462 0.892334 1.001C0.892334 0.907376 0.928961 0.817469 0.994383 0.750499C1.02618 0.717841 1.0642 0.691884 1.10619 0.674161C1.14818 0.656437 1.1933 0.647306 1.23888 0.647306C1.28446 0.647306 1.32958 0.656437 1.37158 0.674161C1.41357 0.691884 1.45159 0.717841 1.48338 0.750499L5.36988 4.73825C5.43814 4.80828 5.47635 4.9022 5.47635 5C5.47635 5.09779 5.43814 5.19172 5.36988 5.26175L1.48338 9.2495C1.45159 9.28216 1.41357 9.30811 1.37158 9.32584C1.32958 9.34356 1.28446 9.35269 1.23888 9.35269C1.1933 9.35269 1.14818 9.34356 1.10619 9.32584C1.0642 9.30811 1.02618 9.28216 0.994383 9.2495V9.25025Z" fill="#999999"/>
</svg>
