<svg width="20" height="20" viewBox="0 0 20 20" fill="none" xmlns="http://www.w3.org/2000/svg">
<g clip-path="url(#clip0_1941_2767)">
<rect width="9.07899" height="1.3447" transform="matrix(0.871428 0.490523 -0.509537 0.860449 9.38123 1.62128)" fill="#0073F0"/>
<mask id="path-2-inside-1_1941_2767" fill="white">
<path fill-rule="evenodd" clip-rule="evenodd" d="M16.0496 5.37491L10.6245 2.32111L7.7942 7.10058L4.07092 8.91695L4.02223 8.88955L3.10867 10.4323L7.17754 12.7226L4.43685 17.3508L4.65821 18.5039L5.79314 18.1142L8.53383 13.4861L12.6027 15.7764L13.5163 14.2337L13.4676 14.2063L13.2194 10.1544L16.0496 5.37491Z"/>
</mask>
<path d="M10.6245 2.32111L11.2376 1.23183L10.172 0.63199L9.54892 1.68419L10.6245 2.32111ZM16.0496 5.37491L17.1252 6.01183L17.7763 4.91239L16.6628 4.28562L16.0496 5.37491ZM7.7942 7.10058L8.34226 8.22402L8.6789 8.0598L8.86976 7.7375L7.7942 7.10058ZM4.07092 8.91695L3.45775 10.0062L4.0294 10.328L4.61899 10.0404L4.07092 8.91695ZM4.02223 8.88955L4.63541 7.80027L3.56977 7.2004L2.94667 8.25262L4.02223 8.88955ZM3.10867 10.4323L2.03311 9.79534L1.38205 10.8948L2.49552 11.5216L3.10867 10.4323ZM7.17754 12.7226L8.2531 13.3595L8.90416 12.2601L7.79069 11.6333L7.17754 12.7226ZM4.43685 17.3508L3.36129 16.7139L3.11998 17.1214L3.20927 17.5864L4.43685 17.3508ZM4.65821 18.5039L3.43063 18.7395L3.70212 20.1537L5.0641 19.6861L4.65821 18.5039ZM5.79314 18.1142L6.19903 19.2965L6.63424 19.1471L6.8687 18.7512L5.79314 18.1142ZM8.53383 13.4861L9.14698 12.3968L8.08136 11.7969L7.45827 12.8491L8.53383 13.4861ZM12.6027 15.7764L11.9895 16.8657L13.0552 17.4655L13.6783 16.4133L12.6027 15.7764ZM13.5163 14.2337L14.5918 14.8706L15.2429 13.7712L14.1294 13.1444L13.5163 14.2337ZM13.4676 14.2063L12.2199 14.2827L12.2615 14.9618L12.8544 15.2956L13.4676 14.2063ZM13.2194 10.1544L12.1438 9.51746L11.9482 9.84771L11.9717 10.2308L13.2194 10.1544ZM10.0113 3.4104L15.4365 6.46419L16.6628 4.28562L11.2376 1.23183L10.0113 3.4104ZM8.86976 7.7375L11.7 2.95803L9.54892 1.68419L6.71863 6.46366L8.86976 7.7375ZM4.61899 10.0404L8.34226 8.22402L7.24613 5.97714L3.52286 7.79351L4.61899 10.0404ZM3.40906 9.97882L3.45775 10.0062L4.6841 7.82768L4.63541 7.80027L3.40906 9.97882ZM4.18423 11.0692L5.09779 9.52647L2.94667 8.25262L2.03311 9.79534L4.18423 11.0692ZM7.79069 11.6333L3.72182 9.34298L2.49552 11.5216L6.56439 13.8119L7.79069 11.6333ZM5.51241 17.9877L8.2531 13.3595L6.10198 12.0857L3.36129 16.7139L5.51241 17.9877ZM5.8858 18.2682L5.66443 17.1151L3.20927 17.5864L3.43063 18.7395L5.8858 18.2682ZM5.38725 16.932L4.25232 17.3216L5.0641 19.6861L6.19903 19.2965L5.38725 16.932ZM7.45827 12.8491L4.71758 17.4773L6.8687 18.7512L9.60939 14.123L7.45827 12.8491ZM13.2158 14.6871L9.14698 12.3968L7.92067 14.5753L11.9895 16.8657L13.2158 14.6871ZM12.4407 13.5968L11.5271 15.1395L13.6783 16.4133L14.5918 14.8706L12.4407 13.5968ZM12.8544 15.2956L12.9031 15.323L14.1294 13.1444L14.0807 13.117L12.8544 15.2956ZM11.9717 10.2308L12.2199 14.2827L14.7152 14.1299L14.467 10.0779L11.9717 10.2308ZM14.9741 4.73799L12.1438 9.51746L14.2949 10.7913L17.1252 6.01183L14.9741 4.73799Z" fill="#0073F0" mask="url(#path-2-inside-1_1941_2767)"/>
</g>
<defs>
<clipPath id="clip0_1941_2767">
<rect width="20" height="20" fill="white"/>
</clipPath>
</defs>
</svg>
