<svg width="100" height="100" viewBox="0 0 100 100" fill="none" xmlns="http://www.w3.org/2000/svg">
<g clip-path="url(#clip0_4724_15559)">
<rect width="100" height="100" fill="#0050A5"/>
<g filter="url(#filter0_d_4724_15559)">
<path d="M14.5773 29.8931C14.5773 29.8931 14.152 28.3652 14.5773 28.3652C15.0027 28.3652 14.5773 29.8931 14.5773 29.8931Z" fill="white" fill-opacity="0.6"/>
<path d="M15.1151 30.0095C15.1151 30.0095 15.2605 28.4211 15.6532 28.598C16.0464 28.7749 15.1151 30.0095 15.1151 30.0095Z" fill="white" fill-opacity="0.6"/>
<path d="M15.5717 30.3406C15.5717 30.3406 16.2652 28.9333 16.566 29.2602C16.8668 29.5871 15.5717 30.3406 15.5717 30.3406Z" fill="white" fill-opacity="0.6"/>
<path d="M15.8763 30.8365C15.8763 30.8365 17.0126 29.8247 17.1755 30.252C17.3383 30.6786 15.8763 30.8365 15.8763 30.8365Z" fill="white" fill-opacity="0.6"/>
<path d="M15.9834 31.421C15.9834 31.421 17.3895 30.9588 17.3895 31.421C17.3895 31.8831 15.9834 31.421 15.9834 31.421Z" fill="white" fill-opacity="0.6"/>
<path d="M15.8763 32.0056C15.8763 32.0056 17.3383 32.1635 17.1755 32.5902C17.0126 33.0174 15.8763 32.0056 15.8763 32.0056Z" fill="white" fill-opacity="0.6"/>
<path d="M15.5717 32.5015C15.5717 32.5015 16.8668 33.255 16.566 33.5818C16.2652 33.9087 15.5717 32.5015 15.5717 32.5015Z" fill="white" fill-opacity="0.6"/>
<path d="M15.1151 32.8325C15.1151 32.8325 16.0464 34.0671 15.6532 34.244C15.2605 34.4209 15.1151 32.8325 15.1151 32.8325Z" fill="white" fill-opacity="0.6"/>
<path d="M14.5773 32.9487C14.5773 32.9487 15.0027 34.4766 14.5773 34.4766C14.152 34.4766 14.5773 32.9487 14.5773 32.9487Z" fill="white" fill-opacity="0.6"/>
<path d="M14.0393 32.8325C14.0393 32.8325 13.894 34.4209 13.5013 34.244C13.1081 34.0671 14.0393 32.8325 14.0393 32.8325Z" fill="white" fill-opacity="0.6"/>
<path d="M13.583 32.5015C13.583 32.5015 12.8895 33.9087 12.5887 33.5818C12.2878 33.255 13.583 32.5015 13.583 32.5015Z" fill="white" fill-opacity="0.6"/>
<path d="M13.2782 32.0056C13.2782 32.0056 12.1419 33.0174 11.9791 32.5902C11.8163 32.1635 13.2782 32.0056 13.2782 32.0056Z" fill="white" fill-opacity="0.6"/>
<path d="M13.1711 31.421C13.1711 31.421 11.765 31.8831 11.765 31.421C11.765 30.9588 13.1711 31.421 13.1711 31.421Z" fill="white" fill-opacity="0.6"/>
<path d="M13.2782 30.8365C13.2782 30.8365 11.8163 30.6786 11.9791 30.252C12.1419 29.8247 13.2782 30.8365 13.2782 30.8365Z" fill="white" fill-opacity="0.6"/>
<path d="M13.583 30.3406C13.583 30.3406 12.2878 29.5871 12.5887 29.2602C12.8895 28.9333 13.583 30.3406 13.583 30.3406Z" fill="white" fill-opacity="0.6"/>
<path d="M14.0393 30.0095C14.0393 30.0095 13.1081 28.7749 13.5013 28.598C13.894 28.4211 14.0393 30.0095 14.0393 30.0095Z" fill="white" fill-opacity="0.6"/>
<path d="M14.5772 27.6937C14.5772 27.6937 14.0668 26.0735 14.5772 26.0735C15.0876 26.0735 14.5772 27.6937 14.5772 27.6937Z" fill="white" fill-opacity="0.6"/>
<path d="M15.89 27.9778C15.89 27.9778 15.9891 26.2688 16.4607 26.4806C16.9322 26.693 15.89 27.9778 15.89 27.9778Z" fill="white" fill-opacity="0.6"/>
<path d="M17.0025 28.7857C17.0025 28.7857 17.696 27.2481 18.0571 27.6398C18.4182 28.0316 17.0025 28.7857 17.0025 28.7857Z" fill="white" fill-opacity="0.6"/>
<path d="M17.7462 29.9946C17.7462 29.9946 18.9287 28.8622 19.1242 29.3745C19.3197 29.8869 17.7462 29.9946 17.7462 29.9946Z" fill="white" fill-opacity="0.6"/>
<path d="M18.0077 31.4208C18.0077 31.4208 19.4989 30.8662 19.4989 31.4208C19.4989 31.9754 18.0077 31.4208 18.0077 31.4208Z" fill="white" fill-opacity="0.6"/>
<path d="M17.7463 32.8469C17.7463 32.8469 19.3192 32.9547 19.1243 33.467C18.9288 33.9793 17.7463 32.8469 17.7463 32.8469Z" fill="white" fill-opacity="0.6"/>
<path d="M17.0025 34.0559C17.0025 34.0559 18.4177 34.8094 18.0572 35.2018C17.6966 35.5941 17.0025 34.0559 17.0025 34.0559Z" fill="white" fill-opacity="0.6"/>
<path d="M15.89 34.864C15.89 34.864 16.9322 36.1488 16.4607 36.3612C15.9891 36.5736 15.89 34.864 15.89 34.864Z" fill="white" fill-opacity="0.6"/>
<path d="M14.5772 35.1479C14.5772 35.1479 15.0876 36.7682 14.5772 36.7682C14.0668 36.7682 14.5772 35.1479 14.5772 35.1479Z" fill="white" fill-opacity="0.6"/>
<path d="M13.2645 34.864C13.2645 34.864 13.1654 36.573 12.6938 36.3612C12.2223 36.1494 13.2645 34.864 13.2645 34.864Z" fill="white" fill-opacity="0.6"/>
<path d="M12.152 34.0559C12.152 34.0559 11.4585 35.5935 11.0974 35.2018C10.7363 34.81 12.152 34.0559 12.152 34.0559Z" fill="white" fill-opacity="0.6"/>
<path d="M11.4084 32.8469C11.4084 32.8469 10.226 33.9793 10.0305 33.467C9.83499 32.9547 11.4084 32.8469 11.4084 32.8469Z" fill="white" fill-opacity="0.6"/>
<path d="M11.147 31.4208C11.147 31.4208 9.65576 31.9754 9.65576 31.4208C9.65576 30.8662 11.147 31.4208 11.147 31.4208Z" fill="white" fill-opacity="0.6"/>
<path d="M11.4084 29.9946C11.4084 29.9946 9.83555 29.8869 10.0305 29.3745C10.226 28.8622 11.4084 29.9946 11.4084 29.9946Z" fill="white" fill-opacity="0.6"/>
<path d="M12.152 28.7856C12.152 28.7856 10.7368 28.0321 11.0974 27.6397C11.4579 27.2474 12.152 28.7856 12.152 28.7856Z" fill="white" fill-opacity="0.6"/>
<path d="M13.2645 27.9779C13.2645 27.9779 12.2223 26.6931 12.6938 26.4807C13.1654 26.2683 13.2645 27.9779 13.2645 27.9779Z" fill="white" fill-opacity="0.6"/>
<path d="M14.5771 25.4424C14.5771 25.4424 14.0667 23.7817 14.5771 23.7817C15.0875 23.7817 14.5771 25.4424 14.5771 25.4424Z" fill="white" fill-opacity="0.6"/>
<path d="M16.6829 25.8974C16.6829 25.8974 16.7962 24.151 17.2677 24.3628C17.7392 24.5758 16.6829 25.8974 16.6829 25.8974Z" fill="white" fill-opacity="0.6"/>
<path d="M18.4676 27.1939C18.4676 27.1939 19.1876 25.6275 19.5481 26.0199C19.9093 26.4116 18.4676 27.1939 18.4676 27.1939Z" fill="white" fill-opacity="0.6"/>
<path d="M19.6604 29.133C19.6604 29.133 20.8773 27.9853 21.0728 28.4977C21.2682 29.01 19.6604 29.133 19.6604 29.133Z" fill="white" fill-opacity="0.6"/>
<path d="M20.0795 31.421C20.0795 31.421 21.6079 30.8665 21.6079 31.421C21.6079 31.9756 20.0795 31.421 20.0795 31.421Z" fill="white" fill-opacity="0.6"/>
<path d="M19.6605 33.7092C19.6605 33.7092 21.2678 33.8323 21.0728 34.3446C20.8774 34.8569 19.6605 33.7092 19.6605 33.7092Z" fill="white" fill-opacity="0.6"/>
<path d="M18.4676 35.6482C18.4676 35.6482 19.9093 36.4305 19.5481 36.8222C19.1876 37.2146 18.4676 35.6482 18.4676 35.6482Z" fill="white" fill-opacity="0.6"/>
<path d="M16.6829 36.9441C16.6829 36.9441 17.7392 38.2663 17.2677 38.4787C16.7962 38.6911 16.6829 36.9441 16.6829 36.9441Z" fill="white" fill-opacity="0.6"/>
<path d="M14.5771 37.3994C14.5771 37.3994 15.0875 39.0601 14.5771 39.0601C14.0667 39.0601 14.5771 37.3994 14.5771 37.3994Z" fill="white" fill-opacity="0.6"/>
<path d="M12.4713 36.9441C12.4713 36.9441 12.3581 38.6904 11.8865 38.4787C11.415 38.2663 12.4713 36.9441 12.4713 36.9441Z" fill="white" fill-opacity="0.6"/>
<path d="M10.6866 35.6482C10.6866 35.6482 9.96668 37.2146 9.60613 36.8222C9.24501 36.4305 10.6866 35.6482 10.6866 35.6482Z" fill="white" fill-opacity="0.6"/>
<path d="M9.49414 33.7092C9.49414 33.7092 8.27728 34.8569 8.08179 34.3446C7.88631 33.8323 9.49414 33.7092 9.49414 33.7092Z" fill="white" fill-opacity="0.6"/>
<path d="M9.07507 31.421C9.07507 31.421 7.54668 31.9756 7.54668 31.421C7.54668 30.8665 9.07507 31.421 9.07507 31.421Z" fill="white" fill-opacity="0.6"/>
<path d="M9.49414 29.133C9.49414 29.133 7.88687 29.01 8.08179 28.4977C8.27728 27.9853 9.49414 29.133 9.49414 29.133Z" fill="white" fill-opacity="0.6"/>
<path d="M10.6866 27.1937C10.6866 27.1937 9.24501 26.4114 9.60613 26.0196C9.96668 25.6273 10.6866 27.1937 10.6866 27.1937Z" fill="white" fill-opacity="0.6"/>
<path d="M12.4713 25.8974C12.4713 25.8974 11.415 24.5752 11.8865 24.3628C12.3581 24.151 12.4713 25.8974 12.4713 25.8974Z" fill="white" fill-opacity="0.6"/>
</g>
<g filter="url(#filter1_d_4724_15559)">
<path d="M88.7612 28.1017C88.7612 28.1017 87.9839 25.3096 88.7612 25.3096C89.5385 25.3096 88.7612 28.1017 88.7612 28.1017Z" fill="white" fill-opacity="0.6"/>
<path d="M89.7446 28.314C89.7446 28.314 90.0102 25.4111 90.7278 25.7344C91.4464 26.0576 89.7446 28.314 89.7446 28.314Z" fill="white" fill-opacity="0.6"/>
<path d="M90.5785 28.9194C90.5785 28.9194 91.8459 26.3476 92.3957 26.945C92.9455 27.5423 90.5785 28.9194 90.5785 28.9194Z" fill="white" fill-opacity="0.6"/>
<path d="M91.1352 29.8253C91.1352 29.8253 93.2118 27.9762 93.5093 28.757C93.8069 29.5367 91.1352 29.8253 91.1352 29.8253Z" fill="white" fill-opacity="0.6"/>
<path d="M91.3309 30.8939C91.3309 30.8939 93.9006 30.0493 93.9006 30.8939C93.9006 31.7385 91.3309 30.8939 91.3309 30.8939Z" fill="white" fill-opacity="0.6"/>
<path d="M91.1352 31.9622C91.1352 31.9622 93.8069 32.2508 93.5093 33.0305C93.2118 33.8113 91.1352 31.9622 91.1352 31.9622Z" fill="white" fill-opacity="0.6"/>
<path d="M90.5785 32.8682C90.5785 32.8682 92.9455 34.2452 92.3957 34.8426C91.8459 35.4399 90.5785 32.8682 90.5785 32.8682Z" fill="white" fill-opacity="0.6"/>
<path d="M89.7446 33.4731C89.7446 33.4731 91.4464 35.7295 90.7278 36.0527C90.0102 36.376 89.7446 33.4731 89.7446 33.4731Z" fill="white" fill-opacity="0.6"/>
<path d="M88.7612 33.686C88.7612 33.686 89.5385 36.4782 88.7612 36.4782C87.9839 36.4782 88.7612 33.686 88.7612 33.686Z" fill="white" fill-opacity="0.6"/>
<path d="M87.778 33.4731C87.778 33.4731 87.5123 36.376 86.7947 36.0527C86.0761 35.7295 87.778 33.4731 87.778 33.4731Z" fill="white" fill-opacity="0.6"/>
<path d="M86.9442 32.8682C86.9442 32.8682 85.6768 35.4399 85.1271 34.8426C84.5773 34.2452 86.9442 32.8682 86.9442 32.8682Z" fill="white" fill-opacity="0.6"/>
<path d="M86.3871 31.9622C86.3871 31.9622 84.3105 33.8113 84.0129 33.0305C83.7154 32.2508 86.3871 31.9622 86.3871 31.9622Z" fill="white" fill-opacity="0.6"/>
<path d="M86.1915 30.8939C86.1915 30.8939 83.6218 31.7385 83.6218 30.8939C83.6218 30.0493 86.1915 30.8939 86.1915 30.8939Z" fill="white" fill-opacity="0.6"/>
<path d="M86.3871 29.8256C86.3871 29.8256 83.7154 29.5369 84.0129 28.7573C84.3105 27.9764 86.3871 29.8256 86.3871 29.8256Z" fill="white" fill-opacity="0.6"/>
<path d="M86.9442 28.9194C86.9442 28.9194 84.5773 27.5423 85.1271 26.945C85.6768 26.3476 86.9442 28.9194 86.9442 28.9194Z" fill="white" fill-opacity="0.6"/>
<path d="M87.778 28.314C87.778 28.314 86.0761 26.0576 86.7947 25.7344C87.5123 25.4111 87.778 28.314 87.778 28.314Z" fill="white" fill-opacity="0.6"/>
<path d="M88.7612 24.0824C88.7612 24.0824 87.8284 21.1213 88.7612 21.1213C89.694 21.1213 88.7612 24.0824 88.7612 24.0824Z" fill="white" fill-opacity="0.6"/>
<path d="M91.1603 24.6015C91.1603 24.6015 91.3415 21.4782 92.2032 21.8652C93.0649 22.2534 91.1603 24.6015 91.1603 24.6015Z" fill="white" fill-opacity="0.6"/>
<path d="M93.1936 26.0781C93.1936 26.0781 94.4609 23.268 95.1209 23.984C95.7808 24.6999 93.1936 26.0781 93.1936 26.0781Z" fill="white" fill-opacity="0.6"/>
<path d="M94.5527 28.2872C94.5527 28.2872 96.7137 26.2177 97.071 27.1541C97.4282 28.0904 94.5527 28.2872 94.5527 28.2872Z" fill="white" fill-opacity="0.6"/>
<path d="M95.0305 30.8938C95.0305 30.8938 97.7557 29.8803 97.7557 30.8938C97.7557 31.9073 95.0305 30.8938 95.0305 30.8938Z" fill="white" fill-opacity="0.6"/>
<path d="M94.5528 33.5C94.5528 33.5 97.4273 33.6969 97.0711 34.6332C96.7139 35.5695 94.5528 33.5 94.5528 33.5Z" fill="white" fill-opacity="0.6"/>
<path d="M93.1937 35.7095C93.1937 35.7095 95.78 37.0865 95.121 37.8036C94.4621 38.5206 93.1937 35.7095 93.1937 35.7095Z" fill="white" fill-opacity="0.6"/>
<path d="M91.1603 37.186C91.1603 37.186 93.0649 39.5341 92.2032 39.9222C91.3415 40.3104 91.1603 37.186 91.1603 37.186Z" fill="white" fill-opacity="0.6"/>
<path d="M88.7612 37.7053C88.7612 37.7053 89.694 40.6664 88.7612 40.6664C87.8284 40.6664 88.7612 37.7053 88.7612 37.7053Z" fill="white" fill-opacity="0.6"/>
<path d="M86.3623 37.186C86.3623 37.186 86.1811 40.3093 85.3194 39.9222C84.4576 39.5352 86.3623 37.186 86.3623 37.186Z" fill="white" fill-opacity="0.6"/>
<path d="M84.3291 35.7095C84.3291 35.7095 83.0617 38.5195 82.4018 37.8036C81.7418 37.0876 84.3291 35.7095 84.3291 35.7095Z" fill="white" fill-opacity="0.6"/>
<path d="M82.97 33.5C82.97 33.5 80.8089 35.5695 80.4517 34.6332C80.0944 33.6969 82.97 33.5 82.97 33.5Z" fill="white" fill-opacity="0.6"/>
<path d="M82.4924 30.8938C82.4924 30.8938 79.7672 31.9073 79.7672 30.8938C79.7672 29.8803 82.4924 30.8938 82.4924 30.8938Z" fill="white" fill-opacity="0.6"/>
<path d="M82.97 28.2872C82.97 28.2872 80.0955 28.0904 80.4517 27.1541C80.8089 26.2177 82.97 28.2872 82.97 28.2872Z" fill="white" fill-opacity="0.6"/>
<path d="M84.3291 26.0779C84.3291 26.0779 81.7429 24.7008 82.4018 23.9838C83.0607 23.2667 84.3291 26.0779 84.3291 26.0779Z" fill="white" fill-opacity="0.6"/>
<path d="M86.3623 24.6014C86.3623 24.6014 84.4576 22.2533 85.3194 21.8652C86.1811 21.477 86.3623 24.6014 86.3623 24.6014Z" fill="white" fill-opacity="0.6"/>
<path d="M88.7611 19.968C88.7611 19.968 87.8283 16.9331 88.7611 16.9331C89.6939 16.9331 88.7611 19.968 88.7611 19.968Z" fill="white" fill-opacity="0.6"/>
<path d="M92.6095 20.7992C92.6095 20.7992 92.8164 17.6077 93.6781 17.9947C94.5399 18.384 92.6095 20.7992 92.6095 20.7992Z" fill="white" fill-opacity="0.6"/>
<path d="M95.8713 23.1686C95.8713 23.1686 97.187 20.3059 97.8459 21.023C98.5059 21.7389 95.8713 23.1686 95.8713 23.1686Z" fill="white" fill-opacity="0.6"/>
<path d="M98.0509 26.7124C98.0509 26.7124 100.275 24.6149 100.632 25.5512C100.989 26.4875 98.0509 26.7124 98.0509 26.7124Z" fill="white" fill-opacity="0.6"/>
<path d="M98.8168 30.8938C98.8168 30.8938 101.61 29.8803 101.61 30.8938C101.61 31.9073 98.8168 30.8938 98.8168 30.8938Z" fill="white" fill-opacity="0.6"/>
<path d="M98.0508 35.0752C98.0508 35.0752 100.988 35.3 100.632 36.2363C100.275 37.1727 98.0508 35.0752 98.0508 35.0752Z" fill="white" fill-opacity="0.6"/>
<path d="M95.8713 38.6191C95.8713 38.6191 98.5059 40.0488 97.8459 40.7647C97.187 41.4818 95.8713 38.6191 95.8713 38.6191Z" fill="white" fill-opacity="0.6"/>
<path d="M92.6095 40.9873C92.6095 40.9873 94.5399 43.4036 93.6781 43.7917C92.8164 44.1799 92.6095 40.9873 92.6095 40.9873Z" fill="white" fill-opacity="0.6"/>
<path d="M88.7612 41.8196C88.7612 41.8196 89.694 44.8545 88.7612 44.8545C87.8284 44.8545 88.7612 41.8196 88.7612 41.8196Z" fill="white" fill-opacity="0.6"/>
<path d="M84.9127 40.9873C84.9127 40.9873 84.7058 44.1788 83.844 43.7917C82.9823 43.4036 84.9127 40.9873 84.9127 40.9873Z" fill="white" fill-opacity="0.6"/>
<path d="M81.6512 38.6191C81.6512 38.6191 80.3355 41.4818 79.6766 40.7647C79.0166 40.0488 81.6512 38.6191 81.6512 38.6191Z" fill="white" fill-opacity="0.6"/>
<path d="M79.4714 35.0752C79.4714 35.0752 77.2476 37.1727 76.8903 36.2363C76.5331 35.3 79.4714 35.0752 79.4714 35.0752Z" fill="white" fill-opacity="0.6"/>
<path d="M78.7058 30.8938C78.7058 30.8938 75.9126 31.9073 75.9126 30.8938C75.9126 29.8803 78.7058 30.8938 78.7058 30.8938Z" fill="white" fill-opacity="0.6"/>
<path d="M79.4714 26.7124C79.4714 26.7124 76.5341 26.4875 76.8903 25.5512C77.2476 24.6149 79.4714 26.7124 79.4714 26.7124Z" fill="white" fill-opacity="0.6"/>
<path d="M81.6512 23.1686C81.6512 23.1686 79.0166 21.7389 79.6766 21.023C80.3355 20.3059 81.6512 23.1686 81.6512 23.1686Z" fill="white" fill-opacity="0.6"/>
<path d="M84.9127 20.7992C84.9127 20.7992 82.9823 18.3829 83.844 17.9947C84.7058 17.6077 84.9127 20.7992 84.9127 20.7992Z" fill="white" fill-opacity="0.6"/>
</g>
<g clip-path="url(#clip1_4724_15559)">
<path d="M-5.69525 41.2769C-5.69525 41.2435 -5.67947 41.2124 -5.6558 41.1885V41.136H102.885V50.1609H102.888V121.942H102.798C102.772 121.964 102.738 121.978 102.701 121.978H92.905C92.8682 121.978 92.834 121.964 92.8077 121.942H92.7473V50.3448H4.48738V121.94H4.39799C4.3717 121.962 4.33752 121.976 4.30071 121.976H-5.49543C-5.53224 121.976 -5.56642 121.962 -5.59271 121.94H-5.65317V50.3448V50.2636C-5.67683 50.2397 -5.69262 50.2087 -5.69262 50.1752V41.2769H-5.69525ZM4.14558 41.5921L-0.42646 45.7261L4.14558 49.86V41.5921ZM-0.63154 45.91L-5.24566 50.0821H3.98258L-0.63154 45.91ZM-0.833988 45.7261L-5.36397 41.628V49.8242L-0.833988 45.7261ZM-0.63154 45.5422L3.95103 41.3963H-5.21411L-0.63154 45.5422ZM9.20929 45.5422L13.7919 41.3963H4.62672L9.20929 45.5422ZM4.43217 41.5921V49.8624L9.00423 45.7285L4.43217 41.5921ZM14.273 49.8624L18.8451 45.7285L14.273 41.5945V49.8624ZM13.9838 41.5921L9.41174 45.7261L13.9838 49.86V41.5921V41.5921ZM19.0475 45.5422L23.6301 41.3963H14.4649L19.0475 45.5422ZM24.1112 49.8624L28.6833 45.7285L24.1112 41.5945V49.8624ZM23.822 41.5921L19.2499 45.7261L23.822 49.86V41.5921ZM28.8857 45.5422L33.4683 41.3963H24.3031L28.8857 45.5422ZM33.9494 49.8624L38.5215 45.7285L33.9494 41.5945V49.8624ZM33.6602 41.5921L29.0881 45.7261L33.6602 49.86V41.5921ZM38.7239 45.5422L43.3065 41.3963H34.1413L38.7239 45.5422ZM43.7876 49.8624L48.3597 45.7285L43.7876 41.5945V49.8624ZM43.501 41.5921L38.929 45.7261L43.501 49.86V41.5921ZM48.5647 45.5422L53.1473 41.3963H43.9822L48.5647 45.5422ZM53.6284 49.8624L58.2005 45.7285L53.6284 41.5921V49.8624ZM53.3392 41.5921L48.7672 45.7261L53.3392 49.86V41.5921ZM58.4029 45.5422L62.9855 41.3963H53.8204L58.4029 45.5422ZM63.4666 49.8624L68.0387 45.7285L63.4666 41.5945V49.8624ZM63.1774 41.5921L58.6054 45.7261L63.1774 49.86V41.5921ZM68.2411 45.5422L72.8237 41.3963H63.6559L68.2411 45.5422ZM73.3048 49.8624L77.8769 45.7285L73.3048 41.5945V49.8624ZM73.0183 41.5921L68.4462 45.7261L73.0183 49.86V41.5921ZM78.0793 45.5422L82.6619 41.3963H73.4968L78.0793 45.5422ZM83.1431 49.8624L87.7151 45.7285L83.1431 41.5945V49.8624ZM82.8565 41.5921L78.2844 45.7261L82.8565 49.86V41.5921V41.5921ZM87.9202 45.5422L92.5028 41.3963H83.3376L87.9202 45.5422ZM92.9839 49.8624L97.5559 45.7285L92.9839 41.5945V49.8624ZM93.1443 50.0845H102.373L97.7584 45.9123L93.1443 50.0845ZM92.6947 41.5921L88.1226 45.7261L92.6947 49.86V41.5921V41.5921ZM97.7584 45.5422L102.341 41.3963H93.1758L97.7584 45.5422ZM97.9635 45.7261L102.599 49.9173V41.5348L97.9635 45.7261ZM102.601 95.3118L98.0082 99.5031L102.601 103.694V95.3118ZM102.601 86.3753L98.0082 90.5665L102.601 94.7578V86.3753ZM102.601 77.4387L98.0082 81.6299L102.601 85.8212V77.4387ZM102.601 68.4997L98.0082 72.691L102.601 76.8822V68.4997ZM102.354 103.84L97.8031 99.687L93.2521 103.84H102.354ZM93.2521 104.103L97.8031 108.256L102.354 104.103H93.2521ZM102.354 95.1661H93.2494L97.8004 99.3192L102.354 95.1661ZM102.354 94.9034L97.8031 90.7504L93.2521 94.9034H102.354ZM102.354 86.2272H93.2494L97.8004 90.3802L102.354 86.2272ZM102.354 85.9669L97.8031 81.8138L93.2521 85.9669H102.354ZM102.354 77.2906H93.2494L97.8004 81.4437L102.354 77.2906ZM102.354 77.0303L97.8031 72.8773L93.2521 77.0303H102.354V77.0303ZM102.354 68.3541H93.2494L97.8004 72.5071L102.354 68.3541ZM102.354 68.0914L97.8031 63.9383L93.2521 68.0914H102.354V68.0914ZM102.601 67.9457V59.5632L98.0082 63.7544L102.601 67.9457ZM102.601 104.248L98.0082 108.44L102.601 112.631V104.248ZM97.8031 108.626L93.2521 112.779H102.357L97.8031 108.626ZM93.0365 112.602L97.6006 108.44L93.0365 104.277V112.602ZM93.0365 103.666L97.6006 99.5031L93.0365 95.3405V103.666ZM93.0365 94.7291L97.6006 90.5665L93.0365 86.4039V94.7291ZM93.0365 85.7925L97.6006 81.6299L93.0365 77.4674V85.7925ZM93.0365 76.8536L97.6006 72.691L93.0365 68.5284V76.8536ZM93.0365 67.917L97.6006 63.7544L93.0365 59.5918V67.917ZM97.8031 63.5682L102.354 59.4151H93.2494L97.8031 63.5682ZM102.354 59.1548L97.8031 55.0018L93.2521 59.1548H102.354ZM102.601 59.0091V50.6266L98.0082 54.8179L102.601 59.0091ZM93.2521 113.039L97.8031 117.192L102.354 113.039H93.2521ZM97.6006 54.8179L93.0365 50.6553V58.9805L97.6006 54.8179ZM97.8031 54.6316L102.417 50.4212H93.1863L97.8031 54.6316ZM102.601 113.187L98.0082 117.379L102.601 121.57V113.187ZM102.317 121.68L97.8031 117.562L93.2889 121.68H102.317ZM97.6006 117.376L93.0365 113.214V121.539L97.6006 117.376ZM87.9202 45.91L83.3061 50.0821H92.5343L87.9202 45.91ZM78.0793 45.91L73.4652 50.0821H82.6935L78.0793 45.91ZM68.2411 45.91L63.627 50.0821H72.8553L68.2411 45.91ZM58.4029 45.91L53.7888 50.0821H63.0171L58.4029 45.91ZM48.5647 45.91L43.9506 50.0821H53.1789L48.5647 45.91ZM38.7239 45.91L34.1098 50.0821H43.338L38.7239 45.91ZM28.8857 45.91L24.2716 50.0821H33.4998L28.8857 45.91ZM19.0475 45.91L14.4334 50.0821H23.6616L19.0475 45.91ZM9.20929 45.91L4.59517 50.0821H13.8234L9.20929 45.91ZM-0.394912 54.8179L4.19817 59.0091V50.6266L-0.394912 54.8179ZM4.19817 104.248L-0.394912 108.44L4.19817 112.631V104.248ZM4.19817 95.3118L-0.394912 99.5031L4.19817 103.694V95.3118ZM4.19817 86.3753L-0.394912 90.5665L4.19817 94.7578V86.3753ZM4.19817 77.4387L-0.394912 81.6299L4.19817 85.8212V77.4387ZM4.19817 68.4997L-0.394912 72.691L4.19817 76.8822V68.4997ZM4.19817 59.5632L-0.394912 63.7544L4.19817 67.9457V59.5632ZM3.95366 103.84L-0.59736 99.687L-5.14838 103.84H3.95366ZM-5.15102 104.103L-0.599992 108.256L3.95103 104.103H-5.15102ZM3.95366 95.1661H-5.15102L-0.599992 99.3192L3.95366 95.1661ZM3.95366 94.9034L-0.59736 90.7504L-5.14838 94.9034H3.95366ZM3.95366 86.2272H-5.15102L-0.599992 90.3802L3.95366 86.2272ZM3.95366 85.9669L-0.59736 81.8138L-5.14838 85.9669H3.95366ZM3.95366 77.2906H-5.15102L-0.599992 81.4437L3.95366 77.2906ZM3.95366 77.0303L-0.59736 72.8773L-5.14838 77.0303H3.95366V77.0303ZM3.95366 68.3541H-5.15102L-0.599992 72.5071L3.95366 68.3541ZM3.95366 68.0914L-0.59736 63.9383L-5.14838 68.0914H3.95366V68.0914ZM-0.599992 108.626L-5.15102 112.779H3.95366L-0.599992 108.626ZM-5.36661 112.602L-0.80244 108.44L-5.36661 104.277V112.602ZM-5.36661 103.666L-0.80244 99.5031L-5.36661 95.3405V103.666ZM-5.36661 94.7291L-0.80244 90.5665L-5.36661 86.4039V94.7291ZM-5.36661 85.7925L-0.80244 81.6299L-5.36661 77.4674V85.7925ZM-5.36661 76.8536L-0.80244 72.691L-5.36661 68.5284V76.8536ZM-5.36661 67.917L-0.80244 63.7544L-5.36661 59.5918V67.917ZM-0.599992 63.5682L3.95103 59.4151H-5.15365L-0.599992 63.5682ZM3.95366 59.1548L-0.59736 55.0018L-5.14838 59.1548H3.95366ZM-5.15102 113.039L-0.599992 117.192L3.95103 113.039H-5.15102ZM-0.80244 54.8179L-5.36661 50.6553V58.9828L-0.80244 54.8179ZM-0.599992 54.6316L4.01676 50.4212H-5.21411L-0.599992 54.6316ZM4.19817 113.187L-0.394912 117.379L4.19817 121.57V113.187ZM3.91422 121.68L-0.599992 117.562L-5.1142 121.68H3.91422ZM-0.80244 117.376L-5.36661 113.214V121.541L-0.80244 117.376Z" fill="#765056"/>
<path d="M93.4097 90.4517H104.107V108.43H93.4097V90.4517Z" fill="#0F4573"/>
<path d="M98.9226 100.337C100.857 100.337 102.432 98.7003 102.432 96.6894C102.432 94.6784 100.857 93.0417 98.9226 93.0417C96.9877 93.0417 95.413 94.6784 95.413 96.6894C95.413 98.7003 96.9851 100.337 98.9226 100.337Z" fill="#0D3B5E"/>
<path d="M98.9225 93.4134C97.1848 93.4134 95.7705 94.8834 95.7705 96.6894C95.7705 98.4955 97.1848 99.9655 98.9225 99.9655C100.66 99.9655 102.075 98.4955 102.075 96.6894C102.075 94.8834 100.66 93.4134 98.9225 93.4134ZM98.9225 92.6675C101.06 92.6675 102.792 94.4681 102.792 96.6894C102.792 98.9108 101.06 100.711 98.9225 100.711C96.7852 100.711 95.0528 98.9108 95.0528 96.6894C95.0528 94.4681 96.7852 92.6675 98.9225 92.6675Z" fill="#9CDDCF"/>
<path d="M93.4097 72.5359H104.107V90.5144H93.4097V72.5359Z" fill="#0F4573"/>
<path d="M98.9224 80.6289C100.857 80.6289 102.432 82.2656 102.432 84.2765C102.432 86.2875 100.857 87.9241 98.9224 87.9241C96.9876 87.9241 95.4129 86.2875 95.4129 84.2765C95.4129 82.2656 96.985 80.6289 98.9224 80.6289Z" fill="#0D3B5E"/>
<path d="M98.9225 87.5499C100.66 87.5499 102.075 86.08 102.075 84.2739C102.075 82.4678 100.66 80.9979 98.9225 80.9979C97.1848 80.9979 95.7705 82.4678 95.7705 84.2739C95.7705 86.0827 97.1848 87.5499 98.9225 87.5499ZM98.9225 88.2958C96.7852 88.2958 95.0528 86.4953 95.0528 84.2739C95.0528 82.0525 96.7852 80.252 98.9225 80.252C101.06 80.252 102.792 82.0525 102.792 84.2739C102.79 86.4953 101.057 88.2958 98.9225 88.2958Z" fill="#9CDDCF"/>
<path d="M97.7002 76.0222C97.7002 75.32 98.247 74.7517 98.9226 74.7517C99.5982 74.7517 100.145 75.32 100.145 76.0222C100.145 76.7244 99.5982 77.2928 98.9226 77.2928C98.247 77.2928 97.7002 76.7244 97.7002 76.0222Z" fill="#9CDDCF"/>
<path d="M-7.38432 90.4517H3.31262V108.43H-7.38432V90.4517Z" fill="#0F4573"/>
<path d="M-1.87455 100.337C0.0603126 100.337 1.63501 98.7003 1.63501 96.6894C1.63501 94.6784 0.0603126 93.0417 -1.87455 93.0417C-3.80941 93.0417 -5.38411 94.6784 -5.38411 96.6894C-5.38411 98.7003 -3.80941 100.337 -1.87455 100.337Z" fill="#0D3B5E"/>
<path d="M-1.87435 93.4134C-3.61205 93.4134 -5.02639 94.8834 -5.02639 96.6894C-5.02639 98.4955 -3.61205 99.9655 -1.87435 99.9655C-0.136659 99.9655 1.27768 98.4955 1.27768 96.6894C1.27768 94.8834 -0.136659 93.4134 -1.87435 93.4134ZM-1.87435 92.6675C0.262932 92.6675 1.99536 94.4681 1.99536 96.6894C1.99536 98.9108 0.262932 100.711 -1.87435 100.711C-4.01164 100.711 -5.74408 98.9108 -5.74408 96.6894C-5.74408 94.4681 -4.01164 92.6675 -1.87435 92.6675Z" fill="#9CDDCF"/>
<path d="M-7.38432 72.5359H3.31262V90.5144H-7.38432V72.5359Z" fill="#0F4573"/>
<path d="M-1.87455 80.6289C0.0603126 80.6289 1.63501 82.2656 1.63501 84.2765C1.63501 86.2875 0.0603126 87.9241 -1.87455 87.9241C-3.80941 87.9241 -5.38411 86.2875 -5.38411 84.2765C-5.38411 82.2656 -3.80941 80.6289 -1.87455 80.6289Z" fill="#0D3B5E"/>
<path d="M-1.87448 87.5499C-0.136781 87.5499 1.27756 86.08 1.27756 84.2739C1.27756 82.4678 -0.136781 80.9979 -1.87448 80.9979C-3.61217 80.9979 -5.02651 82.4678 -5.02651 84.2739C-5.02388 86.0827 -3.61217 87.5499 -1.87448 87.5499ZM-1.87448 88.2958C-4.01176 88.2958 -5.74421 86.4953 -5.74421 84.2739C-5.74421 82.0525 -4.01176 80.252 -1.87448 80.252C0.26281 80.252 1.99524 82.0525 1.99524 84.2739C1.99524 86.4953 0.26281 88.2958 -1.87448 88.2958Z" fill="#9CDDCF"/>
<path d="M6.0584 52.6659V105.705H90.9767V52.6659H6.0584M3.38504 50.2214H93.65V108.15H3.38504V50.2214Z" fill="#0F4573"/>
<path d="M4.77389 51.6694H92.2615V107.184H4.77389V51.6694Z" fill="#EEEEEE"/>
<path d="M96.1019 41.1968H97.0746V45.5111H96.1019V41.1968Z" fill="#0D3B5E"/>
<path d="M92.716 41.1968H93.6887V47.227H92.716V41.1968Z" fill="#0D3B5E"/>
<path d="M87.9288 52.0879C88.352 53.0879 88.841 54.066 89.4562 54.9513C89.4562 55.2355 90.0266 55.7218 90.1975 55.9267C90.5104 55.4377 90.8232 54.9458 91.1334 54.4568C91.3358 54.1371 91.8301 53.6234 91.8222 53.219C91.8195 53.1097 91.7749 53.0059 91.7328 52.9048C91.5014 52.3829 91.2412 51.8747 90.952 51.3829C90.6628 50.8938 90.3132 50.4785 90.1528 49.9266C89.3011 49.9239 88.4467 49.9813 87.6028 50.096C87.5581 50.1015 87.5082 50.1097 87.4766 50.1479C87.4477 50.1834 87.4451 50.2326 87.4477 50.2791C87.4582 50.9075 87.6843 51.5113 87.9288 52.0879Z" fill="#0F4573"/>
<path d="M92.7739 54.208C93.3128 54.2408 93.8386 54.2135 94.3696 54.1397C94.7429 54.0878 95.5815 54.0687 95.8129 53.7354C95.847 54.3228 95.6735 54.9977 95.6052 55.5879C95.5184 56.3092 95.4343 57.0305 95.3475 57.7546C95.3475 57.7819 93.8727 57.5469 93.7702 57.5278C93.0341 57.3912 92.3769 57.2163 91.6855 56.9212C91.6671 56.913 91.6487 56.9048 91.6408 56.8884C91.6303 56.8666 91.6382 56.8392 91.6461 56.8174C91.8301 56.2846 92.0141 55.7518 92.1981 55.2217C92.2928 54.9376 92.3874 54.1834 92.7739 54.208Z" fill="#0F4573"/>
<path d="M90.2737 48.8282C90.6128 48.391 90.9809 48.0003 91.3884 47.6424C91.6749 47.3883 92.248 46.7517 92.6423 46.7954C92.2427 46.3773 91.646 46.0576 91.1754 45.7188C90.6023 45.3035 90.0266 44.8855 89.4535 44.4702C89.4351 44.4511 88.6149 45.7489 88.5623 45.8391C88.168 46.5003 87.8551 47.1232 87.6054 47.8555C87.6001 47.8746 87.5922 47.8938 87.6001 47.9129C87.608 47.9375 87.6317 47.9484 87.6553 47.9566C88.1601 48.1697 88.6622 48.3828 89.1669 48.596C89.4298 48.7107 90.0318 49.1397 90.2737 48.8282Z" fill="#0F4573"/>
<path d="M92.3505 48.1806C92.574 48.9975 93.0603 49.8145 93.3784 50.5877C93.7255 51.4293 94.2302 52.4566 94.9163 53.0495C94.9531 53.0796 94.9926 53.1124 95.0373 53.1178C95.0872 53.1233 95.1372 53.0987 95.1819 53.0741C96.1125 52.555 97.0484 52.044 97.9816 51.5276C98.468 51.2571 98.9569 50.9866 99.4407 50.7107C99.7588 50.5303 100.479 50.2899 100.653 49.9456C100.8 49.6533 100.637 49.0768 100.574 48.7762C100.479 48.3062 100.324 47.8527 100.132 47.4182C99.7377 46.5357 99.1751 45.7406 98.5337 45.0357C98.2971 44.7734 97.9396 44.3991 97.5584 44.4127C97.1614 44.4264 96.6356 44.839 96.2834 45.0248C95.3633 45.5111 94.451 46.0193 93.5677 46.574C93.0393 46.9046 92.1297 47.2461 92.3085 48.0248C92.3243 48.0767 92.3374 48.1286 92.3505 48.1806Z" fill="#0D3B5E"/>
<path d="M90.5779 51.8821C89.5688 49.6372 89.8202 47.298 91.1396 46.6573C92.459 46.0167 94.3466 47.3171 95.3558 49.562C96.3649 51.8069 96.1134 54.1461 94.7941 54.7868C93.4747 55.4274 91.5871 54.127 90.5779 51.8821Z" fill="#0D3B5E"/>
<path d="M91.4094 51.4868C91.9746 52.7464 93.0341 53.4759 93.7728 53.1153C94.5115 52.7573 94.6534 51.4458 94.0882 50.1862C93.523 48.9266 92.4636 48.1971 91.7249 48.5578C90.9861 48.9184 90.8442 50.2299 91.4094 51.4868Z" fill="#F5E663"/>
<path d="M91.5119 50.2435C92.2427 51.4074 92.9709 52.5714 93.7018 53.7353C94.1434 53.2107 94.6193 52.7353 95.0662 52.2107C95.3054 51.9293 95.5788 51.6506 95.7891 51.3446C95.9784 51.0686 95.9258 50.9293 95.8391 50.5932C95.6866 50.0112 95.4368 49.4648 95.124 48.9593C94.9163 48.6259 94.38 47.6423 93.991 47.5385C93.7675 47.4784 93.2812 47.7653 93.063 47.8472C92.7449 47.9647 92.4294 48.0877 92.1166 48.2134C91.9036 48.3008 90.5708 48.7352 90.718 48.9729C90.9809 49.3964 91.2464 49.82 91.5119 50.2435Z" fill="#0F4573"/>
<path d="M0.999425 45.5103H0.0267334L0.0267334 41.196H0.999425L0.999425 45.5103Z" fill="#0D3B5E"/>
<path d="M4.38675 47.2241H3.41406L3.41406 41.1939H4.38675L4.38675 47.2241Z" fill="#0D3B5E"/>
<path d="M9.17268 52.0879C8.74943 53.0879 8.26046 54.066 7.6453 54.9513C7.6453 55.2355 7.07483 55.7218 6.90395 55.9267C6.59111 55.4377 6.27827 54.9458 5.96806 54.4568C5.76564 54.1371 5.27141 53.6234 5.2793 53.219C5.28193 53.1097 5.32661 53.0059 5.36867 52.9048C5.60001 52.3829 5.86028 51.8747 6.14946 51.3829C6.43864 50.8938 6.78827 50.4785 6.94863 49.9266C7.80039 49.9239 8.65479 49.9813 9.49866 50.096C9.54335 50.1015 9.59329 50.1097 9.62484 50.1479C9.65376 50.1834 9.65638 50.2326 9.65375 50.2791C9.64324 50.9075 9.41717 51.5113 9.17268 52.0879Z" fill="#0F4573"/>
<path d="M4.32769 54.208C3.78877 54.2408 3.263 54.2135 2.73197 54.1397C2.35867 54.0878 1.52004 54.0687 1.28869 53.7354C1.25452 54.3228 1.42804 54.9977 1.49639 55.5879C1.58314 56.3092 1.66726 57.0305 1.75401 57.7546C1.75401 57.7819 3.22882 57.5469 3.33135 57.5278C4.06743 57.3912 4.72465 57.2163 5.41605 56.9212C5.43445 56.913 5.45287 56.9048 5.46075 56.8884C5.47127 56.8666 5.46338 56.8392 5.45549 56.8174C5.27147 56.2846 5.08744 55.7518 4.90341 55.2217C4.80877 54.9376 4.71413 54.1834 4.32769 54.208Z" fill="#0F4573"/>
<path d="M6.82771 48.8282C6.48859 48.391 6.12055 48.0003 5.71307 47.6424C5.42652 47.3883 4.85079 46.7517 4.45908 46.7954C4.85867 46.3773 5.45544 46.0576 5.92601 45.7188C6.4991 45.3035 7.07483 44.8855 7.64793 44.4702C7.66633 44.4511 8.48654 45.7489 8.53912 45.8391C8.93345 46.5003 9.2463 47.1232 9.49604 47.8555C9.5013 47.8746 9.50919 47.8938 9.5013 47.9129C9.49342 47.9375 9.46975 47.9484 9.44609 47.9566C8.94134 48.1697 8.43923 48.3828 7.93448 48.596C7.67159 48.7107 7.06957 49.1397 6.82771 48.8282Z" fill="#0F4573"/>
<path d="M4.75095 48.1806C4.5275 48.9975 4.04114 49.8145 3.72305 50.5877C3.37603 51.4293 2.87129 52.4566 2.18515 53.0495C2.14835 53.0796 2.10891 53.1124 2.06422 53.1178C2.01427 53.1233 1.96433 53.0987 1.91963 53.0741C0.989009 52.555 0.0531188 52.044 -0.880136 51.5276C-1.36648 51.2571 -1.85545 50.9866 -2.33916 50.7107C-2.65726 50.5303 -3.37757 50.2899 -3.55108 49.9456C-3.6983 49.6533 -3.53531 49.0768 -3.47221 48.7762C-3.37757 48.3062 -3.22247 47.8527 -3.03056 47.4182C-2.63623 46.5357 -2.07364 45.7406 -1.4322 45.0357C-1.1956 44.7734 -0.838062 44.3991 -0.456873 44.4127C-0.0599111 44.4264 0.46586 44.839 0.81813 45.0248C1.73824 45.5111 2.65047 46.0193 3.53377 46.574C4.06218 46.9046 4.97177 47.2461 4.79301 48.0248C4.77723 48.0767 4.7641 48.1286 4.75095 48.1806Z" fill="#0D3B5E"/>
<path d="M2.30635 54.7777C0.986983 54.137 0.735515 51.7978 1.74467 49.553C2.75382 47.3081 4.64144 46.0076 5.96081 46.6483C7.28017 47.289 7.53165 49.6282 6.5225 51.8731C5.51335 54.1179 3.62571 55.4184 2.30635 54.7777Z" fill="#0D3B5E"/>
<path d="M5.69212 51.4868C5.1269 52.7464 4.06747 53.4759 3.32875 53.1153C2.59003 52.7573 2.44807 51.4458 3.01328 50.1862C3.57849 48.9266 4.63794 48.1971 5.37666 48.5578C6.11538 48.9184 6.25733 50.2299 5.69212 51.4868Z" fill="#F5E663"/>
<path d="M5.58954 50.2435C4.85871 51.4074 4.1305 52.5714 3.39967 53.7353C2.95802 53.2107 2.48219 52.7353 2.03528 52.2107C1.79605 51.9293 1.52264 51.6506 1.31233 51.3446C1.12305 51.0686 1.17563 50.9293 1.26238 50.5932C1.41486 50.0112 1.66461 49.4648 1.97745 48.9593C2.18513 48.6259 2.72142 47.6423 3.1105 47.5385C3.33395 47.4784 3.82029 47.7653 4.03849 47.8472C4.35658 47.9647 4.67204 48.0877 4.98488 48.2134C5.19782 48.3008 6.53067 48.7352 6.38345 48.9729C6.12056 49.3964 5.85505 49.82 5.58954 50.2435Z" fill="#0F4573"/>
<path d="M47.4983 46.8569H46.5256V41.1956H47.4983V46.8569Z" fill="#0D3B5E"/>
<path d="M50.8855 47.2244H49.9128V41.1942H50.8855V47.2244Z" fill="#0D3B5E"/>
<path d="M53.9609 57.4541C53.0224 57.9459 52.0471 58.3776 51.0297 58.6536C50.8562 58.8722 50.1175 58.8722 49.8598 58.9159C49.9177 58.3312 49.9781 57.7465 50.036 57.1618C50.0754 56.782 50.007 56.0579 50.262 55.7519C50.3304 55.6699 50.4277 55.618 50.5249 55.5688C51.0218 55.3175 51.5344 55.0989 52.0576 54.9103C52.5807 54.7245 53.1039 54.6344 53.5639 54.3147C54.2238 54.8748 54.8468 55.4841 55.4278 56.1317C55.4594 56.1672 55.4935 56.2054 55.4935 56.2546C55.4935 56.3011 55.4646 56.3393 55.4357 56.3749C55.0466 56.8557 54.5024 57.1699 53.9609 57.4541Z" fill="#0F4573"/>
<path d="M48.9266 55.8885C48.4902 55.5552 48.1011 55.1891 47.7383 54.7819C47.4833 54.4951 46.8445 53.9267 46.8708 53.5142C46.4844 53.9459 46.2057 54.5798 45.8981 55.0825C45.5222 55.6973 45.1463 56.3093 44.7703 56.9241C44.7546 56.9459 46.0375 57.7383 46.1242 57.7929C46.7762 58.1755 47.3887 58.4733 48.1038 58.7001C48.1222 58.7055 48.1406 58.711 48.159 58.7055C48.18 58.6973 48.1905 58.67 48.1984 58.6482C48.3824 58.1154 48.5664 57.5853 48.7505 57.0525C48.8504 56.7683 49.2368 56.1262 48.9266 55.8885Z" fill="#0F4573"/>
<path d="M54.145 53.3884C54.1529 52.8256 54.1056 52.2846 54.011 51.7354C53.9452 51.3501 53.89 50.4785 53.5614 50.2545C54.124 50.1944 54.7812 50.3446 55.3517 50.3911C56.0483 50.4485 56.7476 50.5058 57.4443 50.5659C57.4706 50.5659 57.3076 52.107 57.2944 52.2135C57.1945 52.984 57.0552 53.6726 56.8002 54.4021C56.7949 54.4212 56.7871 54.4403 56.7713 54.4513C56.7503 54.4649 56.724 54.4567 56.7029 54.4485C56.1824 54.2819 55.6645 54.1125 55.144 53.9431C54.868 53.8556 54.1398 53.7901 54.145 53.3884Z" fill="#0F4573"/>
<path d="M52.9384 51.5169C52.2654 52.0005 51.39 52.3092 50.6723 52.6945C49.8889 53.1153 48.8715 53.5743 47.9777 53.577C47.9303 53.577 47.883 53.5743 47.8436 53.5497C47.8015 53.5197 47.7779 53.4677 47.7595 53.4186C47.3572 52.4021 46.9471 51.3912 46.5449 50.3748C46.3346 49.8447 46.1243 49.3146 45.9192 48.7818C45.7852 48.4321 45.3724 47.7709 45.4513 47.3911C45.517 47.0687 45.9955 46.7326 46.2268 46.5386C46.587 46.2408 46.9839 45.9894 47.3993 45.7845C48.2432 45.3637 49.1633 45.1233 50.0913 45.0003C50.4357 44.9566 50.9378 44.902 51.2243 45.1643C51.5214 45.4348 51.6739 46.1015 51.8342 46.4813C52.247 47.4649 52.6387 48.4594 52.9831 49.4731C53.1881 50.077 53.6823 50.9431 53.0672 51.424C53.0225 51.454 52.9804 51.4868 52.9384 51.5169Z" fill="#0D3B5E"/>
<path d="M52.0418 55.5414C49.8888 56.607 47.6358 56.3638 47.0101 54.9977C46.3844 53.6315 47.6227 51.6615 49.7731 50.5959C51.9261 49.5303 54.1791 49.7735 54.8048 51.1397C55.4331 52.5058 54.1949 54.4758 52.0418 55.5414Z" fill="#0D3B5E"/>
<path d="M51.6397 54.6918C50.433 55.2902 49.1712 55.1535 48.8189 54.3885C48.4693 53.6235 49.1607 52.5169 50.3673 51.9212C51.574 51.3229 52.8358 51.4595 53.1881 52.2245C53.5404 52.9896 52.8464 54.0934 51.6397 54.6918Z" fill="#F5E663"/>
<path d="M52.3258 53.6645C51.0508 54.0798 49.7758 54.4979 48.4982 54.9132C48.4798 54.2165 48.4009 53.5361 48.3772 52.8339C48.3641 52.4569 48.3247 52.0634 48.3483 51.6891C48.3693 51.3503 48.4982 51.2765 48.7689 51.077C49.2421 50.73 49.7705 50.4705 50.32 50.2874C50.6828 50.1672 51.7001 49.7655 52.0629 49.9404C52.2706 50.0415 52.473 50.5852 52.5913 50.7902C52.7648 51.0907 52.9331 51.394 53.0987 51.7C53.2118 51.9077 53.9715 53.1235 53.7139 53.211C53.2512 53.3612 52.7885 53.5115 52.3258 53.6645Z" fill="#0F4573"/>
<path d="M47.2335 27.2922V27.2539C47.244 27.2594 47.2545 27.2676 47.265 27.273C47.2755 27.2676 47.286 27.2594 47.2965 27.2539V27.2922C66.2482 38.2104 119.92 41.164 119.92 41.164H47.5568H46.9653H-25.3974C-25.3895 41.164 28.2792 38.2132 47.2335 27.2922Z" fill="#82BEFF"/>
<path d="M68.3772 78.5466C68.8254 77.631 69.2767 76.7187 69.7249 75.8032C69.8612 75.5301 70.0247 75.2699 70.0792 74.9615C70.0823 74.9519 70.0823 74.9391 70.0823 74.9262C70.1035 74.862 70.0974 74.7913 70.055 74.7399C70.049 74.727 70.0399 74.7142 70.0277 74.7045C69.2252 74.1681 68.4044 73.6284 67.5837 73.1048C67.511 73.0598 67.4171 73.0823 67.3717 73.1594C67.3596 73.1787 67.3566 73.1947 67.3505 73.214C67.3202 73.2654 67.299 73.3232 67.2808 73.3618C67.2748 73.3746 67.2657 73.3907 67.2596 73.4035C67.2445 73.4292 67.2263 73.4646 67.2142 73.4999L65.8059 76.3654C65.7726 76.3364 65.7363 76.3075 65.6908 76.285C65.2154 76.0666 64.5461 76.179 64.1281 76.4874C63.9737 76.6031 63.7586 76.8697 63.795 77.0914C63.8313 77.3259 64.1251 77.4929 64.3189 77.5507C64.5521 77.6182 64.7974 77.5957 65.0367 77.5572C65.2214 77.525 65.4062 77.4833 65.5697 77.3901C65.706 77.3098 65.8241 77.1556 65.8938 76.9853C66.2845 76.1919 66.6751 75.3984 67.0658 74.605C67.1052 74.6307 67.1415 74.6531 67.1688 74.6724C67.3505 74.8106 67.5322 74.9455 67.7139 75.0836C68.1319 75.3984 68.5862 75.6811 69.0162 75.9831C69.0586 76.0152 69.1222 76.057 69.1889 76.0955L68.2894 77.9234C68.256 77.8945 68.2197 77.8655 68.1743 77.8431C67.6988 77.6246 67.0265 77.737 66.6115 78.0454C66.4571 78.1611 66.242 78.4277 66.2784 78.6494C66.3147 78.8839 66.6085 79.0509 66.8023 79.1087C67.0355 79.1762 67.2809 79.1537 67.5201 79.1152C67.7049 79.083 67.8896 79.0413 68.0531 78.9481C68.1894 78.871 68.3075 78.7136 68.3772 78.5466ZM67.2112 74.303C67.2203 74.2837 67.2324 74.2612 67.2415 74.242C67.3626 73.9946 67.505 73.7601 67.5716 73.4903C67.6019 73.5095 67.6322 73.5288 67.6534 73.5449C67.8351 73.683 68.0168 73.8179 68.1985 73.9561C68.6164 74.2709 69.0707 74.5568 69.5008 74.8555C69.5553 74.8941 69.6371 74.9519 69.7249 74.9969C69.7158 75.0161 69.7037 75.0354 69.6946 75.0579L69.3706 75.7164C68.6619 75.2442 67.938 74.7688 67.2112 74.303Z" fill="#FF7A5C"/>
<path d="M65.1369 66.6456C65.0537 66.5165 64.9397 66.4104 64.8258 66.3078C64.7209 66.2124 64.6033 66.1611 64.4712 66.1098C64.4477 66.101 64.2017 65.9772 64.1963 66.0037C64.1909 66.032 64.1854 66.0709 64.1782 66.1151L64.1529 66.2725C64.1511 66.2849 64.1474 66.2972 64.1456 66.3078C64.1402 66.3308 64.1348 66.3591 64.1348 66.3892L63.7513 68.808C63.7187 68.7956 63.6826 68.785 63.641 68.7815C63.2159 68.7479 62.722 69.0007 62.476 69.3314C62.3838 69.4551 62.2843 69.7009 62.3675 69.8512C62.4543 70.0103 62.7239 70.0545 62.8885 70.0457C63.0856 70.0333 63.2738 69.9555 63.4492 69.8653C63.5849 69.7964 63.7187 69.7168 63.8237 69.6072C63.9105 69.5152 63.9629 69.3738 63.9702 69.2323H63.9738L64.3898 66.5996C64.549 66.6597 64.7118 66.7127 64.8131 66.8577C64.8873 66.9621 64.9397 67.0947 64.9072 67.222C64.8692 67.3634 64.6883 67.3935 64.5563 67.4023C64.5852 67.4006 64.663 67.4589 64.6973 67.4677C64.7516 67.4837 64.8095 67.489 64.8674 67.4854C64.9361 67.4801 65.0049 67.4642 65.0627 67.4306C65.1007 67.4076 65.1333 67.3793 65.1586 67.3404C65.2888 67.1353 65.2653 66.8436 65.1369 66.6456Z" fill="#FFCD4D"/>
<path d="M69.2036 65.1429L68.8301 64.9883C68.8301 66.0287 68.8301 67.1676 68.8301 68.2081C68.5285 68.0604 67.9827 68.2362 67.7816 68.5104C67.5806 68.7775 67.6596 69.2134 67.9468 69.3821C68.112 69.4805 68.3202 69.4875 68.5141 69.4664C68.5285 69.4664 68.5501 69.4594 68.5716 69.4594C68.8732 69.3961 69.1964 69.1079 69.1964 68.7986V65.1429H69.2036Z" fill="#4CE23F"/>
</g>
<g filter="url(#filter2_df_4724_15559)">
<path fill-rule="evenodd" clip-rule="evenodd" d="M60.3689 21.7261L59.5842 22.0703L60.3689 22.4145L60.744 23.3807L61.1191 22.4145L61.9039 22.0703L61.1192 21.7261L60.744 20.7598L60.3689 21.7261Z" fill="white" fill-opacity="0.52" shape-rendering="crispEdges"/>
</g>
<g filter="url(#filter3_df_4724_15559)">
<path fill-rule="evenodd" clip-rule="evenodd" d="M74.2237 11.8977L75.0084 12.2419L74.2237 12.5861L73.8486 13.5523L73.4734 12.5861L72.6887 12.2419L73.4734 11.8977L73.8486 10.9314L74.2237 11.8977ZM73.8485 12.2419H73.8486V12.2418H73.8485V12.2419Z" fill="white" fill-opacity="0.52" shape-rendering="crispEdges"/>
</g>
<g filter="url(#filter4_df_4724_15559)">
<path fill-rule="evenodd" clip-rule="evenodd" d="M50.535 8.96632L51.3197 9.3105L50.5349 9.6547L50.1598 10.6209L49.7847 9.6547L49 9.3105L49.7847 8.96629L50.1598 8L50.535 8.96632ZM50.1598 9.3105H50.1598V9.31045H50.1598V9.3105Z" fill="white" fill-opacity="0.52" shape-rendering="crispEdges"/>
</g>
<g filter="url(#filter5_df_4724_15559)">
<path fill-rule="evenodd" clip-rule="evenodd" d="M31.535 22.9663L32.3197 23.3105L31.5349 23.6547L31.1598 24.6209L30.7847 23.6547L30 23.3105L30.7847 22.9663L31.1598 22L31.535 22.9663ZM31.1598 23.3105H31.1598V23.3104H31.1598V23.3105Z" fill="white" fill-opacity="0.52" shape-rendering="crispEdges"/>
</g>
<g filter="url(#filter6_df_4724_15559)">
<path fill-rule="evenodd" clip-rule="evenodd" d="M78.8103 26.3125L79.5949 26.6567L78.8102 27.0009L78.4351 27.9671L78.06 27.0009L77.2753 26.6567L78.06 26.3125L78.4351 25.3462L78.8103 26.3125ZM78.4351 26.6567H78.4351V26.6566H78.4351L78.4351 26.6567Z" fill="white" fill-opacity="0.52" shape-rendering="crispEdges"/>
</g>
<g filter="url(#filter7_df_4724_15559)">
<path fill-rule="evenodd" clip-rule="evenodd" d="M88.5434 45.9693L87.7588 46.3134L88.5434 46.6576L88.9186 47.6239L89.2937 46.6576L90.0784 46.3134L89.2937 45.9692L88.9186 45.0029L88.5434 45.9693Z" fill="white" fill-opacity="0.52" shape-rendering="crispEdges"/>
</g>
<g filter="url(#filter8_df_4724_15559)">
<path fill-rule="evenodd" clip-rule="evenodd" d="M64.3953 41.3828L65.18 41.727L64.3953 42.0712L64.0202 43.0375L63.6451 42.0712L62.8604 41.727L63.6451 41.3828L64.0202 40.4165L64.3953 41.3828ZM64.0202 41.727H64.0202V41.727H64.0202L64.0202 41.727Z" fill="white" fill-opacity="0.52" shape-rendering="crispEdges"/>
</g>
<path fill-rule="evenodd" clip-rule="evenodd" d="M102.958 18.45L102.174 18.7941L102.958 19.1383L103.334 20.1046L103.709 19.1383L104.493 18.7941L103.709 18.45L103.334 17.4836L102.958 18.45Z" fill="white" fill-opacity="0.52"/>
<g filter="url(#filter10_df_4724_15559)">
<path fill-rule="evenodd" clip-rule="evenodd" d="M88.5434 7.96633L87.7588 8.3105L88.5434 8.65467L88.9186 9.62095L89.2937 8.65472L90.0784 8.3105L89.2937 7.9663L88.9186 7L88.5434 7.96633Z" fill="white" fill-opacity="0.52" shape-rendering="crispEdges"/>
</g>
<g filter="url(#filter11_df_4724_15559)">
<path fill-rule="evenodd" clip-rule="evenodd" d="M95.7509 28.9334L94.9663 29.2775L95.751 29.6217L96.1261 30.588L96.5012 29.6218L97.2859 29.2775L96.5012 28.9333L96.1261 27.967L95.7509 28.9334Z" fill="white" fill-opacity="0.52" shape-rendering="crispEdges"/>
</g>
<path d="M26.1432 82.7276C25.3225 86.1656 19.972 96.882 11.3941 107.451C9.6663 109.581 9.22947 111.52 11.92 113.136C14.6105 114.752 26.0292 115.496 32.3005 110.189L26.1432 82.7249V82.7276Z" fill="white" stroke="#000001" stroke-width="1.3885" stroke-linecap="round" stroke-linejoin="round"/>
<path d="M43.1934 45.6298C43.1934 45.6298 41.0065 43.0777 37.6148 44.0997C34.1898 45.1355 33.4023 48.354 33.9421 50.4312C34.8408 53.883 38.7834 54.3079 38.7834 54.3079L43.1934 45.6298Z" fill="#0A509D" stroke="#000001" stroke-width="1.3885" stroke-linecap="round" stroke-linejoin="round"/>
<path d="M38.1852 54.2081C38.1852 54.2081 36.0901 51.5782 32.7374 52.5724C29.3513 53.5749 28.5083 56.8406 28.9952 58.9595C29.8048 62.4835 33.6695 62.975 33.6695 62.975L38.1852 54.2081Z" fill="#0A509D" stroke="#000001" stroke-width="1.3885" stroke-linecap="round" stroke-linejoin="round"/>
<path d="M33.6611 63.722C33.6611 63.722 31.5661 61.0921 28.2133 62.0863C24.8273 63.0888 23.9842 66.3546 24.4711 68.4734C25.2808 71.9974 29.1454 72.4889 29.1454 72.4889L33.6611 63.722Z" fill="#0A509D" stroke="#000001" stroke-width="1.3885" stroke-linecap="round" stroke-linejoin="round"/>
<path d="M51.4541 41.3421C51.4541 41.3421 50.5554 38.4179 47.2389 38.0402C43.8862 37.6598 41.9636 40.0564 41.6269 41.9836C41.0649 45.1883 43.0932 46.1935 43.0932 46.1935L51.4513 41.3393L51.4541 41.3421Z" fill="#0A509D" stroke="#000001" stroke-width="1.3885" stroke-linecap="round" stroke-linejoin="round"/>
<path d="M68.3206 65.7409C68.3206 65.7409 72.1657 76.6239 71.0278 90.6728C69.9705 103.716 62.9395 114.974 49.2254 115.016C29.6879 115.077 22.031 104.783 25.865 83.6192C29.4069 64.0719 36.6827 50.9173 44.4371 44.9911C52.0913 39.14 61.0782 39.6204 66.512 42.9167C75.844 48.5763 73.8574 60.023 68.3178 65.7437L68.3206 65.7409Z" fill="white"/>
<path d="M55.8585 74.6801C41.599 73.3971 38.3465 92.4362 37.8568 96.8072C36.9971 110.24 44.7041 110.506 45.2912 113.786C46.0202 114 46.802 114.158 47.645 114.255C56.3565 115.26 61.4036 108.179 64.147 99.4092C66.8904 90.6366 67.4691 75.7242 55.8585 74.6801Z" fill="#0A509D"/>
<path d="M70.1013 72.9387C70.9193 77.4152 71.5982 83.6496 71.0278 90.6754C70.5437 96.6598 68.7853 102.411 65.7164 106.732" stroke="#000001" stroke-width="1.3885" stroke-linecap="round" stroke-linejoin="round"/>
<path d="M24.1762 87.6709C24.9107 86.4796 25.648 84.8383 25.8678 83.6192C29.4097 64.0719 36.6855 50.9173 44.4399 44.9911C52.0941 39.14 61.081 39.6204 66.5149 42.9167C75.8468 48.5763 73.8602 60.023 68.3206 65.7437" stroke="#000001" stroke-width="1.3885" stroke-linecap="round" stroke-linejoin="round"/>
<path d="M47.517 48.0375C46.5432 48.143 45.7447 48.5763 45.1215 49.3344C44.5149 50.0981 44.2645 50.97 44.373 51.9475C44.4815 52.925 44.9128 53.7193 45.6696 54.3247C46.443 54.9356 47.3167 55.1911 48.2905 55.0828C49.2643 54.9745 50.0656 54.5413 50.6722 53.7776C51.2871 53.0223 51.5403 52.153 51.4345 51.1727C51.326 50.1925 50.8892 49.3983 50.1241 48.7846C49.3673 48.1792 48.4992 47.9292 47.517 48.0375Z" fill="#375BA5"/>
<path d="M67.853 46.899C67.0211 46.9962 66.3423 47.4183 65.8164 48.1681C65.3044 48.9234 65.1014 49.7926 65.2043 50.7729C65.3072 51.7532 65.6856 52.5502 66.3395 53.1639C67.0072 53.7832 67.7585 54.047 68.5932 53.9498C69.4279 53.8526 70.1067 53.4277 70.6187 52.6696C71.1362 51.9198 71.3449 51.0561 71.2419 50.0759C71.139 49.0956 70.7578 48.2958 70.0956 47.6766C69.4418 47.0628 68.6933 46.8046 67.853 46.9018V46.899Z" fill="#375BA5"/>
<path d="M50.9504 52.4696C56.7376 52.9694 61.2283 52.7223 65.7162 51.3477C65.7162 51.3477 66.601 58.1568 59.456 58.9733C52.311 59.7897 50.1101 55.2105 50.9504 52.4724V52.4696Z" stroke="#000001" stroke-width="1.3885" stroke-linecap="round" stroke-linejoin="round"/>
<path d="M52.247 52.6555C52.222 54.2662 52.8842 55.0715 53.7912 55.0021C55.2241 54.8938 55.1907 52.8332 55.1907 52.8332C55.5246 54.2661 56.1812 55.0382 57.155 54.9909C58.1289 54.9437 58.7827 54.2106 58.8467 52.6944C56.5123 53.0193 54.3004 52.9499 52.2498 52.6555H52.247Z" stroke="#000001" stroke-width="1.3885" stroke-linecap="round" stroke-linejoin="round"/>
<path d="M65.3351 75.177C63.1733 73.1665 58.1428 72.4722 56.1173 73.4525C54.0945 74.4328 52.2693 81.7363 52.4446 83.297C52.6199 84.8577 55.9921 88.0012 61.3008 88.9732C66.6094 89.9451 72.9643 88.3983 74.4779 80.2062C75.8245 72.9138 71.5314 67.8263 69.0635 65.0271L69.4752 65.5881L65.3323 75.177H65.3351Z" fill="white"/>
<path d="M51.3957 49.7915C51.3957 49.7915 54.0973 49.1834 53.9693 48.3975C53.8414 47.6116 51.5821 46.9812 51.5821 46.9812" stroke="#000001" stroke-width="1.3885" stroke-linecap="round" stroke-linejoin="round"/>
<path d="M64.4586 48.8863C64.4586 48.8863 62.2968 48.3198 62.4108 47.5339C62.5249 46.7481 64.3501 46.0815 64.3501 46.0815" stroke="#000001" stroke-width="1.3885" stroke-linecap="round" stroke-linejoin="round"/>
<circle cx="3.17631" cy="3.17631" r="3.17631" transform="matrix(-0.990475 -0.137696 -0.137696 0.990475 60.6646 60.2188)" fill="#565656"/>
<rect width="5.20914" height="0.825839" transform="matrix(-0.990475 -0.137696 -0.137696 0.990475 59.3198 65.74)" fill="#D9D9D9"/>
<path d="M58.8286 66.5054L54.4241 65.8931L54.494 66.5441L58.5838 67.1127L58.8286 66.5054Z" fill="#565656"/>
<path d="M58.4265 67.0911L54.5883 66.5575L53.6064 77.5357C53.5407 78.2702 54.0629 78.927 54.7934 79.0286V79.0286C55.5258 79.1304 56.2097 78.6406 56.3491 77.9144L58.4265 67.0911Z" fill="#D9D9D9"/>
<rect width="7.11492" height="0.762313" transform="matrix(-0.990475 -0.137696 -0.137696 0.990475 60.6572 63.0398)" fill="#D9D9D9"/>
<path d="M65.3351 75.1772C63.1733 73.1666 58.1428 72.4723 56.1173 73.4526C54.0945 74.4329 52.2693 81.7364 52.4446 83.2971C52.6199 84.8578 55.9921 88.0013 61.3008 88.9733C66.6094 89.9452 72.9643 88.3984 74.4779 80.2063C75.8245 72.9139 71.5314 67.9042 69.0635 65.105" stroke="#000001" stroke-width="1.3885" stroke-linecap="round" stroke-linejoin="round"/>
<path d="M43.978 70.4172C43.978 70.4172 46.2928 72.8805 48.2377 73.6414C51.4318 72.45 55.3577 72.2306 56.5568 74.2634C58.076 76.8321 59.968 83.7746 57.5557 85.8185C55.1434 87.8596 50.5776 90.0173 45.2912 89.9479C42.1194 89.9062 38.2046 88.4927 36.7967 86.1684" fill="white"/>
<path d="M43.978 70.4172C43.978 70.4172 46.2928 72.8805 48.2377 73.6414C51.4318 72.45 55.3577 72.2306 56.5568 74.2634C58.076 76.8321 59.968 83.7746 57.5557 85.8185C55.1434 87.8596 50.5776 90.0173 45.2912 89.9479C42.1194 89.9062 38.2046 88.4927 36.7967 86.1684" stroke="#000001" stroke-width="1.3885" stroke-linecap="round" stroke-linejoin="round"/>
<path d="M55.6916 81.803C55.3716 80.6033 55.7055 79.6814 57.0744 79.1037C55.4467 78.9677 54.9042 78.0679 54.7289 77.1959C54.5536 76.3239 55.0071 75.1521 56.4289 74.6328L56.696 74.5605C57.4639 75.4103 59.4449 80.0119 58.4461 83.6469C57.1328 83.7303 55.9781 82.8721 55.6916 81.803Z" fill="white" stroke="#000001" stroke-width="1.3885" stroke-linecap="round" stroke-linejoin="round"/>
</g>
<defs>
<filter id="filter0_d_4724_15559" x="5.60717" y="21.8423" width="17.9402" height="19.1572" filterUnits="userSpaceOnUse" color-interpolation-filters="sRGB">
<feFlood flood-opacity="0" result="BackgroundImageFix"/>
<feColorMatrix in="SourceAlpha" type="matrix" values="0 0 0 0 0 0 0 0 0 0 0 0 0 0 0 0 0 0 127 0" result="hardAlpha"/>
<feOffset/>
<feGaussianBlur stdDeviation="0.969731"/>
<feComposite in2="hardAlpha" operator="out"/>
<feColorMatrix type="matrix" values="0 0 0 0 0 0 0 0 0 1 0 0 0 0 0.28 0 0 0 0.71 0"/>
<feBlend mode="normal" in2="BackgroundImageFix" result="effect1_dropShadow_4724_15559"/>
<feBlend mode="normal" in="SourceGraphic" in2="effect1_dropShadow_4724_15559" result="shape"/>
</filter>
<filter id="filter1_d_4724_15559" x="73.9731" y="14.9936" width="29.5763" height="31.8003" filterUnits="userSpaceOnUse" color-interpolation-filters="sRGB">
<feFlood flood-opacity="0" result="BackgroundImageFix"/>
<feColorMatrix in="SourceAlpha" type="matrix" values="0 0 0 0 0 0 0 0 0 0 0 0 0 0 0 0 0 0 127 0" result="hardAlpha"/>
<feOffset/>
<feGaussianBlur stdDeviation="0.969731"/>
<feComposite in2="hardAlpha" operator="out"/>
<feColorMatrix type="matrix" values="0 0 0 0 0.926667 0 0 0 0 1 0 0 0 0 0.0833333 0 0 0 0.5 0"/>
<feBlend mode="normal" in2="BackgroundImageFix" result="effect1_dropShadow_4724_15559"/>
<feBlend mode="normal" in="SourceGraphic" in2="effect1_dropShadow_4724_15559" result="shape"/>
</filter>
<filter id="filter2_df_4724_15559" x="57.6448" y="18.8203" width="6.1985" height="6.49977" filterUnits="userSpaceOnUse" color-interpolation-filters="sRGB">
<feFlood flood-opacity="0" result="BackgroundImageFix"/>
<feColorMatrix in="SourceAlpha" type="matrix" values="0 0 0 0 0 0 0 0 0 0 0 0 0 0 0 0 0 0 127 0" result="hardAlpha"/>
<feOffset/>
<feGaussianBlur stdDeviation="0.969731"/>
<feComposite in2="hardAlpha" operator="out"/>
<feColorMatrix type="matrix" values="0 0 0 0 1 0 0 0 0 1 0 0 0 0 1 0 0 0 0.25 0"/>
<feBlend mode="normal" in2="BackgroundImageFix" result="effect1_dropShadow_4724_15559"/>
<feBlend mode="normal" in="SourceGraphic" in2="effect1_dropShadow_4724_15559" result="shape"/>
<feGaussianBlur stdDeviation="0.14546" result="effect2_foregroundBlur_4724_15559"/>
</filter>
<filter id="filter3_df_4724_15559" x="70.7493" y="8.99194" width="6.19862" height="6.49977" filterUnits="userSpaceOnUse" color-interpolation-filters="sRGB">
<feFlood flood-opacity="0" result="BackgroundImageFix"/>
<feColorMatrix in="SourceAlpha" type="matrix" values="0 0 0 0 0 0 0 0 0 0 0 0 0 0 0 0 0 0 127 0" result="hardAlpha"/>
<feOffset/>
<feGaussianBlur stdDeviation="0.969731"/>
<feComposite in2="hardAlpha" operator="out"/>
<feColorMatrix type="matrix" values="0 0 0 0 1 0 0 0 0 1 0 0 0 0 1 0 0 0 0.25 0"/>
<feBlend mode="normal" in2="BackgroundImageFix" result="effect1_dropShadow_4724_15559"/>
<feBlend mode="normal" in="SourceGraphic" in2="effect1_dropShadow_4724_15559" result="shape"/>
<feGaussianBlur stdDeviation="0.14546" result="effect2_foregroundBlur_4724_15559"/>
</filter>
<filter id="filter4_df_4724_15559" x="47.0605" y="6.06054" width="6.19862" height="6.49977" filterUnits="userSpaceOnUse" color-interpolation-filters="sRGB">
<feFlood flood-opacity="0" result="BackgroundImageFix"/>
<feColorMatrix in="SourceAlpha" type="matrix" values="0 0 0 0 0 0 0 0 0 0 0 0 0 0 0 0 0 0 127 0" result="hardAlpha"/>
<feOffset/>
<feGaussianBlur stdDeviation="0.969731"/>
<feComposite in2="hardAlpha" operator="out"/>
<feColorMatrix type="matrix" values="0 0 0 0 1 0 0 0 0 1 0 0 0 0 1 0 0 0 0.25 0"/>
<feBlend mode="normal" in2="BackgroundImageFix" result="effect1_dropShadow_4724_15559"/>
<feBlend mode="normal" in="SourceGraphic" in2="effect1_dropShadow_4724_15559" result="shape"/>
<feGaussianBlur stdDeviation="0.14546" result="effect2_foregroundBlur_4724_15559"/>
</filter>
<filter id="filter5_df_4724_15559" x="28.0605" y="20.0605" width="6.19862" height="6.49977" filterUnits="userSpaceOnUse" color-interpolation-filters="sRGB">
<feFlood flood-opacity="0" result="BackgroundImageFix"/>
<feColorMatrix in="SourceAlpha" type="matrix" values="0 0 0 0 0 0 0 0 0 0 0 0 0 0 0 0 0 0 127 0" result="hardAlpha"/>
<feOffset/>
<feGaussianBlur stdDeviation="0.969731"/>
<feComposite in2="hardAlpha" operator="out"/>
<feColorMatrix type="matrix" values="0 0 0 0 1 0 0 0 0 1 0 0 0 0 1 0 0 0 0.25 0"/>
<feBlend mode="normal" in2="BackgroundImageFix" result="effect1_dropShadow_4724_15559"/>
<feBlend mode="normal" in="SourceGraphic" in2="effect1_dropShadow_4724_15559" result="shape"/>
<feGaussianBlur stdDeviation="0.14546" result="effect2_foregroundBlur_4724_15559"/>
</filter>
<filter id="filter6_df_4724_15559" x="75.3358" y="23.4067" width="6.19862" height="6.49977" filterUnits="userSpaceOnUse" color-interpolation-filters="sRGB">
<feFlood flood-opacity="0" result="BackgroundImageFix"/>
<feColorMatrix in="SourceAlpha" type="matrix" values="0 0 0 0 0 0 0 0 0 0 0 0 0 0 0 0 0 0 127 0" result="hardAlpha"/>
<feOffset/>
<feGaussianBlur stdDeviation="0.969731"/>
<feComposite in2="hardAlpha" operator="out"/>
<feColorMatrix type="matrix" values="0 0 0 0 1 0 0 0 0 1 0 0 0 0 1 0 0 0 0.25 0"/>
<feBlend mode="normal" in2="BackgroundImageFix" result="effect1_dropShadow_4724_15559"/>
<feBlend mode="normal" in="SourceGraphic" in2="effect1_dropShadow_4724_15559" result="shape"/>
<feGaussianBlur stdDeviation="0.14546" result="effect2_foregroundBlur_4724_15559"/>
</filter>
<filter id="filter7_df_4724_15559" x="85.8193" y="43.0635" width="6.1985" height="6.49977" filterUnits="userSpaceOnUse" color-interpolation-filters="sRGB">
<feFlood flood-opacity="0" result="BackgroundImageFix"/>
<feColorMatrix in="SourceAlpha" type="matrix" values="0 0 0 0 0 0 0 0 0 0 0 0 0 0 0 0 0 0 127 0" result="hardAlpha"/>
<feOffset/>
<feGaussianBlur stdDeviation="0.969731"/>
<feComposite in2="hardAlpha" operator="out"/>
<feColorMatrix type="matrix" values="0 0 0 0 1 0 0 0 0 1 0 0 0 0 1 0 0 0 0.25 0"/>
<feBlend mode="normal" in2="BackgroundImageFix" result="effect1_dropShadow_4724_15559"/>
<feBlend mode="normal" in="SourceGraphic" in2="effect1_dropShadow_4724_15559" result="shape"/>
<feGaussianBlur stdDeviation="0.14546" result="effect2_foregroundBlur_4724_15559"/>
</filter>
<filter id="filter8_df_4724_15559" x="60.9209" y="38.477" width="6.19862" height="6.49977" filterUnits="userSpaceOnUse" color-interpolation-filters="sRGB">
<feFlood flood-opacity="0" result="BackgroundImageFix"/>
<feColorMatrix in="SourceAlpha" type="matrix" values="0 0 0 0 0 0 0 0 0 0 0 0 0 0 0 0 0 0 127 0" result="hardAlpha"/>
<feOffset/>
<feGaussianBlur stdDeviation="0.969731"/>
<feComposite in2="hardAlpha" operator="out"/>
<feColorMatrix type="matrix" values="0 0 0 0 1 0 0 0 0 1 0 0 0 0 1 0 0 0 0.25 0"/>
<feBlend mode="normal" in2="BackgroundImageFix" result="effect1_dropShadow_4724_15559"/>
<feBlend mode="normal" in="SourceGraphic" in2="effect1_dropShadow_4724_15559" result="shape"/>
<feGaussianBlur stdDeviation="0.14546" result="effect2_foregroundBlur_4724_15559"/>
</filter>
<filter id="filter10_df_4724_15559" x="85.8193" y="5.06054" width="6.1985" height="6.49977" filterUnits="userSpaceOnUse" color-interpolation-filters="sRGB">
<feFlood flood-opacity="0" result="BackgroundImageFix"/>
<feColorMatrix in="SourceAlpha" type="matrix" values="0 0 0 0 0 0 0 0 0 0 0 0 0 0 0 0 0 0 127 0" result="hardAlpha"/>
<feOffset/>
<feGaussianBlur stdDeviation="0.969731"/>
<feComposite in2="hardAlpha" operator="out"/>
<feColorMatrix type="matrix" values="0 0 0 0 1 0 0 0 0 1 0 0 0 0 1 0 0 0 0.25 0"/>
<feBlend mode="normal" in2="BackgroundImageFix" result="effect1_dropShadow_4724_15559"/>
<feBlend mode="normal" in="SourceGraphic" in2="effect1_dropShadow_4724_15559" result="shape"/>
<feGaussianBlur stdDeviation="0.14546" result="effect2_foregroundBlur_4724_15559"/>
</filter>
<filter id="filter11_df_4724_15559" x="93.0268" y="26.0276" width="6.1985" height="6.49977" filterUnits="userSpaceOnUse" color-interpolation-filters="sRGB">
<feFlood flood-opacity="0" result="BackgroundImageFix"/>
<feColorMatrix in="SourceAlpha" type="matrix" values="0 0 0 0 0 0 0 0 0 0 0 0 0 0 0 0 0 0 127 0" result="hardAlpha"/>
<feOffset/>
<feGaussianBlur stdDeviation="0.969731"/>
<feComposite in2="hardAlpha" operator="out"/>
<feColorMatrix type="matrix" values="0 0 0 0 1 0 0 0 0 1 0 0 0 0 1 0 0 0 0.25 0"/>
<feBlend mode="normal" in2="BackgroundImageFix" result="effect1_dropShadow_4724_15559"/>
<feBlend mode="normal" in="SourceGraphic" in2="effect1_dropShadow_4724_15559" result="shape"/>
<feGaussianBlur stdDeviation="0.14546" result="effect2_foregroundBlur_4724_15559"/>
</filter>
<clipPath id="clip0_4724_15559">
<rect width="100" height="100" fill="white"/>
</clipPath>
<clipPath id="clip1_4724_15559">
<rect width="143.035" height="99.0431" fill="white" transform="matrix(-1 0 0 1 120.035 27.4695)"/>
</clipPath>
</defs>
</svg>
