<svg width="30" height="30" viewBox="0 0 30 30" fill="none" xmlns="http://www.w3.org/2000/svg">
<circle cx="14.9999" cy="15.0001" r="15" fill="#555555"/>
<circle cx="14.9999" cy="15.0001" r="8" fill="white"/>
<path d="M19.7782 13.2167C20.2201 13.2621 20.5825 13.4485 20.8653 13.7748C21.1406 14.1034 21.2542 14.4787 21.2049 14.8994C21.1557 15.32 20.96 15.6618 20.6166 15.9224C20.2655 16.1853 19.8691 16.2952 19.4271 16.2486C18.9814 16.202 18.6216 16.0156 18.3463 15.6869C18.0673 15.3619 17.9524 14.9878 18.0003 14.5659C18.0496 14.144 18.2478 13.8022 18.5951 13.5381C18.9385 13.2776 19.3324 13.17 19.7782 13.2167Z" fill="#385DA4"/>
<path d="M10.5494 12.7255C10.927 12.7673 11.235 12.949 11.4737 13.2716C11.706 13.5967 11.7982 13.9708 11.7515 14.3926C11.7047 14.8145 11.533 15.1575 11.2363 15.4216C10.9333 15.6881 10.5924 15.8017 10.2136 15.7598C9.83477 15.718 9.52668 15.5352 9.29435 15.2089C9.0595 14.8862 8.9648 14.5145 9.01152 14.0927C9.05824 13.6708 9.23122 13.3266 9.53173 13.0601C9.82845 12.796 10.1681 12.6848 10.5494 12.7267V12.7255Z" fill="#385DA4"/>
<path d="M12.8537 12.649C12.8373 12.6334 12.8196 12.6191 12.7982 12.6036C12.6214 12.4793 12.4257 12.4315 12.2085 12.4613C11.9913 12.4912 11.8095 12.5904 11.6782 12.7565C11.5469 12.9238 11.4964 13.1115 11.5292 13.3218C11.562 13.5322 11.6643 13.6911 11.8398 13.8106C11.9636 13.8991 12.0974 13.9504 12.2375 13.966C12.3032 13.9708 12.3701 13.9672 12.437 13.9588C12.504 13.9504 12.5671 13.9349 12.6239 13.9134C12.759 13.8596 12.8714 13.7748 12.9598 13.6576C13.0924 13.4951 13.1429 13.3111 13.1113 13.1055L13.0924 12.9836C13.0444 12.8545 12.9661 12.7434 12.8537 12.649Z" fill="#000001"/>
<path d="M17.5862 12.8486C17.566 12.8343 17.5445 12.8187 17.5243 12.8044C17.3425 12.6765 17.1417 12.6275 16.9195 12.6574C16.6935 12.6885 16.5104 12.7901 16.3702 12.9622C16.2351 13.1343 16.1833 13.3267 16.2162 13.5406C16.249 13.7545 16.3563 13.9266 16.5369 14.0545C16.6657 14.1417 16.8008 14.1931 16.9422 14.2086C17.0129 14.217 17.0836 14.2158 17.1569 14.2051C17.225 14.1955 17.2919 14.1776 17.3563 14.1513C17.4864 14.0987 17.5988 14.0127 17.6922 13.8955C17.8273 13.7234 17.8791 13.531 17.8463 13.3171C17.8399 13.2741 17.8336 13.2334 17.8273 13.1952C17.7793 13.0614 17.6998 12.9454 17.5874 12.8474L17.5862 12.8486Z" fill="#000001"/>
<path d="M16.2819 12.1769L17.0988 12.0001" stroke="#000001" stroke-width="0.630116" stroke-linecap="round" stroke-linejoin="round"/>
<path d="M18.2301 15.1443C15.5874 15.4001 13.2351 15.2447 11.1732 14.6782C11.1732 14.6782 11.3739 17.7473 15.0369 17.6935C18.4788 17.6433 18.2301 15.1443 18.2301 15.1443Z" fill="#FEFEFF" stroke="#000001" stroke-width="0.630116" stroke-linecap="round" stroke-linejoin="round"/>
<path d="M17.6354 15.1969C17.6492 15.7658 17.3475 16.0574 16.9333 16.043C16.278 16.0203 16.2919 15.2925 16.2919 15.2925C16.1404 15.8016 15.8424 16.0825 15.3979 16.0765C14.9535 16.0705 14.6492 15.7634 14.6189 15.228C15.6858 15.3176 16.701 15.3236 17.6366 15.1969H17.6354Z" fill="white" stroke="#000001" stroke-width="0.630116" stroke-linecap="round" stroke-linejoin="round"/>
</svg>
