<svg width="106" height="105" viewBox="0 0 106 105" fill="none" xmlns="http://www.w3.org/2000/svg">
<mask id="mask0_3383_307731" style="mask-type:alpha" maskUnits="userSpaceOnUse" x="0" y="0" width="106" height="105">
<rect width="106" height="105" fill="#D9D9D9"/>
</mask>
<g mask="url(#mask0_3383_307731)">
<path d="M53.6652 95.797C52.8192 96.5212 51.5702 96.5212 50.7241 95.797C39.6085 86.282 31.2469 77.4196 25.6395 69.2101C19.7874 60.6424 16.8613 52.7127 16.8613 45.421C16.8613 34.4835 20.4131 25.77 27.5165 19.2804C34.62 12.7908 42.8461 9.54602 52.1947 9.54602C61.5433 9.54602 69.7693 12.7908 76.8728 19.2804C83.9763 25.77 87.528 34.4835 87.528 45.421C87.528 52.7127 84.602 60.6424 78.7499 69.2101C73.1424 77.4196 64.7809 86.282 53.6652 95.797Z" fill="#4FA3FF"/>
</g>
</svg>
