<svg width="430" height="269" viewBox="0 0 430 269" fill="none" xmlns="http://www.w3.org/2000/svg">
<g clip-path="url(#clip0_1948_14991)">
<rect width="430" height="269" fill="url(#paint0_linear_1948_14991)"/>
<circle cx="261.601" cy="93.0018" r="2.40027" fill="#FFD04F"/>
<circle cx="273.602" cy="96.6024" r="2.40027" fill="#FFD04F"/>
<circle cx="285.604" cy="96.0009" r="2.40027" fill="#FFD04F"/>
<circle cx="295.804" cy="93.6014" r="2.40027" fill="#FFD04F"/>
<circle cx="304.205" cy="89.4013" r="2.40027" fill="#FFD04F"/>
<circle cx="315.007" cy="89.4013" r="2.40027" fill="#FFD04F"/>
<circle cx="324.008" cy="95.4013" r="2.40027" fill="#FFD04F"/>
<circle cx="337.809" cy="100.202" r="2.40027" fill="#FFD04F"/>
<circle cx="352.812" cy="100.803" r="2.40027" fill="#FFD04F"/>
<circle cx="365.413" cy="97.202" r="2.40027" fill="#FFD04F"/>
<circle cx="374.414" cy="92.4013" r="2.40027" fill="#FFD04F"/>
<circle cx="381.614" cy="87.0009" r="2.40027" fill="#FFD04F"/>
<circle cx="392.415" cy="91.2011" r="2.40027" fill="#FFD04F"/>
<circle cx="403.817" cy="96.0009" r="2.40027" fill="#FFD04F"/>
<circle cx="418.218" cy="98.4022" r="2.40027" fill="#FFD04F"/>
<circle cx="432.02" cy="95.4013" r="2.40027" fill="#FFD04F"/>
<path d="M255 85.5005C262.101 92.7013 283.203 102.122 310.806 82.2001C322.008 94.6016 352.151 111.964 383.115 82.2001C396.616 92.7013 427.58 107.163 443.422 81C445.022 83.2003 449.962 88.1408 456.923 90.3011" stroke="#222222" stroke-width="0.900103"/>
<g filter="url(#filter0_i_1948_14991)">
<path d="M255.136 82.4756L255 279" stroke="#E5E5E5" stroke-width="2.26579"/>
</g>
<g filter="url(#filter1_i_1948_14991)">
<path d="M379.352 77.9102L379.352 211.457" stroke="#E5E5E5" stroke-width="2.17073"/>
</g>
<path d="M254 68.6899V85.7213L625.195 91.5192L671.866 81.7352V64.7039C654.621 61.201 618.683 52.9631 612.894 48.0349C576.354 32.8153 550.667 6 550.667 6C550.667 6 528.598 21.2195 467.455 23.3937C414.183 25.2881 384.244 13.2474 384.244 13.2474C384.244 13.2474 353.13 40.0627 326.358 50.2091C299.083 60.5458 254 68.6899 254 68.6899Z" fill="white"/>
<path d="M254 85.7208V68.6895L625.195 69.7766V91.5187L254 85.7208Z" fill="#F2F2F2"/>
<path d="M467.456 23.3937C414.183 25.2881 384.244 13.2474 384.244 13.2474C372.088 44.5561 343.965 63.1336 331.423 69.0523V86.8084L346.799 87.1708L439.598 88.6202L485.997 89.345L512.679 89.7074V69.4147C523.654 60.597 546.615 36.1491 550.667 6C550.667 6 528.598 21.2195 467.456 23.3937Z" fill="#B2D7FF"/>
<path d="M485.998 89.3445L439.598 88.6197L346.799 87.1702L331.423 86.9345V69.0518L512.679 69.4141V89.7068L485.998 89.3445Z" fill="#A1C6EF"/>
<path d="M143.004 232.383L126.33 222.775L143.004 213.167C147.052 210.83 149.708 206.675 150.135 202.019L153.013 170.339C153.05 169.986 152.976 169.615 152.79 169.282C152.605 168.948 152.326 168.707 151.992 168.558L123.08 155.203C118.846 153.237 113.889 153.46 109.841 155.797L93.1658 165.405V146.17C93.1658 141.496 90.8818 137.119 87.0566 134.429L61.0417 116.085C60.7446 115.881 60.3918 115.77 60.0205 115.77C59.6491 115.77 59.2777 115.881 58.9992 116.085L32.9657 134.411C29.1405 137.1 26.8751 141.496 26.8751 146.152V165.386L10.2003 155.778C6.15234 153.441 1.21303 153.219 -3.03923 155.185L-31.9509 168.54C-32.2665 168.688 -32.5451 168.929 -32.7493 169.263C-32.935 169.597 -33.0093 169.968 -32.9721 170.32L-30.094 202.001C-29.6669 206.656 -27.0116 210.811 -22.9636 213.148L-6.28877 222.756L-22.9636 232.364C-27.0116 234.702 -29.6669 238.856 -30.094 243.512L-32.9907 275.23C-33.0279 275.582 -32.9536 275.953 -32.7679 276.268C-32.5822 276.602 -32.3037 276.843 -31.9694 276.992L-3.05779 290.347C1.1759 292.313 6.13377 292.09 10.1818 289.753L26.8566 280.145V299.38C26.8566 304.054 29.1405 308.431 32.9657 311.121L58.9992 329.447C59.2963 329.651 59.6491 329.762 60.0205 329.762C60.3918 329.762 60.7632 329.651 61.0417 329.447L87.0752 311.121C90.9004 308.431 93.1658 304.035 93.1658 299.38V280.145L109.841 289.753C113.889 292.09 118.828 292.313 123.08 290.347L151.992 276.992C152.307 276.843 152.586 276.602 152.79 276.268C152.976 275.935 153.05 275.582 153.013 275.23L150.135 243.549C149.708 238.893 147.052 234.739 143.004 232.402V232.383ZM141.816 234.442C145.196 236.389 147.424 239.877 147.777 243.753L150.469 273.579L93.1658 240.526V206.378L113.202 217.934L141.797 234.423L141.816 234.442ZM90.789 206.378V239.153L62.3601 222.756L90.789 206.36V206.378ZM61.1903 187.941L89.6006 204.338L61.1903 220.735V187.96V187.941ZM57.6251 222.775L29.2148 239.172V206.397L57.6251 222.794V222.775ZM58.8135 257.609L30.3846 241.212L58.8135 224.815V257.59V257.609ZM61.1903 224.834L89.6006 241.231L61.1903 257.627V224.852V224.834ZM58.8135 220.735L30.3846 204.338L58.8135 187.941V220.716V220.735ZM147.758 201.815C147.405 205.692 145.177 209.179 141.797 211.127L123.934 221.421L94.3356 204.338L150.451 171.971L147.758 201.797V201.815ZM111.01 157.856C112.83 156.798 114.91 156.242 117.008 156.242C118.772 156.242 120.462 156.613 122.059 157.355L149.262 169.931L93.1472 202.298V168.132L111.01 157.837V157.856ZM90.789 146.189V166.573V202.298L61.1903 185.233V119.108L85.7011 136.358C88.895 138.603 90.789 142.275 90.789 146.17V146.189ZM34.3027 136.377L58.8321 119.108V185.196L29.2334 202.279V146.17C29.2334 142.275 31.146 138.603 34.3212 136.358L34.3027 136.377ZM-2.07365 157.355C-0.47673 156.613 1.21303 156.242 2.97707 156.242C5.09391 156.242 7.15505 156.798 8.9748 157.856L26.838 168.15V202.298L-29.277 169.912L-2.07365 157.336V157.355ZM-21.7937 211.108C-25.1732 209.16 -27.4015 205.673 -27.7543 201.797L-30.4468 171.971L25.6682 204.338L-3.93053 221.402L-21.7752 211.108H-21.7937ZM-27.7543 243.753C-27.4015 239.877 -25.1732 236.389 -21.7937 234.442L2.43857 220.456L26.8566 206.378V240.526L-30.4468 273.579L-27.7543 243.753ZM8.99336 287.713C7.17362 288.77 5.09391 289.326 2.99564 289.326C1.2316 289.326 -0.45816 288.956 -2.05508 288.214L-29.277 275.638L28.0264 242.585L57.6251 259.668L38.6849 270.593L8.9748 287.731L8.99336 287.713ZM29.2148 299.38V278.791L58.8135 261.708V326.442L34.3027 309.192C31.1088 306.947 29.2148 303.275 29.2148 299.38ZM85.7011 309.192L61.1903 326.442V261.708L90.789 278.772V299.361C90.789 303.256 88.8764 306.929 85.7011 309.173V309.192ZM122.077 288.214C120.48 288.956 118.791 289.326 117.027 289.326C114.928 289.326 112.849 288.77 111.029 287.713L81.4489 270.667L62.3787 259.668L91.9774 242.603L149.281 275.656L122.077 288.232V288.214Z" fill="white" fill-opacity="0.08"/>
<path d="M244.44 72.511L227.766 62.9029L244.44 53.2949C248.488 50.9578 251.144 46.8029 251.571 42.1473L254.449 10.4667C254.486 10.1143 254.412 9.74333 254.226 9.40946C254.041 9.07559 253.762 8.83446 253.428 8.68607L224.516 -4.66874C220.282 -6.63486 215.325 -6.41228 211.277 -4.0752L194.602 5.53285V-13.7018C194.602 -18.376 192.318 -22.7534 188.493 -25.4429L162.478 -43.7872C162.181 -43.9912 161.828 -44.1025 161.456 -44.1025C161.085 -44.1025 160.714 -43.9912 160.435 -43.7872L134.402 -25.4614C130.577 -22.7719 128.311 -18.376 128.311 -13.7203V5.51431L111.636 -4.09374C107.588 -6.43084 102.649 -6.65342 98.3968 -4.68729L69.4852 8.66753C69.1695 8.81591 68.891 9.05704 68.6867 9.39091C68.501 9.72478 68.4268 10.0957 68.4639 10.4482L71.3421 42.1288C71.7691 46.7844 74.4245 50.9392 78.4725 53.2763L95.1473 62.8844L78.4725 72.4924C74.4245 74.8295 71.7691 78.9843 71.3421 83.64L68.4453 115.358C68.4082 115.71 68.4825 116.081 68.6681 116.396C68.8538 116.73 69.1324 116.971 69.4666 117.12L98.3782 130.475C102.612 132.441 107.57 132.218 111.618 129.881L128.293 120.273V139.508C128.293 144.182 130.577 148.559 134.402 151.249L160.435 169.574C160.732 169.779 161.085 169.89 161.456 169.89C161.828 169.89 162.199 169.779 162.478 169.574L188.511 151.249C192.336 148.559 194.602 144.163 194.602 139.508V120.273L211.277 129.881C215.325 132.218 220.264 132.441 224.516 130.475L253.428 117.12C253.743 116.971 254.022 116.73 254.226 116.396C254.412 116.062 254.486 115.71 254.449 115.358L251.571 83.6771C251.144 79.0214 248.488 74.8666 244.44 72.5295V72.511ZM243.252 74.5698C246.632 76.5174 248.86 80.0045 249.213 83.8811L251.905 113.707L194.602 80.6537V46.5062L214.638 58.0618L243.234 74.5513L243.252 74.5698ZM192.225 46.5062V79.2811L163.796 62.8844L192.225 46.4876V46.5062ZM162.626 28.0691L191.037 44.4658L162.626 60.8626V28.0876V28.0691ZM159.061 62.9029L130.651 79.2997V46.5247L159.061 62.9215V62.9029ZM160.25 97.7367L131.821 81.34L160.25 64.9432V97.7182V97.7367ZM162.626 64.9618L191.037 81.3585L162.626 97.7553V64.9803V64.9618ZM160.25 60.8626L131.821 44.4658L160.25 28.0691V60.844V60.8626ZM249.194 41.9433C248.841 45.8199 246.613 49.307 243.234 51.2545L225.37 61.5489L195.772 44.4658L251.887 12.099L249.194 41.9247V41.9433ZM212.446 -2.01633C214.266 -3.07358 216.346 -3.63004 218.444 -3.63004C220.208 -3.63004 221.898 -3.25907 223.495 -2.51713L250.698 10.0587L194.583 42.4255V8.25946L212.446 -2.03487V-2.01633ZM192.225 -13.6832V6.7014V42.4255L162.626 25.361V-40.7638L187.137 -23.5139C190.331 -21.2695 192.225 -17.5969 192.225 -13.7018V-13.6832ZM135.739 -23.4953L160.268 -40.7638V25.3239L130.669 42.407V-13.7018C130.669 -17.5969 132.582 -21.2695 135.757 -23.5139L135.739 -23.4953ZM99.3624 -2.51713C100.959 -3.25907 102.649 -3.63004 104.413 -3.63004C106.53 -3.63004 108.591 -3.07358 110.411 -2.01633L128.274 8.27801V42.4255L72.1591 10.0401L99.3624 -2.53568V-2.51713ZM79.6423 51.236C76.2628 49.2884 74.0345 45.8013 73.6817 41.9247L70.9892 12.099L127.104 44.4658L97.5055 61.5303L79.6609 51.236H79.6423ZM73.6817 83.8811C74.0345 80.0045 76.2628 76.5174 79.6423 74.5698L103.875 60.5844L128.293 46.5062V80.6537L70.9892 113.707L73.6817 83.8811ZM110.429 127.841C108.61 128.898 106.53 129.454 104.432 129.454C102.668 129.454 100.978 129.083 99.381 128.341L72.1591 115.766L129.462 82.7126L159.061 99.7956L140.121 110.721L110.411 127.859L110.429 127.841ZM130.651 139.508V118.919L160.25 101.836V166.57L135.739 149.32C132.545 147.075 130.651 143.403 130.651 139.508ZM187.137 149.32L162.626 166.57V101.836L192.225 118.9V139.489C192.225 143.384 190.312 147.057 187.137 149.301V149.32ZM223.513 128.341C221.917 129.083 220.227 129.454 218.463 129.454C216.364 129.454 214.285 128.898 212.465 127.841L182.885 110.795L163.815 99.7956L193.413 82.7311L250.717 115.784L223.513 128.36V128.341Z" fill="white" fill-opacity="0.08"/>
<path d="M315.106 135.396C315.106 135.396 303.162 150.073 298.906 158.107C298.906 158.107 291.061 152.64 287.607 151.697C284.153 150.754 281.315 150.045 276.591 155.242C271.868 160.44 266.902 168.474 265.484 173.196C264.065 177.919 265.959 182.648 273.279 187.838C280.606 193.036 296.579 202.367 306.431 201.835L313.822 184.889L321.582 149.102L315.099 135.403L315.106 135.396Z" fill="white" stroke="#000001" stroke-width="3.53968" stroke-linecap="round" stroke-linejoin="round"/>
<path d="M298.906 158.104C298.906 158.104 300.92 159.721 301.658 160.522L298.906 158.104Z" fill="white"/>
<path d="M298.906 158.104C298.906 158.104 300.92 159.721 301.658 160.522" stroke="#000001" stroke-width="3.53968" stroke-linecap="round" stroke-linejoin="round"/>
<path d="M421.104 184.879C423.196 193.657 436.836 221.021 458.703 248.008C463.108 253.446 464.222 258.396 457.363 262.523C450.504 266.649 421.394 268.55 405.407 254.999L421.104 184.872V184.879Z" fill="white" stroke="#000001" stroke-width="3.53968" stroke-linecap="round" stroke-linejoin="round"/>
<path d="M360.126 261.269C360.126 261.269 361.02 274.5 358.445 280.995C355.87 287.491 350.65 287.554 338.549 287.703C326.448 287.852 321.221 285.86 319.299 280.925C317.377 275.989 319.973 237.444 319.973 237.444L360.126 261.269Z" fill="white" stroke="#000001" stroke-width="3.53968" stroke-linecap="round" stroke-linejoin="round"/>
<path d="M377.639 90.1555C377.639 90.1555 383.214 83.6391 391.86 86.2485C400.591 88.8933 402.599 97.1115 401.223 102.415C398.932 111.229 388.881 112.314 388.881 112.314L377.639 90.1555Z" fill="#0A509D" stroke="#000001" stroke-width="3.53968" stroke-linecap="round" stroke-linejoin="round"/>
<path d="M390.398 112.059C390.398 112.059 395.739 105.344 404.286 107.883C412.919 110.443 415.068 118.781 413.826 124.191C411.762 133.19 401.91 134.445 401.91 134.445L390.398 112.059Z" fill="#0A509D" stroke="#000001" stroke-width="3.53968" stroke-linecap="round" stroke-linejoin="round"/>
<path d="M401.932 136.351C401.932 136.351 407.273 129.636 415.82 132.175C424.452 134.735 426.601 143.073 425.36 148.483C423.296 157.482 413.444 158.737 413.444 158.737L401.932 136.351Z" fill="#0A509D" stroke="#000001" stroke-width="3.53968" stroke-linecap="round" stroke-linejoin="round"/>
<path d="M356.579 79.1995C356.579 79.1995 358.87 71.733 367.325 70.7687C375.872 69.7972 380.773 75.9165 381.632 80.8375C383.064 89.0202 377.894 91.587 377.894 91.587L356.586 79.1924L356.579 79.1995Z" fill="#0A509D" stroke="#000001" stroke-width="3.53968" stroke-linecap="round" stroke-linejoin="round"/>
<path d="M313.58 141.499C313.58 141.499 303.778 169.288 306.679 205.16C309.374 238.465 327.298 267.211 362.259 267.317C412.066 267.473 431.586 241.188 421.812 187.149C412.782 137.238 394.234 103.649 374.466 88.5174C354.953 73.5773 332.043 74.804 318.191 83.2207C294.401 97.6715 299.465 126.9 313.587 141.506L313.58 141.499Z" fill="white"/>
<path d="M294.969 85.6318C294.969 85.6318 283.507 88.3901 284.706 109.669" stroke="#000001" stroke-width="3.53968" stroke-linecap="round" stroke-linejoin="round"/>
<path d="M293.692 93.1349L281.521 87.8027" stroke="#000001" stroke-width="3.53968" stroke-linecap="round" stroke-linejoin="round"/>
<path d="M291.16 102.6L278.074 100.316" stroke="#000001" stroke-width="3.53968" stroke-linecap="round" stroke-linejoin="round"/>
<path d="M345.527 164.878C381.878 161.602 390.17 210.216 391.418 221.377C393.61 255.674 373.963 256.355 372.466 264.729C370.608 265.275 368.615 265.679 366.465 265.928C344.257 268.494 331.391 250.413 324.397 228.021C317.403 205.621 315.928 167.544 345.527 164.878Z" fill="#0A509D"/>
<path d="M309.033 159.879C306.948 171.309 305.217 187.228 306.671 205.167C307.905 220.448 312.388 235.133 320.211 246.166" stroke="#000001" stroke-width="3.53968" stroke-linecap="round" stroke-linejoin="round"/>
<path d="M426.117 197.502C424.245 194.46 422.365 190.269 421.805 187.156C412.776 137.245 394.227 103.656 374.459 88.5242C354.947 73.5841 332.036 74.8108 318.184 83.2275C294.394 97.6784 299.459 126.906 313.581 141.513" stroke="#000001" stroke-width="3.53968" stroke-linecap="round" stroke-linejoin="round"/>
<path d="M347.642 265.417C352.132 266.643 356.997 267.31 362.253 267.324C382.752 267.388 398.122 262.97 408.428 253.986" stroke="#000001" stroke-width="3.53968" stroke-linecap="round" stroke-linejoin="round"/>
<path d="M420.207 247.669C419.356 260.432 417.966 277.103 416.285 280.995C413.483 287.49 407.802 287.554 394.644 287.703C381.48 287.852 375.791 285.86 373.699 280.924C371.606 275.989 372.833 262.077 372.833 262.077" fill="white"/>
<path d="M420.207 247.669C419.356 260.432 417.966 277.103 416.285 280.995C413.483 287.49 407.802 287.554 394.644 287.703C381.48 287.852 375.791 285.86 373.699 280.924C371.606 275.989 372.833 262.077 372.833 262.077" stroke="#000001" stroke-width="3.53968" stroke-linecap="round" stroke-linejoin="round"/>
<path d="M366.615 96.3039C369.098 96.5734 371.134 97.6795 372.722 99.6153C374.269 101.565 374.907 103.792 374.63 106.288C374.354 108.784 373.254 110.811 371.325 112.357C369.353 113.917 367.126 114.57 364.644 114.293C362.14 114.017 360.118 112.91 358.572 110.96C357.004 109.032 356.359 106.812 356.628 104.309C356.905 101.806 358.019 99.7784 359.969 98.2113C361.899 96.6655 364.112 96.0274 366.615 96.3039Z" fill="#375BA5"/>
<path d="M314.772 93.3885C316.893 93.6367 318.624 94.7145 319.964 96.629C321.27 98.5577 321.787 100.777 321.525 103.28C321.262 105.783 320.298 107.818 318.631 109.385C316.929 110.966 315.014 111.64 312.886 111.392C310.744 111.144 309.027 110.059 307.722 108.123C306.403 106.209 305.871 104.003 306.133 101.5C306.396 98.9973 307.367 96.9552 309.056 95.374C310.722 93.8069 312.63 93.1474 314.772 93.3956V93.3885Z" fill="#375BA5"/>
<path d="M329.206 91.7876C329.121 91.6954 329.022 91.5961 328.915 91.504C327.972 90.7169 326.894 90.3765 325.674 90.4829C324.426 90.5892 323.411 91.114 322.624 92.0571C321.837 93.0001 321.496 94.0921 321.61 95.333C321.716 96.5526 322.241 97.5452 323.177 98.3039C323.844 98.857 324.56 99.2044 325.341 99.3392C325.702 99.3817 326.078 99.3888 326.454 99.3534C326.83 99.3179 327.185 99.2471 327.511 99.1478C328.284 98.8783 328.93 98.4103 329.462 97.7437C330.249 96.829 330.589 95.7654 330.483 94.5458L330.419 93.8226C330.199 93.0498 329.795 92.369 329.199 91.7805L329.206 91.7876Z" fill="#000001"/>
<path d="M355.479 94.4267C355.366 94.3345 355.26 94.2423 355.146 94.1501C354.181 93.3418 353.075 92.9873 351.827 93.1007C350.557 93.2142 349.5 93.753 348.67 94.7244C347.862 95.6888 347.507 96.8092 347.62 98.0784C347.734 99.3477 348.273 100.39 349.238 101.198C349.926 101.751 350.663 102.099 351.444 102.234C351.834 102.304 352.231 102.319 352.635 102.283C353.018 102.248 353.394 102.163 353.763 102.028C354.508 101.758 355.16 101.291 355.713 100.624C356.522 99.6596 356.877 98.5393 356.763 97.2701C356.742 97.0148 356.721 96.7737 356.699 96.5468C356.472 95.7456 356.068 95.0436 355.472 94.4267H355.479Z" fill="#000001"/>
<path d="M357.855 107.614C343.101 108.89 331.653 108.259 320.212 104.749C320.212 104.749 317.957 122.136 336.172 124.22C354.386 126.305 359.997 114.612 357.855 107.621V107.614Z" stroke="#000001" stroke-width="3.53968" stroke-linecap="round" stroke-linejoin="round"/>
<path d="M322.27 105.821C321.624 109.884 323 112.16 325.32 112.309C328.98 112.55 329.632 107.331 329.632 107.331C329.959 111.075 331.335 113.259 333.81 113.493C336.286 113.727 338.201 112.103 338.903 108.295C332.895 108.274 327.334 107.303 322.27 105.813V105.821Z" stroke="#000001" stroke-width="3.53968" stroke-linecap="round" stroke-linejoin="round"/>
<path d="M363.892 153.951C363.892 153.951 361.367 195.212 362.771 213.69C362.771 213.69 342.571 215.768 325.47 213.69C325.47 213.69 320.058 180.009 325.47 155.539C337.641 153.468 351.472 153.241 363.892 153.951Z" fill="white" stroke="#000001" stroke-width="3.53968" stroke-linecap="round" stroke-linejoin="round"/>
<path d="M357.012 150.264C357.012 150.264 354.487 190.553 355.891 208.599C355.891 208.599 335.691 210.627 318.589 208.599C318.589 208.599 313.178 175.712 318.589 151.817C330.761 149.796 344.592 149.569 357.012 150.264Z" fill="white" stroke="#000001" stroke-width="3.53968" stroke-linecap="round" stroke-linejoin="round"/>
<path d="M379.233 168.332C370.047 163.581 355.322 163.361 352.258 168.552C348.385 175.111 343.562 192.838 349.712 198.056C355.861 203.268 367.501 208.777 380.978 208.6C389.063 208.494 396.164 207.154 400.49 199.318C403.278 194.27 405.427 187.768 406.661 180.932" fill="white"/>
<path d="M379.233 168.332C370.047 163.581 355.322 163.361 352.258 168.552C348.385 175.111 343.562 192.838 349.712 198.056C355.861 203.268 367.501 208.777 380.978 208.6C389.063 208.494 396.164 207.154 400.49 199.318C403.278 194.27 405.427 187.768 406.661 180.932" stroke="#000001" stroke-width="3.53968" stroke-linecap="round" stroke-linejoin="round"/>
<path d="M354.464 187.809C355.279 184.746 354.428 182.392 350.938 180.917C355.088 180.569 356.471 178.272 356.918 176.045C357.365 173.819 356.209 170.827 352.584 169.501L351.903 169.316C349.945 171.486 344.895 183.235 347.442 192.517C350.79 192.73 353.733 190.539 354.464 187.809Z" fill="white" stroke="#000001" stroke-width="3.53968" stroke-linecap="round" stroke-linejoin="round"/>
<path d="M272.609 194.885C272.718 194.81 272.817 194.741 272.907 194.679L268.809 190.548L263.009 188.954C263.001 189.063 262.992 189.184 262.983 189.316C262.934 189.963 262.863 190.872 262.773 191.921C262.602 193.902 262.362 196.388 262.075 198.545L265.104 200.294C266.851 198.96 268.874 197.507 270.488 196.367C271.341 195.765 272.082 195.25 272.609 194.885Z" fill="#D6C7B9" stroke="black" stroke-width="1.10142"/>
<path d="M262.747 202.085L263.075 201.842C263.39 201.605 263.756 201.327 264.158 201.02L261.912 199.723C261.859 200.105 261.81 200.458 261.767 200.773C261.731 201.028 261.7 201.258 261.672 201.46L261.671 201.46C261.651 201.604 261.646 201.805 261.673 202.001C261.701 202.206 261.756 202.347 261.812 202.421C261.846 202.467 261.871 202.485 261.948 202.48C262.07 202.473 262.324 202.398 262.747 202.085Z" fill="#181818" stroke="black" stroke-width="1.10142"/>
<path d="M290.119 147.929C290.421 147.407 290.202 146.518 289.325 146.012C288.447 145.505 287.568 145.76 287.266 146.282L263.162 188.031C262.861 188.554 263.08 189.443 263.958 189.949C264.835 190.456 265.714 190.201 266.015 189.679L290.119 147.929Z" fill="#F0A71E" stroke="black" stroke-width="1.10142"/>
<path d="M293.925 150.128C294.227 149.605 294.008 148.716 293.131 148.21C292.253 147.703 291.374 147.958 291.072 148.48L266.968 190.23C266.667 190.752 266.886 191.641 267.764 192.148C268.641 192.654 269.52 192.4 269.821 191.877L293.925 150.128Z" fill="#D99007" stroke="black" stroke-width="1.10142"/>
<path d="M297.732 152.326C298.034 151.803 297.815 150.915 296.938 150.409C296.06 149.902 295.181 150.156 294.879 150.679L270.775 192.428C270.474 192.95 270.693 193.839 271.571 194.346C272.448 194.853 273.327 194.598 273.628 194.075L297.732 152.326Z" fill="#F0A71E" stroke="black" stroke-width="1.10142"/>
<path d="M297.424 152.86L298.486 151.021L288.019 144.978L286.957 146.817L297.424 152.86Z" fill="#D6C7B9" stroke="black" stroke-width="1.10142"/>
<path d="M289.734 142.081L289.702 142.063L288.569 144.025L299.035 150.067L300.168 148.105L300.135 148.087L300.454 147.599C300.484 147.553 300.503 147.524 300.52 147.495C301.036 146.6 301.011 145.439 300.445 144.236C299.879 143.036 298.792 141.847 297.301 140.986C295.809 140.125 294.236 139.778 292.914 139.888C291.589 139.999 290.571 140.558 290.054 141.453C290.037 141.482 290.022 141.513 289.997 141.562L289.734 142.081Z" fill="#F01E1E" stroke="black" stroke-width="1.10142"/>
<path d="M296.019 158.913C298.655 162.066 296.606 166.744 293.903 172.016C291.2 177.287 285.551 187.742 283.322 189.597C281.096 191.445 276.113 189.526 272.316 187.263C268.523 184.993 263.78 182.582 263.903 179.022C264.026 175.463 266.763 168.373 269.991 162.094C273.217 155.821 276.147 149.965 281.875 149.866C286.002 149.791 292.834 155.1 296.019 158.913Z" fill="white" stroke="#000001" stroke-width="3.22744" stroke-linecap="round" stroke-linejoin="round"/>
<path d="M281.814 178.647C283.054 175.73 285.309 174.403 289.298 175.373C285.882 172.557 286.141 169.898 287.17 167.872C288.2 165.846 291.122 164.196 295.145 165.373L295.859 165.648C295.722 166.106 295.551 166.602 295.366 167.109C294.273 169.765 292.962 172.642 291.559 175.426C291.38 175.778 291.204 176.122 291.014 176.478C290.691 177.101 290.381 177.694 290.091 178.261C288.353 181.513 286.563 184.481 284.95 186.656C281.885 184.772 280.704 181.242 281.809 178.636L281.814 178.647Z" fill="white" stroke="#000001" stroke-width="3.22744" stroke-linecap="round" stroke-linejoin="round"/>
</g>
<defs>
<filter id="filter0_i_1948_14991" x="253.867" y="82.4746" width="3.15663" height="196.526" filterUnits="userSpaceOnUse" color-interpolation-filters="sRGB">
<feFlood flood-opacity="0" result="BackgroundImageFix"/>
<feBlend mode="normal" in="SourceGraphic" in2="BackgroundImageFix" result="shape"/>
<feColorMatrix in="SourceAlpha" type="matrix" values="0 0 0 0 0 0 0 0 0 0 0 0 0 0 0 0 0 0 127 0" result="hardAlpha"/>
<feOffset dx="0.755263"/>
<feGaussianBlur stdDeviation="1.51053"/>
<feComposite in2="hardAlpha" operator="arithmetic" k2="-1" k3="1"/>
<feColorMatrix type="matrix" values="0 0 0 0 0 0 0 0 0 0 0 0 0 0 0 0 0 0 0.25 0"/>
<feBlend mode="normal" in2="shape" result="effect1_innerShadow_1948_14991"/>
</filter>
<filter id="filter1_i_1948_14991" x="378.266" y="77.9102" width="2.89448" height="133.547" filterUnits="userSpaceOnUse" color-interpolation-filters="sRGB">
<feFlood flood-opacity="0" result="BackgroundImageFix"/>
<feBlend mode="normal" in="SourceGraphic" in2="BackgroundImageFix" result="shape"/>
<feColorMatrix in="SourceAlpha" type="matrix" values="0 0 0 0 0 0 0 0 0 0 0 0 0 0 0 0 0 0 127 0" result="hardAlpha"/>
<feOffset dx="0.723578"/>
<feGaussianBlur stdDeviation="1.44716"/>
<feComposite in2="hardAlpha" operator="arithmetic" k2="-1" k3="1"/>
<feColorMatrix type="matrix" values="0 0 0 0 0 0 0 0 0 0 0 0 0 0 0 0 0 0 0.25 0"/>
<feBlend mode="normal" in2="shape" result="effect1_innerShadow_1948_14991"/>
</filter>
<linearGradient id="paint0_linear_1948_14991" x1="215" y1="0" x2="215" y2="269" gradientUnits="userSpaceOnUse">
<stop stop-color="#54A6FF"/>
<stop offset="0.808991" stop-color="#0073F0"/>
</linearGradient>
<clipPath id="clip0_1948_14991">
<rect width="430" height="269" fill="white"/>
</clipPath>
</defs>
</svg>
