<svg width="15" height="16" viewBox="0 0 15 16" fill="none" xmlns="http://www.w3.org/2000/svg">
<g clip-path="url(#clip0_5456_28298)">
<path d="M12.6466 3.79105C12.9166 2.99439 12.1928 2.22239 11.446 2.51105L2.31785 6.03239C1.56847 6.32172 1.47785 7.41239 2.16722 7.83839L5.08097 9.63772L7.68285 6.86239C7.80072 6.74095 7.9586 6.67375 8.12247 6.67527C8.28634 6.67679 8.4431 6.7469 8.55898 6.87051C8.67486 6.99411 8.74059 7.16132 8.74202 7.33612C8.74344 7.51092 8.68044 7.67932 8.5666 7.80505L5.96472 10.5804L7.65222 13.6884C8.05097 14.4237 9.07347 14.3264 9.34472 13.5277L12.6466 3.79105Z" fill="#2085F2"/>
</g>
<defs>
<clipPath id="clip0_5456_28298">
<rect width="15" height="16" fill="white"/>
</clipPath>
</defs>
</svg>
